<svg id="Layer_1" data-name="Layer 1" xmlns="http://www.w3.org/2000/svg" viewBox="0 0 395.13 56.57"><defs><style>.cls-1{fill:#f3f1ea;}.cls-2{fill:#a2d45e;}</style></defs><title>logo</title><path class="cls-1" d="M647.25,407.27V390.4h7.31a8.44,8.44,0,1,1,0,16.87Zm4.27-3.52h2.24a4.92,4.92,0,1,0,0-9.84h-2.24Z" transform="translate(-485.84 -354.3)"/><path class="cls-1" d="M667.38,389.58a2.2,2.2,0,0,1,2.48,2.12,2.52,2.52,0,0,1-5,0A2.19,2.19,0,0,1,667.38,389.58Zm-2.1,17.69V394.78h4.15v12.49Z" transform="translate(-485.84 -354.3)"/><path class="cls-1" d="M674.37,402.81a2.23,2.23,0,0,0,2.38,1.71c.75,0,1.45-.24,1.45-.82,0-.34-.22-.53-.89-.82l-2.07-.87c-2-.72-3.33-1.95-3.33-3.71,0-2.29,2.29-3.78,5.09-3.78a4.88,4.88,0,0,1,4.74,2.84l-3.11,1.18a1.71,1.71,0,0,0-1.68-1.11c-.68,0-1.18.34-1.18.85s.41.67,1,.89l1.67.67c2.89,1.06,3.61,2.53,3.61,3.86,0,2.51-2.53,3.83-5.37,3.83-2.32,0-4.68-.86-5.35-3.52Z" transform="translate(-485.84 -354.3)"/><path class="cls-1" d="M689.46,407.53c-2.2,0-4.53-.84-4.53-4.48v-5.13h-1.81v-3.14h2.17l.55-3.06h3.21v3.06h3.28v3.14h-3.28v5.35c0,.55.24,1,.79,1s.85-.55.85-1.08a3.15,3.15,0,0,0-.2-1.09h3a3.56,3.56,0,0,1,.36,1.5C693.82,406.06,692.08,407.53,689.46,407.53Z" transform="translate(-485.84 -354.3)"/><path class="cls-1" d="M699.39,397.46a3.66,3.66,0,0,1,4.31-2.87v4.05a6.52,6.52,0,0,0-1.57-.17,2.42,2.42,0,0,0-2.6,2.55v6.25h-4.14V394.78h4Z" transform="translate(-485.84 -354.3)"/><path class="cls-1" d="M707.53,389.58A2.21,2.21,0,0,1,710,391.7a2.52,2.52,0,0,1-5,0A2.19,2.19,0,0,1,707.53,389.58Zm-2.09,17.69V394.78h4.14v12.49Z" transform="translate(-485.84 -354.3)"/><path class="cls-1" d="M718.81,394.52a8.13,8.13,0,0,1,5.21,1.9c-.34.51-1.62,2.22-1.95,2.72a4.63,4.63,0,0,0-3-1.15,3.06,3.06,0,1,0,0,6.1,4.63,4.63,0,0,0,3-1.16c.33.51,1.61,2.22,1.95,2.72a8,8,0,0,1-5.21,1.88c-4.26,0-7.16-2.84-7.16-6.51S714.55,394.52,718.81,394.52Z" transform="translate(-485.84 -354.3)"/><path class="cls-1" d="M731.27,407.53c-2.19,0-4.53-.84-4.53-4.48v-5.13h-1.81v-3.14h2.17l.56-3.06h3.2v3.06h3.28v3.14h-3.28v5.35c0,.55.24,1,.8,1s.84-.55.84-1.08a3.46,3.46,0,0,0-.19-1.09h3a3.57,3.57,0,0,1,.37,1.5C735.64,406.06,733.9,407.53,731.27,407.53Z" transform="translate(-485.84 -354.3)"/><path class="cls-1" d="M751.54,390.13a9.12,9.12,0,0,1,6.22,2.36l-2.07,3a5.87,5.87,0,0,0-4.15-1.64,5,5,0,1,0,0,9.93,5.91,5.91,0,0,0,4.15-1.64l2.07,3a9.12,9.12,0,0,1-6.22,2.36c-5.71,0-9.3-4-9.3-8.7S745.83,390.13,751.54,390.13Z" transform="translate(-485.84 -354.3)"/><path class="cls-1" d="M765.47,407.53a6.53,6.53,0,1,1,7-6.51A6.77,6.77,0,0,1,765.47,407.53Zm0-3.42a3.1,3.1,0,1,0-3-3.09A2.94,2.94,0,0,0,765.47,404.11Z" transform="translate(-485.84 -354.3)"/><path class="cls-1" d="M786.66,407.27h-4.15v-1.64a4.14,4.14,0,0,1-3.68,1.9c-3.67,0-4.44-3-4.44-5.73v-7h4.15v6.78c0,1.42.48,2.67,2,2.67s2-1.28,2-2.7v-6.75h4.15Z" transform="translate(-485.84 -354.3)"/><path class="cls-1" d="M789.45,394.78h4.15v1.64a4.16,4.16,0,0,1,3.71-1.9c3.64,0,4.41,3,4.41,5.76v7h-4.14v-6.75c0-1.21-.46-2.68-2-2.68s-2,1.26-2,2.68v6.75h-4.15Z" transform="translate(-485.84 -354.3)"/><path class="cls-1" d="M810.76,394.52a8.13,8.13,0,0,1,5.21,1.9c-.34.51-1.62,2.22-2,2.72a4.59,4.59,0,0,0-3-1.15,3.06,3.06,0,1,0,0,6.1,4.59,4.59,0,0,0,3-1.16c.34.51,1.62,2.22,2,2.72a8,8,0,0,1-5.21,1.88c-4.27,0-7.16-2.84-7.16-6.51S806.49,394.52,810.76,394.52Z" transform="translate(-485.84 -354.3)"/><path class="cls-1" d="M819.9,389.58a2.13,2.13,0,1,1-2.49,2.12C817.41,390.47,818.35,389.58,819.9,389.58Zm-2.1,17.69V394.78h4.14v12.49Z" transform="translate(-485.84 -354.3)"/><path class="cls-1" d="M824.76,407.27V389.84h4.15v17.43Z" transform="translate(-485.84 -354.3)"/><path class="cls-1" d="M608.22,384.1a75.86,75.86,0,0,0-8.18-3.31,46.8,46.8,0,0,1-10.06-3.3c-2.65-1.33,0-4.22-2.66-4.43-2.87-.21-.89,3.56-3.56,2.68-5.3-2.44,1.11-6.69,2.85-8.47,4.44-4.45,12.89-7.16,20-6.49,2.87.2,7.84,1.07,8.69,2.86,1.81,3.32,3.14,2.2,4.67,3.09.92.65.92,1.11.5,2,.42,1.55,1.11,1.77,2.45.66,2.17,1.76,2.16-.91,2.16-2.46.26-1.34,2.51-.45,2.21-3.56-.22-4-6.21-2.88-4-5.34,2-2-.22-2.22-1.12-2-1.33.22-6,3.78-8.45,2.91-1.12-.45,1.32-4.67-.42-4.67-4,.23.84,2-12.5,2.93a27.18,27.18,0,0,0-18.19,8.49c-2,2-6.21,6.25-9.56,6.26-14.65,0-26.86,2.09-37.13,3-12.42,1.16-21.77,3.18-26.85,7.43-11.57,8.93-24.66,27.2-23.11,28.31,2.94,2,12.88-16.06,21.09-23.64a26.2,26.2,0,0,1,14.85-7.16c4.69,3.54,4.08,10.67-.18,10.23a14.59,14.59,0,0,1-5.81-1.1c-5.28,2.47-12.37,13.83-10.13,15.61,2.45,2,8.83-9.37,16.44-11.83,6.84-2,13.33-5.83,3.74-12-2.94-1.78,1.53-1.35,2.22-1.36,3.06,0,42.88.33,47.13-3,3.34-2.66,16.91,6.85,30.95,9.49,4,.66,3.3,7.11,6,6.66C615.64,391.88,614.24,386.1,608.22,384.1Zm9.09-22.68c.4-1.14,2.23-1.59,4-1.15,1.81.67,3.13,2,2.73,3.12-.49,1.33-2.23,1.78-4,1.12C618.22,364.07,617.09,362.52,617.31,361.42Z" transform="translate(-485.84 -354.3)"/><path class="cls-1" d="M544.63,389c-5.1-2.43-11.52-1.3-13.11.7-2.44,2.69-3.27,6.7-1.51,12,.5,1.78,1.13,2.88,2,2.66.63,0,.9-1.12,1.11-2.67.4-3.34-.23-6.68,1.73-9.79,1.09-1.56,4.25-1.34,8.72-.48,1.53.21,2.86.21,2.85-.23A2.61,2.61,0,0,0,544.63,389Z" transform="translate(-485.84 -354.3)"/><path class="cls-1" d="M621.08,363.17c.49,0,.91,0,.91-.22.22-.44-.21-.67-.7-.9-.41,0-.83,0-.83.23C620.16,362.73,620.66,363,621.08,363.17Z" transform="translate(-485.84 -354.3)"/><path class="cls-1" d="M633.58,386.5a82.07,82.07,0,0,0-16-10.86c-3.37-2-6.93-1.55-10.69,0-.83.22-1.53.65-1.53,1.33s.91.66,1.75.88c1.81-.22,2.72-1.11,6.28-.68,2.22,0,4,.65,6.43,2.43,4,2.65,8,5.75,12,8.42a1.66,1.66,0,0,0,1.75.2C634.28,388,634.06,387.14,633.58,386.5Z" transform="translate(-485.84 -354.3)"/><path class="cls-2" d="M645.81,367.71h4.55l3.38,11.21,3.37-11.21h4.56l-6,16.88h-3.83Z" transform="translate(-485.84 -354.3)"/><path class="cls-2" d="M674.92,372.1v12.49h-4.14v-1.71a4.24,4.24,0,0,1-3.79,2c-3.59,0-6-2.84-6-6.53s2.34-6.48,6-6.48a4.54,4.54,0,0,1,3.81,1.92V372.1ZM668,381.6a2.87,2.87,0,0,0,2.89-3.16c0-2-1.18-3.33-2.94-3.33s-2.79,1.45-2.79,3.21S666.22,381.6,668,381.6Z" transform="translate(-485.84 -354.3)"/><path class="cls-2" d="M677.72,384.59V367.16h4.14v17.43Z" transform="translate(-485.84 -354.3)"/><path class="cls-2" d="M683.94,378.39c0-3.56,2.67-6.55,7-6.55,3.79,0,6.66,2.33,6.66,6.75a3.2,3.2,0,0,1,0,.53h-9.62c.05,1.13,1.35,2.41,3.72,2.41a5.24,5.24,0,0,0,3.42-1.35c.34.33,1.71,2.05,2.05,2.36a7.75,7.75,0,0,1-5.84,2.31C686.64,384.85,683.94,382,683.94,378.39Zm4-1.49h5.69c-.14-1.42-1.54-2-2.77-2S688.2,375.45,688,376.9Z" transform="translate(-485.84 -354.3)"/><path class="cls-2" d="M711.46,384.85a6.53,6.53,0,1,1,7-6.51A6.78,6.78,0,0,1,711.46,384.85Zm0-3.42a3.1,3.1,0,1,0-3-3.09A2.94,2.94,0,0,0,711.46,381.43Z" transform="translate(-485.84 -354.3)"/><path class="cls-2" d="M725.25,372.29h2.65v2.95h-2.6v9.35h-4.15v-9.35h-1.59v-2.95h1.59v-.77c0-3.64,2.48-4.62,4.7-4.62,2.53,0,4.19,1.42,4.19,3.63a3,3,0,0,1-.12.8h-3.06a.71.71,0,0,0,.1-.39.85.85,0,0,0-.87-1c-.63,0-.84.55-.84,1Z" transform="translate(-485.84 -354.3)"/><path class="cls-2" d="M750.29,377.28l2.8-9.57h4.38l-5.32,16.88h-3.33l-2.89-9.43L743,384.59h-3.33l-5.33-16.88h4.39l2.8,9.57,2.84-9h3.08Z" transform="translate(-485.84 -354.3)"/><path class="cls-2" d="M759.3,367.16h4.15v6.58a4.16,4.16,0,0,1,3.71-1.9c3.64,0,4.41,3,4.41,5.76v7h-4.14v-6.75c0-1.42-.46-2.68-2-2.68s-2,1.26-2,2.68v6.75H759.3Z" transform="translate(-485.84 -354.3)"/><path class="cls-2" d="M776.32,366.9A2.2,2.2,0,0,1,778.8,369a2.52,2.52,0,0,1-5,0A2.19,2.19,0,0,1,776.32,366.9Zm-2.1,17.69V372.1h4.15v12.49Z" transform="translate(-485.84 -354.3)"/><path class="cls-2" d="M786.64,384.85c-2.2,0-4.54-.84-4.54-4.48v-5.13h-1.8V372.1h2.17L783,369h3.21v3.06h3.27v3.14h-3.27v5.35c0,.55.24,1,.79,1s.85-.55.85-1.08a3.4,3.4,0,0,0-.2-1.09h3a3.71,3.71,0,0,1,.36,1.5C791,383.38,789.26,384.85,786.64,384.85Z" transform="translate(-485.84 -354.3)"/><path class="cls-2" d="M791.84,378.39c0-3.56,2.68-6.55,7-6.55,3.78,0,6.65,2.33,6.65,6.75a4.78,4.78,0,0,1,0,.53h-9.62c0,1.13,1.35,2.41,3.71,2.41a5.2,5.2,0,0,0,3.42-1.35c.34.33,1.71,2.05,2,2.36a7.73,7.73,0,0,1-5.83,2.31C794.54,384.85,791.84,382,791.84,378.39Zm4-1.49h5.69c-.15-1.42-1.55-2-2.78-2S796.11,375.45,795.87,376.9Z" transform="translate(-485.84 -354.3)"/><path class="cls-2" d="M823.54,384.59v-6.37h-5.81v6.37h-4.27V367.71h4.27v7.09h5.81v-7.09h4.26v16.88Z" transform="translate(-485.84 -354.3)"/><path class="cls-2" d="M837.08,384.85a6.53,6.53,0,1,1,7-6.51A6.78,6.78,0,0,1,837.08,384.85Zm0-3.42a3.1,3.1,0,1,0-3-3.09A2.94,2.94,0,0,0,837.08,381.43Z" transform="translate(-485.84 -354.3)"/><path class="cls-2" d="M850.17,374.78a3.55,3.55,0,0,1,3.47-2.94,3.49,3.49,0,0,1,.84.07v4a6.49,6.49,0,0,0-1.56-.17,2.42,2.42,0,0,0-2.61,2.55v6.25h-4.14V372.1h4Z" transform="translate(-485.84 -354.3)"/><path class="cls-2" d="M858.31,380.13a2.24,2.24,0,0,0,2.39,1.71c.75,0,1.45-.24,1.45-.82,0-.34-.22-.53-.89-.82l-2.08-.87c-2-.72-3.32-1.95-3.32-3.71,0-2.29,2.29-3.78,5.08-3.78a4.88,4.88,0,0,1,4.75,2.84l-3.11,1.18a1.71,1.71,0,0,0-1.69-1.11c-.67,0-1.18.34-1.18.85s.41.67,1,.89l1.66.67c2.89,1.06,3.62,2.53,3.62,3.86,0,2.51-2.53,3.83-5.38,3.83-2.31,0-4.67-.86-5.35-3.52Z" transform="translate(-485.84 -354.3)"/><path class="cls-2" d="M867.35,378.39c0-3.56,2.68-6.55,7-6.55,3.78,0,6.65,2.33,6.65,6.75a4.78,4.78,0,0,1,0,.53h-9.62c0,1.13,1.35,2.41,3.71,2.41a5.2,5.2,0,0,0,3.42-1.35c.34.33,1.72,2.05,2,2.36a7.73,7.73,0,0,1-5.83,2.31C870.05,384.85,867.35,382,867.35,378.39Zm4-1.49h5.69c-.15-1.42-1.55-2-2.78-2S871.62,375.45,871.38,376.9Z" transform="translate(-485.84 -354.3)"/></svg>