<svg xmlns="http://www.w3.org/2000/svg" width="260" height="78" viewBox="0 0 260 78" preserveAspectRatio="xMinYMid" aria-hidden="true" focusable="false"><path d="M2.86,75.17H258V3H2.86Z" fill="#007a38" /><path d="M-.14,0V78H260.14V0ZM255.29,73.05H4.89V49.8h250.4Zm0-28.19H4.89V5h250.4Zm-233-17.53H32.48v6.59h6V17.35h-6V24H22.24v-6.6h-6V33.92h6Zm26.38,3.3H60.68l1.91,3.29h6.76L58.59,17.35h-7.2L40.46,33.92h6.16Zm6.16-10.07,4.07,7H50.53Zm21.6-.08h0l6.94,13.44h6.16l6.86-13.44h.08V33.92h5.64V17.35H93.13L86.62,29.67,80.55,17.35H71.26V33.92h5.12Zm50.84,8.85c0-2.09-2.08-3.73-5.29-3.91v-.09c2.69-.52,4.43-2,4.43-3.9,0-2.08-2.17-4.08-7.73-4.08H106.49V33.92h12.23C125.23,33.92,127.22,31.58,127.22,29.33ZM112.3,20.48h4.25c2.34,0,3.65.43,3.65,1.82s-1.57,1.82-4.08,1.82h-3.73V20.48Zm0,10.41V27.07h5.64c1.47,0,3,.52,3,1.91s-1.48,1.91-3.39,1.91Zm36.18-.35H136.77V17.35h-6V33.92h17.7Zm20.48,0H156.9v-3.3H168V23.86H156.9V20.74h11.8V17.35H150.91V33.92H169Zm10,3.38h6V20.74h8V17.35H171v3.39h8Zm26.29.44c8.68,0,12.32-3.73,12.32-8.68S213.9,17,205.22,17s-12.32,3.73-12.32,8.67S196.63,34.36,205.22,34.36Zm0-14.06c4.6,0,6.08,2.43,6.08,5.3s-1.56,5.29-6.08,5.29-6.07-2.43-6.07-5.29S200.71,20.3,205.22,20.3ZM225.7,22h.09l9.37,11.88h8V17.35h-5.38v12h0l-9.46-12h-7.89V33.92h5.29ZM26,66.55c.7-.87,1-2.52,1-5.38A12,12,0,0,0,26.32,57c-.87-1.38-2.34-2-4.43-2H16.77V68.28h3.82C23.45,68.28,25.1,67.68,26,66.55ZM18.86,56.48h2.77c2.17,0,3.21,1,3.21,3.65v2.69c0,3.12-1,4-4,4h-2ZM34.3,55h2.08V68.28H34.3ZM48.1,68.54c2.69,0,5.11-.86,5.11-3.73,0-4.16-7.46-3.82-7.46-6.68,0-1.39,1.3-1.91,2.52-1.91,2,0,2.6,1,2.52,2.43H53c.18-2.69-1.56-3.9-4.59-3.9-2.78,0-4.86,1.21-4.86,3.55,0,4,7.46,3.65,7.46,6.6,0,1.56-1.3,2.17-3,2.17-1.39,0-2.78-.61-2.78-2.34v-.35h-2C43.24,65.59,43.24,68.54,48.1,68.54Zm14.49-.26h2.16V56.48h4.34V55H58.25v1.47h4.34Zm14-6.16h2.52c.69,0,2.34.09,2.51,1.65.18,1.74.09,3.47.61,4.43h2.17a19.72,19.72,0,0,1-.61-3.47c-.08-2.69-.78-3.21-2.69-3.39h0c1.91-.26,3-1.47,3-3s-1-3.29-4-3.29H74.47V68.28h2.08V62.12Zm0-5.64h3.21a2,2,0,0,1,2.26,2,2.07,2.07,0,0,1-2.26,2.17H76.73V56.48ZM91,55H93V68.28H91Zm14.49,13.53c1,0,4.77,0,4.68-4.16H108a2.46,2.46,0,0,1-2.6,2.77c-1.65,0-3-.34-3-3.64V60c0-2.25.43-2.6.52-2.77a2.82,2.82,0,0,1,2.52-1,3.09,3.09,0,0,1,1.82.6,2.8,2.8,0,0,1,.52,1.91H110c.17-2.6-1-3.9-4.34-3.9s-5.29,1-5.29,4.77v3.73C100.24,68.46,103.36,68.54,105.45,68.54Zm13.88-.26h2.08V56.48h4.34V55H114.9v1.47h4.43Zm25.42.26c1,0,4.77,0,4.68-4.16h-2.16a2.47,2.47,0,0,1-2.61,2.77c-1.65,0-2.95-.34-2.95-3.64V60c0-2.25.44-2.6.52-2.77a2.82,2.82,0,0,1,2.52-1,3.07,3.07,0,0,1,1.82.6,2.75,2.75,0,0,1,.52,1.91h2.17c.17-2.6-1-3.9-4.34-3.9s-5.29,1-5.29,4.77v3.73C139.46,68.46,142.67,68.54,144.75,68.54Zm16.14,0c3.47,0,5.2-1.47,5.2-5.12V59.09c0-2.61-1.73-4.34-5.2-4.34s-5.21,1.65-5.21,4.34v4.33C155.68,67.07,157.42,68.54,160.89,68.54Zm-3-9.54a3,3,0,0,1,6.07,0v4.51c0,2.86-1,3.64-3,3.64s-3-.69-3-3.64Zm20.39,9.54c3.47,0,5.21-1.47,5.21-5.12V55h-2.09v8.5c0,2.86-1.12,3.64-3.12,3.64s-3.12-.69-3.12-3.64V55H173v8.41C173,67.07,174.77,68.54,178.24,68.54Zm14.23-11.8h0l6.59,11.54h2.87V55H200V66.37h0L193.51,55h-2.95V68.28h1.91Zm21.69,11.8c1,0,4.77,0,4.69-4.16h-2.17a2.47,2.47,0,0,1-2.61,2.77c-1.65,0-2.95-.34-2.95-3.64V60c0-2.25.44-2.6.52-2.77a2.82,2.82,0,0,1,2.52-1,3.07,3.07,0,0,1,1.82.6,2.75,2.75,0,0,1,.52,1.91h2.17c.18-2.6-1-3.9-4.34-3.9s-5.29,1-5.29,4.77v3.73C208.87,68.46,212.08,68.54,214.16,68.54ZM225.44,55h2.08V68.28h-2.08Zm17.61,11.8H237V55H234.9V68.28h8.15Z" fill="#fff"/></svg>
