<?xml version="1.0" encoding="UTF-8"?>
<svg width="179px" height="95px" viewBox="0 0 179 95" version="1.1" xmlns="http://www.w3.org/2000/svg" xmlns:xlink="http://www.w3.org/1999/xlink">
    <!-- Generator: Sketch 55 (78076) - https://sketchapp.com -->
    <title>Group 55</title>
    <desc>Created with Sketch.</desc>
    <defs>
        <polygon id="path-1" points="0 95 178.356121 95 178.356121 0.830818182 0 0.830818182"></polygon>
        <polygon id="path-3" points="0.265024272 0.113082788 178.229257 0.113082788 178.229257 23.9888972 0.265024272 23.9888972"></polygon>
        <polygon id="path-5" points="0.265024272 0.190144377 178.229257 0.190144377 178.229257 13.6241261 0.265024272 13.6241261"></polygon>
        <polygon id="path-7" points="0.265024272 0.429442507 178.229257 0.429442507 178.229257 15.8277304 0.265024272 15.8277304"></polygon>
    </defs>
    <g id="Symbols" stroke="none" stroke-width="1" fill="none" fill-rule="evenodd">
        <g id="Desktop-Nav-bar" transform="translate(-297.000000, -14.000000)">
            <g id="Group-55" transform="translate(297.000000, 14.000000)">
                <g id="Group-44">
                    <path d="M114.257264,46.8717045 L113.264075,47.62825 C112.718385,46.9200682 112.060604,46.3828864 111.293337,46.0175682 C110.52607,45.65225 109.683206,45.4682955 108.766483,45.4682955 C107.761997,45.4682955 106.833109,45.7083864 105.97808,46.1877045 C105.122182,46.6670227 104.459186,47.3095682 103.989963,48.1170682 C103.519002,48.9245682 103.28439,49.8331136 103.28439,50.8418409 C103.28439,52.3661591 103.810094,53.6382955 104.861502,54.6591136 C105.91291,55.6790682 107.240638,56.1894773 108.843817,56.1894773 C110.604274,56.1894773 112.077983,55.50375 113.264075,54.1314318 L114.257264,54.8793409 C113.629895,55.6730227 112.846987,56.2862045 111.908541,56.71975 C110.970963,57.1532955 109.923031,57.3700682 108.766483,57.3700682 C106.564609,57.3700682 104.828483,56.6420227 103.558104,55.1850682 C102.490186,53.9561136 101.957531,52.4706591 101.957531,50.7312955 C101.957531,48.9003864 102.604017,47.3605227 103.89525,46.1108409 C105.187351,44.8611591 106.805303,44.23675 108.748235,44.23675 C109.923031,44.23675 110.983997,44.4673409 111.931133,44.9293864 C112.8774,45.3914318 113.653356,46.0391591 114.257264,46.8717045" id="Fill-1" fill="#1D1D1B"></path>
                    <path d="M122.647064,48.7335318 C121.651267,48.7335318 120.796238,49.09885 120.081976,49.83035 C119.366845,50.5609864 119.007976,51.44535 119.007976,52.4817136 C119.007976,53.1510318 119.171335,53.7745773 119.497185,54.35235 C119.823903,54.9309864 120.263583,55.3766227 120.818831,55.69185 C121.374078,56.00535 121.984068,56.1633955 122.647064,56.1633955 C123.310928,56.1633955 123.920918,56.00535 124.475297,55.69185 C125.030544,55.3766227 125.471093,54.9309864 125.797811,54.35235 C126.123661,53.7745773 126.28702,53.1510318 126.28702,52.4817136 C126.28702,51.44535 125.926413,50.5609864 125.208675,49.83035 C124.490937,49.09885 123.637646,48.7335318 122.647064,48.7335318 M122.651408,47.56935 C124.086015,47.56935 125.272976,48.0849409 126.215767,49.1161227 C127.072534,50.0566227 127.501787,51.1707136 127.501787,52.4575318 C127.501787,53.7486682 127.048204,54.8783045 126.142777,55.8447136 C125.236481,56.8111227 124.07385,57.2938955 122.651408,57.2938955 C121.223753,57.2938955 120.058515,56.8111227 119.152219,55.8447136 C118.246792,54.8783045 117.793209,53.7486682 117.793209,52.4575318 C117.793209,51.1767591 118.222462,50.0652591 119.079229,49.1238955 C120.02202,48.0875318 121.211588,47.56935 122.651408,47.56935" id="Fill-3" fill="#1D1D1B"></path>
                    <path d="M131.226899,47.8066773 L132.424287,47.8066773 L132.424287,52.1248591 C132.424287,53.1793591 132.479899,53.9048136 132.595467,54.3020864 C132.765777,54.8686318 133.092496,55.3159955 133.575622,55.6450409 C134.059617,55.9740864 134.633981,56.1373136 135.301321,56.1373136 C135.970399,56.1373136 136.536073,55.9775409 137.001821,55.6571318 C137.468437,55.3375864 137.789073,54.9161318 137.965467,54.3944955 C138.086248,54.0378136 138.146204,53.2812682 138.146204,52.1248591 L138.146204,47.8066773 L139.368792,47.8066773 L139.368792,52.34595 C139.368792,53.6215409 139.218467,54.5827682 138.920423,55.2279045 C138.620641,55.8739045 138.169666,56.3799955 137.569233,56.7461773 C136.967064,57.1106318 136.212831,57.2937227 135.306534,57.2937227 C134.399369,57.2937227 133.64253,57.1106318 133.036015,56.7461773 C132.428632,56.3799955 131.975049,55.8695864 131.676136,55.2158136 C131.377224,54.5603136 131.226899,53.5757682 131.226899,52.2613136 L131.226899,47.8066773 Z" id="Fill-5" fill="#1D1D1B"></path>
                    <path d="M143.691468,47.8066773 L144.888856,47.8066773 L144.888856,49.4639955 C145.367638,48.8300864 145.897686,48.3550864 146.479002,48.0407227 C147.061186,47.7263591 147.6929,47.5691773 148.377618,47.5691773 C149.074502,47.5691773 149.691444,47.7444955 150.229313,48.0959955 C150.768919,48.4474955 151.16689,48.9207682 151.422356,49.5158136 C151.67956,50.1108591 151.807293,51.0366773 151.807293,52.2949955 L151.807293,57.0553591 L150.609905,57.0553591 L150.609905,52.6439045 C150.609905,51.5781773 150.566458,50.8665409 150.476958,50.5098591 C150.338798,49.8984045 150.072905,49.4380864 149.679279,49.1289045 C149.284783,48.8197227 148.772114,48.6659955 148.139531,48.6659955 C147.413973,48.6659955 146.766618,48.9034955 146.193123,49.3793591 C145.619628,49.8560864 145.242512,50.4450864 145.060036,51.1480864 C144.945337,51.6066773 144.888856,52.4461318 144.888856,53.6638591 L144.888856,57.0553591 L143.691468,57.0553591 L143.691468,47.8066773 Z" id="Fill-7" fill="#1D1D1B"></path>
                    <path d="M165.070324,49.7283545 L164.120582,50.3147636 C163.30031,49.2326273 162.181994,48.6911273 160.763897,48.6911273 C159.629072,48.6911273 158.688887,49.0529909 157.939868,49.7784455 C157.191717,50.5021727 156.817208,51.3830818 156.817208,52.4185818 C156.817208,53.0930818 156.989256,53.7261273 157.333353,54.3211727 C157.67745,54.9153545 158.15015,55.3765364 158.752319,55.7047182 C159.351883,56.0329 160.026174,56.1978545 160.772586,56.1978545 C162.139417,56.1978545 163.255125,55.6563545 164.120582,54.5742182 L165.070324,55.1943091 C164.625431,55.8601727 164.028475,56.3766273 163.277717,56.7428091 C162.527829,57.1098545 161.675407,57.2938091 160.716106,57.2938091 C159.245873,57.2938091 158.025892,56.8291727 157.056164,55.8999 C156.086436,54.9706273 155.601572,53.8392636 155.601572,52.5075364 C155.601572,51.6128091 155.828363,50.7802636 156.281946,50.0124909 C156.735528,49.2447182 157.358552,48.6453545 158.15015,48.2152636 C158.943484,47.7843091 159.830664,47.5692636 160.810819,47.5692636 C161.427761,47.5692636 162.021242,47.6625364 162.593868,47.8490818 C163.167363,48.0364909 163.653965,48.2809 164.051936,48.5805818 C164.451645,48.8811273 164.791397,49.2637182 165.070324,49.7283545" id="Fill-9" fill="#1D1D1B"></path>
                    <mask id="mask-2" fill="white">
                        <use xlink:href="#path-1"></use>
                    </mask>
                    <g id="Clip-12"></g>
                    <path d="M168.856087,57.0552727 L170.053476,57.0552727 L170.053476,47.8065909 L168.856087,47.8065909 L168.856087,57.0552727 Z M169.448699,43.9988182 C169.722413,43.9988182 169.954417,44.0946818 170.14732,44.2881364 C170.341092,44.4798636 170.437544,44.7130455 170.437544,44.9842273 C170.437544,45.2510909 170.341092,45.4808182 170.14732,45.6734091 C169.954417,45.866 169.722413,45.9618636 169.448699,45.9618636 C169.182806,45.9618636 168.952539,45.866 168.758767,45.6734091 C168.566733,45.4808182 168.469413,45.2510909 168.469413,44.9842273 C168.469413,44.7130455 168.566733,44.4798636 168.758767,44.2881364 C168.952539,44.0946818 169.182806,43.9988182 169.448699,43.9988182 L169.448699,43.9988182 Z" id="Fill-11" fill="#1D1D1B" mask="url(#mask-2)"></path>
                    <polygon id="Fill-13" fill="#1D1D1B" mask="url(#mask-2)" points="174.027102 57.0552727 175.22449 57.0552727 175.22449 44.2363182 174.027102 44.2363182"></polygon>
                    <polygon id="Fill-14" fill="#1D1D1B" mask="url(#mask-2)" points="4.70987233 1.77330455 8.44801796 1.77330455 8.44801796 17.4051227 27.5766879 17.4051227 27.5766879 1.77330455 31.3130956 1.77330455 31.3130956 39.0253955 27.5766879 39.0253955 27.5766879 21.0634864 8.44801796 21.0634864 8.44801796 39.0253955 4.70987233 39.0253955"></polygon>
                    <path d="M53.2241728,14.19015 C51.2490903,14.19015 49.424333,14.6755136 47.7533767,15.6445136 C46.0815515,16.6143773 44.7512165,17.9754682 43.7623718,19.7295136 C42.7743961,21.4844227 42.2808427,23.33865 42.2808427,25.2939227 C42.2808427,27.2345136 42.7787408,29.0887409 43.773668,30.8583318 C44.7720709,32.6305136 46.1093573,34.0080136 47.7916097,34.99515 C49.4712553,35.9814227 51.2742893,36.4736955 53.2007117,36.4736955 C55.1436437,36.4736955 56.9823039,35.9857409 58.7219058,35.0072409 C60.4623767,34.0296045 61.7996631,32.70565 62.7372408,31.0353773 C63.6756874,29.3668318 64.1440417,27.4866955 64.1440417,25.3958318 C64.1440417,22.2090136 63.091765,19.5446955 60.9906874,17.4028773 C58.8878718,15.2610591 56.2975854,14.19015 53.2241728,14.19015 L53.2241728,14.19015 Z M67.491168,11.47315 L67.491168,39.0248773 L63.923333,39.0248773 L63.923333,34.2869682 C62.4313767,36.0936955 60.7595515,37.45565 58.9061194,38.3711045 C57.0535563,39.2874227 55.0254689,39.7442864 52.8244641,39.7442864 C48.9142699,39.7442864 45.575833,38.3305136 42.8065466,35.5003773 C40.0389981,32.6702409 38.6547893,29.2295136 38.6547893,25.1730136 C38.6547893,21.2028773 40.052901,17.8061955 42.8465175,14.9855591 C45.6383961,12.1640591 49.0002942,10.7528773 52.9252602,10.7528773 C55.1949107,10.7528773 57.2473282,11.2373773 59.0833816,12.2029227 C60.9220417,13.1693318 62.5330417,14.6150591 63.923333,16.5409682 L63.923333,11.47315 L67.491168,11.47315 Z" id="Fill-15" fill="#1D1D1B" mask="url(#mask-2)"></path>
                    <path d="M74.2185267,11.4728045 L77.8445801,11.4728045 L77.8445801,15.5025318 C78.9368277,13.9143045 80.0907694,12.7268045 81.3029296,11.9374409 C82.5176966,11.1480773 83.7811238,10.7533955 85.0966869,10.7533955 C86.0855316,10.7533955 87.1456286,11.0660318 88.2735024,11.6904409 L86.41225,14.6717136 C85.6614927,14.3513045 85.0271723,14.1898045 84.5127646,14.1898045 C83.3171141,14.1898045 82.1631723,14.6768955 81.0509393,15.6476227 C79.9387063,16.6192136 79.0914976,18.1271227 78.511051,20.17135 C78.0661578,21.7414409 77.8445801,24.9178955 77.8445801,29.6981227 L77.8445801,39.0253955 L74.2185267,39.0253955 L74.2185267,11.4728045 Z" id="Fill-16" fill="#1D1D1B" mask="url(#mask-2)"></path>
                    <polygon id="Fill-17" fill="#1D1D1B" mask="url(#mask-2)" points="90.7625583 39.0251364 94.333 39.0251364 94.333 0.830818182 90.7625583 0.830818182"></polygon>
                    <path d="M114.853004,14.2454227 C111.88647,14.2454227 109.337023,15.3344682 107.204664,17.5099682 C105.073174,19.6871955 104.006994,22.3186955 104.006994,25.4061955 C104.006994,27.3977409 104.490989,29.2528318 105.464193,30.9731955 C106.437397,32.6944227 107.748616,34.0226955 109.405669,34.9597409 C111.057509,35.8959227 112.877921,36.36315 114.853004,36.36315 C116.832431,36.36315 118.650237,35.8959227 120.302946,34.9597409 C121.957392,34.0226955 123.270349,32.6944227 124.243552,30.9731955 C125.216756,29.2528318 125.702489,27.3977409 125.702489,25.4061955 C125.702489,22.3186955 124.630227,19.6871955 122.490048,17.5099682 C120.350737,15.3344682 117.807373,14.2454227 114.853004,14.2454227 M114.868645,10.7528773 C119.142921,10.7528773 122.685557,12.2910136 125.493946,15.3655591 C128.051213,18.1697864 129.326805,21.4896045 129.326805,25.3250136 C129.326805,29.1785591 127.977353,32.5432864 125.277582,35.4243773 C122.580417,38.3054682 119.108164,39.7442864 114.868645,39.7442864 C110.608271,39.7442864 107.127329,38.3054682 104.430164,35.4243773 C101.730392,32.5432864 100.38181,29.1785591 100.38181,25.3250136 C100.38181,21.5068773 101.657402,18.1956955 104.215538,15.3906045 C107.023057,12.29965 110.57612,10.7528773 114.868645,10.7528773" id="Fill-18" fill="#1D1D1B" mask="url(#mask-2)"></path>
                    <polygon id="Fill-19" fill="#1D1D1B" mask="url(#mask-2)" points="132.178987 11.4728045 135.87108 11.4728045 144.365759 31.4849864 153.197584 11.4728045 153.893599 11.4728045 162.770609 31.4849864 171.392152 11.4728045 175.069473 11.4728045 163.114706 39.0253955 162.386541 39.0253955 153.566881 19.2904409 144.735055 39.0253955 143.992118 39.0253955"></polygon>
                    <path d="M0.445849029,91.9023091 L1.32694612,83.4075818 C1.3617034,83.0785364 1.37908204,82.8254909 1.37908204,82.6493091 C1.37908204,82.3556727 1.29566456,82.1328545 1.12969854,81.9817182 C0.96633932,81.8297182 0.665688835,81.7476727 0.234698544,81.7373091 L0.317247087,81.4756273 L4.15358204,81.4756273 L4.06929563,81.7373091 C3.5557568,81.7338545 3.20557718,81.8254 3.01701893,82.0136727 C2.82932961,82.2045364 2.69898981,82.6691727 2.62947524,83.4075818 L2.05771796,88.9072182 L5.92446553,82.9343091 C5.92881019,82.8324 5.93228592,82.7451727 5.93228592,82.6743545 C5.93228592,82.3910818 5.84973738,82.1717182 5.68290243,82.0205818 C5.51606748,81.8677182 5.15893641,81.7744455 4.61324709,81.7373091 L4.67146553,81.4756273 L8.7902034,81.4756273 L8.70765485,81.7373091 C8.2288733,81.7433545 7.90910631,81.7848091 7.74314029,81.8608091 C7.62062087,81.9160818 7.52156262,82.0067636 7.43727621,82.1311273 C7.35385874,82.2563545 7.28695097,82.4696727 7.23568398,82.7676273 C7.22351893,82.8539909 7.16182476,83.4360818 7.05320825,84.5121727 C6.94719854,85.5908545 6.78818398,87.0633545 6.57355777,88.9322636 L9.81467427,84.0086727 C10.1674607,83.4689 10.3881694,83.0897636 10.4776694,82.8729909 C10.5689073,82.6570818 10.6149607,82.4731273 10.6149607,82.3219909 C10.6149607,82.1803545 10.5523976,82.0559909 10.4333539,81.9463091 C10.3125723,81.8374909 10.1066354,81.7684 9.81467427,81.7373091 L9.87549951,81.4756273 L12.9098102,81.4756273 L12.835082,81.7373091 C12.566582,81.7580364 12.3337083,81.8236727 12.1251646,81.9342182 C11.9192277,82.0464909 11.6767956,82.2580818 11.3952617,82.5715818 C11.2336403,82.7520818 10.9008393,83.2314 10.4012034,84.0086727 L5.26755291,91.9023091 L4.9877568,91.9023091 L5.81758689,84.0086727 L0.708266505,91.9023091 L0.445849029,91.9023091 Z" id="Fill-20" fill="#1D1D1B" mask="url(#mask-2)"></path>
                    <path d="M15.7082058,86.6921636 C15.7082058,86.2249364 15.5943757,85.8673909 15.3632398,85.6186636 C15.1329728,85.3708 14.8357981,85.2455727 14.4699777,85.2455727 C13.7270408,85.2455727 13.0431913,85.7749818 12.4175602,86.8320727 C11.7901913,87.8891636 11.4791136,88.9410727 11.4791136,89.9834818 C11.4791136,90.4610727 11.5990262,90.8298455 11.844065,91.0880727 C12.0847592,91.3471636 12.3923612,91.4758455 12.7616573,91.4758455 C13.4759194,91.4758455 14.145866,90.9507545 14.7714971,89.8979818 C15.3971282,88.8460727 15.7082058,87.7760273 15.7082058,86.6921636 M16.9420893,87.2207091 C16.9420893,87.9729364 16.742235,88.7173909 16.3416573,89.4549364 C15.9428175,90.1907545 15.386701,90.7737091 14.6689631,91.2063909 C13.953832,91.6373455 13.2604243,91.8523909 12.5852641,91.8523909 C11.8935942,91.8523909 11.333133,91.6330273 10.8977981,91.1943 C10.4624631,90.7555727 10.2443612,90.1881636 10.2443612,89.4920727 C10.2443612,88.7562545 10.4572495,88.0161182 10.8812883,87.2742545 C11.3088029,86.5323909 11.8762155,85.9468455 12.5896087,85.5167545 C13.3003951,85.0849364 13.9903272,84.8690273 14.6550602,84.8690273 C15.3197932,84.8690273 15.8663515,85.0875273 16.2973417,85.5228 C16.7274631,85.9580727 16.9420893,86.5246182 16.9420893,87.2207091" id="Fill-21" fill="#1D1D1B" mask="url(#mask-2)"></path>
                    <path d="M18.2776379,85.2951455 L20.8635796,84.8685091 L19.809565,88.5208273 C20.6932689,87.0241455 21.4970311,85.9774182 22.2191136,85.3806455 C22.6292495,85.0386455 22.9629194,84.8685091 23.2201233,84.8685091 C23.3878272,84.8685091 23.5164291,84.9177364 23.6146184,85.0161909 C23.710201,85.1129182 23.7588612,85.2545545 23.7588612,85.4385091 C23.7588612,85.7692818 23.671968,86.0845091 23.5042641,86.3841909 C23.3800068,86.6087364 23.2079583,86.7210091 22.9837738,86.7210091 C22.8682058,86.7210091 22.7691476,86.6847364 22.6848612,86.6087364 C22.6023126,86.5353273 22.5519146,86.4204636 22.5319291,86.2641455 C22.5223709,86.1700091 22.4980408,86.1061 22.4632835,86.0767364 C22.4233126,86.0370091 22.3755214,86.0162818 22.3199097,86.0162818 C22.2347544,86.0162818 22.1530748,86.0370091 22.0792155,86.0784636 C21.9488757,86.1475545 21.7524971,86.3418727 21.4839971,86.6631455 C21.0686476,87.1554182 20.615934,87.7910545 20.130201,88.5735091 C19.9199194,88.9060091 19.7391816,89.2782364 19.5888563,89.6945091 C19.3777058,90.2662364 19.2577932,90.6108273 19.2299874,90.7256909 L18.9832107,91.6722364 L17.8336136,91.6722364 L19.183934,86.9999636 C19.3438175,86.4567364 19.4228903,86.0689636 19.4228903,85.8375091 C19.4228903,85.7459636 19.3855262,85.6708273 19.3099291,85.6112364 C19.2100019,85.5309182 19.0840068,85.4894636 18.9310748,85.4894636 C18.8337544,85.4894636 18.6538854,85.5119182 18.391468,85.5568273 L18.2776379,85.2951455 Z" id="Fill-22" fill="#1D1D1B" mask="url(#mask-2)"></path>
                    <path d="M27.9173092,80.9832682 L25.8058044,88.35095 L26.6556199,87.6393136 C27.601018,86.8508136 28.2118772,86.2678591 28.4968869,85.8913136 C28.5863869,85.7583136 28.6324403,85.6572682 28.6324403,85.5907682 C28.6324403,85.5415409 28.6159306,85.4983591 28.5863869,85.4543136 C28.5568432,85.4119955 28.4977558,85.3783136 28.4091248,85.3524045 C28.3213626,85.3256318 28.1666927,85.3118136 27.945115,85.3118136 L27.6818286,85.3118136 L27.7643772,85.0492682 L31.0593675,85.0492682 L30.9855083,85.3118136 C30.6083917,85.3325409 30.2816733,85.3955864 30.0079597,85.4983591 C29.7333772,85.6002682 29.4692218,85.7522682 29.2128869,85.9509045 C28.7071684,86.3291773 28.3726296,86.5899955 28.213615,86.7350864 L27.5575714,87.3163136 C27.6679257,87.6738591 27.8034791,88.1764955 27.9651005,88.8199045 C28.2370762,89.8856318 28.4204209,90.5186773 28.5177413,90.7190409 C28.6115859,90.9176773 28.7097752,91.0161318 28.8105714,91.0161318 C28.8965956,91.0161318 28.9956539,90.9755409 29.1103529,90.8900409 C29.3727704,90.7017682 29.6508286,90.3969045 29.9480034,89.9832227 L30.2112898,90.1723591 C29.6629937,90.8572227 29.2424306,91.3089045 28.9504694,91.5265409 C28.6593772,91.7433136 28.3917461,91.8521318 28.1510519,91.8521318 C27.9381636,91.8521318 27.7756733,91.7700864 27.6592364,91.6042682 C27.459382,91.3089045 27.1257121,90.1499045 26.6599646,88.1203591 L25.6155083,89.0081773 L24.851717,91.6716318 L23.6760519,91.6716318 L26.1585908,83.0896773 L26.3653966,82.3599045 C26.3932024,82.2364045 26.4044985,82.1267227 26.4044985,82.0325864 C26.4044985,81.9134045 26.3593141,81.8132227 26.2680762,81.7337682 C26.1759694,81.65345 26.0473675,81.6137227 25.8753189,81.6137227 C25.7632267,81.6137227 25.5842267,81.6387682 25.3400568,81.6879955 L25.312251,81.4263136 L27.9173092,80.9832682 Z" id="Fill-23" fill="#1D1D1B" mask="url(#mask-2)"></path>
                    <path d="M33.8386466,81.88525 C34.050666,81.88525 34.229666,81.9586591 34.3773845,82.1046136 C34.5224961,82.2497045 34.5954864,82.4276136 34.5954864,82.6392045 C34.5954864,82.8464773 34.5216272,83.0217955 34.3730398,83.1720682 C34.2244524,83.31975 34.0463214,83.3931591 33.8386466,83.3931591 C33.6318408,83.3931591 33.4537097,83.31975 33.3042534,83.1720682 C33.155666,83.0217955 33.0818068,82.8464773 33.0818068,82.6392045 C33.0818068,82.4276136 33.1530592,82.2497045 33.3016466,82.1046136 C33.4476272,81.9586591 33.6266272,81.88525 33.8386466,81.88525 L33.8386466,81.88525 Z M34.1349524,84.8691136 L32.5613165,90.1675227 C32.4544379,90.5267955 32.401433,90.73925 32.401433,90.8117955 C32.401433,90.8895227 32.4240252,90.9508409 32.4674718,91.0000682 C32.5126563,91.0492955 32.5639233,91.0734773 32.6247485,91.0734773 C32.695132,91.0734773 32.7768117,91.0346136 32.874132,90.9568864 C33.1391563,90.7340682 33.4059184,90.4153864 33.6735495,89.9999773 L33.9368359,90.1718409 C33.6083796,90.6900227 33.2260495,91.1209773 32.7837631,91.4672955 C32.4579136,91.7237955 32.1433602,91.8524773 31.8444476,91.8524773 C31.6480689,91.8524773 31.4873165,91.7911591 31.3621903,91.6676591 C31.237933,91.54675 31.1753699,91.3930227 31.1753699,91.2064773 C31.1753699,91.0225227 31.2422777,90.7124773 31.3752243,90.2823864 L32.4135981,86.9176591 C32.5743505,86.3683864 32.6560301,86.0229318 32.6560301,85.8830227 C32.6560301,85.7724773 32.6151903,85.6826591 32.5378553,85.6118409 C32.4605204,85.54275 32.3527728,85.5073409 32.2154816,85.5073409 C32.1042583,85.5073409 31.8757291,85.5349773 31.5255495,85.5911136 L31.5255495,85.2948864 L34.1349524,84.8691136 Z" id="Fill-24" fill="#1D1D1B" mask="url(#mask-2)"></path>
                    <path d="M38.060266,84.8687682 L37.0688146,88.3069045 C38.0785136,86.9017682 38.852732,85.9776773 39.390601,85.5346318 C39.9293388,85.0907227 40.4463534,84.8687682 40.9433825,84.8687682 C41.2136204,84.8687682 41.4369359,84.9611773 41.6124602,85.1434045 C41.7888534,85.3264955 41.8757466,85.5657227 41.8757466,85.8584955 C41.8757466,86.1573136 41.794067,86.5528591 41.6298388,87.0485864 L40.5966786,90.1827227 C40.477635,90.5445864 40.4185476,90.76395 40.4185476,90.8442682 C40.4185476,90.9124955 40.4367951,90.9686318 40.4715524,91.0144045 C40.5054408,91.05845 40.5445427,91.0817682 40.5853825,91.0817682 C40.6375184,91.0817682 40.7018194,91.0515409 40.7765476,90.9876318 C41.0111592,90.78295 41.269232,90.4642682 41.5490282,90.03245 L41.7819019,90.1766773 C41.3370087,90.8339045 40.9181835,91.2994045 40.5210816,91.57145 C40.2456301,91.7579955 39.9945087,91.8521318 39.7772757,91.8521318 C39.5991447,91.8521318 39.4566398,91.7968591 39.351499,91.6845864 C39.2463583,91.57145 39.1950913,91.41945 39.1950913,91.22945 C39.1950913,90.9902227 39.2932806,90.5782682 39.4879214,89.9935864 L40.4889311,86.9838136 C40.6157951,86.6089955 40.6800961,86.3170864 40.6800961,86.10895 C40.6800961,86.0079045 40.6418631,85.9275864 40.5732175,85.8645409 C40.5002272,85.8014955 40.413334,85.7704045 40.3081932,85.7704045 C40.1526544,85.7704045 39.9710476,85.8308591 39.7581592,85.9509045 C39.3497612,86.1737227 38.9283291,86.5450864 38.4895184,87.0615409 C38.0507078,87.5754045 37.5866981,88.2352227 37.0992272,89.0366773 C36.8411544,89.4607227 36.6265282,89.9244955 36.4562175,90.4279955 L36.0973485,91.6716318 L34.9842466,91.6716318 L36.3493388,86.9509955 C36.5109602,86.38445 36.5917709,86.0450409 36.5917709,85.9275864 C36.5917709,85.8196318 36.5465864,85.7220409 36.4579553,85.6391318 C36.3710621,85.5570864 36.2633146,85.5164955 36.1355816,85.5164955 C36.0764942,85.5164955 35.9730913,85.5259955 35.8253728,85.5449955 L35.5447078,85.5907682 L35.4612903,85.3282227 L38.060266,84.8687682 Z" id="Fill-25" fill="#1D1D1B" mask="url(#mask-2)"></path>
                    <path d="M47.8569534,86.5138227 C47.8569534,86.1156864 47.7422544,85.8013227 47.5093806,85.5741864 C47.2782447,85.3444591 46.9723806,85.2287318 46.5978709,85.2287318 C46.008735,85.2287318 45.522133,85.5120045 45.138065,86.07855 C44.755735,86.6407773 44.5645699,87.2297773 44.5645699,87.8420955 C44.5645699,88.2246864 44.6870893,88.53905 44.933866,88.7825955 C45.1780359,89.0270045 45.4752107,89.1479136 45.8227835,89.1479136 C46.1008417,89.1479136 46.3676039,89.0762318 46.6248078,88.9320045 C46.8837495,88.7869136 47.1001136,88.5882773 47.2782447,88.3343682 C47.4563757,88.0795955 47.5962738,87.7583227 47.6996767,87.3645045 C47.8048175,86.9706864 47.8569534,86.6882773 47.8569534,86.5138227 L47.8569534,86.5138227 Z M44.2022252,91.6697318 C43.7946961,91.8562773 43.489701,92.0963682 43.2802883,92.3874136 C43.0726136,92.6801864 42.9674728,92.9677773 42.9674728,93.2501864 C42.9674728,93.5818227 43.1212738,93.8564591 43.4219243,94.0740955 C43.8555214,94.3850045 44.4907107,94.5404591 45.3248854,94.5404591 C46.0443612,94.5404591 46.6613029,94.4178227 47.1731039,94.1742773 C47.683167,93.9298682 47.938633,93.6129136 47.938633,93.2251409 C47.938633,93.0282318 47.8439194,92.84255 47.6553612,92.6663682 C47.465934,92.4893227 47.0983757,92.3468227 46.5544243,92.2354136 C46.2555117,92.1749591 45.4734728,91.9858227 44.2022252,91.6697318 L44.2022252,91.6697318 Z M50.4298612,85.32805 L50.2108903,86.0984136 L48.9535456,86.0984136 C49.0447835,86.3704591 49.0925748,86.6243682 49.0925748,86.8610045 C49.0925748,87.5251409 48.807565,88.1150045 48.2392835,88.6331864 C47.6692641,89.1496409 46.8837495,89.4363682 45.8853466,89.4916409 C45.3639874,89.6531409 44.9747058,89.8457318 44.7122883,90.0694136 C44.614099,90.1497318 44.5645699,90.2335045 44.5645699,90.3198682 C44.5645699,90.42005 44.6097544,90.5115955 44.7018612,90.5962318 C44.7922301,90.6800045 45.0198903,90.7637773 45.3909243,90.8501409 L46.8559437,91.1869591 C47.6675262,91.3752318 48.2027883,91.6006409 48.462599,91.8623227 C48.7145893,92.1274591 48.8440602,92.43405 48.8440602,92.7803682 C48.8440602,93.1905955 48.6911282,93.5671409 48.3878709,93.9100045 C48.0846136,94.2502773 47.6397204,94.5162773 47.0549291,94.7105955 C46.4701379,94.9031864 45.8227835,94.9999136 45.1146039,94.9999136 C44.4915796,94.9999136 43.924167,94.9265045 43.412366,94.7779591 C42.8996961,94.6294136 42.5330068,94.4307773 42.313167,94.1785955 C42.0915893,93.9281409 41.9786282,93.6699136 41.9786282,93.4039136 C41.9786282,93.1871409 42.0533563,92.9634591 42.1949922,92.7302773 C42.3374971,92.4953682 42.5156282,92.3036409 42.7302544,92.1516409 C42.8658078,92.0575045 43.2464,91.8295045 43.8763757,91.4736864 C43.6452398,91.2931864 43.5288029,91.09455 43.5288029,90.8786409 C43.5288029,90.6782773 43.6252544,90.4649591 43.8242398,90.2378227 C44.0197495,90.0124136 44.435099,89.76455 45.0728951,89.4916409 C44.5402398,89.3871409 44.1127252,89.1582773 43.8007786,88.8015955 C43.4879631,88.4466409 43.3298175,88.0510955 43.3298175,87.6166864 C43.3298175,86.9059136 43.6452398,86.2702773 44.2734777,85.7106409 C44.8999777,85.1492773 45.7376282,84.8685955 46.7820845,84.8685955 C47.1600699,84.8685955 47.4685408,84.9057318 47.7109728,84.9800045 C47.9534049,85.0560045 48.1880165,85.1700045 48.4156767,85.32805 L50.4298612,85.32805 Z" id="Fill-26" fill="#1D1D1B" mask="url(#mask-2)"></path>
                    <path d="M58.1525816,83.0158364 L57.5434602,85.0488364 L58.581834,85.0488364 L58.4506252,85.5247 L57.4018243,85.5247 L56.036732,89.9568818 C55.8646835,90.4569273 55.7795282,90.7833818 55.7795282,90.9310636 C55.7795282,91.0105182 55.7969068,91.0718364 55.8334019,91.1141545 C55.8698971,91.1573364 55.9124748,91.1806545 55.9637417,91.1806545 C56.0740961,91.1806545 56.2235524,91.0960182 56.408635,90.9310636 C56.5163825,90.8300182 56.7588146,90.5234273 57.1333243,90.0061091 L57.3818388,90.1943818 C56.9421592,90.8567909 56.5276786,91.3171091 56.1366592,91.5805182 C55.871635,91.7618818 55.5996592,91.8525636 55.3285524,91.8525636 C55.1191398,91.8525636 54.9462223,91.7852 54.8141447,91.6452909 C54.6794602,91.5079727 54.6142903,91.3317909 54.6142903,91.1167455 C54.6142903,90.8464273 54.6977078,90.4327455 54.8662806,89.8765636 L56.1853194,85.5247 L55.0357223,85.5247 L55.1113194,85.2319273 C55.6630913,85.0799273 56.1323146,84.8571091 56.5146447,84.5591545 C56.9021883,84.2629273 57.3357854,83.7490636 57.8206495,83.0158364 L58.1525816,83.0158364 Z" id="Fill-27" fill="#1D1D1B" mask="url(#mask-2)"></path>
                    <path d="M64.1706311,86.6921636 C64.1706311,86.2249364 64.056801,85.8673909 63.826534,85.6186636 C63.596267,85.3708 63.2982233,85.2455727 62.9341408,85.2455727 C62.189466,85.2455727 61.5056165,85.7749818 60.8799854,86.8320727 C60.2526165,87.8891636 59.9432767,88.9410727 59.9432767,89.9834818 C59.9432767,90.4610727 60.0631893,90.8298455 60.3064903,91.0880727 C60.5489223,91.3471636 60.8565243,91.4758455 61.2240825,91.4758455 C61.9400825,91.4758455 62.6074223,90.9507545 63.2339223,89.8979818 C63.8612913,88.8460727 64.1706311,87.7760273 64.1706311,86.6921636 M65.4062524,87.2207091 C65.4062524,87.9729364 65.2055291,88.7173909 64.8058204,89.4549364 C64.4061117,90.1907545 63.8482573,90.7737091 63.1348641,91.2063909 C62.4179951,91.6373455 61.7245874,91.8523909 61.0476893,91.8523909 C60.3577573,91.8523909 59.7964272,91.6330273 59.3619612,91.1943 C58.9257573,90.7555727 58.7085243,90.1881636 58.7085243,89.4920727 C58.7085243,88.7562545 58.9196748,88.0161182 59.3454515,87.2742545 C59.7712282,86.5323909 60.3403786,85.9468455 61.052034,85.5167545 C61.7645583,85.0849364 62.4527524,84.8690273 63.1174854,84.8690273 C63.7822184,84.8690273 64.3296456,85.0875273 64.7615049,85.5228 C65.1916262,85.9580727 65.4062524,86.5246182 65.4062524,87.2207091" id="Fill-28" fill="#1D1D1B" mask="url(#mask-2)"></path>
                    <path d="M71.4479369,86.5138227 C71.4479369,86.1156864 71.3315,85.8013227 71.0986262,85.5741864 C70.8683592,85.3444591 70.5651019,85.2287318 70.1888544,85.2287318 C69.5997184,85.2287318 69.1131165,85.5120045 68.7307864,86.07855 C68.3475874,86.6407773 68.1572913,87.2297773 68.1572913,87.8420955 C68.1572913,88.2246864 68.2780728,88.53905 68.5248495,88.7825955 C68.7698883,89.0270045 69.0670631,89.1479136 69.4146359,89.1479136 C69.6909563,89.1479136 69.9568495,89.0762318 70.2166602,88.9320045 C70.4729951,88.7869136 70.691966,88.5882773 70.8683592,88.3343682 C71.0464903,88.0795955 71.1881262,87.7583227 71.2915291,87.3645045 C71.395801,86.9706864 71.4479369,86.6882773 71.4479369,86.5138227 L71.4479369,86.5138227 Z M67.7906019,91.6697318 C67.3865485,91.8562773 67.0806845,92.0963682 66.8704029,92.3874136 C66.6635971,92.6801864 66.5584563,92.9677773 66.5584563,93.2501864 C66.5584563,93.5818227 66.7096505,93.8564591 67.0129078,94.0740955 C67.444767,94.3850045 68.0799563,94.5404591 68.9184757,94.5404591 C69.6379515,94.5404591 70.2505485,94.4178227 70.7632184,94.1742773 C71.2741505,93.9298682 71.5296165,93.6129136 71.5296165,93.2251409 C71.5296165,93.0282318 71.4349029,92.84255 71.2472136,92.6663682 C71.0577864,92.4893227 70.6902282,92.3468227 70.1454078,92.2354136 C69.8473641,92.1749591 69.0644563,91.9858227 67.7906019,91.6697318 L67.7906019,91.6697318 Z M74.0208447,85.32805 L73.8018738,86.0984136 L72.5445291,86.0984136 C72.6366359,86.3704591 72.6818204,86.6243682 72.6818204,86.8610045 C72.6818204,87.5251409 72.3985485,88.1150045 71.8311359,88.6331864 C71.2593786,89.1496409 70.4729951,89.4363682 69.477199,89.4916409 C68.9567087,89.6531409 68.5648204,89.8457318 68.3024029,90.0694136 C68.2050825,90.1497318 68.1572913,90.2335045 68.1572913,90.3198682 C68.1572913,90.42005 68.2024757,90.5115955 68.2928447,90.5962318 C68.3832136,90.6800045 68.6126117,90.7637773 68.9810388,90.8501409 L70.448665,91.1869591 C71.2567718,91.3752318 71.792034,91.6006409 72.0527136,91.8623227 C72.3081796,92.1274591 72.4350437,92.43405 72.4350437,92.7803682 C72.4350437,93.1905955 72.2838495,93.5671409 71.9788544,93.9100045 C71.676466,94.2502773 71.2315728,94.5162773 70.6459126,94.7105955 C70.0593835,94.9031864 69.4146359,94.9999136 68.7055874,94.9999136 C68.084301,94.9999136 67.5168883,94.9265045 67.0042184,94.7779591 C66.4915485,94.6294136 66.1239903,94.4307773 65.9024126,94.1785955 C65.6817039,93.9281409 65.5722184,93.6699136 65.5722184,93.4039136 C65.5722184,93.1871409 65.6426019,92.9634591 65.7842379,92.7302773 C65.9267427,92.4953682 66.1057427,92.3036409 66.3229757,92.1516409 C66.4559223,92.0575045 66.8373835,91.8295045 67.4682282,91.4736864 C67.2336165,91.2931864 67.1197864,91.09455 67.1197864,90.8786409 C67.1197864,90.6782773 67.2179757,90.4649591 67.4134854,90.2378227 C67.6116019,90.0124136 68.0278204,89.76455 68.6647476,89.4916409 C68.1294854,89.3871409 67.7054466,89.1582773 67.3917621,88.8015955 C67.0789466,88.4466409 66.9216699,88.0510955 66.9216699,87.6166864 C66.9216699,86.9059136 67.2353544,86.2702773 67.8635922,85.7106409 C68.492699,85.1492773 69.3277427,84.8685955 70.372199,84.8685955 C70.7501845,84.8685955 71.0612621,84.9057318 71.3036942,84.9800045 C71.5452573,85.0560045 71.7798689,85.1700045 72.0075291,85.32805 L74.0208447,85.32805 Z" id="Fill-29" fill="#1D1D1B" mask="url(#mask-2)"></path>
                    <path d="M75.517667,88.4751409 C76.2779825,88.3913682 76.8966621,88.2462773 77.3745748,88.0390045 C78.0054194,87.7626409 78.4772495,87.4318682 78.7935408,87.0492773 C79.1089631,86.6666864 79.2671087,86.3013682 79.2671087,85.95505 C79.2671087,85.7434591 79.200201,85.5724591 79.0637786,85.4429136 C78.9282252,85.3116409 78.7327155,85.2460045 78.4824631,85.2460045 C77.9576282,85.2460045 77.4041184,85.51805 76.8158515,86.0638682 C76.2284534,86.6088227 75.7957252,87.4111409 75.517667,88.4751409 M75.4646621,88.8361409 C75.4325117,89.0857318 75.4160019,89.2955955 75.4160019,89.4588227 C75.4160019,89.9061864 75.5767544,90.2844591 75.8973903,90.5962318 C76.220633,90.9097318 76.6116524,91.0651864 77.0713175,91.0651864 C77.4406136,91.0651864 77.7934,90.9917773 78.1357592,90.8440955 C78.4737738,90.6964136 78.9794922,90.3708227 79.6485699,89.8647318 L79.8058466,90.0815045 C78.6145408,91.2620955 77.4779777,91.8528227 76.3970262,91.8528227 C75.6636476,91.8528227 75.1110068,91.6239591 74.7391039,91.1619136 C74.367201,90.7015955 74.1803806,90.1903227 74.1803806,89.6350045 C74.1803806,88.8888227 74.4123854,88.1245045 74.8746573,87.34205 C75.3369291,86.5613227 75.9173757,85.9533227 76.6159971,85.5206409 C77.3120117,85.0862318 78.0306184,84.8685955 78.7692107,84.8685955 C79.301866,84.8685955 79.6963612,84.97655 79.9518272,85.1924591 C80.2072932,85.4075045 80.337633,85.6640045 80.337633,85.9585045 C80.337633,86.3747773 80.1690602,86.77205 79.8327835,87.1537773 C79.3896282,87.6495045 78.7361913,88.0485045 77.8733417,88.3559591 C77.3033223,88.5615045 76.4995602,88.7212773 75.4646621,88.8361409" id="Fill-30" fill="#1D1D1B" mask="url(#mask-2)"></path>
                    <path d="M84.7356456,83.0158364 L84.1256553,85.0488364 L85.165767,85.0488364 L85.0345583,85.5247 L83.9840194,85.5247 L82.6197961,89.9568818 C82.4486165,90.4569273 82.3634612,90.7833818 82.3634612,90.9310636 C82.3634612,91.0105182 82.3799709,91.0718364 82.4182039,91.1141545 C82.4529612,91.1573364 82.4964078,91.1806545 82.5468058,91.1806545 C82.6588981,91.1806545 82.8074854,91.0960182 82.992568,90.9310636 C83.1003155,90.8300182 83.3418786,90.5234273 83.7172573,90.0061091 L83.9657718,90.1943818 C83.5269612,90.8567909 83.1133495,91.3171091 82.7205922,91.5805182 C82.454699,91.7618818 82.1844612,91.8525636 81.9133544,91.8525636 C81.7030728,91.8525636 81.5310243,91.7852 81.3972087,91.6452909 C81.2625243,91.5079727 81.1982233,91.3317909 81.1982233,91.1167455 C81.1982233,90.8464273 81.2816408,90.4327455 81.4502136,89.8765636 L82.7683835,85.5247 L81.6196553,85.5247 L81.6943835,85.2319273 C82.2470243,85.0799273 82.7179854,84.8571091 83.1003155,84.5591545 C83.4852524,84.2629273 83.9197184,83.7490636 84.4028447,83.0158364 L84.7356456,83.0158364 Z" id="Fill-31" fill="#1D1D1B" mask="url(#mask-2)"></path>
                    <path d="M89.3569738,80.9832682 L87.2333039,88.3440409 C88.216066,86.9466773 88.9824641,86.0182682 89.533367,85.5588136 C90.0851388,85.0976318 90.6117117,84.8687682 91.1130854,84.8687682 C91.3728961,84.8687682 91.5892602,84.9611773 91.7621777,85.1425409 C91.9342262,85.3239045 92.0202505,85.56745 92.0202505,85.8705864 C92.0202505,86.1987682 91.9411777,86.5951773 91.7856388,87.0615409 L90.7533476,90.1827227 C90.6247456,90.5592682 90.5604447,90.7665409 90.5604447,90.8071318 C90.5604447,90.8753591 90.5778233,90.9306318 90.6143184,90.97295 C90.6534204,91.0161318 90.6959981,91.0368591 90.7455272,91.0368591 C90.8028767,91.0368591 90.8680466,91.0057682 90.9427748,90.94445 C91.194765,90.7276773 91.4432796,90.4245409 91.6909252,90.03245 L91.923799,90.1766773 C91.7621777,90.4435409 91.5388621,90.7276773 91.2503767,91.0368591 C90.9627602,91.3451773 90.7142456,91.5576318 90.5074398,91.67595 C90.2988961,91.7925409 90.1172893,91.8521318 89.955668,91.8521318 C89.7784058,91.8521318 89.6332942,91.7925409 89.5220709,91.67595 C89.4108476,91.5593591 89.3569738,91.4082227 89.3569738,91.2208136 C89.3569738,91.0023136 89.4551631,90.5920864 89.6576243,89.9892682 L90.6447311,86.9881318 C90.7715951,86.6133136 90.8350272,86.3162227 90.8350272,86.1011773 C90.8350272,86.0018591 90.8011388,85.9215409 90.7307553,85.8602227 C90.6638476,85.8014955 90.5726097,85.7704045 90.4631243,85.7704045 C90.3023718,85.7704045 90.121634,85.8256773 89.916566,85.9370864 C89.5420563,86.1452227 89.1084592,86.5347227 88.6192505,87.1047227 C88.4880417,87.2601773 88.0474932,87.88545 87.2976049,88.9796773 C87.0656,89.3277227 86.8770417,89.7103136 86.7362748,90.1231318 L86.272265,91.6716318 L85.160901,91.6716318 L87.6477845,83.0654955 L87.9110709,82.1336318 C87.9110709,82.0032227 87.8563282,81.8892227 87.7468427,81.7881773 C87.6390951,81.6879955 87.5044107,81.6370409 87.3453961,81.6370409 C87.2524204,81.6370409 87.1107845,81.65345 86.9196194,81.6828136 L86.758867,81.7044045 L86.758867,81.4090409 L89.3569738,80.9832682 Z" id="Fill-32" fill="#1D1D1B" mask="url(#mask-2)"></path>
                    <path d="M94.3838325,88.4751409 C95.1424102,88.3913682 95.7602209,88.2462773 96.2390024,88.0390045 C96.8689782,87.7626409 97.3416772,87.4318682 97.6579684,87.0492773 C97.9716529,86.6666864 98.1306675,86.3013682 98.1306675,85.95505 C98.1306675,85.7434591 98.0620218,85.5724591 97.9264684,85.4429136 C97.791784,85.3116409 97.5971432,85.2460045 97.3460218,85.2460045 C96.8220558,85.2460045 96.2668083,85.51805 95.6785413,86.0638682 C95.0911432,86.6088227 94.659284,87.4111409 94.3838325,88.4751409 M94.3290898,88.8361409 C94.2960704,89.0857318 94.2786917,89.2955955 94.2786917,89.4588227 C94.2786917,89.9061864 94.4394442,90.2844591 94.7626869,90.5962318 C95.0850607,90.9097318 95.4760801,91.0651864 95.9357451,91.0651864 C96.3041723,91.0651864 96.6578277,90.9917773 97.0001869,90.8440955 C97.3390704,90.6964136 97.8439199,90.3708227 98.5112597,89.8647318 L98.6702743,90.0815045 C97.4798374,91.2620955 96.3424053,91.8528227 95.2614539,91.8528227 C94.5263374,91.8528227 93.9754345,91.6239591 93.6026626,91.1619136 C93.2324976,90.7015955 93.0448083,90.1903227 93.0448083,89.6350045 C93.0448083,88.8888227 93.2759442,88.1245045 93.738216,87.34205 C94.2013568,86.5613227 94.7800655,85.9533227 95.4804248,85.5206409 C96.1764393,85.0862318 96.8950461,84.8685955 97.6336383,84.8685955 C98.1654248,84.8685955 98.5625267,84.97655 98.8162549,85.1924591 C99.0725898,85.4075045 99.2011917,85.6640045 99.2011917,85.9585045 C99.2011917,86.3747773 99.03175,86.77205 98.6954733,87.1537773 C98.251449,87.6495045 97.6014879,88.0485045 96.7377694,88.3559591 C96.1668811,88.5615045 95.3648568,88.7212773 94.3290898,88.8361409" id="Fill-33" fill="#1D1D1B" mask="url(#mask-2)"></path>
                    <path d="M100.17874,85.2951455 L102.764682,84.8685091 L101.709799,88.5208273 C102.594371,87.0241455 103.398133,85.9774182 104.119347,85.3806455 C104.529483,85.0386455 104.863153,84.8685091 105.120357,84.8685091 C105.288061,84.8685091 105.4184,84.9177364 105.513983,85.0161909 C105.610434,85.1129182 105.658226,85.2545545 105.658226,85.4385091 C105.658226,85.7692818 105.572201,86.0845091 105.40276,86.3841909 C105.281978,86.6087364 105.10993,86.7210091 104.882269,86.7210091 C104.76757,86.7210091 104.667643,86.6847364 104.586833,86.6087364 C104.504284,86.5353273 104.452148,86.4204636 104.433032,86.2641455 C104.422604,86.1700091 104.400012,86.1061 104.365255,86.0767364 C104.324415,86.0370091 104.277493,86.0162818 104.220143,86.0162818 C104.136726,86.0162818 104.055046,86.0370091 103.981187,86.0784636 C103.850847,86.1475545 103.651862,86.3418727 103.385968,86.6631455 C102.96975,87.1554182 102.518774,87.7910545 102.032172,88.5735091 C101.821891,88.9060091 101.641153,89.2782364 101.489959,89.6945091 C101.279677,90.2662364 101.159765,90.6108273 101.127614,90.7256909 L100.884313,91.6722364 L99.7338471,91.6722364 L101.083299,86.9999636 C101.24492,86.4567364 101.323993,86.0689636 101.323993,85.8375091 C101.323993,85.7459636 101.287498,85.6708273 101.211032,85.6112364 C101.111973,85.5309182 100.985109,85.4894636 100.832177,85.4894636 C100.73225,85.4894636 100.554988,85.5119182 100.293439,85.5568273 L100.17874,85.2951455 Z" id="Fill-34" fill="#1D1D1B" mask="url(#mask-2)"></path>
                    <path d="M114.060451,85.0492682 L113.924029,85.5406773 L112.809189,85.5406773 L111.903762,88.8648136 C111.499708,90.29845 111.110427,91.4134045 110.735048,92.2027682 C110.204131,93.3177227 109.629767,94.0880864 109.015432,94.5121318 C108.550553,94.8377227 108.084805,95.0000864 107.619927,95.0000864 C107.314932,95.0000864 107.055121,94.9094045 106.842233,94.7280409 C106.684956,94.6028136 106.607621,94.4387227 106.607621,94.2374955 C106.607621,94.0751318 106.671922,93.93695 106.801393,93.8177682 C106.929995,93.69945 107.087271,93.6389955 107.273223,93.6389955 C107.410514,93.6389955 107.525213,93.6821773 107.619927,93.7685409 C107.712902,93.8540409 107.758087,93.9507682 107.758087,94.0613136 C107.758087,94.1718591 107.705951,94.2772227 107.599072,94.3704955 C107.52,94.4421773 107.47916,94.4957227 107.47916,94.5311318 C107.47916,94.5760409 107.497407,94.6105864 107.532165,94.6356318 C107.579087,94.6719045 107.645995,94.6883136 107.742446,94.6883136 C107.957941,94.6883136 108.182995,94.62095 108.421951,94.4853591 C108.6583,94.3506318 108.87032,94.1476773 109.056271,93.87995 C109.240485,93.6104955 109.41514,93.2235864 109.581106,92.7149045 C109.655834,92.5059045 109.853951,91.8175864 110.178063,90.6473591 L111.632655,85.5406773 L110.161553,85.5406773 L110.270169,85.0492682 C110.735048,85.0492682 111.05916,85.0199045 111.242504,84.9629045 C111.429325,84.9050409 111.600504,84.7953591 111.753436,84.6329955 C111.906368,84.4689045 112.088844,84.1657682 112.301733,83.7184045 C112.585873,83.1190409 112.857849,82.6526773 113.118529,82.3219045 C113.474791,81.8762682 113.8493,81.5411773 114.24032,81.3183591 C114.635684,81.0955409 115.00498,80.9832682 115.350815,80.9832682 C115.718373,80.9832682 116.011203,81.0791318 116.234519,81.27345 C116.454359,81.4677682 116.565582,81.6759045 116.565582,81.9013136 C116.565582,82.0757682 116.507364,82.2243136 116.390058,82.3443591 C116.275359,82.4644045 116.123296,82.5248591 115.942558,82.5248591 C115.785281,82.5248591 115.657548,82.4790864 115.561966,82.3892682 C115.462907,82.2985864 115.412509,82.1906318 115.412509,82.0654045 C115.412509,81.9850864 115.44466,81.8849045 115.512436,81.7657227 C115.577606,81.6491318 115.611495,81.5696773 115.611495,81.5282227 C115.611495,81.4582682 115.59064,81.4055864 115.5498,81.3710409 C115.488975,81.3200864 115.401213,81.2950409 115.289121,81.2950409 C115.000635,81.2950409 114.745169,81.3995409 114.514902,81.6068136 C114.209907,81.8831773 113.935325,82.3132682 113.694631,82.9014045 C113.572111,83.2079955 113.322728,83.92395 112.952563,85.0492682 L114.060451,85.0492682 Z" id="Fill-35" fill="#1D1D1B" mask="url(#mask-2)"></path>
                    <path d="M119.488669,86.6921636 C119.488669,86.2249364 119.373101,85.8673909 119.143703,85.6186636 C118.913436,85.3708 118.616262,85.2455727 118.250441,85.2455727 C117.507504,85.2455727 116.821917,85.7749818 116.198024,86.8320727 C115.570655,87.8891636 115.259577,88.9410727 115.259577,89.9834818 C115.259577,90.4610727 115.37949,90.8298455 115.622791,91.0880727 C115.866961,91.3471636 116.172825,91.4758455 116.541252,91.4758455 C117.256383,91.4758455 117.924592,90.9507545 118.550223,89.8979818 C119.175854,88.8460727 119.488669,87.7760273 119.488669,86.6921636 M120.723422,87.2207091 C120.723422,87.9729364 120.522699,88.7173909 120.122121,89.4549364 C119.723281,90.1907545 119.164558,90.7737091 118.449427,91.2063909 C117.734296,91.6373455 117.041757,91.8523909 116.365728,91.8523909 C115.675796,91.8523909 115.113597,91.6330273 114.679131,91.1943 C114.24032,90.7555727 114.023956,90.1881636 114.023956,89.4920727 C114.023956,88.7562545 114.237713,88.0161182 114.661752,87.2742545 C115.089267,86.5323909 115.657548,85.9468455 116.368334,85.5167545 C117.081728,85.0849364 117.769053,84.8690273 118.435524,84.8690273 C119.098519,84.8690273 119.646815,85.0875273 120.077805,85.5228 C120.509665,85.9580727 120.723422,86.5246182 120.723422,87.2207091" id="Fill-36" fill="#1D1D1B" mask="url(#mask-2)"></path>
                    <path d="M122.057319,85.2951455 L124.643261,84.8685091 L123.590984,88.5208273 C124.473819,87.0241455 125.277582,85.9774182 125.999664,85.3806455 C126.4098,85.0386455 126.741732,84.8685091 127.000674,84.8685091 C127.16664,84.8685091 127.297849,84.9177364 127.395169,85.0161909 C127.490751,85.1129182 127.538543,85.2545545 127.538543,85.4385091 C127.538543,85.7692818 127.454256,86.0845091 127.281339,86.3841909 C127.162295,86.6087364 126.990247,86.7210091 126.762586,86.7210091 C126.64615,86.7210091 126.54796,86.6847364 126.466281,86.6087364 C126.382863,86.5353273 126.332465,86.4204636 126.31248,86.2641455 C126.301183,86.1700091 126.280329,86.1061 126.244703,86.0767364 C126.202994,86.0370091 126.156941,86.0162818 126.10046,86.0162818 C126.017043,86.0162818 125.937101,86.0370091 125.861504,86.0784636 C125.729426,86.1475545 125.53131,86.3418727 125.264548,86.6631455 C124.849198,87.1554182 124.397353,87.7910545 123.910751,88.5735091 C123.70047,88.9060091 123.519732,89.2782364 123.371145,89.6945091 C123.159125,90.2662364 123.038344,90.6108273 123.007931,90.7256909 L122.762892,91.6722364 L121.612426,91.6722364 L122.962747,86.9999636 C123.124368,86.4567364 123.203441,86.0689636 123.203441,85.8375091 C123.203441,85.7459636 123.166946,85.6708273 123.091349,85.6112364 C122.99229,85.5309182 122.866295,85.4894636 122.710756,85.4894636 C122.612567,85.4894636 122.434436,85.5119182 122.173756,85.5568273 L122.057319,85.2951455 Z" id="Fill-37" fill="#1D1D1B" mask="url(#mask-2)"></path>
                    <path d="M134.938542,86.0322591 L139.693338,86.0322591 L140.420634,83.4992136 C140.56227,83.0060773 140.630916,82.6226227 140.630916,82.3497136 C140.630916,82.2184409 140.600503,82.1078955 140.537071,82.0137591 C140.475377,81.9204864 140.378925,81.8522591 140.247717,81.8064864 C140.116508,81.7607136 139.861042,81.7373955 139.476974,81.7373955 L139.554309,81.4757136 L143.649585,81.4757136 L143.558348,81.7373955 C143.211644,81.7339409 142.95444,81.7684864 142.78326,81.8436227 C142.541697,81.9507136 142.362697,82.0880318 142.24626,82.25385 C142.081163,82.49135 141.91259,82.9102136 141.741411,83.5061227 L139.916653,89.8218955 C139.767197,90.29085 139.6916,90.6276682 139.6916,90.8297591 C139.6916,91.0059409 139.757639,91.1372136 139.890585,91.2278955 C140.024401,91.3177136 140.34243,91.3773045 140.845542,91.4092591 L140.761255,91.6718045 L136.83542,91.6718045 L136.940561,91.4092591 C137.331581,91.3997591 137.593129,91.3652136 137.726076,91.3038955 C137.92593,91.2132136 138.070173,91.0957591 138.16228,90.9541227 C138.29175,90.7589409 138.453372,90.3297136 138.646275,89.6673045 L139.54475,86.5564864 L134.786479,86.5564864 L133.844556,89.8218955 C133.696838,90.2822136 133.625585,90.6190318 133.625585,90.8297591 C133.625585,91.0059409 133.691624,91.1372136 133.822833,91.2278955 C133.950566,91.3177136 134.269464,91.3773045 134.773445,91.4092591 L134.710013,91.6718045 L130.754634,91.6718045 L130.854561,91.4092591 C131.249056,91.3997591 131.513212,91.3652136 131.643551,91.3038955 C131.845144,91.2132136 131.993731,91.0957591 132.088445,90.9541227 C132.217916,90.7477136 132.378668,90.31935 132.569833,89.6673045 L134.347668,83.4931682 C134.493649,82.9913955 134.566639,82.6105318 134.566639,82.3479864 C134.566639,82.2175773 134.536226,82.1070318 134.471925,82.0137591 C134.410231,81.9196227 134.309435,81.8513955 134.179964,81.8047591 C134.044411,81.7607136 133.7846,81.7373955 133.397925,81.7373955 L133.487425,81.4757136 L137.516663,81.4757136 L137.434115,81.7373955 C137.094362,81.7339409 136.847585,81.7684864 136.688571,81.8436227 C136.451352,81.9455318 136.277566,82.0802591 136.166343,82.2460773 C136.016017,82.4697591 135.850051,82.8894864 135.670183,83.5061227 L134.938542,86.0322591 Z" id="Fill-38" fill="#1D1D1B" mask="url(#mask-2)"></path>
                    <path d="M147.167196,85.3600909 C146.818754,85.3600909 146.448589,85.5077727 146.054094,85.8057273 C145.498847,86.2237273 145.002686,86.8446818 144.56822,87.6651364 C144.134623,88.4899091 143.916521,89.2335 143.916521,89.8976364 C143.916521,90.2335909 144.012973,90.4978636 144.207614,90.6921818 C144.399648,90.8873636 144.621225,90.9840909 144.870609,90.9840909 C145.489288,90.9840909 146.162711,90.5876818 146.890007,89.7948636 C147.776317,88.7395 148.204701,87.6590909 148.176026,86.5510455 C148.176026,86.1321818 148.084788,85.8290455 147.905788,85.6416364 C147.725919,85.4542273 147.480012,85.3600909 147.167196,85.3600909 L147.167196,85.3600909 Z M149.937351,84.9826818 L148.49058,90.0781364 L148.316793,90.7586818 C148.299415,90.8234545 148.290725,90.8787273 148.290725,90.9245 C148.290725,90.9953182 148.307235,91.0566364 148.34373,91.1127727 C148.372405,91.1516364 148.4089,91.1723636 148.452347,91.1723636 C148.496662,91.1723636 148.559225,91.1369545 148.633953,91.0652727 C148.772114,90.9305455 148.959803,90.6351818 149.190939,90.1809091 L149.447274,90.3605455 C149.152706,90.8666364 148.851186,91.2414545 148.540109,91.485 C148.232507,91.7294091 147.94489,91.8529091 147.682473,91.8529091 C147.498259,91.8529091 147.355754,91.7993636 147.257565,91.6914091 C147.157638,91.5834545 147.106371,91.428 147.106371,91.2215909 C147.106371,90.9771818 147.161983,90.6541818 147.272337,90.2543182 L147.435696,89.7076364 C146.713614,90.5557273 146.048881,91.1499091 145.443235,91.4875909 C145.007031,91.7311364 144.578648,91.8529091 144.16156,91.8529091 C143.759245,91.8529091 143.41341,91.7035 143.121449,91.4055455 C142.826881,91.1067273 142.682638,90.6965 142.682638,90.174 C142.682638,89.3915455 142.94158,88.5633182 143.460332,87.6945 C143.979084,86.8230909 144.636866,86.1261364 145.434546,85.6045 C146.060177,85.1908182 146.648444,84.9826818 147.202822,84.9826818 C147.534754,84.9826818 147.809337,85.0569545 148.030915,85.2020455 C148.249885,85.3505909 148.41672,85.5924091 148.529682,85.9309545 L148.77472,85.1640455 L149.937351,84.9826818 Z" id="Fill-39" fill="#1D1D1B" mask="url(#mask-2)"></path>
                    <path d="M150.79742,85.2951455 L153.3851,84.8685091 L152.330217,88.5208273 C153.214789,87.0241455 154.018551,85.9774182 154.740634,85.3806455 C155.149032,85.0386455 155.483571,84.8685091 155.739906,84.8685091 C155.908479,84.8685091 156.038818,84.9177364 156.134401,85.0161909 C156.229983,85.1129182 156.278644,85.2545545 156.278644,85.4385091 C156.278644,85.7692818 156.19175,86.0845091 156.024047,86.3841909 C155.901527,86.6087364 155.729479,86.7210091 155.504425,86.7210091 C155.387988,86.7210091 155.28893,86.6847364 155.205513,86.6087364 C155.123833,86.5353273 155.072566,86.4204636 155.051712,86.2641455 C155.042153,86.1700091 155.019561,86.1061 154.983935,86.0767364 C154.944833,86.0370091 154.895304,86.0162818 154.84143,86.0162818 C154.756275,86.0162818 154.676333,86.0370091 154.600736,86.0784636 C154.471265,86.1475545 154.270542,86.3418727 154.005517,86.6631455 C153.589299,87.1554182 153.137454,87.7910545 152.651721,88.5735091 C152.439702,88.9060091 152.260702,89.2782364 152.108639,89.6945091 C151.900095,90.2662364 151.777576,90.6108273 151.747163,90.7256909 L151.503862,91.6722364 L150.354265,91.6722364 L151.703717,86.9999636 C151.865338,86.4567364 151.944411,86.0689636 151.944411,85.8375091 C151.944411,85.7459636 151.906178,85.6708273 151.832318,85.6112364 C151.731522,85.5309182 151.605527,85.4894636 151.450857,85.4894636 C151.353537,85.4894636 151.173668,85.5119182 150.912988,85.5568273 L150.79742,85.2951455 Z" id="Fill-40" fill="#1D1D1B" mask="url(#mask-2)"></path>
                    <path d="M160.731573,80.9832682 L158.074379,89.9650864 C157.944039,90.4115864 157.879738,90.6862227 157.879738,90.7864045 C157.879738,90.8632682 157.90233,90.9245864 157.944039,90.9755409 C157.986617,91.0247682 158.039621,91.04895 158.101316,91.04895 C158.188209,91.04895 158.281184,91.0083591 158.379374,90.9219955 C158.613117,90.7112682 158.857286,90.3804955 159.112752,89.9296773 L159.34215,90.1645864 C158.889437,90.8339045 158.471481,91.3011318 158.087413,91.5671318 C157.806748,91.7579955 157.539117,91.8521318 157.285388,91.8521318 C157.102913,91.8521318 156.951718,91.7873591 156.830068,91.6578136 C156.707549,91.5265409 156.645854,91.3771318 156.645854,91.2061318 C156.645854,91.0264955 156.730141,90.6551318 156.896976,90.0920409 L159.008481,83.0326773 C159.173578,82.4540409 159.258733,82.1206773 159.258733,82.0343136 C159.258733,81.9134045 159.209204,81.81495 159.113621,81.7372227 C159.018039,81.6603591 158.865976,81.6206318 158.660908,81.6206318 C158.542733,81.6206318 158.360257,81.6370409 158.119563,81.67245 L158.119563,81.4090409 L160.731573,80.9832682 Z" id="Fill-41" fill="#1D1D1B" mask="url(#mask-2)"></path>
                    <path d="M166.247293,86.6921636 C166.247293,86.2249364 166.132594,85.8673909 165.904065,85.6186636 C165.672929,85.3708 165.375754,85.2455727 165.009065,85.2455727 C164.266997,85.2455727 163.581409,85.7749818 162.956647,86.8320727 C162.331885,87.8891636 162.019069,88.9410727 162.019069,89.9834818 C162.019069,90.4610727 162.138982,90.8298455 162.382283,91.0880727 C162.625584,91.3471636 162.932317,91.4758455 163.301613,91.4758455 C164.015875,91.4758455 164.684084,90.9507545 165.309715,89.8979818 C165.937084,88.8460727 166.247293,87.7760273 166.247293,86.6921636 M167.482914,87.2207091 C167.482914,87.9729364 167.282191,88.7173909 166.882482,89.4549364 C166.481904,90.1907545 165.92405,90.7737091 165.208919,91.2063909 C164.494657,91.6373455 163.801249,91.8523909 163.12522,91.8523909 C162.435288,91.8523909 161.873089,91.6330273 161.438623,91.1943 C161.000681,90.7555727 160.785186,90.1881636 160.785186,89.4920727 C160.785186,88.7562545 160.995467,88.0161182 161.421244,87.2742545 C161.84789,86.5323909 162.41704,85.9468455 163.129565,85.5167545 C163.84122,85.0849364 164.528545,84.8690273 165.195016,84.8690273 C165.858011,84.8690273 166.406307,85.0875273 166.836429,85.5228 C167.268288,85.9580727 167.482914,86.5246182 167.482914,87.2207091" id="Fill-42" fill="#1D1D1B" mask="url(#mask-2)"></path>
                    <path d="M174.510576,84.8687682 L175.037149,90.5005409 C175.912163,89.4788591 176.611653,88.5210864 177.135619,87.6246318 C177.440615,87.0995409 177.593547,86.7186773 177.593547,86.4829045 C177.593547,86.3732227 177.570085,86.2764955 177.519687,86.1901318 C177.497964,86.1452227 177.421498,86.0795864 177.285076,85.9914955 C177.147784,85.9034045 177.052202,85.8135864 176.995721,85.7211773 C176.941848,85.6287682 176.914911,85.5311773 176.914911,85.4240864 C176.914911,85.2703591 176.970522,85.1382227 177.087828,85.0302682 C177.201658,84.9231773 177.350246,84.8687682 177.529246,84.8687682 C177.733445,84.8687682 177.907231,84.9456318 178.050605,85.0976318 C178.19311,85.2522227 178.263493,85.4543136 178.263493,85.7116773 C178.263493,85.9707682 178.22526,86.2160409 178.151401,86.4405864 C178.001945,86.8706773 177.707377,87.4277227 177.269435,88.1082682 C176.737649,88.9261318 176.189352,89.6844045 175.624547,90.3830864 C175.058872,91.0817682 174.639178,91.57145 174.361988,91.8521318 L174.08393,91.8521318 L173.588639,86.6556318 L170.482207,91.8521318 L170.149406,91.8521318 C170.115517,89.7146318 170.006032,88.0288136 169.827032,86.79295 C169.749697,86.2782227 169.627178,85.9405409 169.451653,85.7790409 C169.32392,85.6633136 169.134493,85.6063136 168.879896,85.6063136 C168.735653,85.6063136 168.548833,85.6227227 168.322911,85.6512227 L168.322911,85.3765864 L170.476124,84.8687682 C170.777644,85.7039045 170.973153,86.9855409 171.060916,88.7154045 C171.093066,89.3683136 171.119134,89.7811318 171.13825,89.9504045 L174.236862,84.8687682 L174.510576,84.8687682 Z" id="Fill-43" fill="#1D1D1B" mask="url(#mask-2)"></path>
                </g>
                <g id="Group-54" transform="translate(0.000000, 53.563830)">
                    <g id="Group-47">
                        <mask id="mask-4" fill="white">
                            <use xlink:href="#path-3"></use>
                        </mask>
                        <g id="Clip-46"></g>
                        <path d="M178.286694,16.6785638 L178.356208,20.9552964 C84.8495626,36.2967857 77.4688539,-12.6469833 8.68932039e-05,9.01648176 L8.68932039e-05,3.65605623 C89.1803199,-13.2862842 84.7774413,37.152652 178.286694,16.6785638" id="Fill-45" fill="#009FB2" mask="url(#mask-4)"></path>
                    </g>
                    <g id="Group-50" transform="translate(0.000000, 7.796353)">
                        <mask id="mask-6" fill="white">
                            <use xlink:href="#path-5"></use>
                        </mask>
                        <g id="Clip-49"></g>
                        <path d="M0.0895,8.88221125 L0,13.6241261 C75.1617524,-6.83350304 75.3277184,30.82981 178.356121,1.22012918 L178.356121,0.190144377 C65.7546942,31.8589286 87.5066699,-11.5771505 0.0895,8.88221125" id="Fill-48" fill="#54BAC9" mask="url(#mask-6)"></path>
                    </g>
                    <g id="Group-53" transform="translate(0.000000, 6.063830)">
                        <mask id="mask-8" fill="white">
                            <use xlink:href="#path-7"></use>
                        </mask>
                        <g id="Clip-52"></g>
                        <path d="M178.356295,5.12151064 L178.356295,10.3875137 C84.7705767,29.4019514 83.8860039,-9.11376292 0.000173786408,10.6292006 L0.000173786408,4.65372948 C91.7402806,-13.7456626 103.15631,35.7940942 178.356295,5.12151064" id="Fill-51" fill="#C4E2E9" mask="url(#mask-8)"></path>
                    </g>
                </g>
            </g>
        </g>
    </g>
</svg>