<?xml version="1.0" encoding="UTF-8" standalone="no"?>
<!-- Created with Inkscape (http://www.inkscape.org/) -->

<svg
   xmlns:dc="http://purl.org/dc/elements/1.1/"
   xmlns:cc="http://creativecommons.org/ns#"
   xmlns:rdf="http://www.w3.org/1999/02/22-rdf-syntax-ns#"
   xmlns:svg="http://www.w3.org/2000/svg"
   xmlns="http://www.w3.org/2000/svg"
   xmlns:sodipodi="http://sodipodi.sourceforge.net/DTD/sodipodi-0.dtd"
   xmlns:inkscape="http://www.inkscape.org/namespaces/inkscape"
   width="1000"
   height="566.47443"
   id="svg10286"
   version="1.1"
   inkscape:version="0.48.2 r9819"
   sodipodi:docname="New document 23">
  <defs
     id="defs10288">
    <clipPath
       clipPathUnits="userSpaceOnUse"
       id="clipPath9427">
      <path
         inkscape:connector-curvature="0"
         d="m 12.496,12.496 297.638,0 0,612.283 -297.638,0 0,-612.283 z"
         id="path9429" />
    </clipPath>
    <clipPath
       clipPathUnits="userSpaceOnUse"
       id="clipPath9521">
      <path
         inkscape:connector-curvature="0"
         d="m 12.496,12.496 297.638,0 0,612.283 -297.638,0 0,-612.283 z"
         id="path9523" />
    </clipPath>
    <clipPath
       clipPathUnits="userSpaceOnUse"
       id="clipPath9545">
      <path
         inkscape:connector-curvature="0"
         d="m 12.496,12.496 297.638,0 0,612.283 -297.638,0 0,-612.283 z"
         id="path9547" />
    </clipPath>
    <clipPath
       clipPathUnits="userSpaceOnUse"
       id="clipPath9585">
      <path
         inkscape:connector-curvature="0"
         d="m 12.496,12.496 297.638,0 0,612.283 -297.638,0 0,-612.283 z"
         id="path9587" />
    </clipPath>
    <clipPath
       clipPathUnits="userSpaceOnUse"
       id="clipPath9617">
      <path
         inkscape:connector-curvature="0"
         d="m 12.496,12.496 297.638,0 0,612.283 -297.638,0 0,-612.283 z"
         id="path9619" />
    </clipPath>
    <clipPath
       clipPathUnits="userSpaceOnUse"
       id="clipPath9653">
      <path
         inkscape:connector-curvature="0"
         d="m 12.496,12.496 297.638,0 0,612.283 -297.638,0 0,-612.283 z"
         id="path9655" />
    </clipPath>
  </defs>
  <sodipodi:namedview
     id="base"
     pagecolor="#ffffff"
     bordercolor="#666666"
     borderopacity="1.0"
     inkscape:pageopacity="0.0"
     inkscape:pageshadow="2"
     inkscape:zoom="0.7"
     inkscape:cx="757.64799"
     inkscape:cy="189.12309"
     inkscape:document-units="px"
     inkscape:current-layer="layer1"
     showgrid="false"
     fit-margin-left="0.5"
     fit-margin-bottom="0.5"
     fit-margin-top="0.5"
     fit-margin-right="0.5"
     inkscape:window-width="1920"
     inkscape:window-height="1028"
     inkscape:window-x="-8"
     inkscape:window-y="-8"
     inkscape:window-maximized="1" />
  <metadata
     id="metadata10291">
    <rdf:RDF>
      <cc:Work
         rdf:about="">
        <dc:format>image/svg+xml</dc:format>
        <dc:type
           rdf:resource="http://purl.org/dc/dcmitype/StillImage" />
        <dc:title></dc:title>
      </cc:Work>
    </rdf:RDF>
  </metadata>
  <g
     inkscape:label="Layer 1"
     inkscape:groupmode="layer"
     id="layer1"
     transform="translate(45.713635,-426.71759)">
    <g
       transform="matrix(18.838749,0,0,-18.838786,-4476.029,1681.4531)"
       id="g9423">
      <g
         id="g9425"
         clip-path="url(#clipPath9427)">
        <g
           id="g9431"
           transform="translate(236.3029,43.6997)">
          <path
             inkscape:connector-curvature="0"
             d="m 0,0 c -0.046,-1.627 0.81,-1.075 0.81,-1.466 0,-0.037 0.031,-0.152 -0.187,-0.152 -0.28,0 -0.444,0.039 -0.801,0.039 -0.382,0 -0.655,-0.039 -0.771,-0.039 -0.117,0 -0.149,0.076 -0.149,0.134 0,0.342 0.639,0.104 0.67,1.104 l 0.109,3.825 c 0.047,1.571 -0.787,1.124 -0.787,1.542 0,0.058 0.04,0.133 0.094,0.133 0.101,0 0.218,-0.038 0.467,-0.038 0.18,0 0.468,0.038 0.724,0.038 0.086,0 0.164,0.011 0.273,-0.275 L 2.166,0.277 c 0.03,-0.087 0.053,-0.152 0.1,-0.152 0.047,0 0.117,0.171 0.125,0.2 l 1.807,4.606 c 0.023,0.066 0.046,0.189 0.194,0.189 0.187,0 0.335,-0.038 0.451,-0.038 0.141,0 0.289,0.038 0.507,0.038 0.21,0 0.226,-0.038 0.226,-0.114 0,-0.342 -0.763,0.029 -0.733,-1.065 l 0.133,-4.217 c 0.04,-1.246 0.755,-0.828 0.755,-1.18 0,-0.162 -0.1,-0.162 -0.373,-0.162 -0.226,0 -0.444,0.039 -0.67,0.039 -0.506,0 -0.693,-0.039 -0.872,-0.039 -0.163,0 -0.358,-0.028 -0.358,0.143 0,0.324 0.607,0.009 0.56,1.067 L 3.901,2.475 C 3.894,2.761 3.886,2.903 3.84,2.903 3.808,2.903 3.715,2.713 3.598,2.399 L 2.126,-1.361 C 2.08,-1.484 2.048,-1.627 1.924,-1.627 c -0.117,0 -0.156,0.161 -0.195,0.266 L 0.219,2.742 C 0.195,2.799 0.164,2.903 0.133,2.903 0.079,2.903 0.079,2.732 0.079,2.666 L 0,0 z"
             style="fill:#18468b;fill-opacity:1;fill-rule:nonzero;stroke:none"
             id="path9433" />
        </g>
        <g
           id="g9435"
           transform="translate(246.2444,44.4238)">
          <path
             inkscape:connector-curvature="0"
             d="m 0,0 c 0.202,0 0.241,-0.096 0.499,-0.838 0.086,-0.258 0.139,-0.428 0.139,-0.638 0,-0.58 -0.553,-0.475 -0.553,-0.752 0,-0.133 0.102,-0.114 0.242,-0.114 0.226,0 0.514,0.039 0.857,0.039 0.514,0 0.724,-0.039 1.003,-0.039 0.211,0 0.281,-0.019 0.281,0.143 0,0.314 -0.42,-0.057 -0.669,0.618 l -2.102,5.825 c -0.102,0.286 -0.118,0.304 -0.187,0.304 -0.102,0 -0.141,-0.18 -0.195,-0.333 l -2.11,-5.757 c -0.196,-0.533 -0.593,-0.476 -0.593,-0.695 0,-0.124 0.126,-0.105 0.234,-0.105 0.226,0 0.452,0.039 0.686,0.039 0.249,0 0.483,-0.039 0.731,-0.039 0.164,0 0.405,-0.066 0.405,0.134 0,0.257 -0.84,0.104 -0.84,0.79 0,0.228 0.109,0.561 0.163,0.751 C -1.83,-0.039 -1.667,0 -1.535,0 L 0,0 z m -1.3,0.514 c -0.141,0 -0.25,-0.01 -0.25,0.086 0,0.132 0.047,0.238 0.086,0.351 l 0.599,1.685 c 0.04,0.104 0.071,0.114 0.086,0.114 0.039,0 0.016,0 0.063,-0.076 L -0.077,0.951 C -0.039,0.838 0.008,0.732 0.008,0.6 0.008,0.504 -0.101,0.514 -0.241,0.514 l -1.059,0 z"
             style="fill:#18468b;fill-opacity:1;fill-rule:nonzero;stroke:none"
             id="path9437" />
        </g>
        <g
           id="g9439"
           transform="translate(251.2251,43.2625)">
          <path
             inkscape:connector-curvature="0"
             d="m 0,0 c 0,-1.171 0.872,-0.733 0.872,-1.038 0,-0.104 -0.07,-0.143 -0.249,-0.143 -0.288,0 -0.576,0.039 -1.184,0.039 -0.335,0 -0.67,-0.039 -0.872,-0.039 -0.07,0 -0.085,0.067 -0.085,0.114 0,0.334 0.56,0.087 0.56,0.991 l 0,4.568 c 0,0.866 -0.88,0.599 -0.88,0.932 0,0.162 0.194,0.134 0.265,0.134 0.303,0 0.607,-0.039 0.879,-0.039 0.281,0 0.562,0.039 1.005,0.039 0.234,0 0.273,-0.019 0.273,-0.134 C 0.584,5.101 0,5.443 0,4.54 L 0,0 z"
             style="fill:#18468b;fill-opacity:1;fill-rule:nonzero;stroke:none"
             id="path9441" />
        </g>
        <g
           id="g9443"
           transform="translate(253.8076,43.0714)">
          <path
             inkscape:connector-curvature="0"
             d="m 0,0 c 0,-0.856 -0.623,-0.494 -0.623,-0.856 0,-0.172 0.179,-0.134 0.311,-0.134 0.241,0 0.475,0.04 0.717,0.04 0.288,0 0.715,-0.04 1.627,-0.04 0.833,0 2.866,0.858 2.866,3.608 0,2.979 -2.267,3.131 -3.31,3.131 -0.404,0 -0.802,-0.038 -1.206,-0.038 -0.772,0 -0.927,0.038 -1.076,0.038 -0.054,0 -0.14,-0.057 -0.14,-0.152 C -0.834,5.244 0,5.558 0,4.588 L 0,0 z m 0.957,4.493 c 0,0.657 0.047,0.894 0.631,0.894 1.947,0 2.328,-2.169 2.328,-3.073 0,-1.971 -0.863,-2.942 -2.079,-2.942 -0.303,0 -0.88,0.067 -0.88,0.694 l 0,4.427 z"
             style="fill:#18468b;fill-opacity:1;fill-rule:nonzero;stroke:none"
             id="path9445" />
        </g>
        <g
           id="g9447"
           transform="translate(267.9216,47.7451)">
          <path
             inkscape:connector-curvature="0"
             d="m 0,0 c 0,0.456 -0.078,0.504 -0.397,0.504 l -0.655,0 c -0.879,0 -0.645,-1.247 -0.996,-1.247 -0.164,0 -0.117,0.21 -0.101,0.334 l 0.124,1.256 c 0.008,0.095 0.008,0.228 0.125,0.228 0.724,0 1.246,-0.038 2.382,-0.038 1.138,0 1.659,0.038 2.383,0.038 0.117,0 0.117,-0.133 0.125,-0.228 l 0.086,-0.876 c 0.015,-0.115 0.1,-0.485 -0.102,-0.485 -0.311,0 -0.062,1.056 -0.957,1.018 l -0.662,0 C 1.035,0.504 0.958,0.456 0.958,0 l 0,-4.302 c 0,-1.171 0.996,-0.895 0.996,-1.161 0,-0.229 -0.155,-0.2 -0.381,-0.2 -0.312,0 -0.569,0.038 -1.091,0.038 -0.521,0 -0.778,-0.038 -1.09,-0.038 -0.14,0 -0.272,-0.01 -0.272,0.2 0,0.371 0.88,-0.086 0.88,1.046 L 0,0 z"
             style="fill:#18468b;fill-opacity:1;fill-rule:nonzero;stroke:none"
             id="path9449" />
        </g>
        <g
           id="g9451"
           transform="translate(271.2884,45.2322)">
          <path
             inkscape:connector-curvature="0"
             d="m 0,0 c 0,-1.931 1.051,-3.217 2.617,-3.217 2.484,0 2.959,2.332 2.959,3.664 0,2.018 -1.16,3.246 -2.679,3.227 C 1.036,3.655 0,2.084 0,0 m 0.958,0.543 c 0,1.38 0.39,2.693 1.706,2.721 1.004,0.019 1.954,-1.084 1.954,-3.187 0,-1.58 -0.436,-2.856 -1.775,-2.885 -1.395,-0.028 -1.885,1.962 -1.885,3.351"
             style="fill:#18468b;fill-opacity:1;fill-rule:nonzero;stroke:none"
             id="path9453" />
        </g>
        <g
           id="g9455"
           transform="translate(277.9591,46.9931)">
          <path
             inkscape:connector-curvature="0"
             d="m 0,0 c 0,1.827 -0.873,1.209 -0.873,1.665 0,0.087 0.039,0.162 0.132,0.162 0.148,0 0.289,-0.038 0.437,-0.038 0.202,0 0.404,0.038 0.817,0.038 0.249,0 0.156,-0.066 0.296,-0.247 L 3.94,-2.617 c 0.1,-0.134 0.194,-0.248 0.241,-0.248 0.046,0 0.061,0.114 0.061,0.352 l 0,3.17 c 0,0.865 -0.949,0.695 -0.949,1.008 0,0.067 0.023,0.162 0.125,0.162 0.125,0 0.349,-0.038 0.887,-0.038 0.491,0 0.763,0.038 0.833,0.038 0.149,0 0.149,-0.095 0.149,-0.123 0,-0.285 -0.662,-0.058 -0.662,-1.057 l 0,-5.339 c 0,-0.209 0,-0.285 -0.093,-0.285 -0.11,0 -0.149,0.056 -0.204,0.132 L 0.584,0.105 C 0.528,0.181 0.481,0.228 0.443,0.228 0.396,0.228 0.381,0.162 0.381,0.076 l 0,-3.236 c 0,-1.827 0.996,-1.18 0.996,-1.627 0,-0.134 -0.194,-0.124 -0.296,-0.124 -0.381,0 -0.646,0.038 -0.918,0.038 -0.249,0 -0.461,-0.038 -0.67,-0.038 -0.086,0 -0.241,-0.047 -0.241,0.114 0,0.381 0.748,0.209 0.748,1.181 L 0,0 z"
             style="fill:#18468b;fill-opacity:1;fill-rule:nonzero;stroke:none"
             id="path9457" />
        </g>
        <g
           id="g9459"
           transform="translate(285.4919,46.3749)">
          <path
             inkscape:connector-curvature="0"
             d="m 0,0 c 0,-0.41 0,-0.477 0.335,-0.477 l 0.491,0 c 0.669,0 0.692,0.876 0.848,0.876 0.055,0 0.141,0.02 0.149,-0.237 l 0.054,-1.695 c 0.008,-0.123 0.055,-0.466 -0.133,-0.466 -0.249,0 -0.03,1.009 -0.841,1.009 l -0.576,0 C -0.031,-0.99 0,-1.104 0,-1.656 l 0,-1.219 c 0,-0.59 -0.031,-0.932 0.53,-0.932 1.931,0 1.822,1.246 2.118,1.246 0.031,0 0.086,-0.028 0.086,-0.21 0,-0.742 -0.461,-1.522 -1.098,-1.522 -1.185,0 -1.651,0.038 -2.041,0.038 -0.24,0 -0.569,-0.038 -0.996,-0.038 -0.101,0 -0.148,0.047 -0.148,0.105 0,0.438 0.592,-0.076 0.592,1.085 l 0,4.454 c 0,0.857 -0.881,0.552 -0.881,0.932 0,0.087 0.063,0.162 0.172,0.162 0.319,0 0.88,-0.038 2.071,-0.038 0.553,0 1.09,0.038 1.776,0.038 0.101,0 0.156,-0.095 0.156,-0.181 L 2.367,1.322 C 2.375,1.198 2.414,0.885 2.235,0.885 1.869,0.885 2.476,1.998 0.973,1.998 0.032,1.998 0,1.989 0,1.333 L 0,0 z"
             style="fill:#18468b;fill-opacity:1;fill-rule:nonzero;stroke:none"
             id="path9461" />
        </g>
        <g
           id="g9463"
           transform="translate(235.9901,38.2728)">
          <path
             inkscape:connector-curvature="0"
             d="m 0,0 0.342,0 c 0.172,0 0.299,-0.09 0.299,-0.256 0,-0.196 -0.095,-0.279 -0.365,-0.279 L 0,-0.535 0,0 z m -0.489,1.314 0,-2.263 0.955,0 c 0.571,0 0.693,0.406 0.693,0.663 0,0.265 -0.138,0.498 -0.417,0.581 0.164,0.093 0.267,0.262 0.267,0.452 0,0.251 -0.187,0.567 -0.65,0.567 l -0.848,0 z M 0,0.899 l 0.255,0 c 0.179,0 0.25,-0.123 0.25,-0.239 0,-0.119 -0.071,-0.246 -0.25,-0.246 L 0,0.414 0,0.899 z"
             style="fill:#18468b;fill-opacity:1;fill-rule:nonzero;stroke:none"
             id="path9465" />
        </g>
        <g
           id="g9467"
           transform="translate(241.0423,38.0863)">
          <path
             inkscape:connector-curvature="0"
             d="m 0,0 c 0,0.587 -0.419,0.797 -0.744,0.797 -0.392,0 -0.751,-0.272 -0.751,-0.793 0,-0.481 0.316,-0.796 0.751,-0.796 C -0.451,-0.792 0,-0.606 0,0 m -0.446,0.014 c 0,-0.335 -0.103,-0.52 -0.298,-0.52 -0.159,0 -0.305,0.116 -0.305,0.51 0,0.345 0.123,0.507 0.305,0.507 0.21,0 0.298,-0.199 0.298,-0.497"
             style="fill:#18468b;fill-opacity:1;fill-rule:nonzero;stroke:none"
             id="path9469" />
        </g>
        <g
           id="g9471"
           transform="translate(243.901,38.4152)">
          <path
             inkscape:connector-curvature="0"
             d="m 0,0 0.006,0 c 0.124,0.318 0.262,0.468 0.423,0.468 0.083,0 0.155,-0.037 0.276,-0.14 L 0.59,-0.096 C 0.481,-0.017 0.409,0.017 0.342,0.017 0.19,0.017 0.092,-0.149 0,-0.431 l 0,-0.66 -0.417,0 0,1.529 L 0,0.438 0,0 z"
             style="fill:#18468b;fill-opacity:1;fill-rule:nonzero;stroke:none"
             id="path9473" />
        </g>
        <g
           id="g9475"
           transform="translate(248.2701,38.0863)">
          <path
             inkscape:connector-curvature="0"
             d="m 0,0 c 0,0.587 -0.42,0.797 -0.746,0.797 -0.39,0 -0.749,-0.272 -0.749,-0.793 0,-0.481 0.315,-0.796 0.749,-0.796 C -0.452,-0.792 0,-0.606 0,0 m -0.446,0.014 c 0,-0.335 -0.103,-0.52 -0.3,-0.52 -0.157,0 -0.304,0.116 -0.304,0.51 0,0.345 0.124,0.507 0.304,0.507 0.211,0 0.3,-0.199 0.3,-0.497"
             style="fill:#18468b;fill-opacity:1;fill-rule:nonzero;stroke:none"
             id="path9477" />
        </g>
        <g
           id="g9479"
           transform="translate(251.6144,37.5432)">
          <path
             inkscape:connector-curvature="0"
             d="m 0,0 c -0.133,-0.176 -0.261,-0.25 -0.428,-0.25 -0.262,0 -0.487,0.186 -0.487,0.582 l 0,0.978 0.418,0 0,-0.946 c 0,-0.215 0.1,-0.291 0.21,-0.291 0.126,0 0.241,0.113 0.284,0.261 l 0,0.976 0.42,0 0,-1.53 L 0,-0.22 0,0 z"
             style="fill:#18468b;fill-opacity:1;fill-rule:nonzero;stroke:none"
             id="path9481" />
        </g>
        <g
           id="g9483"
           transform="translate(255.4629,37.0388)">
          <path
             inkscape:connector-curvature="0"
             d="m 0,0 c 0,-0.103 -0.115,-0.193 -0.299,-0.193 -0.222,0 -0.343,0.064 -0.343,0.179 0,0.113 0.121,0.183 0.317,0.183 C -0.118,0.169 0,0.11 0,0 m 0.416,1.815 -0.787,0 c -0.478,0 -0.593,-0.369 -0.593,-0.559 0,-0.281 0.201,-0.441 0.371,-0.47 l 0,-0.007 C -0.67,0.759 -0.834,0.716 -0.834,0.554 c 0,-0.109 0.071,-0.17 0.16,-0.2 l 0,-0.006 c -0.292,-0.086 -0.353,-0.252 -0.353,-0.381 0,-0.203 0.149,-0.445 0.707,-0.445 0.429,0 0.702,0.16 0.702,0.515 0,0.076 -0.02,0.195 -0.107,0.295 -0.218,0.256 -0.723,0.102 -0.723,0.278 0,0.179 0.384,0.021 0.62,0.291 0.072,0.085 0.121,0.2 0.121,0.336 0,0.089 -0.021,0.163 -0.067,0.255 l 0.19,0 0,0.323 z M -0.576,1.251 c 0,0.155 0.104,0.278 0.242,0.278 0.143,0 0.238,-0.123 0.238,-0.262 0,-0.16 -0.105,-0.292 -0.238,-0.292 -0.132,0 -0.242,0.126 -0.242,0.276"
             style="fill:#18468b;fill-opacity:1;fill-rule:nonzero;stroke:none"
             id="path9485" />
        </g>
        <g
           id="g9487"
           transform="translate(258.6606,38.6277)">
          <path
             inkscape:connector-curvature="0"
             d="m 0,0 0.005,0 c 0.122,0.175 0.256,0.255 0.421,0.255 0.241,0 0.485,-0.17 0.485,-0.584 l 0,-0.975 -0.416,0 0,0.872 c 0,0.23 -0.087,0.336 -0.216,0.336 -0.098,0 -0.181,-0.07 -0.279,-0.233 l 0,-0.975 -0.417,0 0,2.262 L 0,0.958 0,0 z"
             style="fill:#18468b;fill-opacity:1;fill-rule:nonzero;stroke:none"
             id="path9489" />
        </g>
        <g
           id="g9491"
           transform="translate(266.8904,37.5199)">
          <path
             inkscape:connector-curvature="0"
             d="m 0,0 c -0.273,-0.163 -0.48,-0.226 -0.77,-0.226 -0.762,0 -1.142,0.57 -1.142,1.154 0,0.605 0.429,1.168 1.178,1.168 0.275,0 0.518,-0.066 0.711,-0.199 l 0,-0.504 c -0.215,0.14 -0.433,0.232 -0.675,0.232 -0.418,0 -0.71,-0.286 -0.71,-0.687 0,-0.404 0.29,-0.693 0.698,-0.693 0.257,0 0.429,0.093 0.71,0.249 L 0,0 z"
             style="fill:#18468b;fill-opacity:1;fill-rule:nonzero;stroke:none"
             id="path9493" />
        </g>
        <g
           id="g9495"
           transform="translate(270.8145,38.0863)">
          <path
             inkscape:connector-curvature="0"
             d="m 0,0 c 0,0.587 -0.421,0.797 -0.745,0.797 -0.392,0 -0.752,-0.272 -0.752,-0.793 0,-0.481 0.318,-0.796 0.752,-0.796 C -0.453,-0.792 0,-0.606 0,0 m -0.446,0.014 c 0,-0.335 -0.104,-0.52 -0.299,-0.52 -0.159,0 -0.305,0.116 -0.305,0.51 0,0.345 0.123,0.507 0.305,0.507 0.21,0 0.299,-0.199 0.299,-0.497"
             style="fill:#18468b;fill-opacity:1;fill-rule:nonzero;stroke:none"
             id="path9497" />
        </g>
        <g
           id="g9499"
           transform="translate(274.1587,37.5432)">
          <path
             inkscape:connector-curvature="0"
             d="m 0,0 c -0.132,-0.176 -0.262,-0.25 -0.429,-0.25 -0.261,0 -0.486,0.186 -0.486,0.582 l 0,0.978 0.418,0 0,-0.946 c 0,-0.215 0.1,-0.291 0.209,-0.291 0.127,0 0.241,0.113 0.285,0.261 l 0,0.976 0.42,0 0,-1.53 L 0,-0.22 0,0 z"
             style="fill:#18468b;fill-opacity:1;fill-rule:nonzero;stroke:none"
             id="path9501" />
        </g>
        <g
           id="g9503"
           transform="translate(277.4882,38.6338)">
          <path
             inkscape:connector-curvature="0"
             d="m 0,0 c 0.132,0.177 0.262,0.25 0.432,0.25 0.207,0 0.484,-0.137 0.484,-0.588 l 0,-0.972 -0.418,0 0,0.932 c 0,0.215 -0.089,0.305 -0.207,0.305 C 0.188,-0.073 0.11,-0.136 0,-0.325 l 0,-0.985 -0.416,0 0,1.53 L 0,0.22 0,0 z"
             style="fill:#18468b;fill-opacity:1;fill-rule:nonzero;stroke:none"
             id="path9505" />
        </g>
        <g
           id="g9507"
           transform="translate(282.059,37.3971)">
          <path
             inkscape:connector-curvature="0"
             d="m 0,0 c -0.167,-0.07 -0.309,-0.103 -0.449,-0.103 -0.466,0 -0.768,0.312 -0.768,0.789 0,0.468 0.314,0.801 0.751,0.801 0.135,0 0.307,-0.042 0.445,-0.101 l 0,-0.358 c -0.109,0.066 -0.236,0.104 -0.338,0.104 -0.251,0 -0.412,-0.174 -0.412,-0.443 0,-0.271 0.158,-0.45 0.397,-0.45 0.1,0 0.19,0.026 0.374,0.105 L 0,0 z"
             style="fill:#18468b;fill-opacity:1;fill-rule:nonzero;stroke:none"
             id="path9509" />
        </g>
        <g
           id="g9511"
           transform="translate(284.9341,39.3503)">
          <path
             inkscape:connector-curvature="0"
             d="m 0,0 c 0,-0.146 -0.104,-0.265 -0.23,-0.265 -0.126,0 -0.23,0.119 -0.23,0.265 0,0.146 0.104,0.266 0.23,0.266 C -0.104,0.266 0,0.146 0,0 m -0.02,-2.027 -0.417,0 0,1.529 0.417,0 0,-1.529 z"
             style="fill:#18468b;fill-opacity:1;fill-rule:nonzero;stroke:none"
             id="path9513" />
        </g>
      </g>
    </g>
    <path
       inkscape:connector-curvature="0"
       d="m 938.76308,978.31463 7.83963,0 0,-42.63129 -7.83963,0 0,42.63129 z"
       style="fill:#18468b;fill-opacity:1;fill-rule:nonzero;stroke:none"
       id="path9515" />
    <g
       transform="matrix(18.838749,0,0,-18.838786,-4476.029,1681.4531)"
       id="g9517">
      <g
         id="g9519"
         clip-path="url(#clipPath9521)">
        <g
           id="g9525"
           transform="translate(260.5715,53.0014)">
          <path
             inkscape:connector-curvature="0"
             d="m 0,0 3.672,0.002 c 0,0 -0.914,0.573 -2.038,0.506 C 0.646,0.45 0,0 0,0"
             style="fill:#18468b;fill-opacity:1;fill-rule:nonzero;stroke:none"
             id="path9527" />
        </g>
      </g>
    </g>
    <g
       id="g9529"
       transform="matrix(18.838749,0,0,-18.838786,419.98644,692.62644)">
      <path
         inkscape:connector-curvature="0"
         d="M 0,0 -0.495,-0.536 2.277,-0.531 2.945,0.005 0,0 z"
         style="fill:#18468b;fill-opacity:1;fill-rule:nonzero;stroke:none"
         id="path9531" />
    </g>
    <g
       id="g9533"
       transform="matrix(18.838749,0,0,-18.838786,404.03183,712.51429)">
      <path
         inkscape:connector-curvature="0"
         d="M 0,0 -0.291,-0.538 2.643,-0.533 2.877,0.005 0,0 z"
         style="fill:#18468b;fill-opacity:1;fill-rule:nonzero;stroke:none"
         id="path9535" />
    </g>
    <g
       id="g9537"
       transform="matrix(18.838749,0,0,-18.838786,394.52026,732.21625)">
      <path
         inkscape:connector-curvature="0"
         d="M 0,0 -0.127,-0.539 3.082,-0.541 3.038,0.001 0,0 z"
         style="fill:#18468b;fill-opacity:1;fill-rule:nonzero;stroke:none"
         id="path9539" />
    </g>
    <g
       transform="matrix(18.838749,0,0,-18.838786,-4476.029,1681.4531)"
       id="g9541">
      <g
         id="g9543"
         clip-path="url(#clipPath9545)">
        <g
           id="g9549"
           transform="translate(263.1346,41.7214)">
          <path
             inkscape:connector-curvature="0"
             d="m 0,0 -4.457,0.006 c 0,0 1.032,-0.663 2.668,-0.509 C -0.781,-0.408 0,0 0,0"
             style="fill:#18468b;fill-opacity:1;fill-rule:nonzero;stroke:none"
             id="path9551" />
        </g>
      </g>
    </g>
    <g
       id="g9553"
       transform="matrix(18.838749,0,0,-18.838786,432.82123,885.79342)">
      <path
         inkscape:connector-curvature="0"
         d="M 0,0 3.336,-0.005 3.873,0.525 0.671,0.535 0,0 z"
         style="fill:#18468b;fill-opacity:1;fill-rule:nonzero;stroke:none"
         id="path9555" />
    </g>
    <g
       id="g9557"
       transform="matrix(18.838749,0,0,-18.838786,457.84666,855.59697)">
      <path
         inkscape:connector-curvature="0"
         d="m 0,0 -0.252,-0.538 3.189,-0.01 0.32,0.55 L 0,0 z"
         style="fill:#18468b;fill-opacity:1;fill-rule:nonzero;stroke:none"
         id="path9559" />
    </g>
    <g
       id="g9561"
       transform="matrix(18.838749,0,0,-18.838786,459.83042,845.54261)">
      <path
         inkscape:connector-curvature="0"
         d="M 0,0 3.361,0 3.493,0.532 -0.057,0.542 0,0 z"
         style="fill:#18468b;fill-opacity:1;fill-rule:nonzero;stroke:none"
         id="path9563" />
    </g>
    <g
       id="g9565"
       transform="matrix(18.838749,0,0,-18.838786,445.07962,814.92212)">
      <path
         inkscape:connector-curvature="0"
         d="M 0,0 0.579,-0.548 4.298,-0.542 4.202,0.003 0,0 z"
         style="fill:#18468b;fill-opacity:1;fill-rule:nonzero;stroke:none"
         id="path9567" />
    </g>
    <g
       id="g9569"
       transform="matrix(18.838749,0,0,-18.838786,430.71887,804.71514)">
      <path
         inkscape:connector-curvature="0"
         d="M 0,0 4.741,0.011 4.405,0.541 -0.876,0.552 0,0 z"
         style="fill:#18468b;fill-opacity:1;fill-rule:nonzero;stroke:none"
         id="path9571" />
    </g>
    <g
       id="g9573"
       transform="matrix(18.838749,0,0,-18.838786,396.63952,773.87416)">
      <path
         inkscape:connector-curvature="0"
         d="m 0,0 0.331,-0.545 5.425,0 L 5.196,0.002 0,0 z"
         style="fill:#18468b;fill-opacity:1;fill-rule:nonzero;stroke:none"
         id="path9575" />
    </g>
    <g
       id="g9577"
       transform="matrix(18.838749,0,0,-18.838786,393.7062,763.78607)">
      <path
         inkscape:connector-curvature="0"
         d="M 0,0 4.341,-0.008 3.577,0.538 -0.161,0.544 0,0 z"
         style="fill:#18468b;fill-opacity:1;fill-rule:nonzero;stroke:none"
         id="path9579" />
    </g>
    <g
       transform="matrix(18.838749,0,0,-18.838786,-4476.029,1681.4531)"
       id="g9581"
       style="fill:#f57b20;fill-opacity:1">
      <g
         id="g9583"
         clip-path="url(#clipPath9585)"
         style="fill:#f57b20;fill-opacity:1">
        <g
           id="g9589"
           transform="translate(256.8553,51.929)"
           style="fill:#f57b20;fill-opacity:1">
          <path
             inkscape:connector-curvature="0"
             d="m 0,0 0.668,-0.241 c 0,0 0.099,0.279 0.238,0.543 0.139,0.263 0.305,0.506 0.305,0.506 L 0.613,1.205 c 0,0 -0.173,-0.244 -0.348,-0.584 C 0.106,0.312 0,0 0,0"
             style="fill:#f57b20;fill-opacity:1;fill-rule:nonzero;stroke:none"
             id="path9591" />
        </g>
      </g>
    </g>
    <path
       inkscape:connector-curvature="0"
       d="m 363.55864,528.25635 13.45088,0 0,-17.49424 -13.45088,0 0,17.49424 z"
       style="fill:#f57b20;fill-opacity:1;fill-rule:nonzero;stroke:none"
       id="path9593" />
    <path
       inkscape:connector-curvature="0"
       d="m 339.29431,528.25635 13.45087,0 0,-17.49424 -13.45087,0 0,17.49424 z"
       style="fill:#f57b20;fill-opacity:1;fill-rule:nonzero;stroke:none"
       id="path9595" />
    <path
       inkscape:connector-curvature="0"
       d="m 388.44464,528.25635 13.45087,0 0,-17.49424 -13.45087,0 0,17.49424 z"
       style="fill:#f57b20;fill-opacity:1;fill-rule:nonzero;stroke:none"
       id="path9597" />
    <path
       inkscape:connector-curvature="0"
       d="m 362.54133,565.23678 13.46976,0 0,-17.49425 -13.46976,0 0,17.49425 z"
       style="fill:#f57b20;fill-opacity:1;fill-rule:nonzero;stroke:none"
       id="path9599" />
    <path
       inkscape:connector-curvature="0"
       d="m 387.40847,565.23678 13.46976,0 0,-17.49425 -13.46976,0 0,17.49425 z"
       style="fill:#f57b20;fill-opacity:1;fill-rule:nonzero;stroke:none"
       id="path9601" />
    <path
       inkscape:connector-curvature="0"
       d="m 616.78955,677.19563 12.69729,0 0,-17.49423 -12.69729,0 0,17.49423 z"
       style="fill:#f57b20;fill-opacity:1;fill-rule:nonzero;stroke:none"
       id="path9603" />
    <path
       inkscape:connector-curvature="0"
       d="m 616.41276,714.15708 13.30011,0 0,-28.15952 -13.30011,0 0,28.15952 z"
       style="fill:#f57b20;fill-opacity:1;fill-rule:nonzero;stroke:none"
       id="path9605" />
    <path
       inkscape:connector-curvature="0"
       d="m 387.76654,599.20312 13.46955,0 0,-22.89004 -13.46955,0 0,22.89004 z"
       style="fill:#f57b20;fill-opacity:1;fill-rule:nonzero;stroke:none"
       id="path9607" />
    <path
       inkscape:connector-curvature="0"
       d="m 338.87981,565.23678 13.46975,0 0,-17.49425 -13.46975,0 0,17.49425 z"
       style="fill:#f57b20;fill-opacity:1;fill-rule:nonzero;stroke:none"
       id="path9609" />
    <path
       inkscape:connector-curvature="0"
       d="m 339.21901,599.20312 13.46954,0 0,-22.89004 -13.46954,0 0,22.89004 z"
       style="fill:#f57b20;fill-opacity:1;fill-rule:nonzero;stroke:none"
       id="path9611" />
    <g
       transform="matrix(18.838749,0,0,-18.838786,-4476.029,1681.4531)"
       id="g9613"
       style="fill:#f57b20;fill-opacity:1">
      <g
         id="g9615"
         clip-path="url(#clipPath9617)"
         style="fill:#f57b20;fill-opacity:1">
        <g
           id="g9621"
           transform="translate(257.2184,63.0392)"
           style="fill:#f57b20;fill-opacity:1">
          <path
             inkscape:connector-curvature="0"
             d="M 0,0 C 0.195,0 0.353,0.158 0.353,0.353 0.353,0.549 0.195,0.707 0,0.707 -0.195,0.707 -0.354,0.549 -0.354,0.353 -0.354,0.158 -0.195,0 0,0"
             style="fill:#f57b20;fill-opacity:1;fill-rule:nonzero;stroke:none"
             id="path9623" />
        </g>
        <g
           id="g9625"
           transform="translate(260.2875,55.2164)"
           style="fill:#f57b20;fill-opacity:1">
          <path
             inkscape:connector-curvature="0"
             d="m 0,0 0.192,-0.684 c 0,0 0.285,0.081 0.58,0.122 0.294,0.039 0.589,0.045 0.589,0.045 L 1.338,0.2 c 0,0 -0.3,0 -0.679,-0.056 C 0.315,0.095 0,0 0,0"
             style="fill:#f57b20;fill-opacity:1;fill-rule:nonzero;stroke:none"
             id="path9627" />
        </g>
        <g
           id="g9629"
           transform="translate(258.81,54.5083)"
           style="fill:#f57b20;fill-opacity:1">
          <path
             inkscape:connector-curvature="0"
             d="m 0,0 0.395,-0.59 c 0,0 0.246,0.166 0.513,0.296 0.268,0.13 0.546,0.227 0.546,0.227 L 1.208,0.608 c 0,0 -0.284,-0.094 -0.628,-0.265 C 0.27,0.188 0,0 0,0"
             style="fill:#f57b20;fill-opacity:1;fill-rule:nonzero;stroke:none"
             id="path9631" />
        </g>
        <g
           id="g9633"
           transform="translate(257.6264,53.3751)"
           style="fill:#f57b20;fill-opacity:1">
          <path
             inkscape:connector-curvature="0"
             d="m 0,0 0.56,-0.437 c 0,0 0.181,0.234 0.395,0.441 C 1.169,0.211 1.402,0.39 1.402,0.39 L 0.958,0.954 c 0,0 -0.24,-0.178 -0.513,-0.447 C 0.198,0.262 0,0 0,0"
             style="fill:#f57b20;fill-opacity:1;fill-rule:nonzero;stroke:none"
             id="path9635" />
        </g>
        <g
           id="g9637"
           transform="translate(256.5734,50.3158)"
           style="fill:#f57b20;fill-opacity:1">
          <path
             inkscape:connector-curvature="0"
             d="m 0,0 0.71,-0.021 c 0,0 0.007,0.296 0.057,0.59 0.05,0.293 0.132,0.575 0.132,0.575 L 0.207,1.335 c 0,0 -0.089,-0.285 -0.149,-0.664 C 0.003,0.328 0,0 0,0"
             style="fill:#f57b20;fill-opacity:1;fill-rule:nonzero;stroke:none"
             id="path9639" />
        </g>
      </g>
    </g>
    <path
       inkscape:connector-curvature="0"
       d="m 357.41723,752.38107 21.53212,0 0,-13.74255 -21.53212,0 0,13.74255 z"
       style="fill:#f57b20;fill-opacity:1;fill-rule:nonzero;stroke:none"
       id="path9641" />
    <path
       inkscape:connector-curvature="0"
       d="m 331.28788,752.38107 21.54726,0 0,-13.74255 -21.54726,0 0,13.74255 z"
       style="fill:#f57b20;fill-opacity:1;fill-rule:nonzero;stroke:none"
       id="path9643" />
    <path
       inkscape:connector-curvature="0"
       d="m 557.78647,752.38107 21.53213,0 0,-13.74255 -21.53213,0 0,13.74255 z"
       style="fill:#f57b20;fill-opacity:1;fill-rule:nonzero;stroke:none"
       id="path9645" />
    <path
       inkscape:connector-curvature="0"
       d="m 531.63826,752.38107 21.54727,0 0,-13.74255 -21.54727,0 0,13.74255 z"
       style="fill:#f57b20;fill-opacity:1;fill-rule:nonzero;stroke:none"
       id="path9647" />
    <g
       transform="matrix(18.838749,0,0,-18.838786,-4476.029,1681.4531)"
       id="g9649"
       style="fill:#f57b20;fill-opacity:1">
      <g
         id="g9651"
         clip-path="url(#clipPath9653)"
         style="fill:#f57b20;fill-opacity:1">
        <g
           id="g9657"
           transform="translate(267.2198,50.3158)"
           style="fill:#f57b20;fill-opacity:1">
          <path
             inkscape:connector-curvature="0"
             d="m 0,0 0.71,-0.021 c 0,0 0.007,0.296 0.057,0.59 0.049,0.293 0.131,0.575 0.131,0.575 L 0.206,1.335 c 0,0 -0.087,-0.285 -0.148,-0.664 C 0.003,0.328 0,0 0,0"
             style="fill:#f57b20;fill-opacity:1;fill-rule:nonzero;stroke:none"
             id="path9659" />
        </g>
        <g
           id="g9661"
           transform="translate(263.2476,55.2164)"
           style="fill:#f57b20;fill-opacity:1">
          <path
             inkscape:connector-curvature="0"
             d="m 0,0 -0.191,-0.684 c 0,0 -0.286,0.081 -0.581,0.122 -0.294,0.039 -0.589,0.045 -0.589,0.045 L -1.337,0.2 c 0,0 0.299,0 0.678,-0.056 C -0.315,0.095 0,0 0,0"
             style="fill:#f57b20;fill-opacity:1;fill-rule:nonzero;stroke:none"
             id="path9663" />
        </g>
        <g
           id="g9665"
           transform="translate(264.7249,54.5083)"
           style="fill:#f57b20;fill-opacity:1">
          <path
             inkscape:connector-curvature="0"
             d="m 0,0 -0.396,-0.59 c 0,0 -0.244,0.166 -0.512,0.296 -0.268,0.13 -0.545,0.227 -0.545,0.227 l 0.246,0.675 c 0,0 0.283,-0.094 0.627,-0.265 C -0.269,0.188 0,0 0,0"
             style="fill:#f57b20;fill-opacity:1;fill-rule:nonzero;stroke:none"
             id="path9667" />
        </g>
        <g
           id="g9669"
           transform="translate(265.9087,53.3751)"
           style="fill:#f57b20;fill-opacity:1">
          <path
             inkscape:connector-curvature="0"
             d="m 0,0 -0.56,-0.437 c 0,0 -0.181,0.234 -0.395,0.441 -0.213,0.207 -0.447,0.386 -0.447,0.386 l 0.444,0.564 c 0,0 0.241,-0.178 0.513,-0.447 C -0.198,0.262 0,0 0,0"
             style="fill:#f57b20;fill-opacity:1;fill-rule:nonzero;stroke:none"
             id="path9671" />
        </g>
        <g
           id="g9673"
           transform="translate(266.68,51.929)"
           style="fill:#f57b20;fill-opacity:1">
          <path
             inkscape:connector-curvature="0"
             d="m 0,0 -0.668,-0.241 c 0,0 -0.099,0.279 -0.238,0.543 -0.139,0.263 -0.305,0.506 -0.305,0.506 l 0.598,0.397 c 0,0 0.173,-0.244 0.348,-0.584 C -0.106,0.312 0,0 0,0"
             style="fill:#f57b20;fill-opacity:1;fill-rule:nonzero;stroke:none"
             id="path9675" />
        </g>
        <g
           id="g9677"
           transform="translate(266.9617,50.3158)"
           style="fill:#f57b20;fill-opacity:1">
          <path
             inkscape:connector-curvature="0"
             d="m 0,0 -0.709,-0.021 c 0,0 -0.008,0.296 -0.058,0.59 -0.05,0.293 -0.132,0.575 -0.132,0.575 l 0.692,0.191 c 0,0 0.089,-0.285 0.149,-0.664 C -0.003,0.328 0,0 0,0"
             style="fill:#f57b20;fill-opacity:1;fill-rule:nonzero;stroke:none"
             id="path9679" />
        </g>
        <g
           id="g9681"
           transform="translate(256.3343,50.3158)"
           style="fill:#f57b20;fill-opacity:1">
          <path
             inkscape:connector-curvature="0"
             d="m 0,0 -0.71,-0.021 c 0,0 -0.007,0.296 -0.057,0.59 -0.05,0.293 -0.131,0.575 -0.131,0.575 l 0.691,0.191 c 0,0 0.089,-0.285 0.149,-0.664 C -0.003,0.328 0,0 0,0"
             style="fill:#f57b20;fill-opacity:1;fill-rule:nonzero;stroke:none"
             id="path9683" />
        </g>
        <g
           id="g9685"
           transform="translate(268.7979,55.0463)"
           style="fill:#f57b20;fill-opacity:1">
          <path
             inkscape:connector-curvature="0"
             d="m 0,0 c 0.173,0.355 1.527,3.14 1.596,3.285 l 0.484,0 C 2.151,3.131 3.514,0.172 3.593,0 L 0,0 z m -6.929,1.584 c -1.947,0 -4.515,-0.286 -6.616,-0.557 -0.004,0.065 -0.013,0.13 -0.025,0.193 1.97,0.252 4.578,0.534 6.48,0.551 l 0,-0.005 0.59,0 C -4.775,1.719 -1.974,1.404 0.212,1.089 L 0.115,0.888 c -2.051,0.286 -5.304,0.696 -7.044,0.696 m -6.858,3.949 4.558,0 0.006,-3.589 C -9.843,1.898 -10.48,1.842 -11.11,1.777 l 10e-4,1.829 -0.982,-0.003 0,-1.932 c -0.545,-0.062 -1.069,-0.126 -1.556,-0.188 -0.038,0.1 -0.083,0.194 -0.14,0.28 l 0,3.77 z m 0,1.963 4.554,0 0.003,-1.692 -4.557,0 0,1.692 z m 2.173,1.588 c 0.104,-0.068 1.381,-0.892 2.037,-1.316 l -4.004,0 c 0.615,0.41 1.863,1.246 1.967,1.316 m -0.366,0.082 0.004,0 -0.004,-0.003 0,0.003 z m 0.8,0 0,-0.042 -0.063,0.042 0.063,0 z m -0.8,0.356 0.801,0 0,-0.086 -0.801,0 0,0.086 z m 0,0.83 0.801,0 0,-0.559 -0.801,0 0,0.559 z m 0.401,0.708 c 0.336,0 0.389,-0.322 0.398,-0.437 l -0.797,0 c 0.008,0.115 0.062,0.437 0.399,0.437 m 3.161,0.196 0,-0.664 -0.55,-0.003 c 0,0.378 -10e-4,0.62 -10e-4,0.658 0.111,0.002 0.356,0.006 0.551,0.009 m 0.27,-5.512 0.392,0 C -7.795,5.715 -7.974,5.567 -8.148,5.286 l 0,0.458 z m 0.079,2.997 c 0.086,0.223 0.199,0.374 0.293,0.47 l 0,-0.47 -0.293,0 z m -0.054,-0.27 0.347,0 0,-0.442 -0.347,0 0,0.442 z m 0,-0.712 0.347,0 0,-0.425 -0.347,0 0,0.425 z m 0.347,-1.745 -0.347,0 0,0.338 0.347,0 0,-0.338 z m -0.347,1.049 0.347,0 0,-0.441 -0.347,0 0,0.441 z m -0.025,3.259 0.92,0.004 -0.92,-1.034 0,1.03 z m 0,0.495 2.265,0 0,-0.215 -2.265,-0.009 0,0.224 z m 0.642,-5.986 0,0.491 c 0.137,-0.136 0.279,-0.314 0.333,-0.491 l -0.333,0 z m 0,-0.271 0.356,0 0,-0.442 -0.356,0 0,0.442 z m 0,-0.712 0.356,0 0,-0.424 -0.356,0 0,0.424 z m 0.356,-1.803 -0.356,0 0,0.397 0.356,0 0,-0.397 z m -0.356,1.108 0.356,0 0,-0.441 -0.356,0 0,0.441 z m 0.416,2.591 0,-10e-4 0.122,10e-4 0.089,0 0,0.001 0.424,0.004 C -6.482,5.73 -6.771,5.508 -6.974,5.054 c -0.178,0.365 -0.55,0.652 -0.603,0.69 l 0.487,0 z m -0.416,2.997 0,0.441 C -7.37,9.065 -7.229,8.908 -7.175,8.741 l -0.331,0 z m 0,-0.27 0.356,0 0,-0.442 -0.356,0 0,0.442 z m 0,-0.712 0.356,0 0,-0.425 -0.356,0 0,0.425 z m 0.356,-1.745 -0.356,0 0,0.338 0.356,0 0,-0.338 z m -0.356,1.049 0.356,0 0,-0.441 -0.356,0 0,0.441 z m 0.758,1.678 c 0.077,0.186 0.168,0.33 0.251,0.432 l 0,-0.432 -0.251,0 z m -0.077,-0.27 0.327,0 0,-0.442 -0.327,0 0,0.442 z m 0,-0.712 0.327,0 0,-0.425 -0.327,0 0,0.425 z m 0.328,-1.407 0,-0.337 C -6.633,6.014 -6.755,6.012 -6.825,6.012 l 0,0.34 0.328,0 z m -0.328,0.711 0.327,0 0,-0.441 -0.327,0 0,0.441 z m 0.347,2.514 C -6.555,9.515 -6.787,9.302 -6.962,8.925 -7.111,9.24 -7.431,9.477 -7.551,9.557 c 0.228,0.256 0.453,0.509 0.525,0.591 0.076,-0.08 0.311,-0.324 0.548,-0.571 m 0.595,-0.228 -0.941,0.978 0.941,0.004 0,-0.982 z m -0.344,-4.518 0,0.507 c 0.143,-0.139 0.293,-0.323 0.343,-0.507 l -0.343,0 z m 0,-0.271 0.344,0 0,-0.442 -0.344,0 0,0.442 z m 0,-0.712 0.344,0 0,-0.424 -0.344,0 0,0.424 z m 0.344,-1.817 -0.344,0 0,0.411 0.344,0 0,-0.411 z m -0.344,1.122 0.344,0 0,-0.441 -0.344,0 0,0.441 z m 0.344,2.603 0,-0.402 C -6.068,5.58 -6.278,5.739 -6.295,5.751 l 0.412,0.005 z m 0,0.596 0,-0.33 C -5.954,6.021 -6.083,6.019 -6.227,6.018 l 0,0.334 0.344,0 z m 0,0.27 -0.344,0 0,0.441 0.344,0 0,-0.441 z m 0,0.712 -0.344,0 0,0.425 0.344,0 0,-0.425 z m -0.344,1.407 0,0.443 c 0.125,-0.123 0.255,-0.282 0.32,-0.443 l -0.32,0 z m 0.344,-0.712 -0.344,0 0,0.442 0.344,0 0,-0.442 z m -0.614,-5.587 0,-0.406 C -6.612,2.04 -6.718,2.041 -6.825,2.041 l 0,0.401 0.328,0 z m 0,0.271 -0.327,0 0,0.441 0.327,0 0,-0.441 z m 0,0.71 -0.327,0 0,0.424 0.327,0 0,-0.424 z m -0.275,1.408 c 0.081,0.217 0.183,0.384 0.275,0.497 l 0,-0.497 -0.275,0 z m 0.275,-0.713 -0.327,0 0,0.442 0.327,0 0,-0.442 z m -1.279,-2.073 -0.347,0 0,0.397 0.347,0 0,-0.397 z m 0,0.668 -0.347,0 0,0.441 0.347,0 0,-0.441 z m 0,0.71 -0.347,0 0,0.424 0.347,0 0,-0.424 z m -0.288,1.408 c 0.085,0.224 0.193,0.396 0.288,0.51 l 0,-0.51 -0.288,0 z m 0.288,-0.713 -0.347,0 0,0.442 0.347,0 0,-0.442 z M -8.953,1.964 c -0.001,1.005 -0.01,6.205 -0.014,8.355 l 0.549,0.002 0,-8.325 C -8.594,1.987 -8.772,1.976 -8.953,1.964 m 3.352,6.592 c 0,0.027 -0.008,0.054 -0.011,0.08 l 0,1.696 0.586,0.003 0,-8.379 c -0.196,0.014 -0.387,0.028 -0.575,0.04 l 0,6.56 z m -0.011,2.689 0.586,0 0,-0.64 -0.586,-0.002 0,0.642 z m 1.586,-7.711 0,-1.664 c -0.247,0.023 -0.49,0.044 -0.729,0.064 l 0,1.6 0.729,0 z M -4.755,6.287 C -4.502,5.801 -4.134,5.094 -4.086,5.003 -4.143,4.927 -4.497,4.46 -4.755,4.118 l 0,2.169 z m 0,1.642 0.627,-0.983 -0.627,0 0,0.983 z m 0.272,0.281 0.457,0 0,-0.921 -0.537,0.84 c 0.025,0.026 0.051,0.052 0.08,0.081 m 0.893,0.907 0.734,-0.636 -1.36,0 c 0.191,0.195 0.409,0.416 0.626,0.636 m 0.92,0.935 0,-1.374 c -0.201,0.175 -0.549,0.476 -0.729,0.632 0.298,0.303 0.57,0.58 0.729,0.742 m -0.679,-6.518 0,-1.732 C -3.484,1.816 -3.62,1.83 -3.756,1.844 l 0,1.69 0.407,0 z m 0,0.27 -0.408,0 0,2.871 0.408,0 0,-2.871 z m -0.407,4.406 1.086,0 0,-1.264 -1.086,0 0,1.264 z m 0.678,-1.534 0.408,0 0,-0.257 -0.408,0 0,0.257 z m 0.408,-2.872 -0.408,0 0,0.257 0.408,0 0,-0.257 z m -0.408,1.757 0.408,0 0,-0.536 -0.408,0 0,0.536 z m -1.575,1.115 0.627,0 0,-1.203 C -4.24,5.884 -4.55,6.477 -4.653,6.676 m 0.627,-2.872 -0.628,0 c 0.143,0.189 0.43,0.569 0.628,0.831 l 0,-0.831 z m 2.035,-0.27 0,-1.884 c -0.062,0.008 -0.121,0.015 -0.184,0.023 0.002,-0.001 -0.002,1.66 -0.002,1.66 l -0.724,0 c 0,-0.004 0,-1.577 0.002,-1.579 -0.059,0.008 -0.12,0.013 -0.179,0.02 l 0,1.76 1.087,0 z m -0.408,0.528 0.408,0 0,-0.257 -0.408,0 0,0.257 z m 0,1.499 0.408,0 0,-0.536 -0.408,0 0,0.536 z m 0,1.115 0.408,0 0,-0.257 -0.408,0 0,0.257 z m 0,1.41 0,0.124 1.087,0 0,-1.264 -1.087,0 0,1.14 z m 0,1.969 c 0.16,-0.16 0.436,-0.436 0.74,-0.741 l -0.74,-0.637 0,1.378 z m 1.573,-1.574 -1.386,0 c 0.231,0.2 0.604,0.521 0.745,0.642 0.22,-0.221 0.444,-0.444 0.641,-0.642 m 0.277,-0.277 -0.494,-0.822 0,0.828 0.488,0 c 0.002,-0.001 0.004,-0.004 0.006,-0.006 m 0.245,-0.244 0,-1.014 -0.685,0 0.636,1.061 C -0.336,7.991 -0.318,7.973 -0.304,7.96 m -0.166,-4.156 -0.573,0 0,0.837 C -0.856,4.369 -0.596,3.988 -0.47,3.804 m 0.166,2.488 0,-2.252 c -0.242,0.355 -0.623,0.911 -0.68,0.994 0.047,0.087 0.422,0.781 0.68,1.258 m -0.739,-0.797 0,1.181 0.638,0 C -0.512,6.476 -0.826,5.895 -1.043,5.495 m -0.269,-1.961 0,-1.967 c -0.134,0.017 -0.271,0.034 -0.409,0.051 l 0,1.916 0.409,0 z m 0,0.27 -0.409,0 0,2.871 0.409,0 0,-2.871 z m 0.178,-2.26 0.091,0 0,1.99 0.739,0 0,-2.1 c -0.259,0.035 -0.536,0.072 -0.83,0.11 m 1.676,2.026 0,0.072 0.968,0 c 0,0 0.423,0.929 0.489,1.071 l 0.15,0 C 2.128,4.49 2.059,3.758 2.042,3.57 l -0.624,0 -0.876,0 z M 3.839,0 c 0.019,0.009 0.056,0.026 0.056,0.026 l -1.578,3.426 0.145,1.547 -0.156,0 -0.491,0 c 0,0 -0.423,-0.929 -0.489,-1.072 l -1.069,0 0,-0.642 1.022,0 L 0.336,1.344 C 0.22,1.361 0.095,1.378 -0.034,1.396 l 0,6.63 0.023,0.023 -0.023,0.023 0,0.033 -0.034,0 -2.467,2.468 -0.096,-0.097 -2.124,-2.157 0,2.017 0.188,0 -10e-4,0.27 -0.187,0 0,0.91 -0.136,0 -0.989,0 0,-0.117 -0.003,0 0,-0.312 -2.265,0 0,0.174 0.007,0 -0.005,0.27 -0.96,-0.016 -0.133,-0.001 0.001,-0.925 -0.175,-0.001 10e-4,-0.27 0.175,0.001 0.004,-2.452 -1.677,1.083 0,1.673 -0.002,0 c -0.011,0.264 -0.16,0.708 -0.667,0.708 -0.509,0 -0.658,-0.444 -0.669,-0.708 l -0.002,0 0,-1.641 -1.819,-1.216 0.028,-0.041 -0.017,0 0,-5.667 c -0.158,0.123 -0.34,0.207 -0.539,0.228 0.046,0.151 0.094,0.301 0.094,0.466 0,0.763 -0.52,1.383 -1.159,1.383 -0.64,0 -1.16,-0.62 -1.16,-1.383 0,-0.155 0.051,-0.298 0.092,-0.443 -0.002,0 -0.017,0.002 -0.017,0.002 -0.639,0 -1.16,-0.621 -1.16,-1.384 0,-0.319 0.106,-0.611 0.272,-0.856 -0.6,-0.378 -0.99,-1.112 -0.99,-1.936 0,-1.213 0.82,-2.2 1.829,-2.2 0.176,0 0.347,0.042 0.515,0.102 -0.049,-0.254 -0.124,-0.638 -0.124,-0.638 l 0.266,-0.051 0.225,1.164 -0.253,-0.139 c -0.202,-0.111 -0.413,-0.168 -0.629,-0.168 -0.859,0 -1.558,0.866 -1.558,1.93 0,0.778 0.374,1.476 0.954,1.779 l 0.149,0.078 -0.108,0.129 c -0.178,0.212 -0.277,0.499 -0.277,0.806 0,0.614 0.399,1.113 0.889,1.113 l 0.392,-0.045 -0.084,0.214 c -0.074,0.165 -0.112,0.352 -0.112,0.543 0,0.613 0.398,1.113 0.889,1.113 0.49,0 0.889,-0.5 0.889,-1.113 0,-0.184 -0.037,-0.366 -0.106,-0.526 l -0.087,-0.202 0.269,0.016 c 0.489,0 0.889,-0.499 0.889,-1.113 0,-0.288 -0.088,-0.56 -0.249,-0.77 l -0.104,-0.136 0.156,-0.07 c 0.62,-0.275 1.035,-1.004 1.035,-1.816 0,-1.064 -0.699,-1.93 -1.559,-1.93 -0.215,0 -0.427,0.057 -0.629,0.168 l -0.254,0.14 0.24,-1.2 0.265,0.053 c 0,0 -0.082,0.407 -0.135,0.67 0.169,-0.059 0.338,-0.101 0.513,-0.101 0.554,0 1.049,0.298 1.385,0.766 l 0.357,0.173 c 0,0 -0.033,0.138 -0.107,0.277 0.047,0.114 0.088,0.233 0.118,0.357 0.371,-0.664 0.426,-1.094 0.426,-1.094 0,0 0.715,4.319 5.333,4.263 4.57,-0.056 5.314,-4.3 5.314,-4.3 0,0 0.129,0.727 0.657,1.401 0.274,0.352 0.519,0.561 0.67,0.673 l 0,-0.574 -0.139,0.125 c 0,0 -0.2,-0.222 -0.413,-0.541 -0.192,-0.289 -0.333,-0.586 -0.333,-0.586 l 0.641,-0.273 c 0,0 0.072,0.214 0.244,0.414 l 0,-1.423 0.271,0 0,4.121 3.732,0 0,-1.665 0.285,0 0,1.951 -0.073,0 z"
             style="fill:#f57b20;fill-opacity:1;fill-rule:nonzero;stroke:none"
             id="path9687" />
        </g>
      </g>
    </g>
  </g>
</svg>
