<svg xmlns="http://www.w3.org/2000/svg" width="430" height="70" viewBox="0 0 430 70" preserveAspectRatio="xMinYMid" aria-hidden="true"><filter id="blur-filter" x="-1" y="-1" width="430" height="70"><feGaussianBlur in="SourceGraphic" stdDeviation="3" /></filter><path d="M39.3,15.3v30.4h-6.3V32.2H21.3v13.6H15V15.3h6.3v11.6h11.8V15.3C33.1,15.3,39.4,15.3,39.3,15.3z M53,22.6c-3-0.1-5.9,1-8,3.1c-2.1,2.1-3.1,5.1-3.1,9c0,4.2,1.1,7.2,3.4,9c2.2,1.8,5,2.8,7.9,2.8c3.6,0,6.4-1.1,8.4-3.3c1.1-1.1,1.9-2.5,2.2-4.1h-6c-0.8,1.7-2.6,2.7-4.5,2.6c-1.1,0-2.3-0.3-3.2-0.8c-1.4-0.9-2.2-2.5-2.3-4.8h16.3c0.1-1.5,0-3-0.1-4.5c-0.2-1.7-0.9-3.3-1.8-4.7c-0.9-1.5-2.3-2.6-3.9-3.3C56.6,22.9,54.8,22.6,53,22.6z M53,27.5c1.3,0,2.5,0.4,3.5,1.2c1,0.9,1.5,2.2,1.6,3.5H48c0.1-1.3,0.7-2.5,1.6-3.5C50.5,27.9,51.7,27.4,53,27.5z M78.3,22.7H78c-1.5-0.1-3.1,0.4-4.3,1.4C72.8,25,72,26,71.4,27.1v-3.9h-5.6v22.5h5.9V35c-0.1-1.4,0.2-2.7,0.7-4c0.8-1.5,2.4-2.3,4.8-2.3h0.7c0.3,0,0.6,0,1,0.1v-6L78.3,22.7 M95.6,23.8c-1.7-0.7-3.5-1.1-5.3-1c-3-0.1-5.9,1-8,3.1c-2.1,2.1-3.1,5.1-3.1,9c0,4.2,1.1,7.2,3.4,9c2.2,1.8,5,2.8,7.9,2.8c3.6,0,6.4-1.1,8.4-3.3c1.1-1.1,1.9-2.5,2.2-4.1h-6c-0.8,1.7-2.6,2.7-4.5,2.6c-1.1,0-2.3-0.3-3.2-0.8c-1.5-0.9-2.3-2.5-2.3-4.8h16.3c0.1-1.5,0-3-0.2-4.5c-0.2-1.7-0.8-3.4-1.8-4.8c-0.9-1.5-2.3-2.6-3.9-3.3 M86.8,28.8c0.9-0.9,2.2-1.4,3.5-1.3c1.3,0,2.5,0.4,3.5,1.2c1,0.9,1.5,2.2,1.6,3.5H85.2C85.4,30.9,85.9,29.7,86.8,28.8 M112.4,15c-0.3,0-0.6,0-1,0c-3.2,0-5.3,0.7-6.1,2c-0.8,0.9-1.2,2.6-1.2,5v1.4h-3.2v4.1h3.3v18.1h5.8V27.6h3.8v-4.1h-3.8v-1.9c0-0.4,0.2-0.9,0.4-1.2c0.4-0.4,1-0.6,1.6-0.5c0.8,0,1.3,0,1.7,0.1v-4.8L112.4,15 M159,22.7h-0.3c-1.5-0.1-3.1,0.4-4.3,1.4c-0.9,0.9-1.7,1.9-2.4,3.1v-3.9h-5.6v22.5h5.9V35c-0.1-1.4,0.2-2.7,0.7-4c0.8-1.5,2.4-2.3,4.8-2.3h0.7c0.3,0,0.6,0,1,0.1v-6L159,22.7 M173.6,23.7c-1.1-0.6-2.4-0.9-3.6-0.9c-2.7-0.1-5.4,1.1-7.1,3.2c-1.8,2.2-2.6,5.2-2.6,9.1c-0.1,3,0.8,5.9,2.7,8.2c1.6,2,4,3.2,6.6,3.2c1.4,0,2.8-0.3,4-0.9c1.2-0.7,2.2-1.7,2.9-2.9v3.1h5.7V15.4h-5.9v10.7C175.5,25,174.6,24.2,173.6,23.7 M175,39.6c-0.9,1.2-2.3,1.9-3.8,1.9c-1.5,0.1-2.9-0.6-3.7-1.9c-0.9-1.5-1.3-3.3-1.2-5c-0.1-1.7,0.4-3.4,1.2-4.8c0.8-1.3,2.2-2,3.8-2c1.1,0,2.2,0.4,3,1.1c1.4,1.2,2.1,3.1,2.1,5.9C176.4,36.5,176,38.2,175,39.6 M184.7,38.5c-0.1,2.2,0.9,4.3,2.5,5.7c1.7,1.5,4.3,2.2,7.8,2.2c3.5,0,6.1-0.7,7.7-2.1c1.6-1.3,2.5-3.4,2.5-5.5c0-1.6-0.6-3.1-1.7-4.2c-1.5-1.3-3.3-2.1-5.2-2.5c-2.1-0.4-4.1-0.9-6.1-1.6c-0.6-0.3-0.9-0.8-0.9-1.5c0-0.6,0.3-1.1,0.8-1.4c0.8-0.5,1.8-0.7,2.7-0.6c1.2-0.1,2.4,0.3,3.3,1.2c0.4,0.5,0.6,1.1,0.6,1.8h5.9c-0.3-2.8-1.3-4.7-3-5.8c-2.1-1.2-4.5-1.8-6.9-1.7c-2.5-0.2-4.9,0.6-6.9,2.2c-1.6,1.3-2.5,3.3-2.4,5.4c-0.1,1.5,0.5,3,1.6,4c1.6,1.2,3.4,2,5.4,2.4c2.1,0.4,4.1,1,6.1,1.8c0.8,0.5,1.1,1.6,0.6,2.4c-0.2,0.3-0.4,0.5-0.8,0.7c-0.9,0.4-1.8,0.6-2.8,0.5c-2,0-3.3-0.4-4-1.2c-0.5-0.6-0.8-1.4-0.8-2.2L184.7,38.5L184.7,38.5z M224.4,23.4c-1.2-0.5-2.5-0.7-3.8-0.7c-1.2,0-2.4,0.3-3.5,0.8c-1.2,0.6-2.2,1.6-2.9,2.7V15.4h-5.9v30.3h5.9V33.5c-0.1-1.6,0.3-3.1,1.2-4.5c0.8-1.1,2.1-1.6,3.5-1.6c1.2-0.1,2.4,0.5,3,1.6c0.4,0.9,0.7,1.9,0.6,2.9v13.7h6V32.5c0-1.5,0-2.9-0.2-4.4c-0.2-0.9-0.5-1.8-1.1-2.6C226.4,24.6,225.5,23.8,224.4,23.4 M232.8,15.1h5.9v5.4h-5.9C232.8,20.5,232.8,15.1,232.8,15.1z M232.8,23.2h5.9v22.5h-5.9V23.2z M255.6,22.7h-0.3c-1.5-0.1-3.1,0.4-4.3,1.4c-0.9,0.9-1.7,1.9-2.4,3.1v-3.9h-5.6v22.5h5.9V35c-0.1-1.4,0.2-2.7,0.7-4c0.8-1.5,2.4-2.3,4.8-2.3h0.7c0.3,0,0.6,0,1,0.1v-6L255.6,22.7 M272.9,23.8c-1.7-0.7-3.5-1.1-5.3-1c-3-0.1-5.9,1-8,3.1c-2.1,2.1-3.1,5.1-3.1,9c0,4.2,1.1,7.2,3.4,9c2.2,1.8,5,2.8,7.9,2.8c3.6,0,6.4-1.1,8.4-3.3c1.1-1.1,1.9-2.5,2.2-4.1h-6c-0.8,1.6-2.6,2.6-4.5,2.5c-1.1,0-2.3-0.3-3.2-0.8c-1.5-0.9-2.3-2.5-2.3-4.8h16.3c0.1-1.5,0-3-0.2-4.5c-0.2-1.7-0.9-3.3-1.8-4.7c-0.9-1.5-2.3-2.6-3.9-3.3 M264.1,28.8c0.9-0.9,2.2-1.4,3.5-1.3c1.3,0,2.5,0.4,3.5,1.2c1,0.9,1.5,2.2,1.6,3.5h-10.1C262.7,30.9,263.2,29.7,264.1,28.8 M280.3,45.7h6.2v-6.2h-6.2V45.7L280.3,45.7z M301.9,23.2c-0.9-0.4-1.9-0.5-2.9-0.5c-2.8-0.1-5.4,1.2-7,3.4c-1.7,2.5-2.6,5.4-2.5,8.4c-0.2,3,0.8,5.9,2.6,8.2c1.7,2,4.3,3.1,6.9,3c1.6,0.1,3.2-0.4,4.5-1.3c0.7-0.6,1.4-1.3,1.8-2.2v1.4c0.1,1.6-0.1,3.1-0.7,4.6c-0.7,1.4-2.1,2.1-4.2,2.1c-1.1,0.1-2.3-0.2-3.2-0.8c-0.4-0.4-0.7-0.9-0.8-1.5H290c0.1,2.1,1.2,4,3,5.1c2.1,1.2,4.6,1.8,7,1.7c4.7,0,7.9-1.3,9.6-3.8c1-1.5,1.5-3.7,1.5-6.6V23.2h-5.7v3.2C304.6,25,303.4,23.9,301.9,23.2 M303.9,39.3c-0.9,1-2.1,1.6-3.5,1.6c-1.9,0.1-3.6-1.1-4.2-2.9c-0.5-1.1-0.7-2.3-0.6-3.5c0-1.3,0.2-2.6,0.6-3.8c0.6-1.8,2.3-3,4.2-2.9c1.4,0,2.7,0.6,3.6,1.7c1,1.4,1.5,3.1,1.3,4.9C305.3,36.6,304.9,38.3,303.9,39.3 M334,43c1.9-2.4,2.9-5.4,2.8-8.5c0.1-3.1-0.9-6.1-2.8-8.5c-1.9-2.4-4.8-3.6-8.6-3.6s-6.7,1.2-8.6,3.6c-1.9,2.4-2.9,5.4-2.8,8.4c-0.1,3.1,0.9,6.1,2.8,8.5c1.9,2.3,4.8,3.5,8.6,3.5S332.1,45.4,334,43 M329.3,39.8c-1.8,2.2-5.1,2.5-7.3,0.6c-0.2-0.2-0.4-0.4-0.6-0.6c-1-1.5-1.5-3.4-1.4-5.2c-0.1-1.8,0.4-3.7,1.4-5.2c1.9-2.2,5.1-2.4,7.3-0.6c0.2,0.2,0.4,0.4,0.6,0.6c1,1.5,1.5,3.4,1.4,5.2C330.8,36.4,330.3,38.2,329.3,39.8 M348.8,39.8l-4.7-16.6h-6.6l8,22.5h6.2l8.1-22.5h-6.3L348.8,39.8z M358.7,45.7h6.2v-6.2h-6.2C358.7,39.5,358.7,45.7,358.7,45.7z M369.1,23.2v13.6c-0.1,2,0.2,4,1,5.8c1.1,2.4,3.4,3.6,6.7,3.6c1,0,2-0.1,3-0.5c1-0.4,1.9-1,2.6-1.7c0.3-0.3,0.6-0.6,0.8-0.9c0.2-0.3,0.4-0.6,0.4-0.6v3.2h5.7V23.2h-5.9v12.2c0,1.2-0.1,2.4-0.6,3.5c-0.7,1.6-2.3,2.6-4.1,2.4c-1.3,0.1-2.5-0.5-3.1-1.7c-0.3-0.9-0.5-1.9-0.5-2.9V23.2L369.1,23.2L369.1,23.2z M393.6,45.7h5.8v-7.1l2.4-2.5l5.4,9.6h7.1l-8.3-14l8-8.4h-7.3l-7.4,8.5V15.4h-5.7V45.7z M117.6,27c1-1.6,2.6-2.7,4.4-3.1c2.2-0.3,4.4,0.3,6.1,1.7c0.8,0.6,1.9,0.6,2.7,0c1.7-1.4,3.9-2.1,6.1-1.8c1.9,0.4,3.5,1.5,4.4,3.1c1.7,2.5,2.1,6.3,1.1,10c-1.4,5.7-5.6,9.8-9.8,9.8c-0.6,0-1.1-0.1-1.7-0.3c-0.9-0.2-1.9-0.2-2.8,0c-0.6,0.2-1.2,0.3-1.8,0.3c-4.3,0-8.4-4-10-9.8C115.6,33.2,116,29.6,117.6,27 M134.4,26.7c-1.4,1.1-3.1,1.6-4.9,1.6c-1.8,0-3.5-0.6-4.9-1.7c-0.8-0.8-1.9-1.1-3-0.8c-1,0.3-1.8,1-2.2,1.9c-1.2,2-1.4,5.4-0.6,8.6l0,0c1.1,4.5,4.2,8.2,6.9,8.2c0.2,0,0.4,0,0.7-0.1c1-0.3,2.1-0.4,3.2-0.4c1.1,0,2.3,0.2,3.4,0.5c0.2,0,0.4,0,0.6,0c2.6,0,5.8-3.8,6.9-8.2c0.8-3.2,0.6-6.3-0.7-8.3c-0.4-0.9-1.1-1.7-2-2.1C136.5,25.7,135.2,25.9,134.4,26.7 M130.5,23c0.6-1.5,0.4-3.3-0.6-4.5c-0.7-0.9-1.8-1.5-3-1.7c-0.4-0.1-0.9-0.1-1.3,0l-0.4,0.1L125,17l-0.2,0.3c-0.7,1.5-0.5,3.4,0.6,4.7c0.9,1.1,2.2,1.8,3.6,1.8c0.3,0,0.5,0,0.8-0.1l0.6-0.2L130.5,23z" fill="rgba(0,0,0,0.4)" filter="url(#blur-filter)" fill-rule="evenodd"/><path d="M39.3,15.3v30.4h-6.3V32.2H21.3v13.6H15V15.3h6.3v11.6h11.8V15.3C33.1,15.3,39.4,15.3,39.3,15.3z M53,22.6c-3-0.1-5.9,1-8,3.1c-2.1,2.1-3.1,5.1-3.1,9c0,4.2,1.1,7.2,3.4,9c2.2,1.8,5,2.8,7.9,2.8c3.6,0,6.4-1.1,8.4-3.3c1.1-1.1,1.9-2.5,2.2-4.1h-6c-0.8,1.7-2.6,2.7-4.5,2.6c-1.1,0-2.3-0.3-3.2-0.8c-1.4-0.9-2.2-2.5-2.3-4.8h16.3c0.1-1.5,0-3-0.1-4.5c-0.2-1.7-0.9-3.3-1.8-4.7c-0.9-1.5-2.3-2.6-3.9-3.3C56.6,22.9,54.8,22.6,53,22.6z M53,27.5c1.3,0,2.5,0.4,3.5,1.2c1,0.9,1.5,2.2,1.6,3.5H48c0.1-1.3,0.7-2.5,1.6-3.5C50.5,27.9,51.7,27.4,53,27.5z M78.3,22.7H78c-1.5-0.1-3.1,0.4-4.3,1.4C72.8,25,72,26,71.4,27.1v-3.9h-5.6v22.5h5.9V35c-0.1-1.4,0.2-2.7,0.7-4c0.8-1.5,2.4-2.3,4.8-2.3h0.7c0.3,0,0.6,0,1,0.1v-6L78.3,22.7 M95.6,23.8c-1.7-0.7-3.5-1.1-5.3-1c-3-0.1-5.9,1-8,3.1c-2.1,2.1-3.1,5.1-3.1,9c0,4.2,1.1,7.2,3.4,9c2.2,1.8,5,2.8,7.9,2.8c3.6,0,6.4-1.1,8.4-3.3c1.1-1.1,1.9-2.5,2.2-4.1h-6c-0.8,1.7-2.6,2.7-4.5,2.6c-1.1,0-2.3-0.3-3.2-0.8c-1.5-0.9-2.3-2.5-2.3-4.8h16.3c0.1-1.5,0-3-0.2-4.5c-0.2-1.7-0.8-3.4-1.8-4.8c-0.9-1.5-2.3-2.6-3.9-3.3 M86.8,28.8c0.9-0.9,2.2-1.4,3.5-1.3c1.3,0,2.5,0.4,3.5,1.2c1,0.9,1.5,2.2,1.6,3.5H85.2C85.4,30.9,85.9,29.7,86.8,28.8 M112.4,15c-0.3,0-0.6,0-1,0c-3.2,0-5.3,0.7-6.1,2c-0.8,0.9-1.2,2.6-1.2,5v1.4h-3.2v4.1h3.3v18.1h5.8V27.6h3.8v-4.1h-3.8v-1.9c0-0.4,0.2-0.9,0.4-1.2c0.4-0.4,1-0.6,1.6-0.5c0.8,0,1.3,0,1.7,0.1v-4.8L112.4,15 M159,22.7h-0.3c-1.5-0.1-3.1,0.4-4.3,1.4c-0.9,0.9-1.7,1.9-2.4,3.1v-3.9h-5.6v22.5h5.9V35c-0.1-1.4,0.2-2.7,0.7-4c0.8-1.5,2.4-2.3,4.8-2.3h0.7c0.3,0,0.6,0,1,0.1v-6L159,22.7 M173.6,23.7c-1.1-0.6-2.4-0.9-3.6-0.9c-2.7-0.1-5.4,1.1-7.1,3.2c-1.8,2.2-2.6,5.2-2.6,9.1c-0.1,3,0.8,5.9,2.7,8.2c1.6,2,4,3.2,6.6,3.2c1.4,0,2.8-0.3,4-0.9c1.2-0.7,2.2-1.7,2.9-2.9v3.1h5.7V15.4h-5.9v10.7C175.5,25,174.6,24.2,173.6,23.7 M175,39.6c-0.9,1.2-2.3,1.9-3.8,1.9c-1.5,0.1-2.9-0.6-3.7-1.9c-0.9-1.5-1.3-3.3-1.2-5c-0.1-1.7,0.4-3.4,1.2-4.8c0.8-1.3,2.2-2,3.8-2c1.1,0,2.2,0.4,3,1.1c1.4,1.2,2.1,3.1,2.1,5.9C176.4,36.5,176,38.2,175,39.6 M184.7,38.5c-0.1,2.2,0.9,4.3,2.5,5.7c1.7,1.5,4.3,2.2,7.8,2.2c3.5,0,6.1-0.7,7.7-2.1c1.6-1.3,2.5-3.4,2.5-5.5c0-1.6-0.6-3.1-1.7-4.2c-1.5-1.3-3.3-2.1-5.2-2.5c-2.1-0.4-4.1-0.9-6.1-1.6c-0.6-0.3-0.9-0.8-0.9-1.5c0-0.6,0.3-1.1,0.8-1.4c0.8-0.5,1.8-0.7,2.7-0.6c1.2-0.1,2.4,0.3,3.3,1.2c0.4,0.5,0.6,1.1,0.6,1.8h5.9c-0.3-2.8-1.3-4.7-3-5.8c-2.1-1.2-4.5-1.8-6.9-1.7c-2.5-0.2-4.9,0.6-6.9,2.2c-1.6,1.3-2.5,3.3-2.4,5.4c-0.1,1.5,0.5,3,1.6,4c1.6,1.2,3.4,2,5.4,2.4c2.1,0.4,4.1,1,6.1,1.8c0.8,0.5,1.1,1.6,0.6,2.4c-0.2,0.3-0.4,0.5-0.8,0.7c-0.9,0.4-1.8,0.6-2.8,0.5c-2,0-3.3-0.4-4-1.2c-0.5-0.6-0.8-1.4-0.8-2.2L184.7,38.5L184.7,38.5z M224.4,23.4c-1.2-0.5-2.5-0.7-3.8-0.7c-1.2,0-2.4,0.3-3.5,0.8c-1.2,0.6-2.2,1.6-2.9,2.7V15.4h-5.9v30.3h5.9V33.5c-0.1-1.6,0.3-3.1,1.2-4.5c0.8-1.1,2.1-1.6,3.5-1.6c1.2-0.1,2.4,0.5,3,1.6c0.4,0.9,0.7,1.9,0.6,2.9v13.7h6V32.5c0-1.5,0-2.9-0.2-4.4c-0.2-0.9-0.5-1.8-1.1-2.6C226.4,24.6,225.5,23.8,224.4,23.4 M232.8,15.1h5.9v5.4h-5.9C232.8,20.5,232.8,15.1,232.8,15.1z M232.8,23.2h5.9v22.5h-5.9V23.2z M255.6,22.7h-0.3c-1.5-0.1-3.1,0.4-4.3,1.4c-0.9,0.9-1.7,1.9-2.4,3.1v-3.9h-5.6v22.5h5.9V35c-0.1-1.4,0.2-2.7,0.7-4c0.8-1.5,2.4-2.3,4.8-2.3h0.7c0.3,0,0.6,0,1,0.1v-6L255.6,22.7 M272.9,23.8c-1.7-0.7-3.5-1.1-5.3-1c-3-0.1-5.9,1-8,3.1c-2.1,2.1-3.1,5.1-3.1,9c0,4.2,1.1,7.2,3.4,9c2.2,1.8,5,2.8,7.9,2.8c3.6,0,6.4-1.1,8.4-3.3c1.1-1.1,1.9-2.5,2.2-4.1h-6c-0.8,1.6-2.6,2.6-4.5,2.5c-1.1,0-2.3-0.3-3.2-0.8c-1.5-0.9-2.3-2.5-2.3-4.8h16.3c0.1-1.5,0-3-0.2-4.5c-0.2-1.7-0.9-3.3-1.8-4.7c-0.9-1.5-2.3-2.6-3.9-3.3 M264.1,28.8c0.9-0.9,2.2-1.4,3.5-1.3c1.3,0,2.5,0.4,3.5,1.2c1,0.9,1.5,2.2,1.6,3.5h-10.1C262.7,30.9,263.2,29.7,264.1,28.8 M280.3,45.7h6.2v-6.2h-6.2V45.7L280.3,45.7z M301.9,23.2c-0.9-0.4-1.9-0.5-2.9-0.5c-2.8-0.1-5.4,1.2-7,3.4c-1.7,2.5-2.6,5.4-2.5,8.4c-0.2,3,0.8,5.9,2.6,8.2c1.7,2,4.3,3.1,6.9,3c1.6,0.1,3.2-0.4,4.5-1.3c0.7-0.6,1.4-1.3,1.8-2.2v1.4c0.1,1.6-0.1,3.1-0.7,4.6c-0.7,1.4-2.1,2.1-4.2,2.1c-1.1,0.1-2.3-0.2-3.2-0.8c-0.4-0.4-0.7-0.9-0.8-1.5H290c0.1,2.1,1.2,4,3,5.1c2.1,1.2,4.6,1.8,7,1.7c4.7,0,7.9-1.3,9.6-3.8c1-1.5,1.5-3.7,1.5-6.6V23.2h-5.7v3.2C304.6,25,303.4,23.9,301.9,23.2 M303.9,39.3c-0.9,1-2.1,1.6-3.5,1.6c-1.9,0.1-3.6-1.1-4.2-2.9c-0.5-1.1-0.7-2.3-0.6-3.5c0-1.3,0.2-2.6,0.6-3.8c0.6-1.8,2.3-3,4.2-2.9c1.4,0,2.7,0.6,3.6,1.7c1,1.4,1.5,3.1,1.3,4.9C305.3,36.6,304.9,38.3,303.9,39.3 M334,43c1.9-2.4,2.9-5.4,2.8-8.5c0.1-3.1-0.9-6.1-2.8-8.5c-1.9-2.4-4.8-3.6-8.6-3.6s-6.7,1.2-8.6,3.6c-1.9,2.4-2.9,5.4-2.8,8.4c-0.1,3.1,0.9,6.1,2.8,8.5c1.9,2.3,4.8,3.5,8.6,3.5S332.1,45.4,334,43 M329.3,39.8c-1.8,2.2-5.1,2.5-7.3,0.6c-0.2-0.2-0.4-0.4-0.6-0.6c-1-1.5-1.5-3.4-1.4-5.2c-0.1-1.8,0.4-3.7,1.4-5.2c1.9-2.2,5.1-2.4,7.3-0.6c0.2,0.2,0.4,0.4,0.6,0.6c1,1.5,1.5,3.4,1.4,5.2C330.8,36.4,330.3,38.2,329.3,39.8 M348.8,39.8l-4.7-16.6h-6.6l8,22.5h6.2l8.1-22.5h-6.3L348.8,39.8z M358.7,45.7h6.2v-6.2h-6.2C358.7,39.5,358.7,45.7,358.7,45.7z M369.1,23.2v13.6c-0.1,2,0.2,4,1,5.8c1.1,2.4,3.4,3.6,6.7,3.6c1,0,2-0.1,3-0.5c1-0.4,1.9-1,2.6-1.7c0.3-0.3,0.6-0.6,0.8-0.9c0.2-0.3,0.4-0.6,0.4-0.6v3.2h5.7V23.2h-5.9v12.2c0,1.2-0.1,2.4-0.6,3.5c-0.7,1.6-2.3,2.6-4.1,2.4c-1.3,0.1-2.5-0.5-3.1-1.7c-0.3-0.9-0.5-1.9-0.5-2.9V23.2L369.1,23.2L369.1,23.2z M393.6,45.7h5.8v-7.1l2.4-2.5l5.4,9.6h7.1l-8.3-14l8-8.4h-7.3l-7.4,8.5V15.4h-5.7V45.7z M117.6,27c1-1.6,2.6-2.7,4.4-3.1c2.2-0.3,4.4,0.3,6.1,1.7c0.8,0.6,1.9,0.6,2.7,0c1.7-1.4,3.9-2.1,6.1-1.8c1.9,0.4,3.5,1.5,4.4,3.1c1.7,2.5,2.1,6.3,1.1,10c-1.4,5.7-5.6,9.8-9.8,9.8c-0.6,0-1.1-0.1-1.7-0.3c-0.9-0.2-1.9-0.2-2.8,0c-0.6,0.2-1.2,0.3-1.8,0.3c-4.3,0-8.4-4-10-9.8C115.6,33.2,116,29.6,117.6,27 M134.4,26.7c-1.4,1.1-3.1,1.6-4.9,1.6c-1.8,0-3.5-0.6-4.9-1.7c-0.8-0.8-1.9-1.1-3-0.8c-1,0.3-1.8,1-2.2,1.9c-1.2,2-1.4,5.4-0.6,8.6l0,0c1.1,4.5,4.2,8.2,6.9,8.2c0.2,0,0.4,0,0.7-0.1c1-0.3,2.1-0.4,3.2-0.4c1.1,0,2.3,0.2,3.4,0.5c0.2,0,0.4,0,0.6,0c2.6,0,5.8-3.8,6.9-8.2c0.8-3.2,0.6-6.3-0.7-8.3c-0.4-0.9-1.1-1.7-2-2.1C136.5,25.7,135.2,25.9,134.4,26.7 M130.5,23c0.6-1.5,0.4-3.3-0.6-4.5c-0.7-0.9-1.8-1.5-3-1.7c-0.4-0.1-0.9-0.1-1.3,0l-0.4,0.1L125,17l-0.2,0.3c-0.7,1.5-0.5,3.4,0.6,4.7c0.9,1.1,2.2,1.8,3.6,1.8c0.3,0,0.5,0,0.8-0.1l0.6-0.2L130.5,23z" fill="#fff" fill-rule="evenodd"/></svg>
