<svg xmlns="http://www.w3.org/2000/svg" width="356" height="64" viewBox="0 0 356 64" preserveAspectRatio="xMinYMid" aria-hidden="true" focusable="false"><path d="M26,24a.28.28,0,1,0-.28.29A.28.28,0,0,0,26,24Zm-.3.19a.21.21,0,0,1,0-.41c.11,0,.16.09.16.21S25.85,24.15,25.75,24.15Zm.72.82a.28.28,0,1,0-.28.29A.28.28,0,0,0,26.47,25Zm-.3.19a.21.21,0,0,1,0-.41c.11,0,.16.09.16.21S26.27,25.17,26.16,25.17Zm.63.73a.28.28,0,1,0-.28.29A.28.28,0,0,0,26.79,25.9Zm-.3.19a.21.21,0,0,1,0-.41c.11,0,.16.09.16.21S26.6,26.09,26.49,26.09Zm.48.47a.29.29,0,1,0,.28.29A.28.28,0,0,0,27,26.56ZM27,27a.21.21,0,0,1,0-.41c.11,0,.16.09.16.21S27.06,27,27,27Zm-.44-3c.05.16,1.19,3,1.24,3.1l.11-.07s-1.16-2.87-1.22-3Zm-.35-.86.22.56.09-.11-.19-.49Zm2,4.38,1.33.6.1-.09-1.34-.58Zm-.21.27a.28.28,0,0,0-.29.24.25.25,0,0,0,.27.24.28.28,0,0,0,.29-.24A.25.25,0,0,0,27.95,27.79Zm0,.4a.18.18,0,0,1-.19-.17c0-.1.07-.15.18-.15s.22.05.21.15A.2.2,0,0,1,27.91,28.2Zm.82-.07a.28.28,0,0,0-.29.24.25.25,0,0,0,.27.24.28.28,0,0,0,.29-.24A.25.25,0,0,0,28.73,28.12Zm0,.4a.18.18,0,0,1-.19-.17c0-.1.06-.14.17-.14s.23,0,.22.14A.2.2,0,0,1,28.69,28.52Zm-1.77-7.58h-.1l0,0,.06,0a.18.18,0,0,0,.14,0,.18.18,0,0,0,.09-.11.16.16,0,0,0,0-.13h0a.32.32,0,0,1,0,.1.17.17,0,0,1-.07.07ZM29.75,3.51a1.39,1.39,0,0,0,0-.17h0a1.36,1.36,0,0,1,0,.17,1.15,1.15,0,0,1,0,.16.74.74,0,0,1-.06.15,1,1,0,0,1-.1.12L29.45,4l-.18.19a1,1,0,0,0,0-.16,1.31,1.31,0,0,0,0-.2l0,0a1.27,1.27,0,0,1,0,.18,1.83,1.83,0,0,1,0,.26l0,.06A2.52,2.52,0,0,0,29,4.6h0l.18-.22.2-.05.23,0v0h-.37l0,0,.15-.16.06-.06.14,0,.16,0a1.3,1.3,0,0,1,.34,0V4l-.17,0h-.17l-.17,0h0l.31-.25a3.51,3.51,0,0,1,.36-.24h0a2.18,2.18,0,0,0-.39.2l-.2.14,0-.11A1.2,1.2,0,0,0,29.75,3.51ZM27,3.1a2.52,2.52,0,0,0-.16.25h0L27,3.15l.2-.05.23,0v0h-.37l0,0,.15-.16.06-.06.14,0,.16,0a1.3,1.3,0,0,1,.34,0v0l-.17,0h-.17l-.17,0h0l.31-.25a3.51,3.51,0,0,1,.36-.24h0a2.18,2.18,0,0,0-.39.2l-.2.14,0-.11a1.2,1.2,0,0,0,0-.17,1.39,1.39,0,0,0,0-.17h0a1.36,1.36,0,0,1,0,.17,1.15,1.15,0,0,1,0,.16.74.74,0,0,1-.06.15,1,1,0,0,1-.1.12l-.06.05-.18.19a1,1,0,0,0,0-.16,1.29,1.29,0,0,0,0-.28h0a1.25,1.25,0,0,1,0,.27A.8.8,0,0,1,27,3Zm-1,.05a2.48,2.48,0,0,0,0,.26l-.1-.12a1.29,1.29,0,0,0-.22-.17v0a1.25,1.25,0,0,1,.2.19.8.8,0,0,1,.14.23V3.6s0,0,0,0a2.52,2.52,0,0,0,.05.29h0c0-.09,0-.19,0-.28l.12-.17.16-.18h0l-.18.16-.08.09s0,0,0,0,0-.14,0-.22,0-.06,0-.09L26.14,3l.1-.13a1.3,1.3,0,0,1,.25-.23v0l-.14.1-.13.11L26.08,3h0q0-.2.06-.39a3.51,3.51,0,0,1,.11-.42h0a2.18,2.18,0,0,0-.16.41q0,.12-.06.24l0-.1-.1-.15-.11-.13,0,0,.1.14.08.15a.74.74,0,0,1,.05.16,1,1,0,0,1,0,.16Zm3.18-.73h0a3.51,3.51,0,0,1-.07.43Q29,3,29,3.23h0a1.31,1.31,0,0,0,0-.17l-.07-.16-.09-.15h0a1.3,1.3,0,0,1,.13.31,1.25,1.25,0,0,1,0,.16,1.2,1.2,0,0,1,0,.15h0l0,.12,0-.11a1.65,1.65,0,0,1,.1-.21.74.74,0,0,1,.11-.12l.14-.1.15-.08v0l-.16.07L29.18,3l-.09.07q0-.12,0-.24A2.18,2.18,0,0,0,29.17,2.42Zm-4.55.84h-.17l-.17,0v0a1.3,1.3,0,0,1,.34,0l.16,0,.14,0,.06.06.15.16,0,0h-.37v0l.23,0,.2.05h0l.09,0-.05-.08,0-.06a.8.8,0,0,1,0-.26,1.25,1.25,0,0,1,0-.27h0a1.29,1.29,0,0,0-.05.28,1,1,0,0,0,0,.16L25,3.33a.94.94,0,0,1-.15-.17A.81.81,0,0,1,24.75,3a1.15,1.15,0,0,1,0-.16,1.36,1.36,0,0,1,0-.17h0a1.39,1.39,0,0,0,0,.17,1.2,1.2,0,0,0,0,.17l0,.11L24.52,3a2.18,2.18,0,0,0-.39-.2h0a3.51,3.51,0,0,1,.36.24l.31.25h0Zm4.18.83,0,0a.71.71,0,0,1-.52.08h0L28,4.12a.66.66,0,0,1-.25-.22l0,0,0,0a.75.75,0,0,0,0,.14.54.54,0,0,0,0,.3.47.47,0,0,0,.24.28.56.56,0,0,0,.19.05.62.62,0,0,0,.55-.19A.48.48,0,0,0,28.8,4.09Zm-1,0,0,0,.07.07.09.05.1,0h0l-.11,0-.1,0-.08,0A.43.43,0,0,1,27.79,4Zm0,.25a.39.39,0,0,1,0-.11l0,0,.06,0a.39.39,0,0,0,.15.05v0l-.17,0Zm.28.16h-.15a.25.25,0,0,1-.11-.13l.06,0a.46.46,0,0,0,.21.06Zm.46-1.36-.06,0a.31.31,0,0,0-.27.06.69.69,0,0,0-.2.24L28,3.51a3.65,3.65,0,0,0-.12.35.65.65,0,0,0,.87.2l0-.16,0-.1V3.73a.93.93,0,0,0,0-.16.81.81,0,0,0-.07-.31A.36.36,0,0,0,28.56,3.09Zm-.17.09h0a.88.88,0,0,0-.12.17l0,.09,0,.1a4.13,4.13,0,0,0-.1.41h0a1.15,1.15,0,0,1,.06-.43l0-.1.05-.1a.53.53,0,0,1,.16-.15h0ZM28.47,16a4.67,4.67,0,0,0,.52.3l.11-.22a4.53,4.53,0,0,1-.49-.28l-.05,0c-.19-.14-.35-.26-.5-.15s-.15.11.09.59l.22-.11a2,2,0,0,1-.1-.24l.15.11Zm-2,.34.29-.53a.12.12,0,0,0-.16-.17,7.89,7.89,0,0,0-.87.54l.14.2s.2-.15.46-.31l-.08.15Zm.84-.65c-.06,0-.15,0-.29.42l.23.08.07-.18.08.15.22-.1C27.4,15.69,27.31,15.69,27.26,15.69ZM24.43,8.36a3.51,3.51,0,0,1,.43,0h0a2.18,2.18,0,0,0-.43-.08h-.24l.09-.07.13-.12L24.51,8l0,0-.12.12-.13.11-.14.08a.42.42,0,0,1-.15,0h-.07l-.26,0,.1-.13A1.29,1.29,0,0,0,23.85,8h0a1.25,1.25,0,0,1-.14.23.8.8,0,0,1-.2.18h-.07l-.28.1v0l.27-.06.19.08.2.12h0l-.19-.15-.11-.07h0l.21,0h.09l.14,0,.15.07a1.3,1.3,0,0,1,.27.2h0l-.12-.12-.14-.11L24,8.38h.39Zm-2.91.17.14,0h-.07Zm9-3.16h0l.2-.22,0-.05A.8.8,0,0,1,31,5a1.25,1.25,0,0,1,.27,0v0A1.29,1.29,0,0,0,31,5l-.15,0L31,4.77l0-.05a.42.42,0,0,1,.09-.13l.13-.1.15-.08.16-.06v0l-.17,0-.16.07-.1.06q0-.11.08-.23a2.18,2.18,0,0,0,.09-.43h0a3.51,3.51,0,0,1-.13.41q-.07.18-.16.36h0a1.31,1.31,0,0,0,0-.17,1.38,1.38,0,0,0,0-.17,1.16,1.16,0,0,0-.07-.16h0a1.3,1.3,0,0,1,.08.33,1.25,1.25,0,0,1,0,.17,1.2,1.2,0,0,1,0,.15l0,.08L30.78,5l0,0s0-.08,0-.13a2.16,2.16,0,0,0-.06-.23h0a2.13,2.13,0,0,1,0,.23,1.54,1.54,0,0,1,0,.21Zm-7.5,1,.28,0,.18.11.19.15h0l-.17-.17-.1-.08h.35l.14.07.14.09a1.3,1.3,0,0,1,.24.23h0l-.11-.14-.12-.12-.14-.11h0l.39,0a3.51,3.51,0,0,1,.43.09h0a2.18,2.18,0,0,0-.42-.13l-.24,0,.1-.06.14-.11L24.45,6l0,0-.13.11-.14.09L24,6.22l-.16,0h-.34l.11-.11a1.29,1.29,0,0,0,.16-.23h0a1.25,1.25,0,0,1-.17.21.8.8,0,0,1-.22.16l-.07,0L23,6.34Zm-.67.74a1.83,1.83,0,0,1,0-.26,1.25,1.25,0,0,1,0-.27h0a1.29,1.29,0,0,0-.05.28,1,1,0,0,0,0,.16l-.18-.19h0l0,0a1,1,0,0,1-.1-.12.74.74,0,0,1-.06-.15,1.15,1.15,0,0,1,0-.16,1.36,1.36,0,0,1,0-.17h0a1.39,1.39,0,0,0,0,.17,1.2,1.2,0,0,0,0,.17l0,.11-.2-.14a2.18,2.18,0,0,0-.39-.2h0a3.51,3.51,0,0,1,.36.24l.31.25h0l-.17,0h-.17l-.17,0v0a1.3,1.3,0,0,1,.34,0l.16,0,.14,0,.06.06.15.16,0,0h-.37v0l.23,0,.2.05A.47.47,0,0,0,22.36,7.1ZM22.57,5V5a1.25,1.25,0,0,1,.27,0,.8.8,0,0,1,.25.1l.05.05.21.21,0,0-.18-.22a1.54,1.54,0,0,1,0-.21,2.13,2.13,0,0,1,0-.24h0a2.16,2.16,0,0,0-.05.23s0,.08,0,.13l0,0L23,4.89l0-.07a1.2,1.2,0,0,1,0-.15,1.25,1.25,0,0,1,0-.17A1.3,1.3,0,0,1,23,4.17h0a1.16,1.16,0,0,0-.06.16,1.38,1.38,0,0,0,0,.17,1.31,1.31,0,0,0,0,.17h0q-.1-.17-.18-.35a3.51,3.51,0,0,1-.16-.41h0a2.18,2.18,0,0,0,.11.42l.1.23-.1-.05-.16-.06-.17,0v0l.16,0,.15.07.14.09a1.28,1.28,0,0,1,.13.17l.15.23-.16,0A1.29,1.29,0,0,0,22.57,5Zm4.84,1.13h0a1.25,1.25,0,0,1,.1-.25.8.8,0,0,1,.16-.21l0,0h0L28,5.49v0l-.26.11-.2,0-.22-.08v0l.21.11.12,0,0,0-.2.07-.08,0-.15,0-.16,0a1.3,1.3,0,0,1-.3-.15v0l.14.1.15.08.16.06h0l-.38.08a3.51,3.51,0,0,1-.43,0h0a2.18,2.18,0,0,0,.44,0l.24,0L26.94,6l-.1.14-.08.15h0l.09-.14L27,6l.12-.11a1.28,1.28,0,0,1,.2-.08h0l.25-.09-.08.14A1.29,1.29,0,0,0,27.41,6.15Zm4.25-.45a1,1,0,0,1-.07.14l0,.06-.14.22a1,1,0,0,0,0-.16,1.29,1.29,0,0,0-.1-.26h0a1.25,1.25,0,0,1,.08.26.8.8,0,0,1,0,.27l0,0h.06l.14,0h0l.23-.07v0l-.24,0-.12,0,0,0L31.54,6l.05-.07.13-.07.15-.06a1.3,1.3,0,0,1,.33-.07v0H32l-.17,0-.17.05h0l.26-.3a3.51,3.51,0,0,1,.32-.3h0a2.18,2.18,0,0,0-.35.27l-.17.17a1,1,0,0,0,0-.11,1.2,1.2,0,0,0,0-.17,1.39,1.39,0,0,0,0-.17h0a1.36,1.36,0,0,1,0,.17,1.15,1.15,0,0,1,0,.17A.74.74,0,0,1,31.66,5.69Zm.83,1.2.1-.14.08-.15h0l-.09.14-.11.13L32.32,7,32.17,7l-.06,0h0l-.25.08L31.93,7V7l-.11.1-.1.13-.07,0-.26.15v0l.26-.11.2,0,.22.09v0l-.21-.11-.12,0,0,0,.2-.07.08,0,.15,0,.16,0a1.3,1.3,0,0,1,.3.15v0l-.14-.1-.15-.08-.16-.06h0L32.65,7a3.51,3.51,0,0,1,.43,0h0a2.18,2.18,0,0,0-.44,0l-.24,0ZM26.63,4.07l0,0a1.25,1.25,0,0,1-.22.16.8.8,0,0,1-.25.09h-.37v0l.28,0,.15.15.14.19h0a2.16,2.16,0,0,0-.12-.21l-.08-.1h0l.21,0,.08,0,.11.1.11.12a1.3,1.3,0,0,1,.18.29h0a1.16,1.16,0,0,0-.07-.16l-.09-.15-.1-.14h0l.37.14a3.51,3.51,0,0,1,.39.2h0A2.18,2.18,0,0,0,27,4.6l-.22-.1.11,0,.16-.07.15-.09,0,0-.15.07-.16.05-.16,0-.16,0-.33-.08.14-.08A1.29,1.29,0,0,0,26.63,4.07Zm3.28,2h0a2.18,2.18,0,0,0-.23-.38l-.15-.19.11,0H30v0h-.17l-.17,0L29.5,5.4a.42.42,0,0,1-.13-.09l0,0h0l-.2-.17h.16A1.29,1.29,0,0,0,29.55,5V5a1.25,1.25,0,0,1-.27,0A.8.8,0,0,1,29,5l0,0h0l-.26-.14v0L28.9,5a1.54,1.54,0,0,1,.07.2,2.13,2.13,0,0,1,0,.23h0a2.16,2.16,0,0,0,0-.24s0-.08,0-.12l0,0,.17.14.07.06.06.14a1.25,1.25,0,0,1,0,.16,1.3,1.3,0,0,1,0,.33h0a1.16,1.16,0,0,0,0-.17,1.38,1.38,0,0,0,0-.17,1.31,1.31,0,0,0,0-.17h0l.27.29A3.51,3.51,0,0,1,29.9,6.05ZM23.55,4.2h0a3.51,3.51,0,0,1,.36.24l.31.25h0l-.17,0h-.17l-.17,0v0a1.3,1.3,0,0,1,.34,0l.16,0,.14,0,.06.06.15.16,0,0h-.37v0l.23,0,.2.05.18.22h0a2.52,2.52,0,0,0-.16-.25l0-.06a.8.8,0,0,1,0-.26,1.25,1.25,0,0,1,0-.27h0a1.29,1.29,0,0,0-.05.28,1,1,0,0,0,0,.16l-.18-.19-.05-.05a.42.42,0,0,1-.1-.12.74.74,0,0,1-.06-.15,1.15,1.15,0,0,1,0-.16,1.36,1.36,0,0,1,0-.17h0a1.39,1.39,0,0,0,0,.17,1.2,1.2,0,0,0,0,.17l0,.11-.2-.14A2.18,2.18,0,0,0,23.55,4.2ZM22.8,8l.2-.05.23,0v0h-.37l0,0,.15-.16.06-.06.14,0,.16,0a1.3,1.3,0,0,1,.34,0v0l-.17,0h-.17l-.17,0h0l.31-.25A3.51,3.51,0,0,1,23.91,7h0a2.18,2.18,0,0,0-.39.2l-.2.14,0-.11a1.2,1.2,0,0,0,0-.17,1.39,1.39,0,0,0,0-.17h0a1.36,1.36,0,0,1,0,.17,1.15,1.15,0,0,1,0,.16.74.74,0,0,1-.06.15,1,1,0,0,1-.1.12l-.06.05-.18.19a1,1,0,0,0,0-.16,1.29,1.29,0,0,0,0-.28h0a1.25,1.25,0,0,1,0,.27.8.8,0,0,1,0,.26l0,.06a2.52,2.52,0,0,0-.16.25h0ZM26.07,6.9h0a2.18,2.18,0,0,0-.18-.4l-.13-.21.11,0,.17,0h0l0,0h0l-.16,0-.15-.07a.42.42,0,0,1-.11-.11l0,0h0l-.18-.19h.16a1.29,1.29,0,0,0,.28,0v0a1.25,1.25,0,0,1-.27,0,.8.8,0,0,1-.26-.06l-.06,0L25,5.54v0l.21.19a1.54,1.54,0,0,1,0,.2,2.13,2.13,0,0,1,0,.24h0a2.16,2.16,0,0,0,0-.24s0-.08,0-.13l0,0,.15.16.06.07a1.2,1.2,0,0,1,0,.15,1.25,1.25,0,0,1,0,.16,1.3,1.3,0,0,1,0,.34h0a1.16,1.16,0,0,0,0-.17,1.38,1.38,0,0,0,0-.17,1.31,1.31,0,0,0,0-.17h0q.12.15.23.32A3.51,3.51,0,0,1,26.07,6.9Zm-3.38.53v0a.9.9,0,0,1,.06-.16l0-.05h0l.06,0,.06.06.07.09v-.1h0A1.74,1.74,0,0,1,23.11,7a.46.46,0,0,1,.12-.2l.09,0h.11l.1,0,.08.08,0,0s.38-.22.5,0c-.09-.27-.47-.1-.47-.1a.35.35,0,0,0-.06-.09.32.32,0,0,0-.14-.09H23.3a.34.34,0,0,0-.15.08A.53.53,0,0,0,23,7a1.06,1.06,0,0,0,0,.17.22.22,0,0,0-.09-.06.18.18,0,0,0-.14,0,.26.26,0,0,0-.09.09,1.27,1.27,0,0,0-.13.38,2.6,2.6,0,0,0,0,.39c0,.07,0,.13,0,.2s0,.07,0,.1,0,0,0,.06,0,.06,0,.07h0a2.69,2.69,0,0,1,.18-.92Zm-1.16.47.16,0,.15,0,.06,0h0l.18.05A.68.68,0,0,1,22,7.87h0l-.11-.1-.11-.13a1.3,1.3,0,0,1-.17-.29h0a1.16,1.16,0,0,0,.06.16l.08.15.1.14h0l-.36-.15a3.51,3.51,0,0,1-.38-.21h0a2.18,2.18,0,0,0,.36.25l.22.11-.11,0-.16.06L21.2,8V8L21.37,8Zm7.52-1.43,0,0a.71.71,0,0,1-.52.08h0l-.16-.06A.66.66,0,0,1,28,6.28l0,0,0,0a.75.75,0,0,0-.05.14.54.54,0,0,0,0,.3A.47.47,0,0,0,28.2,7a.56.56,0,0,0,.19.06.62.62,0,0,0,.55-.19A.48.48,0,0,0,29.05,6.48Zm-1-.06,0,0,.07.07.09.05.1,0h0l-.11,0-.1,0-.08,0A.43.43,0,0,1,28.05,6.42Zm0,.26a.39.39,0,0,1,0-.12l0,0,.06,0a.39.39,0,0,0,.15.06v0l-.17,0Zm.28.16H28.2a.25.25,0,0,1-.11-.13l.06,0a.46.46,0,0,0,.21.06Zm-.12-.95a3.65,3.65,0,0,0-.13.34.65.65,0,0,0,.86.21l0-.16,0-.1V6.12A.93.93,0,0,0,29,6,.81.81,0,0,0,29,5.64a.36.36,0,0,0-.15-.17l-.06,0a.31.31,0,0,0-.27.06.69.69,0,0,0-.2.23Zm.16,0,0-.1.06-.1a.53.53,0,0,1,.16-.15h0a.88.88,0,0,0-.12.17l0,.09,0,.1a4.13,4.13,0,0,0-.11.41h0A1.15,1.15,0,0,1,28.39,5.9Zm2,1.15a.56.56,0,0,0,.07.18.47.47,0,0,0,.3.22.54.54,0,0,0,.3,0l.13-.06,0,0,0,0A.66.66,0,0,1,31,7.1a.7.7,0,0,1-.07-.16v0a.71.71,0,0,1,0-.53l0,0a.48.48,0,0,0-.39.14A.62.62,0,0,0,30.42,7Zm.45,0,0,.09.06.08.07.07,0,0-.09,0-.05-.08,0-.1,0-.1Zm-.08,0a.39.39,0,0,0,.07.14l0,.06,0,0-.12,0,0,0a.53.53,0,0,1,0-.17Zm-.14-.05h0a.46.46,0,0,0,.07.2l0,.06a.25.25,0,0,1-.14-.1v0A.43.43,0,0,1,30.64,7.07Zm.67-.74-.07,0-.1,0-.16,0a.65.65,0,0,0,.27.85,3.65,3.65,0,0,0,.34-.15L31.73,7A.69.69,0,0,0,32,6.83a.31.31,0,0,0,0-.27l0-.06a.36.36,0,0,0-.18-.14.81.81,0,0,0-.32,0Zm.33.53.09,0a.88.88,0,0,0,.16-.13h0a.53.53,0,0,1-.14.17l-.09.06-.1,0a1.15,1.15,0,0,1-.43.09h0l.4-.13ZM25.45,4a.36.36,0,0,0-.21-.09h-.07a.31.31,0,0,0-.22.17.69.69,0,0,0-.08.3,1.21,1.21,0,0,0,0,.16,3.65,3.65,0,0,0,0,.37.65.65,0,0,0,.87-.19l0-.16,0-.1,0-.07a.93.93,0,0,0-.06-.15A.81.81,0,0,0,25.45,4Zm-.28.9h0A1.15,1.15,0,0,1,25,4.47s0-.07,0-.11a.55.55,0,0,1,0-.11A.53.53,0,0,1,25.11,4h0a.88.88,0,0,0,0,.21.69.69,0,0,0,0,.1s0,.07,0,.1a4.13,4.13,0,0,0,.08.42Zm-3.35.7.09.13a3.65,3.65,0,0,0,.23.28.65.65,0,0,0,.62-.63l-.12-.11-.08-.07-.05,0-.12-.08a.37.37,0,0,1,.25-.2l.06,0-.16,0-.24-.12a.43.43,0,0,1-.16-.16.19.19,0,0,1,0-.09.23.23,0,0,1,0-.09.23.23,0,0,1,.06-.08l.1-.06,0,0h0V4.12a1,1,0,0,1,0-.27.25.25,0,0,1,0-.1.13.13,0,0,1,.07-.05.11.11,0,0,1,.08,0,.2.2,0,0,1,.08.06,1,1,0,0,1,.13.24l0,.05v0l.07,0A.39.39,0,0,1,23,3.93h0A.37.37,0,0,1,23.2,4h0a.13.13,0,0,0,0,0c0-.08.1-.2.51-.12h0v0l0,0a.49.49,0,0,1,.06-.1l.08-.06h0a.49.49,0,0,1,.27-.05h.06l0,0h0S24,3.44,24,3.33s0-.14.13-.21l.05,0h0l0,0a1,1,0,0,1-.2-.18.21.21,0,0,1,0-.09.11.11,0,0,1,0-.08A.13.13,0,0,1,24,2.62h.11a1,1,0,0,1,.27.08l0,0h0l0,0,.08-.08.09,0h.1l.08,0a.43.43,0,0,1,.12.19A1.73,1.73,0,0,1,25,3V3.2l0-.07s.07-.14.16-.17h0c.1,0,.17.11.22.23l0,.05,0-.05S25.5,3,25.6,3h.1l.16,0-.09-.12h0a1.73,1.73,0,0,1-.12-.23.43.43,0,0,1,0-.22.19.19,0,0,1,0-.09l.07-.06.09,0H26l0,0A1,1,0,0,1,26.16,2,.25.25,0,0,1,26.24,2a.13.13,0,0,1,.09,0,.11.11,0,0,1,.07,0,.21.21,0,0,1,0,.1,1,1,0,0,1,0,.27l0,.05v0h.13a.36.36,0,0,1,.31.2l0,0,0,0,0-.09c0-.09.1-.21.18-.21s.12.06.18.17l0,.06V2.44a1.73,1.73,0,0,1,.07-.26A.43.43,0,0,1,27.49,2l.08,0h.1l.09,0,.08.08,0,0h0l0,0A1,1,0,0,1,28.18,2h.11a.13.13,0,0,1,.07.06.11.11,0,0,1,0,.08.2.2,0,0,1,0,.09,1,1,0,0,1-.2.18l0,0h0l0,0h0s.12,0,.28.35h0v0a.43.43,0,0,1,.13-.28l.06,0h0a.37.37,0,0,1,.23.07l0,0V2.54A1,1,0,0,1,29,2.28.21.21,0,0,1,29,2.21a.11.11,0,0,1,.08,0,.13.13,0,0,1,.08,0,.25.25,0,0,1,.05.1,1,1,0,0,1,0,.27v.05h.06l.11,0,.07.06a.23.23,0,0,1,0,.09.18.18,0,0,1,0,.06.73.73,0,0,1-.1.31l0,.08.07-.05.1-.05h0a.32.32,0,0,1,.4.16v0l0,0a1,1,0,0,1,.27-.08h.11a.13.13,0,0,1,.07.06.11.11,0,0,1,0,.08.2.2,0,0,1,0,.09,1,1,0,0,1-.2.18l0,0h0l0,0h0s.15,0,.25.26v0l0,0,0,0a.27.27,0,0,1,.17-.14A.4.4,0,0,1,31,4l0,0V4l0-.05a1,1,0,0,1,.12-.24.21.21,0,0,1,.08-.07.11.11,0,0,1,.08,0,.13.13,0,0,1,.07.05.25.25,0,0,1,0,.1,1,1,0,0,1,0,.28V4h0l0,.1V4.07a.25.25,0,0,1,.13.06.27.27,0,0,1,.08.23c0,.23-.45.35-.45.36l-.07,0,.07,0a.31.31,0,0,1,.18.13.2.2,0,0,1,0,.17l0,.07.06,0A.36.36,0,0,1,31.76,5a.31.31,0,0,1,.19.14v0l0,0A1,1,0,0,1,32.26,5h.11a.13.13,0,0,1,.08,0,.11.11,0,0,1,0,.08.21.21,0,0,1,0,.1,1,1,0,0,1-.17.21l0,0,0,0,.07,0a.39.39,0,0,1,.15.15.11.11,0,0,1,0,.07.17.17,0,0,1,0,.07l-.08.06-.11,0L32,6h-.07l0,.07,0,.06a.06.06,0,0,1,0,0s0,0-.06.05l-.07,0,0,0,0,0a.4.4,0,0,1,.14.09h0l0,0,0,0,.07-.07a.22.22,0,0,0,0-.12.21.21,0,0,0,0-.1l.16,0,.14,0,.07,0L32.54,6a.32.32,0,0,0,.08-.16.27.27,0,0,0,0-.19.34.34,0,0,0-.12-.12l0,0a.66.66,0,0,0,.15-.16.36.36,0,0,0,.06-.19.27.27,0,0,0,0-.11.32.32,0,0,0-.06-.09.3.3,0,0,0-.18-.1.39.39,0,0,0-.19,0A.72.72,0,0,0,32,5l-.07-.07a.34.34,0,0,0-.17-.07h-.09l-.09,0,0,0a.19.19,0,0,0,0-.1l-.05-.05.12-.06a.56.56,0,0,0,.23-.22.36.36,0,0,0,0-.18.37.37,0,0,0,0-.09l0-.08A.34.34,0,0,0,31.66,4l-.09,0a.72.72,0,0,0,0-.26.39.39,0,0,0-.06-.18.3.3,0,0,0-.17-.12h-.1l-.11,0a.36.36,0,0,0-.14.13.66.66,0,0,0-.08.2l0,0a.34.34,0,0,0-.16-.05.27.27,0,0,0-.18.06.3.3,0,0,0-.08.08l0-.05,0,0a.66.66,0,0,0,.17-.13.36.36,0,0,0,.09-.17.27.27,0,0,0,0-.11.32.32,0,0,0,0-.1.3.3,0,0,0-.16-.13.39.39,0,0,0-.19,0,.72.72,0,0,0-.24.09L30,3.13a.34.34,0,0,0-.15-.1h-.13a.36.36,0,0,0,0-.18.37.37,0,0,0,0-.08l0-.08a.34.34,0,0,0-.15-.1l-.09,0a.72.72,0,0,0,0-.26.39.39,0,0,0-.08-.17.3.3,0,0,0-.18-.1H29l-.1,0a.36.36,0,0,0-.12.15.66.66,0,0,0-.05.21l0,0a.34.34,0,0,0-.17,0,.27.27,0,0,0-.17.08.3.3,0,0,0-.06.1l0,0,0,0a.66.66,0,0,0,.17-.13.36.36,0,0,0,.09-.17.27.27,0,0,0,0-.11.32.32,0,0,0,0-.1.3.3,0,0,0-.16-.13.39.39,0,0,0-.19,0,.72.72,0,0,0-.24.09l-.05-.08a.34.34,0,0,0-.15-.1h-.18a.36.36,0,0,0-.16.08.56.56,0,0,0-.16.28,1,1,0,0,0,0,.13l-.07,0a.2.2,0,0,0-.16,0,.27.27,0,0,0-.09.09h0l0,.09-.08-.07a.34.34,0,0,0-.16,0h0a.66.66,0,0,0,0-.21.36.36,0,0,0,0-.19.27.27,0,0,0-.08-.08l-.09,0a.3.3,0,0,0-.21,0,.39.39,0,0,0-.15.12.72.72,0,0,0-.12.23l-.09,0a.34.34,0,0,0-.18,0l-.08,0-.06.07a.36.36,0,0,0-.07.17.56.56,0,0,0,.07.31l.07.11-.07,0a.19.19,0,0,0-.09.07l0,0h0a.27.27,0,0,0-.09-.09.2.2,0,0,0-.16,0l-.07,0a1,1,0,0,0,0-.13.56.56,0,0,0-.16-.28.36.36,0,0,0-.16-.08h-.18a.34.34,0,0,0-.15.1l-.05.08a.72.72,0,0,0-.24-.1.39.39,0,0,0-.19,0,.3.3,0,0,0-.16.13.32.32,0,0,0,0,.1.27.27,0,0,0,0,.11.36.36,0,0,0,.09.17.66.66,0,0,0,.17.13l0,0a.34.34,0,0,0-.09.14.27.27,0,0,0,0,.19l0,0h0a.34.34,0,0,0-.13.13.38.38,0,0,0,0,.09.72.72,0,0,0-.25,0,.39.39,0,0,0-.18,0,.28.28,0,0,0-.09.09.28.28,0,0,0-.16,0,.34.34,0,0,0-.16.06l0,0a.66.66,0,0,0-.09-.2.36.36,0,0,0-.15-.13l-.11,0-.1,0a.3.3,0,0,0-.16.13.39.39,0,0,0,0,.18.72.72,0,0,0,0,.25l-.09,0a.34.34,0,0,0-.12.13.35.35,0,0,0,0,.09.37.37,0,0,0,0,.09.36.36,0,0,0,0,.18.56.56,0,0,0,.24.21l.12.05,0,.06a.19.19,0,0,0,0,.08.73.73,0,0,0-.2-.05.36.36,0,0,0-.22,0l-.05,0a.31.31,0,0,0-.09.26A.69.69,0,0,0,21.82,5.59Zm0-.41h0a.88.88,0,0,0,.08.19l.06.08.07.08a4.13,4.13,0,0,0,.3.3,0,0,0,0,1,0,0h0A1.15,1.15,0,0,1,22,5.59l-.07-.09-.06-.1a.53.53,0,0,1,0-.22ZM25,7.92a3.65,3.65,0,0,0,.25.27.65.65,0,0,0,.58-.67l-.12-.11-.08-.06-.05,0-.14-.08a.81.81,0,0,0-.31-.08.36.36,0,0,0-.22.06l0,0a.31.31,0,0,0-.07.27.69.69,0,0,0,.11.29Zm-.11-.53h0a.88.88,0,0,0,.09.19l.06.08.07.08a4.13,4.13,0,0,0,.32.28,0,0,0,0,1,0,0h0a1.15,1.15,0,0,1-.36-.25L25,7.71l-.06-.09a.53.53,0,0,1-.06-.21Zm-3.52,2.1a1.25,1.25,0,0,1,.21-.14l-.05,0-.17.15Zm-.13-.69h0a1.25,1.25,0,0,1-.13-.24h0a1.16,1.16,0,0,0,.06.16l.07.13Zm-.34.32-.15.08v0l.16-.07.16,0,.16,0h0l0,0a.35.35,0,0,1,0-.08L21,8.88a3.51,3.51,0,0,1-.38-.21h0a2.18,2.18,0,0,0,.36.25l.22.11-.11,0Zm11.22-.26h0a2.18,2.18,0,0,0-.27-.35l-.18-.17H32l.17,0v0l-.17,0h-.17l-.16,0-.14-.07-.05,0h0L31.21,8l.16,0a1.29,1.29,0,0,0,.26-.1v0a1.25,1.25,0,0,1-.26.08.8.8,0,0,1-.27,0l0,0h0l-.28-.1v0L31,8a1.54,1.54,0,0,1,.09.19,2.13,2.13,0,0,1,.07.23h0a2.16,2.16,0,0,0,0-.24l0-.12,0,0,.18.11.07,0,.08.13.07.15a1.3,1.3,0,0,1,.07.33h0a1.16,1.16,0,0,0,0-.17,1.38,1.38,0,0,0,0-.17,1.31,1.31,0,0,0-.05-.17h0l.3.25A3.51,3.51,0,0,1,32.11,8.86Zm-6.06.75v0l-.2-.13-.16-.13-.07-.27h0a2.52,2.52,0,0,0,0,.3v.07a1.83,1.83,0,0,1-.08.26,1.25,1.25,0,0,1-.14.23l0,0a1.29,1.29,0,0,0,.17-.23,1,1,0,0,0,.07-.15,2.48,2.48,0,0,0,.08.25h0l0,.06a1,1,0,0,1,0,.15.74.74,0,0,1,0,.16,1.15,1.15,0,0,1,0,.16,1.36,1.36,0,0,1-.06.16h0l.07-.16a1.2,1.2,0,0,0,.05-.17,1,1,0,0,0,0-.11l.12.21a2.18,2.18,0,0,0,.27.35h0a3.51,3.51,0,0,1-.23-.37q-.09-.17-.17-.36h0L26,10l.16.07.16.05v0a1.3,1.3,0,0,1-.3-.15l-.13-.1-.11-.11,0-.08c0-.07,0-.14-.06-.21v0l.11.07Zm3.79,0h0a2.13,2.13,0,0,1,.09-.22,1.54,1.54,0,0,1,.1-.18l.26-.12V9L30,9.13h-.07a.8.8,0,0,1-.27,0,1.25,1.25,0,0,1-.26-.1v0a1.29,1.29,0,0,0,.26.12l.16,0-.23.13-.06,0-.14.06-.16,0h-.17l-.17,0v0l.17,0,.17,0h.11l-.19.16a2.18,2.18,0,0,0-.29.33h0a3.51,3.51,0,0,1,.32-.29l.32-.23h0a1.31,1.31,0,0,0-.06.16,1.38,1.38,0,0,0,0,.17,1.16,1.16,0,0,0,0,.17h0a1.3,1.3,0,0,1,.09-.32l.08-.15.08-.13.08,0,.19-.1,0,0,0,.12A2.16,2.16,0,0,0,29.85,9.58Zm-6.48.75,0-.06.12-.23a1,1,0,0,0,0,.16,1.29,1.29,0,0,0,.12.25h0a1.25,1.25,0,0,1-.1-.25.8.8,0,0,1,0-.27v0s0,0,0,0a2.52,2.52,0,0,0,.08-.29h0l-.11.26-.18.1-.22.09v0l.23-.06.12,0,0,0-.1.19,0,.08-.12.09-.15.08a1.3,1.3,0,0,1-.32.1v0l.17,0,.17,0,.16-.07h0q-.11.17-.23.32a3.51,3.51,0,0,1-.29.33h0a2.18,2.18,0,0,0,.32-.3l.16-.19a1,1,0,0,0,0,.11,1.2,1.2,0,0,0,0,.17,1.39,1.39,0,0,0,0,.17h0a1.36,1.36,0,0,1,0-.17,1.15,1.15,0,0,1,0-.17.74.74,0,0,1,0-.16A1,1,0,0,1,23.37,10.33Zm5.24-2,.14.1,0,0-.13-.11-.12-.12A.74.74,0,0,1,28.43,8a1,1,0,0,1,0-.15V7.81h0a2.48,2.48,0,0,0-.06-.26l.13.09a1.29,1.29,0,0,0,.26.11v0a1.25,1.25,0,0,1-.24-.13,1.83,1.83,0,0,1-.2-.18l0-.07,0-.1a.32.32,0,0,0,.12-.06l0,0h0l-.14,0-.07,0a1.06,1.06,0,0,1-.28,0H27.8V7.2a.4.4,0,0,1,0,.22.13.13,0,0,1-.06.06l-.09,0-.1,0-.11-.05-.22-.13,0,0,0,.05,0,.06,0,0a.14.14,0,0,1-.09,0,1.79,1.79,0,0,1-.26-.13l-.07,0-.07,0-.15-.05-.06,0v0l0-.06.16,0,.19.08.2.12h0l-.19-.15L26.67,7h0l.21,0H27l.14,0,.15.07a1.3,1.3,0,0,1,.27.2h0l-.12-.12L27.34,7l-.15-.09h.39L28,7v0a2.22,2.22,0,0,0-.41-.07h-.24l.09-.07.13-.12.11-.14,0,0-.12.12-.13.11-.14.08-.15,0H27l-.26,0,.1-.13A1.29,1.29,0,0,0,27,6.53h0a1.25,1.25,0,0,1-.14.23.8.8,0,0,1-.2.18l-.07,0L26.41,7h0a.67.67,0,0,0,0-.15.73.73,0,0,0,0-.13.53.53,0,0,0-.09-.13h0l0,0v0a1,1,0,0,1,.06.27.27.27,0,0,1,0,.12.15.15,0,0,1-.07.07.13.13,0,0,1-.1,0A.23.23,0,0,1,26,7.1a1.06,1.06,0,0,1-.17-.22l0,0,0,0a.4.4,0,0,1-.19.11h-.08a.19.19,0,0,1-.07-.06.27.27,0,0,1,0-.1,1.09,1.09,0,0,1,0-.12c0-.08,0-.19,0-.25V6.39h-.17a.14.14,0,0,1,0-.08,1.79,1.79,0,0,1,0-.28V6l0-.08a1.26,1.26,0,0,0,0-.16L25,5.57l0-.07h.25l.16,0a.56.56,0,0,0,.19,0A.62.62,0,0,0,26,5.11a.48.48,0,0,0-.07-.4l0,0a.71.71,0,0,1-.44.3h0l-.17,0A.66.66,0,0,1,24.88,5l0,0V5a.75.75,0,0,0,0,.15A.54.54,0,0,0,25,5.4h-.12s-.06,0-.07,0,0,.06,0,.08v0l0,.07,0,.15a2.28,2.28,0,0,1,0,.29c0,.05,0,.1,0,.16a.69.69,0,0,0,0,.17.35.35,0,0,0,.05.08.2.2,0,0,0,.1.06.2.2,0,0,0,.11,0h0a1.29,1.29,0,0,0,0,.19.84.84,0,0,0,0,.14.5.5,0,0,0,0,.07l0,.07a.3.3,0,0,0,.12.11.25.25,0,0,0,.17,0A.32.32,0,0,0,25.74,7l0,0a.65.65,0,0,0,.13.21.34.34,0,0,0,.16.1h.1l.09,0,0,0h0l.11,0,.26.13.14.08.16.06h.1a.2.2,0,0,0,.11,0,.2.2,0,0,0,.06-.09h0l.15.12.12.07.07,0h.08a.3.3,0,0,0,.16,0,.25.25,0,0,0,.11-.13.32.32,0,0,0,0-.16l0-.06a.65.65,0,0,0,.24,0h0l0,.1a1.54,1.54,0,0,1-.07.2,2.13,2.13,0,0,1-.11.21h0l.13-.2.06-.11v0c0,.07,0,.14,0,.21l0,.09a1.2,1.2,0,0,1,0,.15,1.25,1.25,0,0,1-.06.15,1.3,1.3,0,0,1-.18.28h0l.12-.13.1-.14L28.32,8h0q0,.19,0,.39a3.51,3.51,0,0,1,0,.43h0a2.18,2.18,0,0,0,.05-.44q0-.12,0-.24l.07.09Zm-3.21-3v0l-.1.06h0a.25.25,0,0,1-.15-.07h.08A.46.46,0,0,0,25.4,5.31ZM25,5.09l0,0,.09,0h.21l-.11,0H25A.43.43,0,0,1,25,5.09Zm.05.13h.12a.39.39,0,0,0,.16,0v0a.53.53,0,0,1-.16.05h0A.39.39,0,0,1,25,5.22Zm2.27,3.4.17,0v0h-.17l-.17,0-.16,0-.13-.08,0,0h0l-.21-.16.16,0A1.29,1.29,0,0,0,27,8.13v0a1.25,1.25,0,0,1-.27.06,1.83,1.83,0,0,1-.27,0l0,0h0l-.15-.07a.59.59,0,0,0,0-.32.48.48,0,0,0-.3-.28v0a.71.71,0,0,1-.17.5l0,0-.13.12a.66.66,0,0,1-.31.12h0l0,0,.1.11a.54.54,0,0,0,.27.13A.47.47,0,0,0,26,8.46a.56.56,0,0,0,.14-.14.65.65,0,0,0,.1-.22l.12.08a1.54,1.54,0,0,1,.08.19,2.13,2.13,0,0,1,.06.23h0a2.16,2.16,0,0,0,0-.24l0-.12,0,0,.17.13.07.05.07.14a1.25,1.25,0,0,1,.05.16,1.3,1.3,0,0,1,0,.33h0a1.16,1.16,0,0,0,0-.17,1.38,1.38,0,0,0,0-.17,1.31,1.31,0,0,0,0-.17h0l.28.27a3.51,3.51,0,0,1,.28.33h0a2.18,2.18,0,0,0-.25-.36L27,8.6l.11,0Zm-1.89-.3h0l.09,0,.09-.05.08-.07h0l-.07.08-.08.07-.08,0Zm.24.1-.12,0,0,0,.07,0a.39.39,0,0,0,.12-.1h0a.53.53,0,0,1-.1.14Zm.23-.07,0,0a.25.25,0,0,1-.17,0l.07,0a.46.46,0,0,0,.15-.16v0A.43.43,0,0,1,25.84,8.36ZM27,9.81l-.12.11a2.2,2.2,0,0,1,.45,1,.08.08,0,0,0,.08.07h0a.08.08,0,0,0,.08-.07,2.9,2.9,0,0,0,0-1.13l-.16,0a2.57,2.57,0,0,1,0,.65A2.22,2.22,0,0,0,27,9.81Zm4.88.91h.17v0a1.36,1.36,0,0,1-.73-.23h0a1.2,1.2,0,0,1,0,.14,1.25,1.25,0,0,1,0,.16,1.3,1.3,0,0,1,0,.34h0a1.16,1.16,0,0,0,0-.17,1.38,1.38,0,0,0,0-.17,1.31,1.31,0,0,0,0-.17h0q.13.15.25.31a3.51,3.51,0,0,1,.24.36h0a2.18,2.18,0,0,0-.2-.39l-.14-.2.11,0Zm.66-1.25a1.38,1.38,0,0,0,.05-.17,1.16,1.16,0,0,0,0-.17h0a1.3,1.3,0,0,1-.11.32l-.08.15-.09.12-.08,0-.19.09,0,0,.05-.12a2.16,2.16,0,0,0,.07-.23h0a2.13,2.13,0,0,1-.09.22l-.09.15-.07.1L32,10,32,10a.8.8,0,0,1,.26,0,1.25,1.25,0,0,1,.25.11v0a1.29,1.29,0,0,0-.25-.13l-.15,0,.25-.12.06,0a.42.42,0,0,1,.14-.06h.33l.17,0v0l-.17,0-.17,0h-.11l.19-.15a2.18,2.18,0,0,0,.31-.31h0a3.51,3.51,0,0,1-.33.28l-.33.22h0A1.31,1.31,0,0,0,32.56,9.48Zm-2.22,1.58.13.12h0l0,0h0a1.27,1.27,0,0,1-.21-.25l-.08-.14a1.19,1.19,0,0,1-.06-.14l0,0-.13.29a.72.72,0,0,1-.07.14l-.1.13-.12.12h0l0,.05h0l.13-.12L30,11l0,0c0,.06,0,.12,0,.18a2.19,2.19,0,0,0,.11.43v0l0,0v0a3.48,3.48,0,0,1-.06-.43c0-.11,0-.21,0-.32l.06.09Zm-10,11.63c.22,0,2.21-.31,2.46-.35a9.26,9.26,0,0,0,.93-.23s0-.11,0-.15-.07,0-.19,0L22.07,22c-.36,0-.76,0-1,0s-.28,0-.49.23S20.12,22.7,20.34,22.69ZM23.12,25c-.24-.4-.58-.83-.14-.94s2.87-.89,3.3-1.07.57-.3.6-.39-.07-.26-.11-.34-.09-.09-.42,0-2.71.74-3.34.89-2.23.38-2.56.4-.44.13-.27.27,1.27,1.29,2.12,2.33a26.56,26.56,0,0,1,1.94,2.93c.14.23.23.17.37.1s.29-.17.43-.26,0-.26,0-.41S23.36,25.37,23.12,25Zm.53,7,.24,0,.33-1.67-.24,0ZM20.75,58l-.27.36-.34-.25.27-.36-.16-.12-.66.88.16.12L20,58.3l.34.25-.28.38.16.12.66-.88Zm.15.86.33.21.09-.15L21,58.75l.15-.24.36.23.09-.15-.53-.34-.59.93.54.34.09-.15-.37-.23Zm1.4.15a.46.46,0,0,0-.19-.17l-.36-.19-.52,1,.18.1.19-.36.14.08c.11.06.08.15,0,.46l.19.1c.11-.3.14-.45,0-.54a.28.28,0,0,0,.34-.16A.26.26,0,0,0,22.29,59Zm-.22.19c-.07.14-.16.13-.29.06l-.12-.06.16-.3L22,59a.18.18,0,0,1,.09.08A.17.17,0,0,1,22.07,59.24Zm1.49.3-.49.73.12-.85-.2-.08-.5.69.16-.86-.19-.08-.18,1.11.22.09.5-.68-.12.84.22.09.65-.92Zm.86.42,0-.17-.61-.16-.29,1.06.61.17,0-.17-.42-.11.08-.29.38.1,0-.17-.38-.1.07-.27Zm.4-.11-.2,0-.19,1.08.61.11,0-.18-.41-.07Zm.77.11-.2,0L25.27,61l.62.07,0-.18-.42,0Zm1,1.19h.2v-.45h.39v-.18h-.39v-.29h.43v-.18l-.63,0Zm1-.17,0-.92h-.2l0,1.1H28V61Zm1.28-.9a.44.44,0,0,0-.35-.09.44.44,0,0,0-.33.15.64.64,0,0,0-.09.47.63.63,0,0,0,.16.43.44.44,0,0,0,.35.09A.45.45,0,0,0,29,61a.87.87,0,0,0-.07-.9Zm-.1.79a.23.23,0,0,1-.18.08.23.23,0,0,1-.18,0,.53.53,0,0,1-.1-.33c0-.18,0-.27,0-.34a.22.22,0,0,1,.18-.09.23.23,0,0,1,.18,0c.06.05.08.15.1.33S28.83,60.83,28.79,60.89Zm1.4-.23-.35-.78-.21,0-.05.85L29.24,60,29,60l.44,1,.23,0,.06-.85.35.77.23,0,.06-1.13-.2,0Zm.55-.72c0-.1,0-.14.12-.17a.44.44,0,0,1,.25,0l.05-.17a.53.53,0,0,0-.33,0,.44.44,0,0,0-.24.16.27.27,0,0,0,0,.25c.1.37.58.13.64.34s0,.16-.12.19a.43.43,0,0,1-.28,0l-.06.17a.53.53,0,0,0,.36,0,.48.48,0,0,0,.24-.15.29.29,0,0,0,.05-.28C31.26,59.91,30.79,60.14,30.73,59.94Zm1.59-.82a.42.42,0,0,0-.25,0l-.36.16.44,1,.19-.08-.15-.34.17-.08a.4.4,0,0,0,.2-.16.34.34,0,0,0,0-.32C32.49,59.2,32.41,59.14,32.33,59.12Zm.06.47s0,.06-.1.08l-.17.08L32,59.4l.16-.07a.17.17,0,0,1,.12,0s.07,0,.1.13A.21.21,0,0,1,32.39,59.59Zm.92-.39a.28.28,0,0,0,0-.37.26.26,0,0,0-.22-.15.46.46,0,0,0-.24.08l-.35.21.56.95.17-.1L33,59.45l.14-.08c.1-.06.17,0,.38.25l.19-.11C33.56,59.26,33.45,59.15,33.31,59.2Zm-.23,0L33,59.3,32.79,59l.17-.1a.18.18,0,0,1,.12,0s.06,0,.1.09S33.2,59.16,33.07,59.23Zm.85-1.12a.44.44,0,0,0-.34.12.44.44,0,0,0-.19.32.64.64,0,0,0,.19.44.63.63,0,0,0,.37.27.44.44,0,0,0,.34-.12.45.45,0,0,0,.19-.31.87.87,0,0,0-.56-.7Zm.27.88a.23.23,0,0,1-.18.06c-.07,0-.16-.09-.27-.22s-.16-.22-.16-.3a.22.22,0,0,1,.1-.17.23.23,0,0,1,.18-.06c.08,0,.15.08.26.22s.16.22.16.3A.23.23,0,0,1,34.19,59Zm.17-1c-.07-.08,0-.14,0-.2a.44.44,0,0,1,.22-.12l0-.17a.53.53,0,0,0-.29.15.44.44,0,0,0-.14.25.27.27,0,0,0,.07.24c.26.28.57-.15.72,0s0,.16,0,.22a.43.43,0,0,1-.25.12l0,.18a.53.53,0,0,0,.33-.16.48.48,0,0,0,.15-.24.29.29,0,0,0-.08-.27C34.82,57.7,34.5,58.12,34.36,58ZM16.89,54.26l.17-.07-.15-.36.27-.11.17.39L17.5,54l-.25-.58-1,.43.08.19.41-.18Zm.34.65a.28.28,0,0,0,.37.07.26.26,0,0,0,.17-.21.46.46,0,0,0-.06-.25l-.18-.37-1,.48.09.18.37-.18.07.15c.05.11,0,.17-.28.36l.09.19C17.15,55.15,17.26,55,17.23,54.91Zm.23-.5.09.18a.18.18,0,0,1,0,.12.17.17,0,0,1-.1.09c-.14.07-.2,0-.27-.12l-.06-.12Zm.78,1.25a.44.44,0,0,0-.07-.35.44.44,0,0,0-.29-.23.64.64,0,0,0-.46.13.63.63,0,0,0-.31.33.44.44,0,0,0,.07.35.45.45,0,0,0,.29.23.87.87,0,0,0,.77-.46Zm-.76.27a.23.23,0,0,1-.15-.12.23.23,0,0,1,0-.18c0-.07.11-.14.25-.23s.24-.13.32-.11a.22.22,0,0,1,.16.12.23.23,0,0,1,0,.18c0,.07-.1.14-.25.23S17.56,55.93,17.49,55.92Zm1.47.5-.75.28.44-.68-.18-.22-.9.64.13.16.7-.52-.47.72L18,57l.8-.31-.66.57.13.16.82-.74ZM19.24,58a.17.17,0,0,1-.07-.14c0-.06,0-.14.17-.28a.65.65,0,0,1,.26-.21.19.19,0,0,1,.18.06.31.31,0,0,1,.11.21l.18,0a.42.42,0,0,0-.16-.31.41.41,0,0,0-.31-.12.65.65,0,0,0-.41.26.64.64,0,0,0-.21.43.38.38,0,0,0,.15.27.45.45,0,0,0,.39.12v-.17A.32.32,0,0,1,19.24,58Zm16.2-.53a.4.4,0,0,0,.12-.23.34.34,0,0,0-.14-.29.33.33,0,0,0-.29-.12.42.42,0,0,0-.22.14l-.27.29.81.75.14-.15-.27-.25Zm-.26,0-.27-.25.12-.13s.07-.07.1-.07.08,0,.15.08.08.09.09.13a.16.16,0,0,1-.06.11Zm.91-.46-.23-.19.25-.3L36,56.47l-.25.3-.22-.18.27-.33-.14-.11-.4.49.86.69.4-.5-.14-.11Zm.46-1.16a.28.28,0,0,0-.12-.35.26.26,0,0,0-.26,0,.46.46,0,0,0-.19.17l-.23.34.9.63.12-.17-.34-.23.09-.13c.07-.1.16-.07.45.07l.12-.18C36.81,55.87,36.66,55.81,36.55,55.91Zm-.2.13-.07.11L36,56l.12-.16s.06-.07.09-.08a.17.17,0,0,1,.12,0C36.46,55.84,36.44,55.93,36.36,56Zm-.1-.78.93.58.11-.17-.93-.58Zm.34-.2.15-.27.8.45.1-.18-.8-.45.15-.27-.16-.09-.4.72ZM38,54.36l.09-.19L37.71,54l-.47-.6-.1.21.34.39H37l-.1.21.76,0ZM51.32,24.52l-.05-.08-.05-.08-.06-.08-.06-.07L51,24.13,51,24.06l-.13-.14a3,3,0,0,0-.61-.45,2.84,2.84,0,0,0-.72-.28,4.18,4.18,0,0,0-.75-.08h-.37l-.37,0c-.25,0-.49,0-.73.08s-.62.1-.93.16a2.58,2.58,0,0,0,.28-.28,2.67,2.67,0,0,0,.27-.38,2.58,2.58,0,0,0,.2-.42,2.64,2.64,0,0,0,.13-.44c0-.07,0-.15,0-.23v-.23a3,3,0,0,0-.11-.9h0l0-.29-.16.27,0,.06,0,.06-.09.12-.2.23a4.15,4.15,0,0,1-.45.41l-.24.18-.13.08-.13.08-.26.15-.13.07-.14.07a8,8,0,0,1-2.34.7l-.31,0-.31,0-.15,0h-.15l-.31,0H40.31c-.62,0-1.25-.06-1.87-.13l.09,0,.32-.17L39,22.4l.16-.09a10.55,10.55,0,0,0,1.19-.84,9,9,0,0,0,1-1l.23-.28.22-.3.11-.15.1-.15.19-.31c.12-.21.24-.42.35-.64l.16-.33.15-.33c.19-.45.35-.9.51-1.36a12.12,12.12,0,0,1,.5-1.33,2.79,2.79,0,0,1,.36-.58,2.07,2.07,0,0,1,.51-.44l.27-.16-.31,0h0l-.14,0-.13,0-.27,0a2.63,2.63,0,0,0-.55.05,2.7,2.7,0,0,0-1,.43,2.86,2.86,0,0,0-.42.36l-.09.1L42,15c-.06.07-.11.14-.16.22s-.12.19-.18.29q0-.21-.06-.41A7.67,7.67,0,0,0,41.36,14c-.06-.18-.13-.37-.21-.54a5.36,5.36,0,0,0-.26-.52,4.75,4.75,0,0,0-.32-.49A4.43,4.43,0,0,0,40.2,12l0-.14.07-.22,0-.11,0-.11.08-.21.09-.21c0-.07.06-.14.1-.21l0-.1,0-.05,0-.05a9.4,9.4,0,0,1,1-1.54,0,0,0,0,0,0,0h0a4.21,4.21,0,0,0-.46.33,5.29,5.29,0,0,0-.42.37,5.86,5.86,0,0,0-.72.86,5.69,5.69,0,0,0-.54,1,5.3,5.3,0,0,0-.33,1.09,5.42,5.42,0,0,0-.08.56v.71s0,.09,0,.14l0,.28.05.28,0,.14,0,.14.07.27.09.27a5.62,5.62,0,0,0,.21.52c0,.09.08.17.12.25l0,0-.1-.1a1.91,1.91,0,0,0-.48-.33,1.34,1.34,0,0,0-.58-.12,1.84,1.84,0,0,0-.58.1l-.14.05-.13.06-.06,0-.06,0-.12.07a4.09,4.09,0,0,0-.85.74h0l-.24.19.31-.08.39-.07a2.41,2.41,0,0,1,.39,0,1.74,1.74,0,0,1,.37.06,1.26,1.26,0,0,1,.33.15,1.21,1.21,0,0,1,.44.56,2.4,2.4,0,0,1,.16.74,2.58,2.58,0,0,1-.35,1.46,3.09,3.09,0,0,1-1.38,1.27l-.18.07-.09,0-.09,0-.09,0-.09,0-.09,0-.09,0-.19,0H36a3.41,3.41,0,0,1-.38,0l-.19,0h-.1l-.09,0-.19,0-.09,0-.09,0-.09,0-.09,0-.18-.07-.09,0-.09,0-.18-.08-.09,0-.09,0-.17-.1-.17-.1-.17-.11-.16-.11-.16-.12-.08-.06L33,20.13,32.86,20l-.15-.13-.15-.14-.31-.3h.2l.06,0A1,1,0,0,0,33,17.77a8.54,8.54,0,0,0-.4-2.55,7.49,7.49,0,0,0-1.21-2.32,6.44,6.44,0,0,0-.95-1h0a.36.36,0,0,0,.07-.18.66.66,0,0,0,0-.22h0a.34.34,0,0,0,.17,0,.27.27,0,0,0,.14-.13.32.32,0,0,0,0-.18.38.38,0,0,0,0-.08h0l0-.07-.08-.12-.11-.12a.21.21,0,0,0,.08-.06.21.21,0,0,0,0-.07.71.71,0,0,0,.05.15l.06.09A.22.22,0,0,0,31,11h.1a1.29,1.29,0,0,0,0,.16.85.85,0,0,0,0,.14l0,.08,0,.07a.32.32,0,0,0,.14.11.27.27,0,0,0,.19,0,.34.34,0,0,0,.14-.09l0,0a.66.66,0,0,0,.13.17.36.36,0,0,0,.17.09h.11l.1,0a.3.3,0,0,0,.13-.16.39.39,0,0,0,0-.19.72.72,0,0,0-.1-.24l.08-.05a.34.34,0,0,0,.1-.15.35.35,0,0,0,0-.09.37.37,0,0,0,0-.09.36.36,0,0,0-.08-.16.56.56,0,0,0-.28-.16l-.13,0,0,0,.32.05a1.28,1.28,0,0,0,.41,0h0a.27.27,0,0,0,.12-.06.2.2,0,0,0,.06-.14.22.22,0,0,0,0-.07l.13,0a.56.56,0,0,0,.31-.07.36.36,0,0,0,.13-.13l0-.08a.35.35,0,0,0,0-.09.34.34,0,0,0,0-.17l-.06-.07a.72.72,0,0,0,.16-.2.39.39,0,0,0,0-.18.3.3,0,0,0-.07-.2l-.08-.07-.11,0h-.09a.26.26,0,0,0,0-.07.39.39,0,0,0,0-.19A.72.72,0,0,0,33,8.29l.07-.07a.34.34,0,0,0,.06-.17.35.35,0,0,0,0-.09.37.37,0,0,0,0-.09A.36.36,0,0,0,33,7.73l-.08,0,.06,0a.27.27,0,0,0,.09-.16.34.34,0,0,0,0-.17v0a.66.66,0,0,0,.22,0,.36.36,0,0,0,.16-.11.27.27,0,0,0,0-.1.32.32,0,0,0,0-.1.3.3,0,0,0-.09-.19.39.39,0,0,0-.16-.1.72.72,0,0,0-.26,0,.38.38,0,0,0,0-.09.34.34,0,0,0-.09-.16l-.07-.05-.08,0a.36.36,0,0,0-.18,0,.56.56,0,0,0-.27.17l-.08.1,0-.06a.19.19,0,0,0-.11-.06h0l0,0,0,.06a.35.35,0,0,1,0,.1h0a.39.39,0,0,1,0,.08l0,.16.08-.13a1.72,1.72,0,0,1,.18-.2.43.43,0,0,1,.19-.12h.09l.09,0a.23.23,0,0,1,.06.08.5.5,0,0,1,0,.11v.06h.05a1,1,0,0,1,.27.06l.09.06a.13.13,0,0,1,0,.08.11.11,0,0,1,0,.08.2.2,0,0,1-.08.06,1,1,0,0,1-.26.06h-.09v0a.58.58,0,0,1,0,.16.25.25,0,0,1,0,.08.24.24,0,0,1-.22.22h-.05l.06,0c.08,0,.26.16.28.31a.32.32,0,0,1-.13.26h0l0,0a1,1,0,0,1,.13.25.25.25,0,0,1,0,.11.69.69,0,0,1-.12.26l0,0H33a.55.55,0,0,1,.29,0h0l0,0a.13.13,0,0,1,0,.08.25.25,0,0,1,0,.11,1,1,0,0,1-.15.23l0,0h0l0,0a.49.49,0,0,1,.05.1.23.23,0,0,1,0,.1.23.23,0,0,1,0,.09.19.19,0,0,1-.06.07.43.43,0,0,1-.22.06h-.26l-.15,0,.09.14,0,.07a.12.12,0,0,1,0,.06l0,0-.05,0h-.36l-.32,0v0l0,0a1.28,1.28,0,0,1-.25.25l0,0h0l.11,0a.6.6,0,0,1,.41.18v0a.18.18,0,0,1,0,.06.23.23,0,0,1,0,.1.23.23,0,0,1,0,.09l-.08.08,0,0h0l0,0a1,1,0,0,1,.08.27.25.25,0,0,1,0,.11.13.13,0,0,1-.06.07.11.11,0,0,1-.08,0l-.09,0a1,1,0,0,1-.18-.2l0,0v0l-.06.06a.39.39,0,0,1-.17.12h-.07l-.06-.05a.25.25,0,0,1,0-.09,1.07,1.07,0,0,1,0-.12c0-.09,0-.21,0-.25v-.08l-.08,0H31s0,0,0-.07a1.18,1.18,0,0,1,0-.21v-.15l0-.08,0-.1h0l-.17,0h0l0,.07c0,.07,0,.14,0,.2l0-.06-.08-.14,0-.06h-.08l-.18-.05,0,0,0,.05,0,.07,0,.07,0,.06a1.18,1.18,0,0,1,.1.18.12.12,0,0,1,0,.08l0,0-.05,0-.07,0v0l0,0,.14.21.06.1a.25.25,0,0,1,0,.09.17.17,0,0,1,0,.08.11.11,0,0,1,0,.05.39.39,0,0,1-.21,0h-.09v.08a1,1,0,0,1,0,.27.21.21,0,0,1,0,.1.11.11,0,0,1-.07,0,.13.13,0,0,1-.09,0,.25.25,0,0,1-.08-.08,1,1,0,0,1-.12-.25l0,0h-.17l-.09,0a.23.23,0,0,1-.06-.07.19.19,0,0,1,0-.09.43.43,0,0,1,.07-.22,1.73,1.73,0,0,1,.15-.22l.13-.13-.08,0s-.18.06-.25,0-.05-.15.08-.41l0,0h0a.49.49,0,0,1-.36,0c-.06,0-.1-.1-.13-.22v0l0,0,0,0a1,1,0,0,1-.23.15l-.1,0a.11.11,0,0,1-.07,0,.13.13,0,0,1,0-.08.25.25,0,0,1,0-.11,1,1,0,0,1,.14-.24l0,0h0l0,0a.49.49,0,0,1-.06-.1.22.22,0,0,1,0-.19.19.19,0,0,1,.06-.07.43.43,0,0,1,.22-.06h.39l0,0h0s-.13-.14-.11-.21.07-.08.17-.1l.12,0v0a.25.25,0,0,1-.18-.08.54.54,0,0,1-.11-.42v0l-.08,0-.17,0h0l-.09-.07h0v0a.3.3,0,0,1-.27.18h-.06v.05a1,1,0,0,1-.07.27.25.25,0,0,1-.06.09.13.13,0,0,1-.08,0h0a.11.11,0,0,1-.08,0,.2.2,0,0,1-.06-.09,1,1,0,0,1-.05-.27s0-.05,0-.05v0l0,0a.51.51,0,0,1-.41,0h0v0a.38.38,0,0,1-.21.41l0,0,0,0,0,0a1,1,0,0,1,.19.19.21.21,0,0,1,0,.1.11.11,0,0,1,0,.08.13.13,0,0,1-.07.05h-.11a1,1,0,0,1-.26-.09l0,0h0l0,0-.08.08-.09,0h-.1l-.08,0a.43.43,0,0,1-.11-.2,1.73,1.73,0,0,1,0-.26V8.79l-.11.13h0a1,1,0,0,0,0,.15v0h0a1,1,0,0,0,0,.13.56.56,0,0,0,.14.29.36.36,0,0,0,.16.09h.18a.34.34,0,0,0,.16-.09l.06-.07a.72.72,0,0,0,.23.11.39.39,0,0,0,.19,0,.3.3,0,0,0,.17-.12.32.32,0,0,0,0-.09.27.27,0,0,0,0-.11.36.36,0,0,0-.08-.18.66.66,0,0,0-.17-.14l0,0a.34.34,0,0,0,.1-.14.28.28,0,0,0,0-.11.34.34,0,0,0,.15,0h0a.66.66,0,0,0,0,.22.36.36,0,0,0,.1.17l.1.05h.1A.3.3,0,0,0,28.53,9a.39.39,0,0,0,.1-.16.72.72,0,0,0,0-.25h.09a.34.34,0,0,0,.16-.08h0a.34.34,0,0,0,.17,0h0a.66.66,0,0,0,0,.22.37.37,0,0,0,.07.13l0,0a.2.2,0,0,0-.05.15.22.22,0,0,0,0,.07H29a.56.56,0,0,0-.31.08.36.36,0,0,0-.12.14.37.37,0,0,0,0,.08.35.35,0,0,0,0,.09.34.34,0,0,0,.05.17l.06.07a.72.72,0,0,0-.15.21.39.39,0,0,0,0,.19.3.3,0,0,0,.08.19l.08.06.11,0a.36.36,0,0,0,.19,0,.66.66,0,0,0,.17-.14v0a2.91,2.91,0,0,0-.77,1,3.91,3.91,0,0,0-.3,1.4,4.45,4.45,0,0,0,.48,2.52,2.63,2.63,0,0,0,2.15,1.4h0v-.25h0a2.39,2.39,0,0,1-1.94-1.28,3.89,3.89,0,0,1-.46-2l.23.1a3.85,3.85,0,0,1,.69.41,4.59,4.59,0,0,1,.6.54,5,5,0,0,1,.89,1.35,5.57,5.57,0,0,1,.28.76,6.4,6.4,0,0,1,.15.66,12.46,12.46,0,0,0-1.75-.39,13.14,13.14,0,0,0-1.7-.14l.13.25a12.84,12.84,0,0,1,1.74.17,2.11,2.11,0,0,1,.11.24,2.58,2.58,0,0,1,.12,1.39,11.21,11.21,0,0,0-1.73-.23,5.13,5.13,0,0,0-.52-1.57h0l-.05-.09-.09-.15a13.07,13.07,0,0,0-1.89.14,13.42,13.42,0,0,0-1.82.4l.21.2a13.11,13.11,0,0,1,1.59-.34,1.8,1.8,0,0,1,.39.42,3,3,0,0,1,.44,1,11.65,11.65,0,0,0-1.77.32,3.85,3.85,0,0,0-.92-1.36l-.09-.08L23.44,17l-.44.15a6,6,0,0,1,.38-1.44,5.08,5.08,0,0,1,.83-1.39,4.28,4.28,0,0,1,1.24-1A3.54,3.54,0,0,1,26.3,13a4,4,0,0,1-.46,2.13,2.26,2.26,0,0,1-2,1.28v.25h0a2.63,2.63,0,0,0,2.15-1.4,4.45,4.45,0,0,0,.48-2.52A3.87,3.87,0,0,0,26.13,11a.38.38,0,0,0,.15.06h0a.31.31,0,0,0,.16,0l.08-.07a.27.27,0,0,0,.05-.1.36.36,0,0,0,0-.2.66.66,0,0,0-.1-.19h0a.34.34,0,0,0,.14-.09.27.27,0,0,0,.08-.17.32.32,0,0,0,0-.17l0-.07h0l-.06-.05-.12-.08-.15-.07a.2.2,0,0,0,0-.16c0-.08-.1-.15-.23-.21L26,9.34l.15.11a.24.24,0,0,1,.12.18.27.27,0,0,1-.11.18l0,0,0,0,0,0,.21.14.09.07.06.07a.17.17,0,0,1,0,.08.11.11,0,0,1,0,.07.39.39,0,0,1-.18.1l-.08,0v0l0,0a1,1,0,0,1,.11.25.21.21,0,0,1,0,.1.11.11,0,0,1-.05.06.13.13,0,0,1-.09,0l-.1,0a1,1,0,0,1-.21-.18l0,0h0c-.16.08-.28.09-.35,0s-.08-.45,0-.64l0-.06-.06,0c-.1.07-.18.08-.24.06s-.11-.14-.12-.3V9.62l0,.18a1,1,0,0,0,0,.23h0a.27.27,0,0,0,0,.12.2.2,0,0,0,.13.08h.08a1,1,0,0,0,0,.13.56.56,0,0,0,0,.32.36.36,0,0,0,.11.14l.08,0h0a5.23,5.23,0,0,0-.62.24h0l.11-.1a.54.54,0,0,0,.12-.27.47.47,0,0,0-.09-.36.56.56,0,0,0-.15-.13l-.08,0h0l.1,0,.08-.07a.29.29,0,0,0,.07-.19.38.38,0,0,0-.05-.18.7.7,0,0,0-.16-.19L25,9.48a.33.33,0,0,0,0-.17.34.34,0,0,0,0-.09l0-.08A.35.35,0,0,0,24.87,9,.55.55,0,0,0,24.56,9l-.12,0a.21.21,0,0,0,0-.07.19.19,0,0,0-.06-.14.26.26,0,0,0-.11-.06h0a.37.37,0,0,0-.34.16v0l0,0h0c.24-.1.33-.07.37,0s0,.2,0,.25l0,0,.23,0s.29,0,.36.12,0,.23-.12.33l0,0h0a.36.36,0,0,1,.28.25.2.2,0,0,1-.07.2c-.15.13-.44-.19-.45-.19l0,0v0s-.05.23-.21.24h0c-.13,0-.34-.43-.41-.59l0-.09v.1h0c.1,1,0,1.17-.09,1.2s-.19-.08-.22-.13l0-.06,0,.18a1.73,1.73,0,0,1,0,.26.43.43,0,0,1-.08.21l-.07.06-.1,0-.1,0L23,11.18l0,0h0l0,0a1,1,0,0,1-.24.13h-.11a.13.13,0,0,1-.08,0,.11.11,0,0,1,0-.08.2.2,0,0,1,0-.1,1,1,0,0,1,.16-.22l0,0,0,0h0a.28.28,0,0,1-.2-.16c0-.06,0-.16.09-.32h0l0-.09-.07.06a.34.34,0,0,1-.31.07h0v0c0,.39-.06.51-.12.53s-.29-.15-.29-.15l0,0v0l0,0a1,1,0,0,1-.16.22.21.21,0,0,1-.09.05.11.11,0,0,1-.08,0,.13.13,0,0,1-.06-.06.25.25,0,0,1,0-.11,1,1,0,0,1,.06-.27l0,0h0l0,0-.09-.07a.23.23,0,0,1,0-.09.23.23,0,0,1,0-.1.19.19,0,0,1,0-.09.43.43,0,0,1,.18-.13l.25-.08.15,0-.14-.09-.06,0a.12.12,0,0,1,0,0,0,0,0,0,1,0,0l0,0,.16-.07L22,9.59l.19,0h0l.14,0h.05l-.08.06h0l0,0a.8.8,0,0,1-.26.06,1.25,1.25,0,0,1-.27,0v0a1.29,1.29,0,0,0,.28,0h.16L22,10h0l0,0a1,1,0,0,1-.12.11l-.15.07-.16,0-.17,0v0l.17,0,.17,0,.11,0-.12.21a2.18,2.18,0,0,0-.17.41h0a3.51,3.51,0,0,1,.21-.38q.1-.17.22-.32h0a1.31,1.31,0,0,0,0,.17,1.38,1.38,0,0,0,0,.17,1.16,1.16,0,0,0,0,.17h0a1.3,1.3,0,0,1,0-.34,1.25,1.25,0,0,1,0-.17,1.2,1.2,0,0,1,0-.15l.06-.07.15-.16,0,0s0,.08,0,.13a2.16,2.16,0,0,0,0,.24h0a2.13,2.13,0,0,1,0-.24,1.54,1.54,0,0,1,0-.21l.1-.1.17,0a.47.47,0,0,0,.25-.27.56.56,0,0,0,0-.19.62.62,0,0,0-.25-.53.48.48,0,0,0-.4-.06l0,0a.71.71,0,0,1,.14.51v0a.7.7,0,0,1,0,.17.66.66,0,0,1-.19.27h0l0,0h0l-.15,0v0h0v0h-.07l-.23.08-.18,0-.17,0h-.05l0,0a.12.12,0,0,1,0-.06l0-.08.07-.15-.14.06-.26.06a.43.43,0,0,1-.23,0l-.08-.05a.24.24,0,0,1,0-.09.23.23,0,0,1,0-.1.49.49,0,0,1,0-.11l0,0h0l0,0a1,1,0,0,1-.19-.2.25.25,0,0,1,0-.1.13.13,0,0,1,0-.09.11.11,0,0,1,.06-.06h.1a1,1,0,0,1,.25.09l0,0,0,0v0c0-.33.25-.33.32-.33h0v0h0a.35.35,0,0,1-.13-.4v0l-.05,0a1,1,0,0,1-.25-.12.25.25,0,0,1-.07-.08.13.13,0,0,1,0-.09.11.11,0,0,1,0-.07l.1,0a1,1,0,0,1,.27,0h.08v0c0-.28,0-.28.1-.35l0,0,0,0c-.1-.06-.14-.12-.14-.19s.16-.23.17-.23l0,0,0,0,0,0a1,1,0,0,1-.2-.18.21.21,0,0,1,0-.09.11.11,0,0,1,0-.08.13.13,0,0,1,.07-.06h.11a1,1,0,0,1,.27.08l0,0h0l0,0,.08-.08.09,0h.1l.08,0a.43.43,0,0,1,.12.19,1.73,1.73,0,0,1,.06.25v.16l0-.05c.08-.13.16-.19.22-.18s.17.26.19.34,0,0,0,0h0v0a1.82,1.82,0,0,0-.07-.38h0l0,0a.47.47,0,0,0,.34-.06A.56.56,0,0,0,23,6.18a.62.62,0,0,0,.12-.57.48.48,0,0,0-.28-.3v0a.71.71,0,0,1-.2.49l0,0L22.47,6a.66.66,0,0,1-.32.1h0A.48.48,0,0,0,22,5.92a.36.36,0,0,0-.16-.08H21.7a.34.34,0,0,0-.15.1L21.49,6a.72.72,0,0,0-.24-.1.39.39,0,0,0-.19,0,.3.3,0,0,0-.16.13.32.32,0,0,0,0,.1.27.27,0,0,0,0,.11.36.36,0,0,0,.09.17.66.66,0,0,0,.17.13l0,0a.34.34,0,0,0-.09.14.27.27,0,0,0,0,.19.3.3,0,0,0,.07.1h0a.34.34,0,0,0,0,.17v0a.66.66,0,0,0-.22,0,.36.36,0,0,0-.18.07.27.27,0,0,0-.07.08.32.32,0,0,0,0,.1.3.3,0,0,0,0,.21.39.39,0,0,0,.14.13.72.72,0,0,0,.24.09.38.38,0,0,0,0,.09.34.34,0,0,0,0,.17h0a.28.28,0,0,0-.12.07.34.34,0,0,0-.08.15v0a.66.66,0,0,0-.2-.09.36.36,0,0,0-.2,0l-.1.05-.07.08a.3.3,0,0,0,0,.21.39.39,0,0,0,.08.17.72.72,0,0,0,.2.17l0,.08a.34.34,0,0,0,0,.18.35.35,0,0,0,0,.09l0,.07a.36.36,0,0,0,.15.1.56.56,0,0,0,.32,0l.12,0a.22.22,0,0,0,0,.07.2.2,0,0,0,.09.13.27.27,0,0,0,.12,0h.16a.19.19,0,0,0,0,.11l0,.06-.13,0a.56.56,0,0,0-.27.18.36.36,0,0,0-.07.17.37.37,0,0,0,0,.09.35.35,0,0,0,0,.09.34.34,0,0,0,.11.14l.08,0a.72.72,0,0,0-.08.25.39.39,0,0,0,0,.19.3.3,0,0,0,.14.15l.1,0h.11a.36.36,0,0,0,.16-.1.66.66,0,0,0,.12-.18l0,0a.34.34,0,0,0,.15.08.27.27,0,0,0,.19,0,.32.32,0,0,0,.13-.12l0-.08a.52.52,0,0,0,0-.08v0l.09.07,0,0a.66.66,0,0,0-.14.16.36.36,0,0,0-.06.19.27.27,0,0,0,0,.11.32.32,0,0,0,.06.09.3.3,0,0,0,.19.09h0a.4.4,0,0,0,.15,0,.72.72,0,0,0,.22-.14l.07.06a.34.34,0,0,0,.17.06h.09l.09,0a.36.36,0,0,0,.14-.11.56.56,0,0,0,.1-.31,1,1,0,0,0,0-.13l.07,0a.2.2,0,0,0,.15,0,.27.27,0,0,0,.07-.11h0a1.29,1.29,0,0,0,.06-.41s0-.07,0-.09A1.23,1.23,0,0,0,24,10l0,.05,0,.06.06.06a.31.31,0,0,0,.16.06h0a.5.5,0,0,0-.14.23h0a.71.71,0,0,1,.51.16l0,0a.7.7,0,0,1,.12.12.66.66,0,0,1,.13.31v0l-.18.09.1-.11a.65.65,0,0,0-.69-.56l-.1.13-.06.08,0,.06L23.9,11a.81.81,0,0,0-.07.31.36.36,0,0,0,.06.22l0,0a.3.3,0,0,0,.2.07,6.39,6.39,0,0,0-1.61,1.66,7.72,7.72,0,0,0-1.07,2.39,8.67,8.67,0,0,0-.27,2.39A1,1,0,0,0,22,19.73H22l-.8,1.34a7.66,7.66,0,0,0-1,.52l-.37.26v0a6.26,6.26,0,0,1-2.21-.6c-.17-.08-.34-.17-.5-.27a5.45,5.45,0,0,1-.47-.32,4,4,0,0,1-.78-.8,2.61,2.61,0,0,1-.27-.47,1.7,1.7,0,0,1-.14-.51s0-.09,0-.13,0,0,0-.06,0,0,0-.07,0-.19,0-.28a2,2,0,0,1,.16-.52,1.15,1.15,0,0,1,.78-.65,2.36,2.36,0,0,1,1.11,0h0l.3.14L17.69,17a4,4,0,0,0-.84-.74,2.45,2.45,0,0,0-.52-.25,1.78,1.78,0,0,0-.58-.1,1.35,1.35,0,0,0-.58.12,1.94,1.94,0,0,0-.48.33l-.1.1v0c0-.08.09-.17.12-.25a5.62,5.62,0,0,0,.21-.52l.09-.27.07-.27,0-.14,0-.14.05-.28,0-.28s0-.09,0-.14v-.71a5.42,5.42,0,0,0-.08-.56,5.31,5.31,0,0,0-.33-1.09,5.69,5.69,0,0,0-.54-1,5.86,5.86,0,0,0-.72-.86,5.29,5.29,0,0,0-.42-.37,4.21,4.21,0,0,0-.46-.33h0a0,0,0,0,0,0,0,9.39,9.39,0,0,1,1,1.54l0,.05,0,.05,0,.1c0,.07.07.14.1.21l.09.21.08.21,0,.11,0,.11.07.22,0,.14a4.53,4.53,0,0,0-.69.91,6,6,0,0,0-.48,1.07,7.74,7.74,0,0,0-.29,1.13q0,.2-.06.41a3.21,3.21,0,0,0-.17-.29,3,3,0,0,0-.77-.79,2.71,2.71,0,0,0-1-.43,2.65,2.65,0,0,0-.55-.05l-.27,0-.13,0-.14,0h0l-.31,0,.27.16a2,2,0,0,1,.51.44,2.82,2.82,0,0,1,.36.58A12.26,12.26,0,0,1,11,16.84c.15.46.31.91.51,1.36a10.68,10.68,0,0,0,.66,1.3A8.27,8.27,0,0,0,13,20.68c.16.18.33.36.5.53s.36.33.55.49a10.3,10.3,0,0,0,1.19.84l.64.36.09,0c-.62.07-1.25.12-1.87.13a14,14,0,0,1-2.47-.14,9.46,9.46,0,0,1-1.2-.26,7.2,7.2,0,0,1-1.14-.44,5.58,5.58,0,0,1-1-.64,4.28,4.28,0,0,1-.45-.41L7.62,21l-.09-.12,0-.06,0-.06h0l-.06-.43-.13.45a3,3,0,0,0-.11.9v.23c0,.08,0,.15,0,.23a2.64,2.64,0,0,0,.13.44,2.58,2.58,0,0,0,.2.42,2.67,2.67,0,0,0,.27.38,2.58,2.58,0,0,0,.28.28c-.31-.06-.62-.12-.93-.16l-.73-.08c-.24,0-.49,0-.74,0a3.93,3.93,0,0,0-.75.08,2.74,2.74,0,0,0-.72.28,3,3,0,0,0-.61.45,3,3,0,0,0-.26.28l-.11.15-.11.16h0L3,24.9l.2,0a4.43,4.43,0,0,1,.59.18l.6.22a11.18,11.18,0,0,0,1.24.36,7.11,7.11,0,0,0,1.3.17h.8a3.08,3.08,0,0,0-.28.4,3.89,3.89,0,0,0-.39.91,5.33,5.33,0,0,0-.18,1q0,.24,0,.49c0,.16,0,.32,0,.49h0v.34l.2-.29A6.73,6.73,0,0,1,8.19,27.9,7,7,0,0,1,9.59,27q.38-.19.77-.35c.26-.11.53-.2.8-.29.54-.18,1.1-.33,1.66-.45s1.13-.24,1.69-.36l.85-.17.43-.09.43-.11c.28-.07.56-.16.84-.25h0l-1,.6-1,.59-1,.59c-.66.39-1.33.76-2,1.15s-1.32.8-2,1.24a14.72,14.72,0,0,0-1.81,1.47,9,9,0,0,0-.79.87,6.14,6.14,0,0,0-.65,1,5.09,5.09,0,0,0-.24.55,4.52,4.52,0,0,0-.17.57,4.08,4.08,0,0,0,0,1.79,4.4,4.4,0,0,0,.17.57,5.56,5.56,0,0,0,.47,1l0,0L7,37a2.28,2.28,0,0,0-.14.26,3.37,3.37,0,0,0-.19.54,5.18,5.18,0,0,0-.11.55c0,.19,0,.37-.06.56a10,10,0,0,0,0,1.11l0,.28,0,.28.05.55q.05.55.11,1.09l.12,1.09c0,.36.08.72.1,1.08a3.94,3.94,0,0,1,0,1.05l-.08.39.29-.28h0l.15-.15.13-.16.25-.33A6.49,6.49,0,0,0,8,44.2a6.85,6.85,0,0,0,.34-.74c0-.13.1-.26.14-.39s.08-.26.11-.39a7,7,0,0,0,.23-1.62,7,7,0,0,0-.07-1.13l.06.08.39.45q.4.44.82.86c.28.28.57.55.87.81l.46.38.46.37c.62.49,1.25,1,1.9,1.42l1,.67.82.51-.22.09a2.08,2.08,0,0,1-.67.11,1.89,1.89,0,0,1-.66-.11,1.48,1.48,0,0,1-.55-.36h0L13.25,45l0,.28s0,.07,0,.1,0,.07,0,.1,0,.13,0,.19a2.24,2.24,0,0,0,.07.38,1.68,1.68,0,0,0,.38.69,1.55,1.55,0,0,0,.67.42,2.13,2.13,0,0,0,.42.09l-.18.16-.2.21-.18.23a2.63,2.63,0,0,0-.16.25,2.31,2.31,0,0,0-.13.27,2.34,2.34,0,0,0-.1.28l0,.07,0,.07,0,.14a5.39,5.39,0,0,0-.06.57c0,.09,0,.19,0,.28s0,.19,0,.28a8.46,8.46,0,0,0,.09,1.13h0l0,.3.09-.28a2.56,2.56,0,0,1,.21-.47,4.57,4.57,0,0,1,.27-.44,3.58,3.58,0,0,1,.32-.4l.09-.09.09-.08.2-.17a5.66,5.66,0,0,0,.77-.74l.16-.22a2.25,2.25,0,0,0,.13-.25l.05-.13.05.13a4.53,4.53,0,0,0,.25.5,3.06,3.06,0,0,0,.33.46,1.86,1.86,0,0,0,.44.38l.26.15-.08-.29c0-.05,0-.11,0-.17s0-.12,0-.18a2.11,2.11,0,0,1,0-.36,1.6,1.6,0,0,1,.06-.35l0-.08.24.53q.25.54.54,1a.84.84,0,0,0-.85.42,1.21,1.21,0,0,0-.11.46h0a4,4,0,0,1-2.16,2.26.12.12,0,0,0-.06.11,5.25,5.25,0,0,0,.35,1.65,9.86,9.86,0,0,0,2.49,3.71,12.3,12.3,0,0,0,8.86,3.63h.82a12.31,12.31,0,0,0,8.86-3.63,9.86,9.86,0,0,0,2.48-3.71,5.25,5.25,0,0,0,.35-1.65.12.12,0,0,0-.06-.11,4,4,0,0,1-2.16-2.26h0a1.21,1.21,0,0,0-.11-.46A.84.84,0,0,0,36.1,50q.29-.51.54-1,.16-.35.31-.71v0a1.6,1.6,0,0,1,.06.35A2.11,2.11,0,0,1,37,49c0,.06,0,.12,0,.18s0,.12,0,.17l-.08.29.26-.15a1.86,1.86,0,0,0,.44-.38,3.06,3.06,0,0,0,.33-.46,4.53,4.53,0,0,0,.25-.5l.05-.13.05.13a2.24,2.24,0,0,0,.13.25l.16.22a5.66,5.66,0,0,0,.77.74l.2.17.09.08.09.09a3.58,3.58,0,0,1,.32.4,4.57,4.57,0,0,1,.27.44,2.56,2.56,0,0,1,.21.47l.09.28,0-.3h0a8.46,8.46,0,0,0,.09-1.13c0-.09,0-.19,0-.28s0-.19,0-.28a5.39,5.39,0,0,0-.06-.57l0-.14,0-.07,0-.07a2.34,2.34,0,0,0-.23-.55,2.63,2.63,0,0,0-.16-.25L40,47.38l-.2-.21L39.66,47a2.13,2.13,0,0,0,.42-.09,1.55,1.55,0,0,0,.67-.42,1.68,1.68,0,0,0,.38-.69,2.24,2.24,0,0,0,.07-.38c0-.06,0-.13,0-.19s0-.06,0-.1,0-.06,0-.1l0-.28L41,45h0a1.48,1.48,0,0,1-.55.36,1.89,1.89,0,0,1-.66.11,2.08,2.08,0,0,1-.67-.11l-.22-.09.82-.51,1-.67c.65-.45,1.28-.93,1.9-1.42l.46-.37.46-.38c.3-.26.59-.53.87-.81s.56-.57.82-.86l.39-.45.06-.08a7,7,0,0,0,.16,2.76c0,.13.07.26.11.39s.09.26.14.39a6.85,6.85,0,0,0,.34.74,6.48,6.48,0,0,0,.43.7l.25.33.13.16.15.15h0l.29.28-.08-.39a3.94,3.94,0,0,1,0-1.05c0-.36.06-.72.1-1.08L47.75,42q.06-.54.11-1.09l.05-.55,0-.28,0-.28a10,10,0,0,0,0-1.11c0-.19,0-.37-.06-.56a5.18,5.18,0,0,0-.11-.55,3.37,3.37,0,0,0-.19-.54,2.28,2.28,0,0,0-.14-.26l-.09-.12,0,0a5.56,5.56,0,0,0,.47-1,4.4,4.4,0,0,0,.17-.57,4.08,4.08,0,0,0,0-1.79,4.52,4.52,0,0,0-.17-.57,5.09,5.09,0,0,0-.24-.55,6.14,6.14,0,0,0-.65-1,9,9,0,0,0-.79-.87,14.72,14.72,0,0,0-1.81-1.47c-.64-.44-1.29-.85-2-1.24s-1.34-.76-2-1.15l-1-.59-1-.59-.94-.58.45.14.46.13.23.06.23.05.23.05.23,0,1.83.37c.61.13,1.21.27,1.8.44a12.07,12.07,0,0,1,1.73.64,8.2,8.2,0,0,1,.8.44l.19.12.19.13.18.14.09.07.09.07a6.11,6.11,0,0,1,.66.63,6.82,6.82,0,0,1,.56.73l.2.29,0-.35h0c0-.17,0-.33,0-.49s0-.33,0-.49a5.35,5.35,0,0,0-.18-1A3.91,3.91,0,0,0,47,26a3.11,3.11,0,0,0-.28-.4h.8a7.11,7.11,0,0,0,1.3-.17A11.18,11.18,0,0,0,50,25.11l.6-.22a4.43,4.43,0,0,1,.59-.18h0l.18,0ZM22.66,9.34a.46.46,0,0,0,0-.21h0a.43.43,0,0,1,0,.11s0,0,0,0a.25.25,0,0,1-.12.12Zm-.08-.13h0a.53.53,0,0,1,0,.17v0l-.11,0,0,0,0-.07A.39.39,0,0,0,22.58,9.22Zm-.22.24.06-.08,0-.09,0-.1h0a.89.89,0,0,1,0,.11.74.74,0,0,1,0,.11l0,.09h-.09Zm.41-3.38v0a.43.43,0,0,1,0,.1l0,0a.25.25,0,0,1-.17,0l.07,0A.46.46,0,0,0,22.78,6.08Zm-.14,0h0a.53.53,0,0,1-.11.13l0,0-.11,0,0,0,.07,0A.39.39,0,0,0,22.63,6.08Zm-.32.06.09,0,.09,0L22.59,6h0l-.08.08-.09.07-.08,0-.07-.06Zm-.09.09.07.06h0l-.07,0a1,1,0,0,0,0-.13v0Zm2.26,3.93,0-.07v0l.12.09Zm-21,14.56,0,0v0ZM29.33,10.43h.11l.08,0a.91.91,0,0,0-.06.13h0a.27.27,0,0,0,0,.13.2.2,0,0,0,.09.13l.07,0-.08.1a.57.57,0,0,0-.11.28h0a5.17,5.17,0,0,0-.57-.25A2.71,2.71,0,0,1,29.33,10.43Zm-.53.6a5.11,5.11,0,0,1,.58.25l.06,0a.36.36,0,0,0,0,.11l.05.07.07.06a.34.34,0,0,0,.17.05h.09a.72.72,0,0,0,.09.24.39.39,0,0,0,.13.14.3.3,0,0,0,.16,0h0l.1,0h0l.05,0a6.66,6.66,0,0,1,.9.94,7.45,7.45,0,0,1,1.22,2.29A8.52,8.52,0,0,1,33,17.76a1,1,0,0,0-.28-.23h0a8.06,8.06,0,0,0-.39-2.21,7.09,7.09,0,0,0-1.13-2.16,5.78,5.78,0,0,0-1.85-1.57,5,5,0,0,0-.67-.29A2.67,2.67,0,0,1,28.8,11Zm-.18.32a4.91,4.91,0,0,1,.67.29,5.39,5.39,0,0,1,1,.68,6.32,6.32,0,0,1,.84.87,7,7,0,0,1,1.14,2.13,8,8,0,0,1,.42,2.19l-.3-.15a7.58,7.58,0,0,0-.4-2.05,6.65,6.65,0,0,0-1.09-2,5.43,5.43,0,0,0-1.74-1.44,4.45,4.45,0,0,0-.65-.27C28.55,11.53,28.58,11.44,28.62,11.35Zm-.13.34a4.37,4.37,0,0,1,.64.27,5.06,5.06,0,0,1,.93.62,6,6,0,0,1,.79.8,6.61,6.61,0,0,1,1.1,2,7.55,7.55,0,0,1,.43,2l-.32-.14a7.07,7.07,0,0,0-.41-1.89,6.2,6.2,0,0,0-1-1.81A5.07,5.07,0,0,0,29,12.22a4.21,4.21,0,0,0-.58-.24C28.44,11.89,28.46,11.79,28.49,11.69Zm-.15.73a3.89,3.89,0,0,1,.47.19,4.41,4.41,0,0,1,.81.5,5.22,5.22,0,0,1,.69.66,5.74,5.74,0,0,1,1,1.63,6.6,6.6,0,0,1,.46,1.86h0a6.63,6.63,0,0,0-.43-1.88,5.78,5.78,0,0,0-1-1.66,4.73,4.73,0,0,0-1.51-1.19,4,4,0,0,0-.49-.2c0-.09,0-.18,0-.28a4.13,4.13,0,0,1,.56.23,4.73,4.73,0,0,1,.87.56,5.57,5.57,0,0,1,.74.72,6.16,6.16,0,0,1,1,1.79,7,7,0,0,1,.44,1.87l-.3-.11q0,.13,0,.28a6.76,6.76,0,0,1,.81.36.78.78,0,1,1-.75,1.36l-.37-.17a4.62,4.62,0,0,0,.06-1.64c0-.1,0-.19-.05-.28h0A6.16,6.16,0,0,0,31,15.42a5.39,5.39,0,0,0-.93-1.51,4.42,4.42,0,0,0-1.41-1.08l-.38-.16C28.33,12.6,28.34,12.51,28.35,12.42Zm2.42,3.06a5,5,0,0,0-.88-1.38,4.13,4.13,0,0,0-1.31-1L28.31,13q0-.12,0-.25l.35.14a4.12,4.12,0,0,1,.75.46,4.9,4.9,0,0,1,.64.6A5.35,5.35,0,0,1,31,15.44a6,6,0,0,1,.29.84,6.8,6.8,0,0,1,.15.73l-.27-.09A5.75,5.75,0,0,0,30.77,15.47Zm-1,3.19.16,0h0l.15,0h0l.09.08.09.08.18.17.35.36a8.55,8.55,0,0,1,.63.79l.25.38-.36,1.93-.19-.28Q31,22,30.8,21.68l-.16-.3-.15-.3A7.79,7.79,0,0,1,30,19.83a5.32,5.32,0,0,1-.21-1.17Zm-1.86-.24h.22l.21,0h.58l.12,0h0l.47.08h0a4.13,4.13,0,0,0,.12,1.31,5.76,5.76,0,0,0,.21.68l.13.33.15.32.16.31.18.3c.12.2.25.39.39.58s.28.37.43.55l.3.34-.34,0L31,23.21l-.27-.12a2,2,0,0,1-.46-.36,2.23,2.23,0,0,1-.19-.23L30,22.38l-.07-.12-.29-.58.08.65h0a5.06,5.06,0,0,1,0,.54,3.91,3.91,0,0,1,0,.53,3.64,3.64,0,0,1-.81,1.93,3.69,3.69,0,0,1-.27.3,6.85,6.85,0,0,0,.65-2.43A7.4,7.4,0,0,0,29,19.67a1.38,1.38,0,0,0,.08-.19,1.6,1.6,0,0,0,0-.18l0-.09s0-.06,0-.1V19h-.43l-.25-.05-.25-.08h0L28,18.71a1.87,1.87,0,0,1-.24-.18l-.06-.08,0,0Zm4,11.66a11,11,0,0,0,.68-1.85,14.38,14.38,0,0,1,.36,1.85Zm1,.57V53.13l-.25.24-.4.35V30.66Zm-1.27-.57h-.41a7.47,7.47,0,0,0,1-2.89.41.41,0,0,0-.15-.35.61.61,0,0,0-.54,0,3.64,3.64,0,0,0-1.37.94c-.19.18-.54.56-1,1.08l-1.2,1.31-.15.09-.05,0c-.6.36-1.29.75-2.06,1.15l-.56.29c-.74.38-1.28.64-1.48.72a20.27,20.27,0,0,1-.92-2.1c-.08-.22-.15-.43-.2-.6a1.38,1.38,0,0,1,.23-1.2,2.21,2.21,0,0,1,.36-.4,14.58,14.58,0,0,1,1,1.88h0l0,.06a11.17,11.17,0,0,0,2.19-1.29c.9-.69,1.67-1.35,2.28-1.88.41-.35.73-.63,1-.81.68-.51,1.16-.82,1.72-.38l1,.75h0S33.05,27.05,31.64,30.08Zm-2.47,9.33a7.11,7.11,0,0,1,0,6.54,2.79,2.79,0,0,0,0,2.69,7.11,7.11,0,0,1,0,6.54,3,3,0,0,0-.3.75l-.68.32a3,3,0,0,1,.41-1.35,6.48,6.48,0,0,0,0-6,3.42,3.42,0,0,1,0-3.26,6.48,6.48,0,0,0,0-6,3.42,3.42,0,0,1,0-3.26,6,6,0,0,0,.73-3,5.85,5.85,0,0,0-.63-2.79h.7A6.48,6.48,0,0,1,30,33.45a6.61,6.61,0,0,1-.8,3.27,2.79,2.79,0,0,0,0,2.69Zm-.88-9.33.44-.48.26.48Zm1,0-.36-.67.39-.43c.45-.5.81-.9,1-1.06A3.47,3.47,0,0,1,31.56,27l.07,0h0c.13,0,.54.14-.91,3.07ZM28,30.36h0Zm-2.15,10.7a3.42,3.42,0,0,1,0,3.26,6.48,6.48,0,0,0,0,6,3.42,3.42,0,0,1,0,3.26,6,6,0,0,0-.69,2.23l-.6-.33a6.64,6.64,0,0,1,.72-2.18,2.79,2.79,0,0,0,0-2.69,7.11,7.11,0,0,1,0-6.54,2.79,2.79,0,0,0,0-2.69,7.11,7.11,0,0,1,0-6.54,2.79,2.79,0,0,0,0-2.69l-.09-.18h0l.56-.29.1.19a3.42,3.42,0,0,1,0,3.26,6.48,6.48,0,0,0,0,6Zm-3.6-11.27.09.29H20.54a12.58,12.58,0,0,1,1.26-3.71c.39.48.78,1,1.15,1.55a2.45,2.45,0,0,0-.42.46A1.64,1.64,0,0,0,22.26,29.79Zm-.14.86V53.72l-.4-.35-.25-.24V30.66ZM19.53,53.58h0l-.8.18A7.29,7.29,0,0,1,18.4,53l0-.15.41-.82a6.09,6.09,0,0,0,.28.57c.29.52.57.78.84.78H20a.5.5,0,0,0,.34-.26.73.73,0,0,0,.06-.23l.21.22a.49.49,0,0,1,0,.21.47.47,0,0,1-.32.26c-.3.09-.75-.26-.9-.4h0l-.17.18A2.48,2.48,0,0,0,19.53,53.58Zm.6-1a.68.68,0,0,1,0,.39.25.25,0,0,1-.18.13c-.17,0-.41-.2-.66-.65a6.26,6.26,0,0,1-.37-.8.12.12,0,0,0-.23,0l-.41.82a3.51,3.51,0,0,1-.13-1.58.36.36,0,0,1,.19-.24.59.59,0,0,1,.33,0A15.23,15.23,0,0,0,20.13,52.57Zm-1.36-2.86v-19h.65V50.74Q19.07,50.24,18.77,49.71ZM30.83,25.25a2.26,2.26,0,0,0-1.39.64c-.25.19-.57.47-1,.82-.61.53-1.38,1.19-2.27,1.87a11.27,11.27,0,0,1-1.92,1.16,21.62,21.62,0,0,0-5.13-6.49,26.77,26.77,0,0,0,7.37-1.57.12.12,0,0,0,0-.2l-1-1.08,1.83-.68a6.3,6.3,0,0,1,.07.65c0,.08,0,.16,0,.24a.53.53,0,0,0-.46-.28.55.55,0,0,0,0,1.09.53.53,0,0,0,.44-.25,5,5,0,0,1-.27,1.26,5,5,0,0,1-.63,1.2h0l0,0-.12.17h.49l.27-.05a2.44,2.44,0,0,0,.52-.19,2.51,2.51,0,0,0,.46-.3l.08-.07c0,.13-.05.27-.07.41a5,5,0,0,0-.06.85v.21c0,.07,0,.14,0,.2s0,.27,0,.41,0,.27,0,.41,0,.14,0,.2,0,.14,0,.2l0,.23.19-.12h0l.13-.08.12-.08.22-.18a3.84,3.84,0,0,0,.4-.4A3.64,3.64,0,0,0,30,23.42a4.18,4.18,0,0,0,0-.57v-.09l.11.12a2.26,2.26,0,0,0,.51.4l.3.14.25.07Zm-3.5-4.39a.37.37,0,1,1-.37-.39A.38.38,0,0,1,27.33,20.86Zm1.12-.49c0-.06,0-.12,0-.18a.89.89,0,0,0,.25-.11,1,1,0,0,0,.27-.27h0a4.65,4.65,0,0,1,.19.75,9.34,9.34,0,0,1,0,2.63,5.76,5.76,0,0,1-.83,2.69l0-.13q0-.21,0-.42c0-.14,0-.28,0-.42s0-.14,0-.21v-.21a6.42,6.42,0,0,1,0-.81c0-.13,0-.27.05-.4s0-.27.07-.4h0l.13-.5-.33.4a2.4,2.4,0,0,1-.78.63,2.21,2.21,0,0,1-.47.17h-.06a3.64,3.64,0,0,0,.47-.44,3.6,3.6,0,0,0,.33-.44,4.21,4.21,0,0,0,.26-.48,4,4,0,0,0,.3-1,4.57,4.57,0,0,0,0-.54C28.46,20.55,28.46,20.46,28.45,20.37Zm-1.15-2h0l.1.13.1.11.1.07a2.14,2.14,0,0,0,.26.21l.26.15h0a1.24,1.24,0,0,0,.28.11l.29,0h.15a1.33,1.33,0,0,1,0,.14,1,1,0,0,1-.11.27.69.69,0,0,1-.45.33h0l-.09,0v.1s0,.08,0,.12,0,.09,0,.13,0,.17,0,.26a4.45,4.45,0,0,1-.36,1.48,3.92,3.92,0,0,1-.24.45l-.14.21-.16.2-.05.06a4.23,4.23,0,0,0,.22-.47,4.74,4.74,0,0,0,.32-1.45,5.51,5.51,0,0,0,0-.74,5.9,5.9,0,0,0-.1-.73,6,6,0,0,0-.19-.71q-.06-.17-.13-.35l-.06-.15Zm-1-5.7c0,.06,0,.11,0,.17a3.62,3.62,0,0,0-.88.34,4.24,4.24,0,0,0-1.25,1,5.12,5.12,0,0,0-.82,1.42A5.86,5.86,0,0,0,23,17.15l-.26.1a6.37,6.37,0,0,1,.38-1.57A5.46,5.46,0,0,1,24,14.14,4.58,4.58,0,0,1,25.31,13a3.78,3.78,0,0,1,1-.37Zm0-.15a3.86,3.86,0,0,0-1,.39,4.55,4.55,0,0,0-1.35,1.15,5.49,5.49,0,0,0-.86,1.55,6.28,6.28,0,0,0-.35,1.59l-.28.11a6.7,6.7,0,0,1,.37-1.72A5.86,5.86,0,0,1,23.73,14a4.9,4.9,0,0,1,1.43-1.24,4,4,0,0,1,1.1-.42Q26.27,12.43,26.28,12.57Zm0-.34a4.11,4.11,0,0,0-1.12.43,4.87,4.87,0,0,0-1.45,1.27,5.89,5.89,0,0,0-.91,1.7,6.73,6.73,0,0,0-.34,1.74l-.3.13a7.17,7.17,0,0,1,.37-1.89,6.28,6.28,0,0,1,1-1.83A5.24,5.24,0,0,1,25,12.41,4.3,4.3,0,0,1,26.2,12Q26.23,12.09,26.25,12.23Zm-.07-.35a4.38,4.38,0,0,0-1.21.47,5.21,5.21,0,0,0-1.55,1.39,6.32,6.32,0,0,0-1,1.86,7.2,7.2,0,0,0-.34,1.9l-.31.15a7.68,7.68,0,0,1,.36-2.07,6.73,6.73,0,0,1,1-2,5.6,5.6,0,0,1,1.66-1.5,4.59,4.59,0,0,1,1.25-.5C26.13,11.68,26.16,11.77,26.18,11.88Zm-.11-.37a4.67,4.67,0,0,0-1.27.51,5.57,5.57,0,0,0-1.67,1.52,6.77,6.77,0,0,0-1,2,7.71,7.71,0,0,0-.33,2.09l-.29.15a8.53,8.53,0,0,1,.08-1.05,7.76,7.76,0,0,1,.27-1.19,7.2,7.2,0,0,1,1.07-2.17,6.48,6.48,0,0,1,.8-.91,5.53,5.53,0,0,1,1-.72A4.82,4.82,0,0,1,26,11.24,2.72,2.72,0,0,1,26.07,11.51Zm-1-.65,0,0,0-.07a.39.39,0,0,0-.11-.11v0a.53.53,0,0,1,.14.1l0,0A.39.39,0,0,1,25.07,10.86Zm-.16-.38.11,0,0,0a.25.25,0,0,1,0,.16l0-.07a.46.46,0,0,0-.16-.14Zm0,.37-.05-.09-.07-.08h0l.08.07.07.08.05.08L25,11v0Zm-.86.66h0l.18-.1.08-.07.07-.07a4.13,4.13,0,0,0,.27-.32h0a0,0,0,0,1,0,0,1.15,1.15,0,0,1-.24.36l-.08.08-.09.06A.53.53,0,0,1,24.09,11.51ZM21.5,15.67a7.68,7.68,0,0,1,1.08-2.37,6.37,6.37,0,0,1,1.76-1.74l.16-.09.06,0A5.26,5.26,0,0,1,25.6,11l.16,0a2.33,2.33,0,0,1,.16.26,4.9,4.9,0,0,0-1.28.53,5.93,5.93,0,0,0-1.78,1.66,7.23,7.23,0,0,0-1.06,2.19,7.79,7.79,0,0,0-.25,1.2,8.56,8.56,0,0,0-.07,1.06l0,0-.09.06a1,1,0,0,0-.16.15A8.64,8.64,0,0,1,21.5,15.67ZM22,19.49A.78.78,0,0,1,21.57,18l.12-.06a2,2,0,0,1,.5.23,2,2,0,0,1,.76.89c-.38.16-.59.28-.6.29A.78.78,0,0,1,22,19.49Zm.4.16h0l.06,0,.06,0s.21-.12.56-.27a11.11,11.11,0,0,1,1.63-.55,11.37,11.37,0,0,1,1.73-.31l.2,0H27l0,.07.06.17q.06.17.1.34c0,.16.08.33.11.49l-2,.76a.12.12,0,0,0,0,.2l1,1.08c-.56.21-1.12.39-1.67.55l-.41-.58a.12.12,0,0,0-.1-.05l-2.79.07ZM21,21.46l-.06.11a.12.12,0,0,0,.11.19L24,21.68l.32.46a27.46,27.46,0,0,1-5.26.88A5.88,5.88,0,0,1,21,21.46ZM14.8,16.52a1.56,1.56,0,0,1,.46-.24,1.74,1.74,0,0,1,.49-.09,1.63,1.63,0,0,1,.5.08,2.47,2.47,0,0,1,.48.21,4.18,4.18,0,0,1,.58.4l-.24,0-.31,0a1.69,1.69,0,0,0-.32,0,1.41,1.41,0,0,0-.6.26,1.52,1.52,0,0,0-.42.51,2.32,2.32,0,0,0-.21.61c0,.1,0,.21,0,.31v.08s0,.06,0,.08,0,.11,0,.17a2.11,2.11,0,0,0,.14.64,2.77,2.77,0,0,0,.3.57,4,4,0,0,0,.87.91,4.77,4.77,0,0,0,.51.35,5.22,5.22,0,0,0,.55.29,5.47,5.47,0,0,0,2.08.49l-.16.14v0a4.39,4.39,0,0,1-3.56-.88A4.27,4.27,0,0,1,14,18.49,2.59,2.59,0,0,1,14.31,17l.09-.12A2.36,2.36,0,0,1,14.8,16.52ZM3.8,24.4A3.14,3.14,0,0,1,4.37,24,2.65,2.65,0,0,1,5,23.79a4,4,0,0,1,.68-.08,12.23,12.23,0,0,1,1.42,0c.48,0,1,.09,1.43.16l.6.08-.53-.26h0l-.08-.06-.08-.07-.15-.15A3.26,3.26,0,0,1,8,23.14,3.05,3.05,0,0,1,7.54,22c0-.07,0-.13,0-.2v-.1s0-.07,0-.1a4.53,4.53,0,0,1,0-.46l.15.22a3.81,3.81,0,0,0,.44.49,5,5,0,0,0,1.07.75,6.78,6.78,0,0,0,1.2.48,9.08,9.08,0,0,0,1.26.28,12,12,0,0,0,1.28.13q.64,0,1.28,0a18.78,18.78,0,0,0,2.53-.28l.66-.12-.63-.22h0l-.32-.13L16,22.59l-.62-.34a10,10,0,0,1-1.16-.8c-.18-.15-.36-.3-.53-.46s-.33-.33-.49-.51a8,8,0,0,1-.83-1.14,10.39,10.39,0,0,1-.66-1.25c-.19-.43-.36-.88-.51-1.33a12.44,12.44,0,0,0-.52-1.36,3.06,3.06,0,0,0-.4-.63,2.2,2.2,0,0,0-.23-.24l.1,0a3.54,3.54,0,0,1,.47.12,3.07,3.07,0,0,1,.84.42,3.21,3.21,0,0,1,.67.66,5.34,5.34,0,0,1,.51.83l.53,1L13,16.5h0c0-.09,0-.18,0-.27S13,16,13,16s0-.37.08-.55a7.39,7.39,0,0,1,.27-1.07,5.62,5.62,0,0,1,.45-1,4.29,4.29,0,0,1,.48-.68,7.91,7.91,0,0,1,.15.79,7.27,7.27,0,0,1,.06.91,7.06,7.06,0,0,1-.06.92,5.47,5.47,0,0,1-.19.9h0a0,0,0,0,0,0,0,0,0,0,0,0,0,0,5.53,5.53,0,0,0,.23-.9,7.17,7.17,0,0,0,.1-.93,7.42,7.42,0,0,0,0-.94,5.82,5.82,0,0,0-.14-.93v0h0c0-.14-.07-.28-.11-.42l-.07-.22-.08-.22a6.21,6.21,0,0,0-.4-.85A7.47,7.47,0,0,0,13,9.6l.06.06.19.2.18.2a6.85,6.85,0,0,1,.65.88,5.84,5.84,0,0,1,.49,1,5.4,5.4,0,0,1,.28,1c0,.18,0,.36.07.53v.67s0,.09,0,.13l0,.27,0,.27,0,.13,0,.13-.06.27-.07.26,0,.13s0,.09,0,.13l-.08.26c0,.09-.06.17-.09.26l-.1.26-.07.18a2.7,2.7,0,0,0-.42,1.67,4.38,4.38,0,0,0,1.93,3,4.43,4.43,0,0,0,2.79,1,5.17,5.17,0,0,0,.71-.05,3.69,3.69,0,0,0-.58.72h0a7.85,7.85,0,0,1-1.93.54,38.32,38.32,0,0,1-8,.64l-.46,0a9.91,9.91,0,0,0-4.75.35Zm13.14.15c-.27.09-.54.17-.82.24l-.42.1-.42.09-.85.17-1.7.35c-.57.13-1.13.27-1.69.45q-.42.13-.83.3l-.41.17-.4.2a6.72,6.72,0,0,0-1.46,1,5.44,5.44,0,0,0-.87,1v-.05q0-.23,0-.47a5.05,5.05,0,0,1,.2-.91,3.58,3.58,0,0,1,.38-.83,2.61,2.61,0,0,1,.6-.66l.49-.38-.62.06H7.56l-.62,0a8.78,8.78,0,0,1-1.23-.16l-.31-.07-.3-.07L4.49,25l-.61-.17-.32-.07a9.57,9.57,0,0,1,4.79-.38l.46,0a38.4,38.4,0,0,0,8-.64,8,8,0,0,0,1.92-.53l0,0h0l.36.3a9.91,9.91,0,0,1-1.36.69C17.48,24.36,17.21,24.46,16.94,24.55Zm-10,11.2a4.32,4.32,0,0,1-.2-1.09,3.88,3.88,0,0,1,.11-1.09A4.16,4.16,0,0,1,7,33a4.71,4.71,0,0,1,.23-.5A7.23,7.23,0,0,1,8.6,30.78a14.35,14.35,0,0,1,1.76-1.43c.62-.44,1.27-.84,1.92-1.23s1.32-.77,2-1.17l1-.6,1-.61,1-.62.47-.31-.26.27-.89.89-.45.44c-.15.15-.3.3-.45.46s-.28.32-.41.49-.26.34-.37.53a6.41,6.41,0,0,0-.32.56q-.14.29-.26.59a6.21,6.21,0,0,0-.19.62c-.05.21-.09.42-.13.63a7,7,0,0,0-.06,1.29,8.53,8.53,0,0,0,.09,1l-.2-.18a3.82,3.82,0,0,1-.38-.42,3.65,3.65,0,0,1-.31-.47,3.37,3.37,0,0,1-.23-.51,3.22,3.22,0,0,1-.12-1.67,3.3,3.3,0,0,1,.15-.55l.15-.4-.34.26h0c-.25.19-.49.39-.73.59l-.7.63a18.81,18.81,0,0,0-1.32,1.35A11.25,11.25,0,0,0,8.8,32.68a6.64,6.64,0,0,0-.45.85,4.05,4.05,0,0,0-.28.93,2.5,2.5,0,0,0,0,1,1.87,1.87,0,0,0,.07.24l0,.12.05.11a2,2,0,0,0,.29.42,2,2,0,0,0,.84.55,3.12,3.12,0,0,0,1,.16,4.73,4.73,0,0,0,1-.09,6.08,6.08,0,0,0,.92-.25,5.22,5.22,0,0,0,.87-.4,3.17,3.17,0,0,0,.4-.28l.15-.14h0a2.06,2.06,0,0,1,0,.3,1.9,1.9,0,0,1-.14.57,1.94,1.94,0,0,1-.31.5,2.34,2.34,0,0,1-.44.39,4,4,0,0,1-1.09.52,10.81,10.81,0,0,1-1.2.3h0l-.36.06.31.17.22.13.22.14.44.27.88.56L14,40.94c.29.19.57.38.84.59a5.33,5.33,0,0,1,.73.68,3.48,3.48,0,0,1,.54.83l.09.22q.07.6.16,1.17l0,.1c-.21-1.28-1.91-2.49-4.9-4.22a12.27,12.27,0,0,1-4.06-3.54A5.85,5.85,0,0,1,6.93,35.75Zm5.44-5.6a3.05,3.05,0,0,0,0,.31,3,3,0,0,0,.14.61l0,.07a35.69,35.69,0,0,0-3.17,3.42c-.42.53-.7.92-.86,1.14h0l0-.1a1.64,1.64,0,0,1-.06-.2,2.16,2.16,0,0,1,0-.86,3.72,3.72,0,0,1,.26-.86,6.31,6.31,0,0,1,.42-.81,11.76,11.76,0,0,1,1.1-1.48c.4-.47.83-.91,1.28-1.35s.7-.66,1.06-1l0,.17a3.8,3.8,0,0,0-.1.61A3,3,0,0,0,12.37,30.15Zm2.52,14.56-1-.69-.47-.35L13,43.32l-.93-.72-.46-.37-.45-.37c-.3-.26-.59-.51-.87-.78s-.56-.54-.83-.83-.54-.57-.79-.87L8.37,39l.08.45h0A9.74,9.74,0,0,1,8.5,41c0,.26,0,.52-.08.78s-.09.51-.15.77A7.67,7.67,0,0,1,7.73,44a7.59,7.59,0,0,1-.38.68L7.19,45v-.05c0-.19,0-.38,0-.56s0-.37,0-.55,0-.37,0-.55q0-.55-.1-1.09l-.1-1.09,0-.54,0-.27,0-.27c0-.36,0-.72,0-1.07A6.32,6.32,0,0,1,7,37.86a3.35,3.35,0,0,1,.14-.5,2,2,0,0,1,.1-.23L7.28,37l0,0,0,0h0a12.74,12.74,0,0,0,4,3.46c3,1.76,4.81,3,4.86,4.33h0a1.31,1.31,0,0,1-.35.5l-.12.1Zm-.93,6,0,.1c0-.26,0-.52,0-.78A8.91,8.91,0,0,1,14.07,49l0-.13,0-.13a2,2,0,0,1,.09-.24,2.74,2.74,0,0,1,.25-.46,3.84,3.84,0,0,1,.33-.42l.19-.2.1-.09.1-.09.29-.25-.36,0h0a2.15,2.15,0,0,1-.69-.09,1.3,1.3,0,0,1-.56-.35,1.44,1.44,0,0,1-.32-.59,2,2,0,0,1-.07-.34v-.05a1.6,1.6,0,0,0,.41.25,2,2,0,0,0,.77.14,2.22,2.22,0,0,0,.77-.14,2,2,0,0,0,.66-.42,1.54,1.54,0,0,0,.35-.51q.09.44.19.87a1.26,1.26,0,0,0-.67.85A4.4,4.4,0,0,1,15.19,48a6.19,6.19,0,0,0-1.26,2.77Zm3.27-2.33a1.84,1.84,0,0,0-.08.4,2.35,2.35,0,0,0,0,.4v.08L17,49.15a2.82,2.82,0,0,1-.3-.43,4.29,4.29,0,0,1-.24-.47,4.59,4.59,0,0,1-.18-.5l-.15-.5-.09.51h0a2,2,0,0,1-.43.86,4.15,4.15,0,0,1-.35.37l-.38.35-.19.18-.1.1-.09.11a3.44,3.44,0,0,0-.29.46l-.06.12a6,6,0,0,1,1.13-2.26,4.49,4.49,0,0,0,.78-1.39,1.15,1.15,0,0,1,.59-.76,17,17,0,0,0,.71,2.2A1.5,1.5,0,0,0,17.23,48.42ZM16.14,30.08a.29.29,0,0,0-.29.28c0,.05-.06,5.09.19,11.07q0,.46.05.91a3.77,3.77,0,0,0-.27-.37,5.27,5.27,0,0,0-.77-.76,10.48,10.48,0,0,0-.86-.62l-.44-.29L13.32,40l-.9-.53L11.5,39,11,38.76l-.09,0a5.28,5.28,0,0,0,.87-.17,4.09,4.09,0,0,0,.62-.23l.29-.15L13,38a2.59,2.59,0,0,0,.48-.47,2.16,2.16,0,0,0,.33-.59,2.26,2.26,0,0,0,.13-.66,2.32,2.32,0,0,0,0-.34c0-.06,0-.11,0-.17l0-.08,0-.09-.08-.28-.15.26h0a.69.69,0,0,1-.12.16l-.16.14a2.91,2.91,0,0,1-.38.24,5.31,5.31,0,0,1-.83.36,5.17,5.17,0,0,1-1.78.29,2.79,2.79,0,0,1-.87-.15,1.7,1.7,0,0,1-.7-.46,1.6,1.6,0,0,1-.14-.19c.13-.19.43-.62.92-1.23a35.3,35.3,0,0,1,3.08-3.33,3.4,3.4,0,0,0,.49.75,4.05,4.05,0,0,0,.43.43l.24.19.12.09.13.09.24.14-.05-.27a8.15,8.15,0,0,1-.14-1.24c0-.05,0-.1,0-.16v-.62l0-.15c0-.05,0-.1,0-.15l0-.15c0-.14.05-.29.09-.43a44,44,0,0,1,5-3.79c.32-.21.38-.14.41-.1s.09.11-.1.47l-.19.34a19.2,19.2,0,0,0-1.58,3.26Zm1.91,0a19.86,19.86,0,0,1,1.53-3.14l.2-.35c.2-.39.22-.57.06-.75s-.48-.1-.73.06a43,43,0,0,0-4.71,3.57c0-.11.07-.22.12-.33s.16-.38.25-.56.2-.36.31-.54.23-.34.36-.51.26-.32.4-.48.28-.3.43-.45l.45-.44.89-.91c.29-.31.58-.62.85-.94h0a9.62,9.62,0,0,0,.92-.51,24.61,24.61,0,0,1,2.26,2.36,12.63,12.63,0,0,0-1.34,3.92ZM36.74,50.52a2.15,2.15,0,0,1,0,1.14l.24.06s0-.13.06-.29a5,5,0,0,0,2,1.88,8.18,8.18,0,0,1-2.76,5.12A12.09,12.09,0,0,1,27.19,62v0a12.1,12.1,0,0,1-9.09-3.56,9.63,9.63,0,0,1-2.42-3.61,5.51,5.51,0,0,1-.34-1.51,5,5,0,0,0,2-1.88c0,.16.05.28.06.29l.24-.06a2.15,2.15,0,0,1,0-1.14.68.68,0,0,1,.79-.27l.06.1a.69.69,0,0,0-.27.06.59.59,0,0,0-.33.4A4.34,4.34,0,0,0,18.17,53a8.58,8.58,0,0,0,2.34,3.48,8.76,8.76,0,0,0,6.67,2.6v-.25a9.53,9.53,0,0,1-3.48-.55,9.42,9.42,0,0,1-3-2A8.76,8.76,0,0,1,18.86,54l1.06-.23h0l.22,0,.17,0a.72.72,0,0,0,.47-.39l0-.09.52.5a17,17,0,0,0,3.93,2.69c.57.28,1,.47,1.33.58a2.39,2.39,0,0,0,.61.19h.07A16.41,16.41,0,0,0,33,53.79l.53-.51,0,.09a.72.72,0,0,0,.47.39l.17,0,.22,0h0l1.06.23a8.76,8.76,0,0,1-1.82,2.33,9.42,9.42,0,0,1-3,2,9.53,9.53,0,0,1-3.48.55v.25a8.76,8.76,0,0,0,6.67-2.6A8.58,8.58,0,0,0,36.21,53a4.34,4.34,0,0,0,.28-2.23.59.59,0,0,0-.33-.4.7.7,0,0,0-.28-.06l.06-.1C36.14,50.21,36.57,50.17,36.74,50.52Zm-1,.09a.59.59,0,0,1,.34,0,.36.36,0,0,1,.19.24,3.51,3.51,0,0,1-.13,1.58l-.41-.82a.12.12,0,0,0-.23,0,6.26,6.26,0,0,1-.37.8c-.25.45-.49.69-.66.65a.25.25,0,0,1-.18-.13.69.69,0,0,1,0-.39A15.23,15.23,0,0,0,35.72,50.61Zm-.77.13V30.66h.65v19Q35.3,50.24,34.95,50.74Zm-.55,2.59h.1c.27,0,.55-.26.84-.78a6.09,6.09,0,0,0,.28-.57l.41.82L36,53a7.29,7.29,0,0,1-.34.82l-.8-.18h0a2.48,2.48,0,0,0,.37-.28L35,53.13c-.15.14-.61.49-.9.4a.47.47,0,0,1-.32-.26.49.49,0,0,1,0-.22l.21-.22a.74.74,0,0,0,.06.23A.5.5,0,0,0,34.4,53.33ZM33.2,30.08a15.13,15.13,0,0,0-.5-2.39h0a3.12,3.12,0,0,0,0-.64v-.1a.92.92,0,0,0-.31-.68l-.9-.71-.05,0h0l-.25-.2.34-1.77h.33l.21,0L32,23.35,31.66,23h0L32,21.14a8.81,8.81,0,0,1,.41.86l.09.24.08.24c0,.08.05.16.08.24s0,.16.07.24l.06.25.05.25,0,.12,0,.13,0,.25a8.8,8.8,0,0,1,0,2l0,.36.3-.19,0,0,0,0,.05,0,.1-.08.17-.17a2.71,2.71,0,0,0,.29-.39,3.23,3.23,0,0,0,.38-.88,4.12,4.12,0,0,0,.14-.94c0-.16,0-.33,0-.49l0,0,.09.07.1.07.1.07.1.07.4.26.21.12.21.12.32.17c.27.32.56.63.84.93l.89.91.45.44c.15.14.29.29.43.45s.27.31.4.48.25.33.36.51.21.35.31.54.18.37.25.56.08.22.12.33a43,43,0,0,0-4.71-3.57c-.25-.16-.53-.29-.73-.06s-.14.36.06.75l.2.35a18.29,18.29,0,0,1,1.6,3.37Zm3.51,0a17.71,17.71,0,0,0-1.64-3.5l-.19-.34c-.19-.37-.15-.42-.1-.47s.09-.1.41.1a43.94,43.94,0,0,1,5,3.79c0,.14.06.29.09.43l0,.15c0,.05,0,.1,0,.15l0,.15v.62c0,.05,0,.1,0,.16a8.15,8.15,0,0,1-.14,1.24l-.05.27.24-.14.13-.09.12-.09.24-.19a4.05,4.05,0,0,0,.43-.43,3.39,3.39,0,0,0,.49-.75,29.64,29.64,0,0,1,4,4.56,1.6,1.6,0,0,1-.14.19,1.7,1.7,0,0,1-.7.46,2.79,2.79,0,0,1-.87.15,5.17,5.17,0,0,1-1.78-.29,5.31,5.31,0,0,1-.83-.36,2.91,2.91,0,0,1-.38-.24l-.16-.14a.69.69,0,0,1-.12-.16h0l-.15-.26-.08.28,0,.09,0,.08c0,.06,0,.11,0,.17a2.32,2.32,0,0,0,0,.34,2.26,2.26,0,0,0,.13.66,2.16,2.16,0,0,0,.33.59,2.59,2.59,0,0,0,.48.47l.28.19.29.15a4.09,4.09,0,0,0,.62.23,5.28,5.28,0,0,0,.87.17l-.09,0-.46.25-.92.5-.9.53-.44.28-.44.29a10.48,10.48,0,0,0-.86.62,5.28,5.28,0,0,0-.77.76,3.75,3.75,0,0,0-.31.44q0-.37,0-.75c.24-6,.19-11,.19-11.07a.29.29,0,0,0-.29-.28ZM42,29.61a3.8,3.8,0,0,0-.1-.61l0-.17c.36.31.72.63,1.06,1s.88.88,1.28,1.35a11.76,11.76,0,0,1,1.1,1.48,6.31,6.31,0,0,1,.42.81,3.72,3.72,0,0,1,.26.86,2.16,2.16,0,0,1,0,.86,1.64,1.64,0,0,1-.06.2l0,.1h0c-.15-.22-.43-.61-.86-1.14a35.68,35.68,0,0,0-3.17-3.41l0-.07a3,3,0,0,0,.14-.61,3.06,3.06,0,0,0,0-.31A3,3,0,0,0,42,29.61ZM40.2,50a3.44,3.44,0,0,0-.29-.46l-.09-.11-.1-.1-.19-.18-.38-.35a4.15,4.15,0,0,1-.35-.37,2,2,0,0,1-.43-.86h0L38.28,47l-.15.5a4.59,4.59,0,0,1-.18.5,4.29,4.29,0,0,1-.24.47,2.82,2.82,0,0,1-.3.43l-.14.15V49a2.35,2.35,0,0,0,0-.4,1.84,1.84,0,0,0-.08-.4,1.5,1.5,0,0,0-.12-.28,17.07,17.07,0,0,0,.65-2.06c.07,0,.53.1.75.82a4.49,4.49,0,0,0,.78,1.39,6,6,0,0,1,1.15,2.33C40.34,50.24,40.27,50.1,40.2,50ZM39,45.61a2.22,2.22,0,0,0,.77.14,2,2,0,0,0,.77-.14,1.61,1.61,0,0,0,.41-.25v.05a2,2,0,0,1-.07.34,1.44,1.44,0,0,1-.32.59,1.3,1.3,0,0,1-.56.35,2.15,2.15,0,0,1-.69.09h0l-.36,0,.29.25.1.09.1.09.19.2a3.84,3.84,0,0,1,.33.42,2.74,2.74,0,0,1,.25.46,2,2,0,0,1,.09.24l0,.13,0,.13a8.91,8.91,0,0,1,.13,1.09c0,.14,0,.29,0,.43A6.13,6.13,0,0,0,39.36,48a4.4,4.4,0,0,1-.76-1.36,1.15,1.15,0,0,0-.84-.9q.13-.53.23-1.07a1.54,1.54,0,0,0,.36.53A2,2,0,0,0,39,45.61Zm8.45-8a6.32,6.32,0,0,1,.12,1.05c0,.36,0,.72,0,1.07l0,.27,0,.27,0,.54-.1,1.09q-.05.54-.1,1.09,0,.27,0,.55c0,.18,0,.37,0,.55s0,.37,0,.56v.05l-.16-.24a7.59,7.59,0,0,1-.38-.68,7.67,7.67,0,0,1-.54-1.46c-.06-.25-.11-.51-.15-.77s-.07-.52-.08-.78a9.74,9.74,0,0,1,0-1.57h0l.08-.45-.3.36c-.25.29-.51.59-.79.87s-.55.56-.83.83-.58.53-.87.78l-.45.37-.46.37-.93.72-.47.36-.47.35-1,.69-.89.62-.12-.1a1.37,1.37,0,0,1-.23-.27h0c.05-1.29,1.82-2.56,4.86-4.33a9.79,9.79,0,0,0,3.88-3.73v0h0l0,0,0,0,.06.11a2,2,0,0,1,.1.23A3.35,3.35,0,0,1,47.45,37.63ZM38.19,25.51l1,.61,1,.6c.66.4,1.33.78,2,1.17s1.3.8,1.92,1.23a14.35,14.35,0,0,1,1.76,1.43,7.23,7.23,0,0,1,1.37,1.76,4.71,4.71,0,0,1,.23.5,4.16,4.16,0,0,1,.17.52,3.88,3.88,0,0,1,.11,1.09,4.32,4.32,0,0,1-.2,1.09,5.86,5.86,0,0,1-.43,1l0,0a9.26,9.26,0,0,1-3.88,3.79c-3.06,1.78-4.77,3-4.92,4.31a1.21,1.21,0,0,1-.07-.16,1.83,1.83,0,0,1-.08-.31q.08-.49.13-1a3.19,3.19,0,0,1,.13-.33,3.48,3.48,0,0,1,.54-.83,5.33,5.33,0,0,1,.73-.68c.27-.21.55-.4.84-.59L42.2,39.6l.88-.56.44-.27.22-.14L44,38.5l.31-.17-.36-.06h0a10.81,10.81,0,0,1-1.2-.3,4,4,0,0,1-1.09-.52,2.34,2.34,0,0,1-.44-.39,1.94,1.94,0,0,1-.31-.5,1.9,1.9,0,0,1-.14-.57,2.06,2.06,0,0,1,0-.3h0l.15.14a3.17,3.17,0,0,0,.4.28,5.22,5.22,0,0,0,.87.4,6.08,6.08,0,0,0,.92.25,4.73,4.73,0,0,0,1,.09,3.12,3.12,0,0,0,1-.16,2,2,0,0,0,.84-.55,2,2,0,0,0,.29-.42l.05-.11,0-.12a1.87,1.87,0,0,0,.07-.24,2.5,2.5,0,0,0,0-1,4.05,4.05,0,0,0-.28-.93,6.64,6.64,0,0,0-.45-.85,11.25,11.25,0,0,0-1.14-1.51,18.81,18.81,0,0,0-1.32-1.35l-.7-.63c-.24-.2-.48-.4-.73-.59h0l-.34-.26.15.4a3.3,3.3,0,0,1,.15.55,3.22,3.22,0,0,1-.12,1.67,3.37,3.37,0,0,1-.23.51,3.65,3.65,0,0,1-.31.47,3.82,3.82,0,0,1-.38.42l-.2.18a8.53,8.53,0,0,0,.09-1,7,7,0,0,0-.06-1.29c0-.21-.07-.42-.13-.63a6.21,6.21,0,0,0-.19-.62q-.12-.3-.26-.59a6.41,6.41,0,0,0-.32-.56c-.11-.18-.24-.36-.37-.53s-.27-.33-.41-.49-.29-.31-.45-.46l-.45-.44L37,24.85l-.26-.27.47.31Zm12.35-.93-.61.17-.61.16L49,25l-.31.07a8.78,8.78,0,0,1-1.23.16l-.62,0h-.62l-.55,0,.42.35h0a2.69,2.69,0,0,1,.33.3,2.81,2.81,0,0,1,.27.36,3.6,3.6,0,0,1,.38.83,5.07,5.07,0,0,1,.2.91q0,.23,0,.47v.07q-.15-.23-.33-.44l-.15-.18-.16-.18-.17-.17-.09-.08-.09-.08-.09-.08-.09-.08L46,27l-.19-.14-.2-.13a8,8,0,0,0-.83-.47q-.43-.21-.88-.37c-.3-.11-.6-.21-.9-.3-.61-.18-1.22-.32-1.83-.46l-1.84-.38-.23,0-.23-.05-.23-.05-.22-.05L38,24.45l-.44-.14a11.49,11.49,0,0,1-1.69-.71l-.2-.11-.2-.11L35,23.13l-.09-.06L34.86,23l-.09-.07-.09-.07-.18-.14-.16-.15L34,22.22l.06.5h0a5.09,5.09,0,0,1,0,.88,3.77,3.77,0,0,1-.13.86,2.88,2.88,0,0,1-.34.78,2.36,2.36,0,0,1-.26.34h0a9.12,9.12,0,0,0-.06-1.67l0-.26,0-.13,0-.13-.05-.26-.06-.26c0-.09,0-.17-.07-.25s0-.17-.08-.25l-.09-.25-.1-.25a8.84,8.84,0,0,0-1-1.85,8.9,8.9,0,0,0-.66-.82L30.85,19l.07,0h0L31,19h0l.06,0h0l0,0h0l0,0h.07l0,0h0l.06,0,.31.14.06,0h0l0,0,.27.31c.09.11.19.2.29.3l.15.15.15.14.16.14.08.07.08.07.16.13.17.13.17.12.18.12.18.11.09.05.09,0,.19.1.1,0,.1,0,.2.08.1,0,.1,0,.1,0,.1,0,.21,0,.11,0,.11,0,.22,0a3.86,3.86,0,0,0,.44,0h.22l.22,0,.11,0,.11,0,.11,0,.11,0,.11,0,.1,0,.2-.08a3.52,3.52,0,0,0,.39-.21,3.2,3.2,0,0,0,.68-.56,3.58,3.58,0,0,0,.51-.71l.1-.2.08-.2a3.08,3.08,0,0,0,.12-.42,2.85,2.85,0,0,0-.17-1.73,1.52,1.52,0,0,0-.59-.68,1.41,1.41,0,0,0-.43-.16,1.74,1.74,0,0,0-.44,0,2.16,2.16,0,0,0-.43.06h0l.14-.11.22-.16.11-.07.11-.07.12-.06.06,0,.06,0,.12-.05.12,0a1.71,1.71,0,0,1,.5-.08,1.73,1.73,0,0,1,.49.09l.12,0,.12.05.11.06.11.07a2.43,2.43,0,0,1,.38.36h0a2.6,2.6,0,0,1,.57,1.83,4.27,4.27,0,0,1-1.89,2.86,3.58,3.58,0,0,1-2.36.81,4.93,4.93,0,0,1-2.15-.63A8.91,8.91,0,0,1,32,19.89l-.15-.21-.1.07.13.19h0l0,0a9.81,9.81,0,0,0,1.37,1.47,9.61,9.61,0,0,0,4.57,2.25,31,31,0,0,0,7.87.71l.72-.07a10.59,10.59,0,0,1,4.36.18Zm-4.08-.37-.72.07a30.91,30.91,0,0,1-7.84-.71,9.49,9.49,0,0,1-4.51-2.22c-.27-.24-.51-.47-.71-.68a8.52,8.52,0,0,0,1.43,1,5.05,5.05,0,0,0,2.21.64h.11a3.71,3.71,0,0,0,2.33-.84,4.38,4.38,0,0,0,1.93-3,2.71,2.71,0,0,0-.49-1.79l-.12-.3-.1-.26c0-.09-.07-.17-.09-.26l-.08-.26s0-.09,0-.13l0-.13-.07-.26-.06-.27,0-.13,0-.13,0-.27,0-.27s0-.09,0-.13v-.67c0-.18,0-.36.07-.53a5.4,5.4,0,0,1,.28-1,5.84,5.84,0,0,1,.49-1A6.85,6.85,0,0,1,41,9.83l.18-.2.19-.2.06-.06a7.47,7.47,0,0,0-.8,1.14,6.21,6.21,0,0,0-.4.85l-.08.22L40,11.8c0,.14-.08.28-.11.42h0v0a5.82,5.82,0,0,0-.14.93,7.42,7.42,0,0,0,0,.94,7.17,7.17,0,0,0,.1.93,5.53,5.53,0,0,0,.23.9h0a0,0,0,0,0,0,0h0a5.47,5.47,0,0,1-.19-.9,7.06,7.06,0,0,1-.06-.92,7.27,7.27,0,0,1,.06-.91,7.9,7.9,0,0,1,.15-.79l.18.23a4.4,4.4,0,0,1,.3.46,5,5,0,0,1,.25.49c.07.17.14.34.2.51a7.32,7.32,0,0,1,.27,1.07q0,.27.08.55c0,.09,0,.18,0,.28s0,.19,0,.27h0l-.12,1,.46-.89a5.33,5.33,0,0,1,.51-.83l.15-.18.08-.09.08-.08.08-.08.09-.08.09-.07.09-.07a2.74,2.74,0,0,1,.4-.24,3.2,3.2,0,0,1,.44-.18,3.48,3.48,0,0,1,.47-.12l.1,0a2.32,2.32,0,0,0-.23.24,3,3,0,0,0-.4.63,12.3,12.3,0,0,0-.52,1.36c-.16.45-.32.9-.51,1.33l-.15.32-.16.32c-.11.21-.23.41-.35.62l-.19.3-.1.15-.1.14L41.4,20l-.23.27a8.72,8.72,0,0,1-1,1A10.22,10.22,0,0,1,39,22l-.15.09-.15.09-.31.16-.32.15-.16.07-.16.06-.61.23.64.11h0a19,19,0,0,0,2.53.28h1.28l.32,0h.16l.16,0,.32,0,.32,0,.16,0,.16,0,.32-.06.31-.08.31-.09a6.86,6.86,0,0,0,1.2-.48,4.87,4.87,0,0,0,1.07-.75,3.72,3.72,0,0,0,.44-.49l.1-.13.05-.08a4.53,4.53,0,0,1,0,.46s0,.07,0,.1v.1c0,.07,0,.14,0,.2a3.05,3.05,0,0,1-.5,1.11,3.26,3.26,0,0,1-.26.32l-.15.15-.08.07-.08.06-.35.28.42-.1h0c.47-.06,1-.12,1.43-.16a12.42,12.42,0,0,1,1.42,0,4.3,4.3,0,0,1,.68.08,2.78,2.78,0,0,1,.63.23,3.08,3.08,0,0,1,.57.38l.13.11.06.06,0,0A10.71,10.71,0,0,0,46.46,24.2ZM30.54,9.55l0,0a.71.71,0,0,1,.36-.39h0A.48.48,0,0,0,30.57,9a.62.62,0,0,0-.47.35.56.56,0,0,0-.06.19.47.47,0,0,0,.09.36.54.54,0,0,0,.24.18l.14,0h0v0a.66.66,0,0,1,0-.33A.7.7,0,0,1,30.54,9.55Zm-.38.05,0,0,.08-.09h0a.46.46,0,0,0-.07.21.53.53,0,0,0,0,.08A.25.25,0,0,1,30.17,9.6Zm.14.24v0a.39.39,0,0,1-.08-.09v0a.53.53,0,0,1,.08-.15h0a.39.39,0,0,0,0,.15A.61.61,0,0,0,30.3,9.84Zm.11.08v0l-.08,0a.66.66,0,0,1,0-.09.74.74,0,0,1,0-.11l0-.1h0a.85.85,0,0,0,0,.1.68.68,0,0,0,0,.1A.56.56,0,0,0,30.42,9.92Zm1.23-.06a.36.36,0,0,0-.05-.22.81.81,0,0,0-.22-.24l-.14-.09-.06,0-.09,0-.15-.06a.65.65,0,0,0-.32.83,3.65,3.65,0,0,0,.35.1l.16,0a.69.69,0,0,0,.31,0,.31.31,0,0,0,.2-.19A.27.27,0,0,0,31.65,9.87Zm-.16.11a.53.53,0,0,1-.22,0h-.11L31,10a1.15,1.15,0,0,1-.39-.2,0,0,0,0,1,0,0h0l.4.15.1,0,.1,0h.21Zm-9.7-.6a3.65,3.65,0,0,0,.36.08.65.65,0,0,0,.1-.88l-.16,0h-.33a.81.81,0,0,0-.3.11.36.36,0,0,0-.15.17.27.27,0,0,0,0,.06.31.31,0,0,0,.09.26.69.69,0,0,0,.26.17ZM21.4,9h0a.88.88,0,0,0,.18.1l.1,0,.1,0,.42.06h0a1.15,1.15,0,0,1-.43,0l-.11,0-.1,0A.53.53,0,0,1,21.4,9ZM206.57,49.4h.49V14.28h-.49V49.4ZM344.12,21.72H342.9v8.39h1.22Zm-86.93,16h-3.56V34.77h-1.06V42h1.06V38.64h3.56V42h1.06V34.77h-1.06Zm-.32-11,0,0,0,0a2.68,2.68,0,0,0-.52-.34,2.83,2.83,0,0,0,1.62-.75,2.14,2.14,0,0,0,.59-1.53,2.41,2.41,0,0,0-.35-1.28,1.89,1.89,0,0,0-.95-.81,4.92,4.92,0,0,0-1.7-.23h-3.73v8.39H253V26.44h1.21a3.24,3.24,0,0,1,.6,0,1.61,1.61,0,0,1,.48.21,2.44,2.44,0,0,1,.54.54q.31.39.79,1.13l1.11,1.75h1.51l-1.49-2.34A5.68,5.68,0,0,0,256.86,26.66Zm-1.54-1.28H253V22.76h2.55a1.93,1.93,0,0,1,1.3.36,1.17,1.17,0,0,1,.4.92,1.29,1.29,0,0,1-.21.71,1.19,1.19,0,0,1-.61.47A3.47,3.47,0,0,1,255.33,25.37Zm-11,10.36h2.34V42h1.06V35.73h2.34v-1h-5.73Zm17.81-5.62h1.22V21.72h-1.22Zm-38.41-7.66h0a2.87,2.87,0,0,0-1.24-.61,7,7,0,0,0-1.48-.12h-2.91v8.39h3a5.68,5.68,0,0,0,1.34-.14,3.14,3.14,0,0,0,1-.42,3.06,3.06,0,0,0,.77-.77,4.11,4.11,0,0,0,.57-1.22,5.82,5.82,0,0,0,.22-1.69,5.62,5.62,0,0,0-.33-2A3.43,3.43,0,0,0,223.76,22.45Zm-.14,5a2.54,2.54,0,0,1-.59,1,1.77,1.77,0,0,1-.72.41,4.2,4.2,0,0,1-1.26.15h-1.7v-6.2H221a4.2,4.2,0,0,1,1.39.17,2.08,2.08,0,0,1,1,.91,3.81,3.81,0,0,1,.42,2A5.08,5.08,0,0,1,223.62,27.43Zm14.58,2.49,0-.06,0,.06a2.54,2.54,0,0,0,1.11-.93,2.31,2.31,0,0,0,.39-1.28,2.12,2.12,0,0,0-.35-1.21,2.56,2.56,0,0,0-1.09-.86,10.87,10.87,0,0,0-1.84-.53,4.32,4.32,0,0,1-1.62-.58h0a.88.88,0,0,1-.3-.69,1,1,0,0,1,.43-.83,2.24,2.24,0,0,1,1.41-.35,2.16,2.16,0,0,1,1.4.39,1.64,1.64,0,0,1,.55,1.15v.06l1.16-.09V24.1a2.58,2.58,0,0,0-.42-1.33,2.4,2.4,0,0,0-1.11-.89,4.18,4.18,0,0,0-1.64-.3,4,4,0,0,0-1.54.29,2.26,2.26,0,0,0-1.06.85,2.17,2.17,0,0,0-.36,1.2,2,2,0,0,0,.3,1.06,2.3,2.3,0,0,0,.9.79,7.6,7.6,0,0,0,1.61.52,14.59,14.59,0,0,1,1.46.4,1.6,1.6,0,0,1,.71.47,1,1,0,0,1,.21.64,1.13,1.13,0,0,1-.22.67,1.47,1.47,0,0,1-.68.49,3,3,0,0,1-1.08.18,3.06,3.06,0,0,1-1.24-.24,1.79,1.79,0,0,1-.8-.62,2.23,2.23,0,0,1-.33-1v-.06l-1.15.1v.06a2.85,2.85,0,0,0,.46,1.52,2.69,2.69,0,0,0,1.21,1,4.8,4.8,0,0,0,1.9.33A3.84,3.84,0,0,0,238.2,29.92ZM222.8,40.2l-3.63-5.43h-1.05V42h1V36.56L222.77,42h1.05V34.77h-1Zm9-5.08a3.45,3.45,0,0,0-1.8-.48,3.28,3.28,0,0,0-2.49,1,3.91,3.91,0,0,0-1,2.81,4.06,4.06,0,0,0,.41,1.8,3.18,3.18,0,0,0,1.22,1.35,3.42,3.42,0,0,0,1.82.49,3.6,3.6,0,0,0,1.75-.44A3,3,0,0,0,233,40.35a4.24,4.24,0,0,0,.44-2,4.31,4.31,0,0,0-.42-1.93A3.12,3.12,0,0,0,231.84,35.13Zm-.11,5.33a2.34,2.34,0,0,1-3.38,0,2.78,2.78,0,0,1-.67-2,3,3,0,0,1,.7-2.24,2.34,2.34,0,0,1,1.67-.67,2.27,2.27,0,0,1,1.23.35,2.18,2.18,0,0,1,.83,1,3.56,3.56,0,0,1,.29,1.49A3,3,0,0,1,231.72,40.45Zm47.59-10.34h1.22V22.82h2.74V21.72H276.6v1.09h2.72Zm-34.31,0h1.22V22.82H249V21.72h-6.67v1.09H245Zm-4.5,8.9h0a2.3,2.3,0,0,0-.43-.28,2.42,2.42,0,0,0,1.37-.64,1.85,1.85,0,0,0,.51-1.32,2.08,2.08,0,0,0-.3-1.1,1.64,1.64,0,0,0-.82-.7,4.23,4.23,0,0,0-1.46-.2h-3.2V42h1.06V38.84h1a2.7,2.7,0,0,1,.51,0,1.33,1.33,0,0,1,.41.18,2.09,2.09,0,0,1,.46.46q.26.33.67,1l1,1.5h1.32l-1.29-2A5,5,0,0,0,240.51,39Zm-1.32-1.11h-2V35.68h2.18a1.64,1.64,0,0,1,1.11.31,1,1,0,0,1,.34.78,1.1,1.1,0,0,1-.18.6,1,1,0,0,1-.52.4A2.94,2.94,0,0,1,239.19,37.9Zm-9.47-16.18H228.5v8.39h1.22Zm100.63,16h-3.56V34.77h-1.06V42h1.06V38.64h3.56V42h1.06V34.77h-1.06ZM329,30.11V21.72H327.8v6.35l-4.25-6.35h-1.21v8.39h1.17V23.76l4.25,6.35Zm-7.26,8,0,.06,0-.06a9.42,9.42,0,0,0-1.58-.46,3.73,3.73,0,0,1-1.39-.49.74.74,0,0,1-.26-.58.87.87,0,0,1,.37-.7,1.93,1.93,0,0,1,1.21-.3,1.87,1.87,0,0,1,1.2.33,1.38,1.38,0,0,1,.47,1V37l1-.07v-.06a2.21,2.21,0,0,0-.36-1.15,2.07,2.07,0,0,0-1-.77,3.6,3.6,0,0,0-1.41-.26,3.45,3.45,0,0,0-1.33.25,2,2,0,0,0-.92.73,1.87,1.87,0,0,0-.32,1,1.68,1.68,0,0,0,.26.92,2,2,0,0,0,.78.68,6.52,6.52,0,0,0,1.38.45,12.62,12.62,0,0,1,1.26.34,1.37,1.37,0,0,1,.61.4.86.86,0,0,1,.18.54,1,1,0,0,1-.19.57,1.26,1.26,0,0,1-.58.42,2.53,2.53,0,0,1-.92.16,2.63,2.63,0,0,1-1.06-.21,1.52,1.52,0,0,1-.69-.53,1.91,1.91,0,0,1-.28-.85V39.5l-1,.08v.06a2.47,2.47,0,0,0,.4,1.31,2.32,2.32,0,0,0,1,.87,4.13,4.13,0,0,0,1.64.29,3.31,3.31,0,0,0,1.39-.28,2.19,2.19,0,0,0,1-.8,2,2,0,0,0,.33-1.1,1.82,1.82,0,0,0-.3-1A2.21,2.21,0,0,0,321.71,38.14ZM334.59,42h1.06V34.77h-1.06Zm14-3.26h3.93v-1h-3.93v-2h4.19v-1h-5.25V42h5.42V41h-4.36Zm.35-9.72V21.72h-1.22v8.39H353V29Zm-9.29-1.58v-.06l-1.22-.31v.06a2.64,2.64,0,0,1-.84,1.54,2.29,2.29,0,0,1-1.52.52,2.62,2.62,0,0,1-1.37-.38,2.23,2.23,0,0,1-.93-1.15,5,5,0,0,1-.3-1.82,4.9,4.9,0,0,1,.26-1.57,2.35,2.35,0,0,1,.88-1.19,2.6,2.6,0,0,1,1.56-.45,2.16,2.16,0,0,1,1.34.4,2.48,2.48,0,0,1,.81,1.28l0,.05,1.2-.28,0-.06a3.34,3.34,0,0,0-1.2-1.81,3.45,3.45,0,0,0-2.12-.64,4.17,4.17,0,0,0-2,.51,3.44,3.44,0,0,0-1.43,1.49,4.93,4.93,0,0,0-.5,2.28,5.68,5.68,0,0,0,.44,2.24A3.46,3.46,0,0,0,334,29.7a4,4,0,0,0,2.21.55,3.47,3.47,0,0,0,2.22-.72A3.74,3.74,0,0,0,339.64,27.44Zm-21.12,1.12a5.7,5.7,0,0,0,.29-2V21.72h-1.22v4.83a3.1,3.1,0,0,1-.5,2.06,2.22,2.22,0,0,1-1.67.53,2.32,2.32,0,0,1-1.16-.27,1.46,1.46,0,0,1-.66-.75,4.59,4.59,0,0,1-.2-1.56V21.72h-1.22v4.84a5.58,5.58,0,0,0,.32,2.1,2.35,2.35,0,0,0,1.08,1.19,4,4,0,0,0,1.93.41,3.66,3.66,0,0,0,2-.47A2.47,2.47,0,0,0,318.52,28.56ZM343.13,39l0,0,0,0a2.28,2.28,0,0,0-.43-.28,2.42,2.42,0,0,0,1.37-.64,1.85,1.85,0,0,0,.51-1.32,2.09,2.09,0,0,0-.3-1.1,1.64,1.64,0,0,0-.82-.7,4.23,4.23,0,0,0-1.46-.2h-3.2V42h1.06V38.84h1a2.75,2.75,0,0,1,.51,0,1.35,1.35,0,0,1,.41.18,2.09,2.09,0,0,1,.46.46q.26.33.67,1l1,1.5h1.32l-1.29-2A4.89,4.89,0,0,0,343.13,39ZM341.8,37.9h-2V35.68H342a1.64,1.64,0,0,1,1.11.31,1,1,0,0,1,.34.78,1.11,1.11,0,0,1-.18.6,1,1,0,0,1-.52.4A2.94,2.94,0,0,1,341.8,37.9ZM274.17,27.38,273,27.07v.06a2.65,2.65,0,0,1-.84,1.54,2.29,2.29,0,0,1-1.52.52,2.63,2.63,0,0,1-1.37-.38,2.22,2.22,0,0,1-.93-1.15,5,5,0,0,1-.3-1.82,4.88,4.88,0,0,1,.26-1.57,2.34,2.34,0,0,1,.88-1.19,2.6,2.6,0,0,1,1.56-.45A2.16,2.16,0,0,1,272,23a2.49,2.49,0,0,1,.81,1.28l0,.05,1.2-.28,0-.06a3.34,3.34,0,0,0-1.2-1.81,3.45,3.45,0,0,0-2.12-.64,4.17,4.17,0,0,0-2,.51,3.44,3.44,0,0,0-1.43,1.49,4.94,4.94,0,0,0-.5,2.28,5.68,5.68,0,0,0,.44,2.24,3.47,3.47,0,0,0,1.3,1.61,4,4,0,0,0,2.21.55,3.47,3.47,0,0,0,2.22-.72,3.74,3.74,0,0,0,1.26-2.09Zm6.5,7.39h-1.18l-1.44,1.91c-.19.25-.36.49-.51.72-.12-.2-.29-.46-.52-.79l-1.32-1.85h-1.26l2.46,3.48L274.12,42h1.28l1.81-2.49.29-.43.25.36L279.56,42h1.3l-2.7-3.78ZM283.14,42h1.06V38.77h3.33v-1H284.2V35.73h3.85v-1h-4.91Zm12.56-6.86a3.45,3.45,0,0,0-1.8-.48,3.29,3.29,0,0,0-2.49,1,3.91,3.91,0,0,0-1,2.81,4.07,4.07,0,0,0,.41,1.8,3.17,3.17,0,0,0,1.22,1.35,3.42,3.42,0,0,0,1.82.49,3.6,3.6,0,0,0,1.75-.44,3,3,0,0,0,1.26-1.31,4.24,4.24,0,0,0,.44-2,4.31,4.31,0,0,0-.42-1.93A3.12,3.12,0,0,0,295.7,35.13Zm-.11,5.33a2.34,2.34,0,0,1-3.38,0,2.78,2.78,0,0,1-.67-2,3,3,0,0,1,.7-2.24,2.33,2.33,0,0,1,1.67-.67,2.26,2.26,0,0,1,1.23.35,2.18,2.18,0,0,1,.83,1,3.56,3.56,0,0,1,.29,1.49A3,3,0,0,1,295.59,40.45Zm18-5.06a2.47,2.47,0,0,0-1.07-.52,6,6,0,0,0-1.28-.1h-2.5V42h2.62a4.86,4.86,0,0,0,1.15-.12,2.68,2.68,0,0,0,.87-.36,2.65,2.65,0,0,0,.66-.66,3.55,3.55,0,0,0,.49-1.05,5,5,0,0,0,.19-1.45,4.83,4.83,0,0,0-.28-1.71A3,3,0,0,0,313.61,35.4Zm-.14,4.28a2.16,2.16,0,0,1-.5.87,1.51,1.51,0,0,1-.61.35,3.58,3.58,0,0,1-1.08.13h-1.45v-5.3h1.43a3.63,3.63,0,0,1,1.19.14,1.78,1.78,0,0,1,.86.78,3.24,3.24,0,0,1,.36,1.68A4.31,4.31,0,0,1,313.47,39.68Zm-42.89-4.55a3.45,3.45,0,0,0-1.8-.48,3.28,3.28,0,0,0-2.49,1,3.91,3.91,0,0,0-1,2.81,4.07,4.07,0,0,0,.41,1.8A3.18,3.18,0,0,0,267,41.61a3.41,3.41,0,0,0,1.82.49,3.6,3.6,0,0,0,1.75-.44,3,3,0,0,0,1.26-1.31,4.23,4.23,0,0,0,.44-2,4.3,4.3,0,0,0-.42-1.93A3.12,3.12,0,0,0,270.58,35.13Zm-.11,5.33a2.34,2.34,0,0,1-3.38,0,2.77,2.77,0,0,1-.67-2,3,3,0,0,1,.7-2.24,2.33,2.33,0,0,1,1.67-.67,2.26,2.26,0,0,1,1.23.35,2.19,2.19,0,0,1,.83,1,3.57,3.57,0,0,1,.29,1.49A3,3,0,0,1,270.47,40.45Zm38.08-16.77a3.63,3.63,0,0,0-1.42-1.55,4,4,0,0,0-2.09-.56,3.82,3.82,0,0,0-2.9,1.18A4.56,4.56,0,0,0,301,26a4.73,4.73,0,0,0,.48,2.09,3.69,3.69,0,0,0,1.41,1.56,4,4,0,0,0,2.12.57,4.17,4.17,0,0,0,2-.52,3.52,3.52,0,0,0,1.46-1.53,4.92,4.92,0,0,0,.51-2.28A5,5,0,0,0,308.55,23.68ZM307,28.34a2.74,2.74,0,0,1-4,0,3.25,3.25,0,0,1-.79-2.31,3.5,3.5,0,0,1,.82-2.62,2.73,2.73,0,0,1,2-.78,2.64,2.64,0,0,1,1.44.41,2.56,2.56,0,0,1,1,1.14,4.18,4.18,0,0,1,.33,1.74A3.45,3.45,0,0,1,307,28.34ZM304.38,39l0,0,0,0a2.23,2.23,0,0,0-.43-.28,2.42,2.42,0,0,0,1.37-.64,1.85,1.85,0,0,0,.51-1.32,2.08,2.08,0,0,0-.3-1.1,1.64,1.64,0,0,0-.82-.7,4.23,4.23,0,0,0-1.46-.2H300V42h1.06V38.84h1a2.75,2.75,0,0,1,.51,0,1.35,1.35,0,0,1,.41.18,2.09,2.09,0,0,1,.46.46c.18.22.4.55.67,1l1,1.5h1.32l-1.29-2A4.92,4.92,0,0,0,304.38,39Zm-1.32-1.11h-2V35.68h2.18a1.64,1.64,0,0,1,1.11.31,1,1,0,0,1,.34.78,1.1,1.1,0,0,1-.18.6,1,1,0,0,1-.52.4A2.94,2.94,0,0,1,303.05,37.9Zm-6-10.77a2.65,2.65,0,0,1-.84,1.54,2.29,2.29,0,0,1-1.52.52,2.62,2.62,0,0,1-1.37-.38,2.23,2.23,0,0,1-.93-1.15,5,5,0,0,1-.3-1.82,4.88,4.88,0,0,1,.26-1.57,2.34,2.34,0,0,1,.88-1.19,2.6,2.6,0,0,1,1.56-.45,2.16,2.16,0,0,1,1.34.4,2.49,2.49,0,0,1,.81,1.28l0,.05,1.2-.28,0-.06a3.34,3.34,0,0,0-1.2-1.81,3.45,3.45,0,0,0-2.12-.64,4.17,4.17,0,0,0-2,.51,3.45,3.45,0,0,0-1.43,1.49,4.94,4.94,0,0,0-.5,2.28,5.7,5.7,0,0,0,.44,2.24,3.47,3.47,0,0,0,1.3,1.61,4,4,0,0,0,2.21.55,3.47,3.47,0,0,0,2.22-.72,3.74,3.74,0,0,0,1.26-2.09l0-.06-1.22-.31ZM91.23,49.61c20.67-2.66,44.63,6.7,70.25,3.92C177.65,51.78,192,43.21,196.71,40c-.19-.09-10.83,7-24,8.52-24.12,2.76-46.07-7.26-70.2-4.64C82.21,46.08,73.64,52.3,69.4,55.72,69.51,55.9,73.56,51.89,91.23,49.61Zm1.6-32.56L88.75,40.2h3.14l2.18-12.35a16.82,16.82,0,0,1,2.27-1.3A5.17,5.17,0,0,1,98.49,26a3,3,0,0,1,1.47.27,1.61,1.61,0,0,1,.72.81,4.17,4.17,0,0,1,.13,1.48c-.06.65-.15,1.33-.28,2.07L98.85,40.2H102l1.9-10.76a6.44,6.44,0,0,0-.56-4.75A4.19,4.19,0,0,0,99.67,23a6.65,6.65,0,0,0-2.73.61,15.09,15.09,0,0,0-2.38,1.44l1.41-8Zm16.82,8.38a11.31,11.31,0,0,0-3.27,6.46,13.11,13.11,0,0,0-.21,2.24,6.39,6.39,0,0,0,1.3,4.17c1.22,1.52,3.17,2.29,5.81,2.29a12.27,12.27,0,0,0,1.69-.12l.19,0,1.35-.29,1.38-.45,1.39-.52,0-.11.57-3.22h-.4a6.23,6.23,0,0,0-.87.5l-.16.09a9.92,9.92,0,0,1-1.35.65,12.23,12.23,0,0,1-1.63.53,9.29,9.29,0,0,1-1.79.21,3.82,3.82,0,0,1-4.32-4.1,8.79,8.79,0,0,1,.13-1.4H120.8l.29-1.65a12.33,12.33,0,0,0,.21-2.15,7.17,7.17,0,0,0-.1-1.25,5,5,0,0,0-1-2.36,4.26,4.26,0,0,0-1.87-1.44,7,7,0,0,0-2.69-.47A8.51,8.51,0,0,0,109.65,25.43Zm.94,2.87h0a5,5,0,0,1,1.14-1.39,5.32,5.32,0,0,1,1.52-.93,5.06,5.06,0,0,1,1.85-.32,4.19,4.19,0,0,1,1.72.31,1.94,1.94,0,0,1,1,.84,3.17,3.17,0,0,1,.43,1.31s0,.58,0,.58l-.09,1.13h-8.22A6.92,6.92,0,0,1,110.59,28.3Zm19.89-4.25a14.64,14.64,0,0,0-2.63,1.63l.39-2.19H125.1l-2.95,16.7h3.14l2.07-11.75a10.49,10.49,0,0,1,2.24-1.3,5.62,5.62,0,0,1,2.2-.47l.82,0,.6.08h.33l1.22-3.09a10.37,10.37,0,0,0-2-.23A5.63,5.63,0,0,0,130.48,24.05Zm33.47,1.38a11.31,11.31,0,0,0-3.27,6.46,13,13,0,0,0-.21,2.24,6.38,6.38,0,0,0,1.31,4.17c1.22,1.52,3.17,2.29,5.81,2.29a12.27,12.27,0,0,0,1.69-.12l.19,0,1.35-.3,1.38-.45,1.39-.52,0-.11.57-3.22h-.4a6,6,0,0,0-.86.5l-.17.1a9.89,9.89,0,0,1-1.35.65,12.52,12.52,0,0,1-1.63.53,9.28,9.28,0,0,1-1.79.21,3.82,3.82,0,0,1-4.32-4.1,8.85,8.85,0,0,1,.13-1.39h11.31l.29-1.65a12.34,12.34,0,0,0,.21-2.15,7.2,7.2,0,0,0-.1-1.25,5,5,0,0,0-1-2.36,4.27,4.27,0,0,0-1.87-1.44,7,7,0,0,0-2.69-.47A8.51,8.51,0,0,0,163.94,25.43Zm.94,2.87h0A5,5,0,0,1,166,26.91a5.33,5.33,0,0,1,1.52-.93,5,5,0,0,1,1.85-.32,4.21,4.21,0,0,1,1.72.31,1.94,1.94,0,0,1,1,.84,3.13,3.13,0,0,1,.42,1.31l0,.58-.09,1.13h-8.22A6.87,6.87,0,0,1,164.88,28.3Zm17.87,9.35h0l0-.15v0l-.42.13-.38.08a1.76,1.76,0,0,1-.73-.23,1.41,1.41,0,0,1-.39-.33,1.84,1.84,0,0,1-.29-1.51L184,16.93h-3.28c-.94,5.33-3.07,17.37-3.27,18.35A4.37,4.37,0,0,0,178,38.8a4,4,0,0,0,3.24,1.3,4.38,4.38,0,0,0,1-.09Zm8.59,0h0l0-.15v0l-.42.13-.38.08a1.76,1.76,0,0,1-.73-.23,1.41,1.41,0,0,1-.39-.33,1.83,1.83,0,0,1-.29-1.51l3.42-18.7H189.3c-.94,5.33-3.07,17.37-3.27,18.35a4.37,4.37,0,0,0,.59,3.52,4,4,0,0,0,3.24,1.3,4.39,4.39,0,0,0,1-.09Zm-105.6-.17a38.28,38.28,0,0,1-5.65-.1H80c-2.19-.32-4.55-1.13-5.88-3L74,34.25,73.86,34c-.08-.13-.15-.26-.21-.38l0,0c-.07-.14-.13-.28-.18-.41l0-.09,0-.12c0-.08-.05-.16-.07-.24a7.27,7.27,0,0,1-.27-2,10.33,10.33,0,0,1,4.17-8.56,11,11,0,0,1,4-1.77h0l.26-.07A44.88,44.88,0,0,1,88.85,20l.51-2.88c-1,0-3.51,0-5.13.07a18.42,18.42,0,0,0-2.89.3,11.32,11.32,0,0,0-1.4.31,15.75,15.75,0,0,0-4.8,2.16,12.67,12.67,0,0,0-5.56,11c0,6,4.63,9.08,9.55,9.14a32.6,32.6,0,0,0,3.49.13h0l2.64,0Zm70.6-13.16c0,.08-1.7,8.15-3.75,11.27a4.66,4.66,0,0,1-2.36,2,2,2,0,0,1-2.43-1,4.81,4.81,0,0,1-.14-2.63c.19-1.22,2.27-8.81,2.48-9.61h-3.26c-.11.45-1.79,9.13-4,12h0a2.93,2.93,0,0,1-2.44,1.35h-.27c-1.49-.1-1.77-1.65-1.71-3.09.1-1.71,1.86-9.38,2.1-10.25h-3.15c-.37,1.52-1.75,8.1-2,9.31-.23,1.37-.82,5.9,3.72,6.82a6.58,6.58,0,0,0,1.93,0A7.21,7.21,0,0,0,145,37.93a4.46,4.46,0,0,0,.28.54c.85,1.38,2.37,2.08,4.51,2.08a6.77,6.77,0,0,0,1.89-.36,7.57,7.57,0,0,0,2.8-2,7.23,7.23,0,0,0,.87-1.18q.2-.38.39-.78c.08-.17.2-.42.32-.69a59,59,0,0,0,3.45-11.22Z" fill="#fff"/></svg>
