<?xml version="1.0" encoding="UTF-8" standalone="no"?>
<svg
   xmlns:dc="http://purl.org/dc/elements/1.1/"
   xmlns:cc="http://creativecommons.org/ns#"
   xmlns:rdf="http://www.w3.org/1999/02/22-rdf-syntax-ns#"
   xmlns:svg="http://www.w3.org/2000/svg"
   xmlns="http://www.w3.org/2000/svg"
   xmlns:sodipodi="http://sodipodi.sourceforge.net/DTD/sodipodi-0.dtd"
   xmlns:inkscape="http://www.inkscape.org/namespaces/inkscape"
   width="228.01273pt"
   version="1.1"
   height="79.370079pt"
   viewBox="0 0 228.01273 79.370079"
   id="svg2"
   inkscape:version="0.91 r13725"
   sodipodi:docname="BDBC logo (Colour with transparent background).svg"
   inkscape:export-filename="C:\Users\dro\Desktop\bdbclogo.png"
   inkscape:export-xdpi="54.312759"
   inkscape:export-ydpi="54.312759">
  <metadata
     id="metadata219">
    <rdf:RDF>
      <cc:Work
         rdf:about="">
        <dc:format>image/svg+xml</dc:format>
        <dc:type
           rdf:resource="http://purl.org/dc/dcmitype/StillImage" />
        <dc:title></dc:title>
      </cc:Work>
    </rdf:RDF>
  </metadata>
  <sodipodi:namedview
     pagecolor="#ffffff"
     bordercolor="#666666"
     borderopacity="1"
     objecttolerance="10"
     gridtolerance="10"
     guidetolerance="10"
     inkscape:pageopacity="0"
     inkscape:pageshadow="2"
     inkscape:window-width="1600"
     inkscape:window-height="816"
     id="namedview217"
     showgrid="false"
     inkscape:zoom="4.151721"
     inkscape:cx="102.64158"
     inkscape:cy="61.625001"
     inkscape:window-x="-8"
     inkscape:window-y="-8"
     inkscape:window-maximized="1"
     inkscape:current-layer="svg2"
     showguides="false"
     fit-margin-top="0"
     fit-margin-left="0"
     fit-margin-right="0"
     fit-margin-bottom="0"
     showborder="false" />
  <defs
     id="defs4">
    <clipPath
       id="Clip0">
      <path
         d="m 0,0 0,300.468 612.288,0 L 612.288,0 0,0 Z"
         transform="translate(0,0.532227)"
         id="path7"
         inkscape:connector-curvature="0" />
    </clipPath>
    <clipPath
       id="Clip1">
      <path
         d="m 0,0 223.056,0 0,77.128 L 0,77.128 0,0 Z"
         transform="translate(194.616,112.202)"
         id="path10"
         inkscape:connector-curvature="0" />
    </clipPath>
    <clipPath
       id="Clip2">
      <path
         d="m 0,0 0,77.128 223.056,0 L 223.056,0 0,0 Z"
         transform="translate(194.616,112.202)"
         id="path13"
         inkscape:connector-curvature="0" />
    </clipPath>
  </defs>
  <g
     id="g4535">
    <g
       id="g4434">
      <path
         style="fill:#ffffff;fill-opacity:1;fill-rule:nonzero;stroke:none;stroke-opacity:1"
         d="m 13.966242,2.997677 c 0.102907,0.3519418 0.661692,0.6349359 0.308721,1.0187789 -0.281965,0.3148953 -0.703884,0.3478255 -0.95189,0.7316685 C 13.151219,4.2912175 12.029533,3.9331013 12.63051,3.2353921 12.984509,2.745555 14.151474,1.2791308 13.966242,2.997677"
         id="path21"
         inkscape:connector-curvature="0" />
      <path
         style="fill:#ffffff;fill-opacity:1;fill-rule:nonzero;stroke:none;stroke-opacity:1"
         d="m 10.415952,3.7488978 0.06895,0.3148953 -0.8767669,-0.1450988 -0.00617,0.9488022 C 8.586266,4.5443686 8.734452,3.3516769 8.4566032,2.6477933 9.1934171,2.7928922 10.035196,2.9740084 10.415952,3.7488978"
         id="path23"
         inkscape:connector-curvature="0" />
      <path
         style="fill:#ffffff;fill-opacity:1;fill-rule:nonzero;stroke:none;stroke-opacity:1"
         d="m 17.44141,2.702334 c -0.528942,0.5587848 -0.0072,1.4746568 -0.714174,2.0313834 l -1.334704,0.3437093 c -0.09982,-0.8438371 0.07924,-1.6506277 0.924105,-1.995366 0.38693,-0.067919 0.703883,-0.3817848 1.124773,-0.3797267"
         id="path25"
         inkscape:connector-curvature="0" />
      <path
         style="fill:#ffffff;fill-opacity:1;fill-rule:nonzero;stroke:none;stroke-opacity:1"
         d="M 18.938706,4.7820837 17.914782,5.7936591 C 17.778945,5.1967987 17.396131,4.4568977 17.822166,3.8281362 l 1.022895,-0.9415987 c 0.03087,0.6318487 0.448674,1.2657556 0.09364,1.8955462"
         id="path27"
         inkscape:connector-curvature="0" />
      <path
         style="fill:#ffffff;fill-opacity:1;fill-rule:nonzero;stroke:none;stroke-opacity:1"
         d="M 12.857934,6.2196939 11.984254,5.7586707 C 12.166399,4.5299616 10.09694,4.3786884 10.946952,3.0491305 c 0.520709,1.020837 2.623098,1.4551044 1.910982,3.1705634"
         id="path29"
         inkscape:connector-curvature="0" />
      <path
         style="fill:#ffffff;fill-opacity:1;fill-rule:nonzero;stroke:none;stroke-opacity:1"
         d="m 14.756567,5.6691417 c -0.14304,0.4558778 -0.704912,0.3128371 -0.881912,0.7326975 0.347825,0.7028546 0.623616,1.3717498 0.759453,2.1456102 0.843837,-0.2768198 -0.02778,-1.1937208 0.116285,-1.8955462 0.143041,-0.4538197 0.532029,-0.9086685 1.023924,-0.975558 -0.638023,1.1185986 0.86236,2.5315112 -0.896319,3.0830925 -0.215076,0.8397208 -0.431181,1.6814993 -0.822227,2.4512433 l -0.0072,1.509646 C 12.758114,11.238466 16.324869,7.433996 12.495701,8.2181471 11.792847,8.1780134 11.518085,7.404153 11.239207,6.9122578 11.592178,6.738345 12.083045,6.635438 12.539951,6.6035369 c 0.525855,0.1090814 1.049651,0.4270639 1.257523,0.9549766 0.03396,0.2119883 0.172884,0.4229476 0.382814,0.4939534 0.0062,-0.9827615 -1.463337,-1.6928195 -0.719319,-2.9174123 0.250064,-0.664779 1.020837,-0.4497035 1.27193,-1.1155115 0.277849,0.3519418 0.202726,1.1597615 0.02367,1.6495986"
         id="path31"
         inkscape:connector-curvature="0" />
      <path
         style="fill:#ffffff;fill-opacity:1;fill-rule:nonzero;stroke:none;stroke-opacity:1"
         d="m 11.42444,5.3686534 c 0.450732,0.8798545 -0.954977,1.1525579 -0.468227,2.0334415 0.310779,0.6688952 1.080523,1.2348835 1.533314,1.7278079 C 11.892667,9.3367457 11.475893,8.3879436 10.952097,8.0339436 9.9003879,7.8507692 10.172062,9.3274841 9.1903299,9.2863213 8.6274288,9.4231876 8.2435858,9.0341993 7.7887371,8.8921877 8.7004927,8.7573796 9.5875507,7.358874 10.777155,7.8569437 10.673219,7.5749786 10.640289,7.1890775 10.290405,7.152031 9.3426322,7.1108682 8.8455916,8.231525 7.8648882,7.8744378 L 7.16615,7.2034845 C 8.1849289,6.9986996 9.2078241,6.1980835 10.291434,6.9410717 11.381219,6.7023276 9.8396728,6.1661823 9.9827135,5.6413568 9.8468763,5.1484325 10.199847,4.6956418 9.9209693,4.3066535 10.481812,4.4857116 11.18158,4.7707639 11.42444,5.3686534"
         id="path33"
         inkscape:connector-curvature="0" />
      <path
         style="fill:#ffffff;fill-opacity:1;fill-rule:nonzero;stroke:none;stroke-opacity:1"
         d="M 9.8396728,6.3061358 C 8.9629055,6.161037 7.9101673,6.1898509 7.4944232,5.2389906 L 7.3235976,4.3611942 C 8.3403184,4.683293 9.5659403,5.0774267 9.8396728,6.3061358"
         id="path35"
         inkscape:connector-curvature="0" />
      <path
         style="fill:#ffffff;fill-opacity:1;fill-rule:nonzero;stroke:none;stroke-opacity:1"
         d="m 20.448351,4.6164035 c -0.180087,0.9107266 -0.292255,1.9634648 -1.136093,2.4491856 -0.457936,0.1378954 -0.913813,-0.00515 -1.333674,-0.1131976 0.287111,-1.2966277 1.623872,-1.6393079 2.469767,-2.335988"
         id="path37"
         inkscape:connector-curvature="0" />
      <path
         style="fill:#ffffff;fill-opacity:1;fill-rule:nonzero;stroke:none;stroke-opacity:1"
         d="m 17.344677,7.1942228 -0.882941,0.871622 C 16.325898,7.3629902 15.910154,6.4141881 16.336189,5.6794324 l 0.634936,-0.6287615 c 0.347826,0.5639301 0.728581,1.3738079 0.373552,2.1435519"
         id="path39"
         inkscape:connector-curvature="0" />
      <path
         style="fill:#ffffff;fill-opacity:1;fill-rule:nonzero;stroke:none;stroke-opacity:1"
         d="m 21.199572,8.1656645 c -0.316953,0.1739128 -0.843837,0.1358372 -1.193721,0.062773 0.177,-0.3148953 0.425006,-0.5948022 0.497041,-0.9446859 -0.06895,-0.1399535 -0.244919,-0.071006 -0.385901,-0.073064 0.288139,-1.1556451 1.583738,-0.6225871 2.218674,-1.1793137 -0.215076,0.6308196 -0.222279,1.7535346 -1.136093,2.1342903"
         id="path41"
         inkscape:connector-curvature="0" />
      <path
         style="fill:#ffffff;fill-opacity:1;fill-rule:nonzero;stroke:none;stroke-opacity:1"
         d="M 7.802115,6.5047462 C 7.6950917,6.9256357 7.1002895,6.6766008 6.7483477,6.7445194 6.5713477,7.0233973 6.8491965,7.2724321 6.9191733,7.5173507 5.8643769,7.8281297 5.8376211,6.4224206 5.0328887,6.0313742 5.9086269,6.1435428 7.1054349,5.7988045 7.802115,6.5047462"
         id="path43"
         inkscape:connector-curvature="0" />
      <path
         style="fill:#ffffff;fill-opacity:1;fill-rule:nonzero;stroke:none;stroke-opacity:1"
         d="m 19.797979,7.6305483 c -0.178029,0.6297906 -0.741959,1.048622 -1.30486,1.2204766 -0.667866,0.1368662 -1.086697,-0.2881395 -1.719575,-0.1512732 0.215075,-0.664779 0.921017,-1.1875464 1.587854,-1.2534068 0.526884,-0.031901 0.875738,0.3210697 1.436581,0.1842034"
         id="path45"
         inkscape:connector-curvature="0" />
      <path
         style="fill:#ffffff;fill-opacity:1;fill-rule:nonzero;stroke:none;stroke-opacity:1"
         d="M 22.383002,9.8564259 C 21.886991,10.62617 21.009194,10.69203 20.237392,10.616908 20.349561,9.4931643 21.30145,8.586554 22.287299,8.1018622 L 22.60631,7.7180193 c 0.100849,0.8067905 0.341651,1.405709 -0.223308,2.1384066"
         id="path47"
         inkscape:connector-curvature="0" />
      <path
         style="fill:#ffffff;fill-opacity:1;fill-rule:nonzero;stroke:none;stroke-opacity:1"
         d="M 7.2978709,8.7131296 C 7.4357662,9.1000597 7.7496324,9.4530306 8.0995161,9.666048 8.7313648,9.7041236 9.5062542,9.2894085 9.9590449,9.7823329 9.3611554,9.9541875 8.4843881,9.7380829 7.8525394,9.9799142 7.3544697,11.099542 6.0897432,11.022362 5.0719933,11.15717 5.0390631,10.911222 5.5690339,10.246443 6.0269699,10.0396 5.5391909,9.4046643 4.9371852,10.313333 4.3053365,10.345234 3.5664645,10.481071 3.114703,9.9161119 2.4828542,9.8070305 3.1527785,9.3902574 3.7887435,8.6915191 4.6294934,8.9436412 5.5391909,9.4746411 6.5878129,10.042687 7.6775976,9.7329375 7.3338883,8.5031994 5.9220048,9.7586643 5.4733305,8.6328621 L 4.845598,7.9258913 C 5.7223653,8.0370308 6.9541616,7.5873274 7.2978709,8.7131296"
         id="path49"
         inkscape:connector-curvature="0" />
      <path
         style="fill:#ffffff;fill-opacity:1;fill-rule:nonzero;stroke:none;stroke-opacity:1"
         d="m 17.393044,10.915339 c -0.211989,0.173912 -0.458965,0.418831 -0.390018,0.62979 0.63082,0.14407 0.879855,-0.451761 1.162849,-0.800616 0.0391,-0.631849 0.04322,-1.3686626 0.746075,-1.5765347 0.456907,-0.1008488 0.843837,-0.3087209 1.196808,-0.5886278 0.136867,0.5978895 -0.183174,1.22768 -0.432209,1.7874935 -0.425006,0.664779 -1.579622,0.201698 -1.585796,1.043477 0.420889,0.03808 0.668895,-0.27682 1.055825,-0.30975 0.805762,0.216105 1.682529,0.186262 2.352453,-0.230512 -0.459994,0.734756 -1.200924,1.326471 -2.044761,1.391303 -0.420889,-0.0031 -0.804732,-0.181117 -1.118599,-0.533059 -1.403651,-0.114226 -2.530482,0.546436 -3.414453,1.559041 0.103937,0.420889 0.02984,0.911756 0.06277,1.333674 0.844866,-0.451761 0.504244,-2.138406 1.908924,-2.270127 0.490866,0.07306 0.945715,0.181116 1.507587,0.150244 -0.425006,0.593773 -0.396192,1.611523 -1.273988,1.746331 -0.456907,0.172884 -0.946744,-0.0051 -1.402622,-0.04322 -0.496012,0.627732 -0.887058,1.468482 -0.645227,2.242343 0.528942,-0.66375 1.686645,-0.516593 2.043732,-1.42732 0.881913,-0.871622 1.999483,0.01338 2.912267,0.192436 -0.985848,0.416773 -2.04579,1.568302 -3.128371,0.754308 -1.053768,-0.0062 -1.831744,1.182401 -2.398762,2.021093 0.330332,-2.524308 -0.52997,-5.267807 0.431181,-7.579098 l 0.105994,-0.138924 c 0.346796,0.738872 -0.358116,1.366604 -0.118343,2.210441 0.562901,-0.171854 1.126831,-0.624645 1.759709,-0.7965 C 16.128317,11.118065 15.078666,10.51503 15.50573,9.4643504 L 15.968811,8.379711 c 0.344739,1.019808 2.344221,1.2070987 1.424233,2.535628"
         id="path51"
         inkscape:connector-curvature="0" />
      <path
         style="fill:#ffffff;fill-opacity:1;fill-rule:nonzero;stroke:none;stroke-opacity:1"
         d="m 13.927137,9.3151353 c 0.0319,0.7018257 -0.25418,1.3666047 -0.887058,1.6444527 l -0.210959,0.06895 c 0.732698,0.704913 0.795471,1.863645 1.071261,2.849494 C 12.60787,12.782071 10.611475,12.242838 8.9917194,13.005379 8.6387486,13.354233 9.0215625,13.953152 8.527609,14.26496 8.142737,14.017983 7.7239057,13.734989 7.1970221,13.76689 7.5150046,13.34703 7.9719115,13.244123 8.39383,13.142245 7.3812255,12.434245 5.7285397,12.949809 4.7509236,11.961902 5.3138247,11.755059 6.264685,11.199362 7.1054349,11.625397 7.5921848,12.224315 8.0449754,13.034193 8.9927485,12.76046 9.2407543,12.515542 9.8715739,12.659611 9.8036554,12.272681 9.3488066,12.059664 8.6788823,12.687396 8.1540568,12.193443 L 7.4234174,11.030594 c 0.5978894,0.0031 1.4077672,-0.553639 2.0005113,0.01235 0.3838429,0.422948 0.2408023,1.018779 0.8345753,1.337791 l 1.298686,0.07924 c 0.105994,-0.139953 -0.06792,-0.38693 -0.24286,-0.458965 -0.632878,0.206843 -1.157704,-0.217134 -1.3295584,-0.744017 -0.067919,-0.386931 0.1450984,-0.631849 0.07718,-1.01775 0.485721,0.704912 1.997424,0.432209 1.638279,1.729866 0.278877,0.528942 0.942627,0.777976 1.432465,1.060971 0.07615,-0.947774 -0.550553,-1.793669 -1.353227,-2.394645 -0.597889,0.03087 -1.192692,-0.28814 -1.329558,-0.8500119 -0.03293,-0.3519418 -0.171855,-0.6678662 -0.0638,-1.0527382 0.524825,0.3190116 1.331616,0.2881395 1.50347,1.0259824 -0.144069,0.4908657 0.204785,0.8788257 0.589657,1.1258017 l 0.03499,0.001 c -0.591715,-0.9158715 0.501157,-1.6115225 0.927191,-2.3462782 0.314896,0.072035 0.347826,0.4939534 0.485721,0.7759185"
         id="path53"
         inkscape:connector-curvature="0" />
      <path
         style="fill:#ffffff;fill-opacity:1;fill-rule:nonzero;stroke:none;stroke-opacity:1"
         d="m 24.273403,10.5706 c -0.109081,0.700797 -0.676099,1.575506 -1.449959,1.815279 -0.631849,0.207872 -1.22768,-0.07718 -1.787494,-0.255209 0.213017,-0.490866 0.953948,-1.222535 1.586825,-1.359401 0.560843,0.108052 1.192692,0.07718 1.650628,-0.200669"
         id="path55"
         inkscape:connector-curvature="0" />
      <path
         style="fill:#ffffff;fill-opacity:1;fill-rule:nonzero;stroke:none;stroke-opacity:1"
         d="m 21.628694,12.764577 c -1.265755,0.238744 -1.558011,2.168249 -3.133517,1.631075 l -0.315924,-0.0021 c 0.457936,-0.277849 0.215075,-0.84075 0.463081,-1.190634 0.775919,-0.801645 1.969639,-0.654488 2.98636,-0.438383"
         id="path57"
         inkscape:connector-curvature="0" />
      <path
         style="fill:#ffffff;fill-opacity:1;fill-rule:nonzero;stroke:none;stroke-opacity:1"
         d="M 7.1301325,13.203989 C 6.3892024,13.832751 5.4023247,14.56339 4.3526737,13.995344 4.0377784,13.853332 3.7599296,13.500361 3.336982,13.533292 4.3629644,12.275769 5.8324758,13.020815 7.1301325,13.203989"
         id="path59"
         inkscape:connector-curvature="0" />
      <path
         style="fill:#ffffff;fill-opacity:1;fill-rule:nonzero;stroke:none;stroke-opacity:1"
         d="m 10.986056,13.964472 c 0.06689,0.491895 -0.07409,0.912784 -0.393104,1.261639 0.805761,0.215076 1.11654,1.023924 1.639308,1.588884 0.319011,-0.45382 -0.378698,-1.124774 0.150244,-1.64857 0.459994,-0.488808 1.126831,-0.518651 1.75868,-0.655517 0.343709,1.335732 -0.957035,1.642395 -1.593,2.447127 0.0319,0.42089 0.450732,0.879855 0.131721,1.333674 -0.520709,-0.845895 -1.110366,-2.076662 -2.126058,-2.503726 -0.6308196,0.02984 -1.4736276,-0.150244 -1.7226624,0.585541 -0.074093,0.525854 -0.2181628,1.156674 -0.8160522,1.363517 -0.6668371,0.136866 -1.226651,-0.28814 -1.9644939,-0.116285 0.8819127,-0.556727 1.2750173,-1.853354 2.5366566,-1.529197 l 0.3179825,-0.348855 c -0.2778488,-0.528942 -0.7368138,-0.145099 -1.1577033,-0.07718 -0.842808,0.06483 -1.330587,-0.570105 -1.9243602,-1.100076 0.5978895,-0.136866 1.4077673,-0.482633 2.1425229,-0.163622 0.5587848,0.391047 0.7296104,1.163878 1.5724184,1.063029 0.2459476,0.001 0.5618716,0.0031 0.7388716,-0.170825 -0.3848717,-0.213018 -0.9457146,-0.287111 -1.1185983,-0.813994 -0.1018779,-0.561872 0.4260348,-0.87471 0.3941337,-1.401593 0.4198604,0.388988 1.1566746,0.218163 1.4334936,0.886029"
         id="path61"
         inkscape:connector-curvature="0" />
      <path
         style="fill:#ffffff;fill-opacity:1;fill-rule:nonzero;stroke:none;stroke-opacity:1"
         d="m 13.652376,14.191896 c -0.457936,0.277849 -1.193721,0.202727 -1.584768,0.797529 -0.663749,-0.355029 -0.553639,-1.16079 -0.760482,-1.75868 0.697709,0.494983 1.789552,0.115256 2.34525,0.961151"
         id="path63"
         inkscape:connector-curvature="0" />
      <path
         style="fill:#ffffff;fill-opacity:1;fill-rule:nonzero;stroke:none;stroke-opacity:1"
         d="m 23.379142,13.477722 c -0.179059,0.525854 -0.745047,1.119628 -1.271931,1.431436 -0.597889,0.170825 -1.511703,0.306662 -2.035499,-0.187291 0.878825,-0.204785 0.816052,-1.469511 1.798813,-1.428349 0.561872,-0.06689 0.944686,0.427064 1.508617,0.184204"
         id="path65"
         inkscape:connector-curvature="0" />
      <path
         style="fill:#ffffff;fill-opacity:1;fill-rule:nonzero;stroke:none;stroke-opacity:1"
         d="m 7.0076732,16.04628 c -0.3179825,0.454848 -1.0578835,0.835604 -1.7946973,0.867505 -0.5968604,-0.0041 -1.049651,-0.568046 -1.6835579,-0.255209 0.4239767,-0.489837 0.7800348,-1.259581 1.4468719,-1.325442 0.7728312,-0.0319 1.330587,0.499099 2.0313833,0.713146"
         id="path67"
         inkscape:connector-curvature="0" />
      <path
         style="fill:#ffffff;fill-opacity:1;fill-rule:nonzero;stroke:none;stroke-opacity:1"
         d="m 23.50263,16.251064 c -0.705942,0.66375 -1.970668,0.831489 -2.846407,0.544378 -0.349883,-0.213017 -0.66375,-0.529971 -0.69668,-0.951889 0.598919,-0.241832 1.337791,-0.517622 2.00257,-0.233599 0.525854,0.214046 0.872651,0.777977 1.540517,0.64111"
         id="path69"
         inkscape:connector-curvature="0" />
      <path
         style="fill:#ffffff;fill-opacity:1;fill-rule:nonzero;stroke:none;stroke-opacity:1"
         d="m 19.106445,17.804959 c -0.355029,0.628762 -1.370721,0.236686 -1.446872,1.079494 0.845895,-0.451761 2.038587,-0.303575 2.710569,-1.319267 1.056854,-0.589657 1.964494,0.258297 2.982244,0.264471 -0.599948,0.592744 -1.236942,1.362488 -2.148698,1.321326 -0.632877,0.06586 -1.051709,-0.323128 -1.504499,-0.64214 -1.442756,0.448674 -2.779517,1.071262 -4.083349,1.871878 0.489838,0.317982 0.877797,0.0051 1.334704,-0.167739 1.088755,-0.273732 1.820424,0.643169 2.909179,0.50939 -0.775918,0.731668 -1.727807,1.498325 -2.848464,1.000255 -0.63082,-0.214046 -0.692564,-1.407767 -1.503471,-0.852069 l -0.248006,0.314895 c 0.02367,1.930535 -0.197581,3.684069 0.459994,5.338813 -1.053767,-0.0072 -2.279389,-0.330331 -3.335214,-0.02161 0.324157,-1.26164 0.438384,-2.875221 0.378698,-4.419854 -0.348855,-0.492925 -0.981733,-0.427064 -1.507587,-0.325186 -0.423977,0.523796 -0.986878,0.766657 -1.6547444,0.728581 -0.6308196,-0.11011 -1.2245928,-0.46411 -1.7504473,-0.749163 0.843837,-0.274761 1.6207846,-1.042447 2.6004587,-0.580395 0.522767,0.669924 1.439669,0.07924 2.069459,0.293285 C 11.25876,21.26675 10.423155,20.032895 8.9474694,20.410564 8.1345045,21.177221 7.0107605,21.592965 5.8890746,21.19986 L 5.5731502,21.091808 c 0.5639302,-0.241832 1.2348835,-1.1505 2.113709,-1.145355 0.6308197,0.0391 1.2606102,0.464111 1.8945171,0.151274 C 9.162545,19.639791 8.6737369,19.215814 8.112894,19.070715 c -0.8819126,0.732698 -2.1775113,0.198611 -3.0192902,0.158477 0.5289418,-0.418832 0.9189591,-1.11757 1.656802,-1.112424 0.841779,-0.135838 1.2925115,0.918959 1.9943369,0.888087 -0.06586,-0.63082 -0.1317209,-1.368663 0.2572674,-1.892459 0.5299709,-0.523797 1.2667849,-0.484692 1.7946979,-0.937483 0.06792,0.666837 -0.0072,1.403651 -0.537175,1.892459 -0.3179823,0.312837 -0.7059416,0.591715 -1.1968078,0.55364 -0.2150755,0.875738 1.0095178,1.410854 1.6403368,1.799842 l 0.454849,0.107024 c 0.0391,-0.665808 -1.11757,-0.91793 -0.691535,-1.757651 l 1.060971,-1.503471 c 0.45382,0.598919 1.186517,1.200924 0.690506,2.005657 -0.213018,0.349883 -0.528942,0.592744 -0.881913,0.69668 0.348855,0.527913 0.731668,1.021866 1.397477,1.095959 0.282994,-0.208901 0.0031,-0.491895 0.04013,-0.771802 1.015692,0.427064 0.689477,2.074604 0.753279,3.093383 l -0.260354,2.419343 1.438639,0.07821 c -0.19964,-1.684587 -0.328273,-3.757133 -0.07203,-5.440691 -0.348855,-0.350913 -0.772831,0.101878 -1.157703,-0.146128 -0.629791,-0.320041 -0.801646,-0.986878 -0.622587,-1.653715 l 0.462052,-0.734755 c 0.450732,0.635965 1.395418,1.201953 1.320296,2.149726 l 0.173913,0.175971 c 0.529971,-0.627733 -0.236686,-1.474657 0.153331,-2.209413 l 1.308977,-1.501412 c 0.170825,0.667866 0.517622,1.441726 0.196552,2.141494 -0.284023,0.525854 -0.915872,0.732697 -1.165936,1.257523 0.670954,-0.522768 2.108564,-0.303576 2.291738,-1.566244 -0.313866,-0.456907 -0.06483,-0.947773 0.148186,-1.367634 0.423977,-0.453819 1.089785,-0.344738 1.514791,-0.833546 0.03087,0.526884 0.238744,1.159761 -0.150244,1.649598"
         id="path71"
         inkscape:connector-curvature="0" />
      <path
         style="fill:#ffffff;fill-opacity:1;fill-rule:nonzero;stroke:none;stroke-opacity:1"
         d="m 14.014608,18.019006 c -0.312837,-0.246977 -0.802674,-0.706971 -0.518651,-1.266785 l 0.387959,-0.347825 c 0.244919,0.387959 0.344739,1.124773 0.130692,1.61461"
         id="path73"
         inkscape:connector-curvature="0" />
      <path
         style="fill:#ffffff;fill-opacity:1;fill-rule:nonzero;stroke:none;stroke-opacity:1"
         d="m 20.499805,19.461762 c -0.210959,0.03396 -0.809878,0.380755 -0.881913,0.802674 -0.595831,-0.07409 -1.120657,-0.358116 -1.717517,-0.43118 0.531,-0.87471 1.75868,-0.587599 2.59943,-0.371494"
         id="path75"
         inkscape:connector-curvature="0" />
      <path
         style="fill:#ffffff;fill-opacity:1;fill-rule:nonzero;stroke:none;stroke-opacity:1"
         d="m 51.025096,3.2580316 c 0.102907,0.3519418 0.662721,0.635965 0.30975,1.019808 -0.281965,0.3138662 -0.704912,0.3467964 -0.952918,0.7316685 -0.171855,-0.457936 -1.293541,-0.8160522 -0.692564,-1.5127323 0.354,-0.4898372 1.520965,-1.9572904 1.335732,-0.2387442"
         id="path77"
         inkscape:connector-curvature="0" />
      <path
         style="fill:#ffffff;fill-opacity:1;fill-rule:nonzero;stroke:none;stroke-opacity:1"
         d="m 47.475835,4.0092524 0.06792,0.3159244 -0.875738,-0.1450988 -0.0062,0.9477731 C 45.64615,4.8057523 45.793306,3.6130606 45.516487,2.909177 c 0.736814,0.1440698 1.578593,0.3262151 1.959348,1.1000754"
         id="path79"
         inkscape:connector-curvature="0" />
      <path
         style="fill:#ffffff;fill-opacity:1;fill-rule:nonzero;stroke:none;stroke-opacity:1"
         d="m 54.501293,2.9626886 c -0.52997,0.5587848 -0.0082,1.4746568 -0.714174,2.0324125 l -1.335732,0.3426802 c -0.100849,-0.8438371 0.08027,-1.6495986 0.924104,-1.995366 0.38693,-0.066889 0.703884,-0.3817848 1.125802,-0.3797267"
         id="path81"
         inkscape:connector-curvature="0" />
      <path
         style="fill:#ffffff;fill-opacity:1;fill-rule:nonzero;stroke:none;stroke-opacity:1"
         d="M 55.997561,5.0434674 54.973636,6.0550428 C 54.83677,5.4581824 54.454985,4.7182814 54.879991,4.0884908 l 1.023924,-0.9405696 c 0.0319,0.6318487 0.448675,1.2647265 0.09365,1.8955462"
         id="path83"
         inkscape:connector-curvature="0" />
      <path
         style="fill:#ffffff;fill-opacity:1;fill-rule:nonzero;stroke:none;stroke-opacity:1"
         d="M 49.917817,6.4800485 49.042079,6.0200544 C 49.226283,4.7913453 47.155795,4.639043 48.006835,3.3105142 c 0.51968,1.020837 2.62207,1.4540753 1.910982,3.1695343"
         id="path85"
         inkscape:connector-curvature="0" />
      <path
         style="fill:#ffffff;fill-opacity:1;fill-rule:nonzero;stroke:none;stroke-opacity:1"
         d="m 51.816451,5.9305254 c -0.14407,0.4548487 -0.704913,0.3118081 -0.882942,0.7326975 0.346797,0.7018255 0.624645,1.3717498 0.760483,2.1445811 0.843837,-0.2757907 -0.02881,-1.1926917 0.116284,-1.8945172 0.143041,-0.4548487 0.531,-0.9096975 1.023925,-0.976587 -0.639053,1.1196277 0.86236,2.5325403 -0.89632,3.0830925 -0.215075,0.8397208 -0.43118,1.6825287 -0.822227,2.4522727 l -0.0093,1.507587 C 49.81594,11.498821 53.384753,7.6943507 49.554556,8.4785017 48.85273,8.439397 48.57694,7.6655367 48.299091,7.1726124 c 0.351942,-0.1728837 0.843837,-0.2757907 1.299715,-0.3076918 0.525854,0.1080523 1.05068,0.4270638 1.258552,0.9549765 0.03293,0.2109593 0.171855,0.4219186 0.382814,0.4929244 0.0051,-0.9817324 -1.464366,-1.6928195 -0.71932,-2.9163833 0.250064,-0.6647789 1.019808,-0.4507324 1.269872,-1.1155114 0.278878,0.3519418 0.203756,1.1587324 0.02573,1.6495986"
         id="path87"
         inkscape:connector-curvature="0" />
      <path
         style="fill:#ffffff;fill-opacity:1;fill-rule:nonzero;stroke:none;stroke-opacity:1"
         d="m 48.483294,5.630037 c 0.451762,0.8788255 -0.953947,1.1515289 -0.468226,2.0313834 0.311808,0.6699243 1.080523,1.2359126 1.534343,1.729866 -0.59789,0.206843 -1.014663,-0.7440173 -1.53846,-1.0969882 C 46.959242,8.1121529 47.231946,9.5888678 46.249184,9.5466759 45.686283,9.6835422 45.303469,9.2945539 44.846562,9.1535714 45.760376,9.0177342 46.646405,7.6181995 47.837039,8.1172983 47.733103,7.8353332 47.700172,7.4494321 47.34926,7.4123856 46.402516,7.3722519 45.905475,8.4918796 44.923743,8.1347924 l -0.69771,-0.6709533 c 1.018779,-0.2047849 2.041675,-1.004372 3.125285,-0.2613837 1.088755,-0.2397732 -0.452791,-0.7759185 -0.308721,-1.2997149 -0.136866,-0.4929244 0.217134,-0.946744 -0.06174,-1.3347033 0.559814,0.1780291 1.26061,0.4630813 1.502441,1.0619998"
         id="path89"
         inkscape:connector-curvature="0" />
      <path
         style="fill:#ffffff;fill-opacity:1;fill-rule:nonzero;stroke:none;stroke-opacity:1"
         d="M 46.898527,6.5675194 C 46.02176,6.4213916 44.969022,6.4512346 44.553278,5.5003743 L 44.383481,4.6215488 c 1.015692,0.3231279 2.241314,0.7172615 2.515046,1.9459706"
         id="path91"
         inkscape:connector-curvature="0" />
      <path
         style="fill:#ffffff;fill-opacity:1;fill-rule:nonzero;stroke:none;stroke-opacity:1"
         d="M 57.508235,4.8767581 C 57.327119,5.7874847 57.215979,6.841252 56.371113,7.3269728 55.913177,7.4638391 55.458328,7.3207984 55.037439,7.2137752 55.325578,5.9161184 56.661311,5.5734382 57.508235,4.8767581"
         id="path93"
         inkscape:connector-curvature="0" />
      <path
         style="fill:#ffffff;fill-opacity:1;fill-rule:nonzero;stroke:none;stroke-opacity:1"
         d="m 54.403532,7.4556065 -0.881913,0.871622 C 53.384753,7.6243739 52.970038,6.6745427 53.395044,5.9408161 l 0.635965,-0.6297906 c 0.347825,0.5639301 0.728581,1.3738079 0.372523,2.144581"
         id="path95"
         inkscape:connector-curvature="0" />
      <path
         style="fill:#ffffff;fill-opacity:1;fill-rule:nonzero;stroke:none;stroke-opacity:1"
         d="m 58.258427,8.4260191 c -0.315925,0.1739128 -0.842808,0.1348082 -1.193721,0.063802 0.178029,-0.3148953 0.425006,-0.5948023 0.498069,-0.945715 -0.071,-0.1409825 -0.245947,-0.071006 -0.385901,-0.072035 0.287111,-1.1566742 1.583739,-0.6236162 2.217645,-1.1803428 -0.214046,0.6308197 -0.22125,1.7535346 -1.136092,2.1342903"
         id="path97"
         inkscape:connector-curvature="0" />
      <path
         style="fill:#ffffff;fill-opacity:1;fill-rule:nonzero;stroke:none;stroke-opacity:1"
         d="M 44.861998,6.7651008 C 44.752917,7.1870193 44.158115,6.9369554 43.808231,7.0059031 43.630202,7.284781 43.90908,7.5317577 43.979057,7.7787344 42.923231,8.0884843 42.897505,6.6838043 42.092772,6.2927579 42.96851,6.4038974 44.164289,6.0601881 44.861998,6.7651008"
         id="path99"
         inkscape:connector-curvature="0" />
      <path
         style="fill:#ffffff;fill-opacity:1;fill-rule:nonzero;stroke:none;stroke-opacity:1"
         d="m 56.857863,7.890903 c -0.180087,0.6308196 -0.742988,1.0496509 -1.30486,1.2215056 -0.668896,0.1348081 -1.086698,-0.2881395 -1.719576,-0.1512733 0.215076,-0.665808 0.918959,-1.1875463 1.586826,-1.2544358 0.526883,-0.031901 0.875738,0.3210697 1.43761,0.1842035"
         id="path101"
         inkscape:connector-curvature="0" />
      <path
         style="fill:#ffffff;fill-opacity:1;fill-rule:nonzero;stroke:none;stroke-opacity:1"
         d="m 59.441857,10.11781 c -0.496012,0.769744 -1.373808,0.834575 -2.144581,0.758424 0.111139,-1.121686 1.064057,-2.0282963 2.049906,-2.5140172 l 0.319012,-0.3838429 c 0.09982,0.8067905 0.341651,1.405709 -0.224337,2.1394361"
         id="path103"
         inkscape:connector-curvature="0" />
      <path
         style="fill:#ffffff;fill-opacity:1;fill-rule:nonzero;stroke:none;stroke-opacity:1"
         d="m 44.356725,8.9734842 c 0.137896,0.3879592 0.451762,0.7409301 0.801646,0.9529184 0.631848,0.039105 1.405709,-0.3776685 1.860557,0.1162844 -0.597889,0.172884 -1.475685,-0.04322 -2.107534,0.197582 -0.49807,1.120657 -1.761767,1.042447 -2.779517,1.177255 -0.03396,-0.245947 0.496011,-0.909697 0.952918,-1.117569 -0.48675,-0.6349361 -1.088755,0.274761 -1.720604,0.305634 -0.737843,0.136866 -1.190634,-0.428093 -1.822482,-0.538204 0.669924,-0.416773 1.305889,-1.1144822 2.146639,-0.8633892 0.909697,0.5309999 1.958319,1.1000752 3.048104,0.7903254 -0.34268,-1.2297382 -1.754564,0.024698 -2.204267,-1.1011045 L 41.905482,8.1862459 c 0.875738,0.1111395 2.107534,-0.3375348 2.451243,0.7872383"
         id="path105"
         inkscape:connector-curvature="0" />
      <path
         style="fill:#ffffff;fill-opacity:1;fill-rule:nonzero;stroke:none;stroke-opacity:1"
         d="m 54.451898,11.175693 c -0.211988,0.173913 -0.458965,0.418831 -0.391046,0.629791 0.632877,0.14304 0.880883,-0.451762 1.163877,-0.800616 0.0391,-0.631849 0.04322,-1.368663 0.747105,-1.575506 0.455878,-0.1018779 0.842808,-0.310779 1.196808,-0.5886278 0.136866,0.5968604 -0.183175,1.2266508 -0.432209,1.7864648 -0.425006,0.665808 -1.580651,0.201698 -1.585797,1.044506 0.42089,0.03705 0.667867,-0.27682 1.054797,-0.30975 0.80679,0.216104 1.682528,0.185232 2.353482,-0.231541 -0.461023,0.733727 -1.201953,1.326471 -2.044761,1.391302 -0.42089,-0.0021 -0.805762,-0.180087 -1.119628,-0.532029 -1.402622,-0.114227 -2.530482,0.545407 -3.414453,1.558012 0.103936,0.421918 0.03087,0.912784 0.06174,1.333674 0.845895,-0.450733 0.505273,-2.137378 1.909953,-2.270128 0.490866,0.07306 0.946744,0.182146 1.508616,0.151273 -0.425005,0.592745 -0.396191,1.610494 -1.275017,1.746332 -0.456907,0.172883 -0.946744,-0.0062 -1.403651,-0.04322 -0.493953,0.627732 -0.885,1.468482 -0.644197,2.241313 0.52997,-0.66375 1.687674,-0.515564 2.044761,-1.42629 0.881913,-0.872651 1.999482,0.01235 2.911238,0.192436 -0.985849,0.415744 -2.045791,1.568302 -3.127343,0.754308 -1.054796,-0.0072 -1.833802,1.181372 -2.39979,2.021092 0.33136,-2.526365 -0.529971,-5.268836 0.432209,-7.580126 l 0.104965,-0.137896 c 0.346797,0.737843 -0.359145,1.365576 -0.118343,2.210442 0.56393,-0.172884 1.127861,-0.625674 1.759709,-0.7965 -0.557755,-0.564959 -1.607406,-1.167994 -1.180343,-2.219703 l 0.463082,-1.0846394 c 0.344738,1.019808 2.34422,1.2070987 1.424232,2.5356274"
         id="path107"
         inkscape:connector-curvature="0" />
      <path
         style="fill:#ffffff;fill-opacity:1;fill-rule:nonzero;stroke:none;stroke-opacity:1"
         d="m 50.987021,9.5754899 c 0.03087,0.7007961 -0.25418,1.3676331 -0.887058,1.6434241 l -0.21096,0.06998 c 0.732698,0.705942 0.795471,1.864674 1.070233,2.848464 -1.291482,-1.09493 -3.289936,-1.633133 -4.908662,-0.871622 -0.352971,0.349884 0.02984,0.948803 -0.463081,1.259582 -0.384872,-0.246977 -0.803704,-0.529971 -1.330587,-0.49807 0.317982,-0.418831 0.774889,-0.521738 1.196808,-0.623616 -1.013634,-0.709029 -2.667349,-0.192436 -3.642907,-1.181372 0.561872,-0.206843 1.513762,-0.762541 2.353482,-0.336506 0.487779,0.599948 0.939541,1.409825 1.887314,1.134035 0.248006,-0.24389 0.879854,-0.09879 0.810907,-0.485721 -0.454849,-0.213017 -1.124773,0.414715 -1.64857,-0.08027 l -0.730639,-1.16182 c 0.59686,0.0031 1.407767,-0.553639 2.000511,0.01132 0.383843,0.423976 0.239773,1.019808 0.834576,1.33779 l 1.297656,0.07924 c 0.105995,-0.139954 -0.06792,-0.386931 -0.24286,-0.457936 -0.632878,0.205814 -1.156674,-0.218163 -1.328529,-0.745047 -0.06792,-0.385901 0.14407,-0.630819 0.07615,-1.01775 0.48675,0.705942 1.998453,0.433239 1.638279,1.729866 0.278878,0.528942 0.943657,0.777977 1.433494,1.060971 0.07512,-0.946744 -0.551581,-1.792639 -1.355285,-2.393616 -0.595831,0.03087 -1.190633,-0.288139 -1.327499,-0.85104 -0.03396,-0.350913 -0.171855,-0.6678665 -0.0638,-1.0537676 0.523797,0.3200407 1.331616,0.2901977 1.502442,1.0270116 -0.143041,0.490866 0.205814,0.878825 0.590686,1.126831 l 0.03396,0 c -0.590686,-0.914843 0.501157,-1.6104938 0.926163,-2.3452495 0.315924,0.072035 0.348854,0.4929243 0.487779,0.7748894"
         id="path109"
         inkscape:connector-curvature="0" />
      <path
         style="fill:#ffffff;fill-opacity:1;fill-rule:nonzero;stroke:none;stroke-opacity:1"
         d="m 61.333287,10.830955 c -0.110111,0.700796 -0.676099,1.575505 -1.44996,1.816308 -0.633906,0.206843 -1.228709,-0.07718 -1.788523,-0.256239 0.211989,-0.489837 0.954977,-1.221505 1.586826,-1.359401 0.560843,0.108053 1.192691,0.07821 1.651657,-0.200668"
         id="path111"
         inkscape:connector-curvature="0" />
      <path
         style="fill:#ffffff;fill-opacity:1;fill-rule:nonzero;stroke:none;stroke-opacity:1"
         d="m 58.687549,13.02596 c -1.264727,0.238744 -1.556983,2.167221 -3.133517,1.631076 l -0.315925,-0.0021 c 0.456907,-0.277848 0.215076,-0.841779 0.463082,-1.190633 0.776947,-0.801645 1.969639,-0.655517 2.98636,-0.438384"
         id="path113"
         inkscape:connector-curvature="0" />
      <path
         style="fill:#ffffff;fill-opacity:1;fill-rule:nonzero;stroke:none;stroke-opacity:1"
         d="m 44.190016,13.465373 c -0.74093,0.627732 -1.727808,1.358372 -2.778488,0.790325 -0.313866,-0.142011 -0.592744,-0.494982 -1.014663,-0.463081 1.025983,-1.255465 2.495494,-0.510418 3.793151,-0.327244"
         id="path115"
         inkscape:connector-curvature="0" />
      <path
         style="fill:#ffffff;fill-opacity:1;fill-rule:nonzero;stroke:none;stroke-opacity:1"
         d="m 48.04594,14.224826 c 0.06689,0.492925 -0.07615,0.912785 -0.394134,1.26164 0.805762,0.216104 1.11757,1.024953 1.640337,1.589912 0.319012,-0.454849 -0.379727,-1.125802 0.150244,-1.649598 0.458965,-0.487779 1.126831,-0.519681 1.75868,-0.655518 0.34268,1.335733 -0.958064,1.643424 -1.594029,2.448157 0.03293,0.41986 0.450733,0.878825 0.131721,1.332645 -0.520709,-0.844866 -1.110366,-2.076662 -2.125028,-2.503726 -0.631849,0.03087 -1.473628,-0.150244 -1.723692,0.58554 -0.07306,0.526884 -0.217134,1.157704 -0.815023,1.363517 -0.667866,0.136867 -1.226651,-0.28711 -1.964494,-0.116284 0.879855,-0.556727 1.273988,-1.853355 2.536657,-1.529198 l 0.316953,-0.348854 c -0.27682,-0.528942 -0.736814,-0.145099 -1.157703,-0.07718 -0.842808,0.06483 -1.330587,-0.569075 -1.923331,-1.100075 0.59686,-0.135837 1.406738,-0.481605 2.141493,-0.162593 0.559814,0.390017 0.73064,1.163878 1.572419,1.063029 0.246977,0.001 0.561872,0.0031 0.738872,-0.171855 -0.385901,-0.211988 -0.945715,-0.286081 -1.118599,-0.813994 -0.101878,-0.561872 0.426035,-0.874709 0.395163,-1.401593 0.417802,0.388989 1.156674,0.218163 1.433494,0.886029"
         id="path117"
         inkscape:connector-curvature="0" />
      <path
         style="fill:#ffffff;fill-opacity:1;fill-rule:nonzero;stroke:none;stroke-opacity:1"
         d="m 50.712259,14.452251 c -0.457936,0.277849 -1.195779,0.202726 -1.585796,0.797529 -0.662721,-0.354 -0.55364,-1.160791 -0.760483,-1.75868 0.698739,0.494982 1.788523,0.115256 2.346279,0.961151"
         id="path119"
         inkscape:connector-curvature="0" />
      <path
         style="fill:#ffffff;fill-opacity:1;fill-rule:nonzero;stroke:none;stroke-opacity:1"
         d="m 60.437996,13.739105 c -0.178029,0.524826 -0.744017,1.118599 -1.272959,1.430407 -0.596861,0.171855 -1.509645,0.306663 -2.033442,-0.18729 0.877797,-0.204785 0.816053,-1.469512 1.798814,-1.42732 0.561872,-0.06689 0.943657,0.426035 1.507587,0.184203"
         id="path121"
         inkscape:connector-curvature="0" />
      <path
         style="fill:#ffffff;fill-opacity:1;fill-rule:nonzero;stroke:none;stroke-opacity:1"
         d="m 44.066528,16.307663 c -0.317983,0.45382 -1.056855,0.835605 -1.794698,0.866477 -0.59686,-0.0031 -1.048622,-0.568047 -1.682528,-0.255209 0.423976,-0.489838 0.779005,-1.259582 1.446871,-1.326471 0.772832,-0.02984 1.330587,0.500128 2.030355,0.715203"
         id="path123"
         inkscape:connector-curvature="0" />
      <path
         style="fill:#ffffff;fill-opacity:1;fill-rule:nonzero;stroke:none;stroke-opacity:1"
         d="m 60.562513,16.512448 c -0.70697,0.662721 -1.970668,0.830459 -2.847435,0.544378 -0.349884,-0.213018 -0.662721,-0.529971 -0.69668,-0.95189 0.598918,-0.241831 1.33779,-0.518651 2.003598,-0.233598 0.523797,0.214046 0.871622,0.777976 1.540517,0.64111"
         id="path125"
         inkscape:connector-curvature="0" />
      <path
         style="fill:#ffffff;fill-opacity:1;fill-rule:nonzero;stroke:none;stroke-opacity:1"
         d="m 56.16427,18.065314 c -0.354,0.629791 -1.369692,0.236686 -1.444814,1.079494 0.844866,-0.451761 2.037558,-0.303575 2.71057,-1.318238 1.055825,-0.589657 1.963464,0.257267 2.981214,0.263442 -0.599947,0.593773 -1.235912,1.361459 -2.149726,1.321325 -0.631849,0.06586 -1.049651,-0.322099 -1.503471,-0.64111 -1.442756,0.447645 -2.780546,1.071261 -4.083348,1.871877 0.488808,0.317983 0.877796,0.0051 1.335732,-0.167738 1.088756,-0.274762 1.820424,0.642139 2.90918,0.50836 -0.776948,0.732698 -1.728837,1.498326 -2.849494,1.000256 -0.62979,-0.214046 -0.693593,-1.407767 -1.50347,-0.851041 l -0.248006,0.314896 c 0.02367,1.929505 -0.197582,3.68304 0.458965,5.336755 -1.051709,-0.0062 -2.279389,-0.329303 -3.333157,-0.01955 0.323128,-1.262668 0.438384,-2.876249 0.37664,-4.419854 -0.347826,-0.492924 -0.979674,-0.427063 -1.506558,-0.325186 -0.423977,0.522768 -0.986878,0.766657 -1.653715,0.727553 -0.63082,-0.110111 -1.224593,-0.46514 -1.750447,-0.748134 0.843837,-0.274761 1.620784,-1.043476 2.600459,-0.580395 0.522767,0.668895 1.439668,0.07821 2.069459,0.292256 -1.262669,-0.183175 -2.097244,-1.416 -3.573959,-1.039361 -0.811936,0.767686 -1.937738,1.182401 -3.057366,0.789297 l -0.315924,-0.107024 c 0.562901,-0.241831 1.234883,-1.151528 2.11268,-1.145354 0.631848,0.03808 1.26061,0.463081 1.893488,0.150244 -0.417803,-0.456907 -0.906611,-0.881912 -1.466424,-1.025982 -0.882942,0.731668 -2.178541,0.19861 -3.02032,0.158476 0.529971,-0.418831 0.919988,-1.117569 1.656802,-1.113453 0.842808,-0.135837 1.292512,0.919988 1.995366,0.889116 -0.06586,-0.631848 -0.13275,-1.369691 0.256239,-1.893488 0.52997,-0.523796 1.266784,-0.484692 1.795726,-0.936453 0.06689,0.666837 -0.0082,1.402622 -0.537174,1.89143 -0.317983,0.313866 -0.705942,0.592744 -1.196808,0.554668 -0.215076,0.875739 1.009517,1.409826 1.638279,1.799843 l 0.456906,0.107023 c 0.03808,-0.665808 -1.118598,-0.918959 -0.692563,-1.75868 L 48.58723,17.52814 c 0.452791,0.598918 1.185489,1.199895 0.690506,2.005656 -0.213017,0.347826 -0.531,0.592744 -0.881913,0.695651 0.346797,0.527913 0.73064,1.022896 1.397477,1.096989 0.280936,-0.208901 0.0031,-0.491896 0.04013,-0.772832 1.013633,0.428093 0.688447,2.074605 0.75225,3.093384 l -0.259326,2.419342 1.43761,0.07924 c -0.199639,-1.684587 -0.327244,-3.757134 -0.07203,-5.440691 -0.348854,-0.352971 -0.772831,0.101878 -1.156674,-0.146128 -0.630819,-0.320041 -0.802674,-0.987907 -0.622587,-1.654744 l 0.461023,-0.734756 c 0.451762,0.635965 1.396448,1.202982 1.321326,2.149727 l 0.173912,0.176999 c 0.529971,-0.628761 -0.237715,-1.474656 0.153332,-2.210441 l 1.307947,-1.500383 c 0.170826,0.666837 0.517622,1.440697 0.197582,2.141493 -0.285053,0.524826 -0.91793,0.731669 -1.165936,1.256494 0.668895,-0.521738 2.107534,-0.302546 2.291738,-1.565215 -0.313866,-0.457936 -0.06586,-0.948802 0.148186,-1.367633 0.422947,-0.454849 1.089784,-0.344738 1.513761,-0.833546 0.0319,0.526883 0.238744,1.159761 -0.151273,1.648569"
         id="path127"
         inkscape:connector-curvature="0" />
      <path
         style="fill:#ffffff;fill-opacity:1;fill-rule:nonzero;stroke:none;stroke-opacity:1"
         d="M 51.074492,18.28039 C 50.759596,18.032384 50.271817,17.573419 50.555841,17.012576 L 50.9438,16.66475 c 0.24286,0.386931 0.343709,1.124773 0.130692,1.61564"
         id="path129"
         inkscape:connector-curvature="0" />
      <path
         style="fill:#ffffff;fill-opacity:1;fill-rule:nonzero;stroke:none;stroke-opacity:1"
         d="m 57.558659,19.723145 c -0.20993,0.03396 -0.808848,0.380756 -0.881912,0.801645 -0.596861,-0.07306 -1.119628,-0.357087 -1.718547,-0.43118 0.533058,-0.874709 1.75868,-0.586569 2.600459,-0.370465"
         id="path131"
         inkscape:connector-curvature="0" />
      <path
         style="fill:#ffffff;fill-opacity:1;fill-rule:nonzero;stroke:none;stroke-opacity:1"
         d="m 31.717692,33.428294 -0.947773,-0.0051 c 0.03602,-0.210959 0.280936,-0.138925 0.38796,-0.24389 0.20993,0.001 0.420889,0.03705 0.559813,0.249035"
         id="path133"
         inkscape:connector-curvature="0" />
      <path
         style="fill:#ffffff;fill-opacity:1;fill-rule:nonzero;stroke:none;stroke-opacity:1"
         d="m 33.121343,33.36655 -0.843837,0.06483 c 0.177,-0.313866 0.633907,-0.241831 0.843837,-0.06483"
         id="path135"
         inkscape:connector-curvature="0" />
      <path
         style="fill:#ffffff;fill-opacity:1;fill-rule:nonzero;stroke:none;stroke-opacity:1"
         d="m 31.644629,33.814195 c -0.352971,0.172884 -0.527913,0.207872 -0.878826,0.09982 l -0.06998,-0.03602 c 0.177,-0.278878 0.739901,-0.380756 0.948803,-0.0638"
         id="path137"
         inkscape:connector-curvature="0" />
      <path
         style="fill:#ffffff;fill-opacity:1;fill-rule:nonzero;stroke:none;stroke-opacity:1"
         d="m 33.188233,33.822428 c -0.351942,0.103936 -0.527913,0.207872 -0.912785,-0.0051 0.214047,-0.348854 0.668895,-0.171854 0.912785,0.0051"
         id="path139"
         inkscape:connector-curvature="0" />
      <path
         style="fill:#ffffff;fill-opacity:1;fill-rule:nonzero;stroke:none;stroke-opacity:1"
         d="m 32.094332,34.870021 c -0.175971,0.06792 -0.280936,-0.07203 -0.455878,-0.109082 0.489837,0.179058 0.458965,-0.312837 0.531,-0.697709 -0.108052,0.314895 0.522767,0.668895 -0.07512,0.806791"
         id="path141"
         inkscape:connector-curvature="0" />
      <path
         style="fill:#ffffff;fill-opacity:1;fill-rule:nonzero;stroke:none;stroke-opacity:1"
         d="m 32.58314,35.188003 c -0.350913,0.137895 -0.876767,0.06483 -1.193721,0.0638 0.03705,-0.316953 0.878826,-0.205813 1.193721,-0.0638"
         id="path143"
         inkscape:connector-curvature="0" />
      <path
         style="fill:#ffffff;fill-opacity:1;fill-rule:nonzero;stroke:none;stroke-opacity:1"
         d="m 16.696364,50.710489 c 0.138924,0.38693 -0.322099,0.945715 -0.744018,1.118599 -0.38693,0.06895 -0.913814,0.169796 -1.262668,-0.04322 0.06689,0.38693 0.591715,0.775918 0.799587,1.198866 0.553639,1.33779 -0.194494,3.193203 1.134035,4.219185 l -0.286082,0.593773 c -0.523796,-0.527912 -1.751476,-0.466168 -1.604319,-1.553895 0.185232,-1.612552 -0.403396,-2.950342 -1.554924,-4.045272 -0.493954,0.24286 -0.812965,1.012604 -1.480832,1.079494 l -1.017749,-0.0062 c 0.915872,-0.450732 1.235912,-1.361459 1.348081,-2.273215 0.0041,-0.80679 -0.341651,-1.617697 -1.111395,-2.042703 -0.174942,-0.03602 -0.349884,-0.142011 -0.560843,-0.108052 0.423976,-0.45382 1.336761,-0.448674 1.931563,-0.234628 1.541547,0.571134 2.435808,3.595569 4.409564,2.097244"
         id="path145"
         inkscape:connector-curvature="0" />
      <path
         style="fill:#ffffff;fill-opacity:1;fill-rule:nonzero;stroke:none;stroke-opacity:1"
         d="m 53.300369,51.106681 c 1.21636,2.007715 -0.516593,4.138918 -0.03705,6.141487 0.207872,0.317983 0.488808,0.423977 0.803703,0.496012 -0.211988,0.314895 -0.878825,0.241831 -1.192692,0.0638 -0.911755,-0.322099 -1.081552,-1.305889 -1.321325,-2.07975 -1.239,1.74839 -3.867244,1.02907 -4.617435,3.237453 -0.948802,0.169797 -1.794698,0.6195 -2.534599,1.248262 0.04631,-1.860558 1.915099,-3.393872 3.498837,-4.085407 0.704913,-0.416773 1.756622,-0.270645 2.32261,-0.934395 -0.702855,-0.07306 -1.472599,-0.325186 -1.819395,-1.063029 -0.275791,-0.77386 -0.340622,-1.686645 0.190378,-2.350395 l 0.139953,0.001 c -0.14304,0.419861 -0.11011,0.805762 0.0638,1.193721 0.380755,0.703884 1.081552,0.91793 1.818366,0.923076 0.597889,-0.06689 1.162848,-0.624646 1.411883,-1.1505 0.426035,-0.978645 0.08233,-2.139436 -0.439413,-2.950343 0.701826,0.07409 1.29457,0.745047 1.712372,1.308977"
         id="path147"
         inkscape:connector-curvature="0" />
      <path
         style="fill:#ffffff;fill-opacity:1;fill-rule:nonzero;stroke:none;stroke-opacity:1"
         d="m 21.585658,52.42743 c -0.171093,-0.0108 -0.380169,0.04919 -0.512919,0.205814 -0.669924,0.48675 -0.675327,1.505076 -0.469513,2.136925 -0.525854,-0.07306 -0.240545,-0.807048 -0.76537,-0.881141 -0.174942,-0.316954 0.0708,-0.631406 0.213851,-0.876325 -0.211989,-8.23e-4 -0.42301,0.17276 -0.529004,0.38269 -0.07101,0.244919 -0.144265,0.629153 0.136671,0.807182 -0.149215,1.474657 1.107598,2.393678 1.873226,3.487579 0.344738,1.018778 -0.224008,2.243114 0.226724,3.157957 0.772831,-0.03087 0.814313,-1.187413 1.204331,-1.746197 -0.134808,-1.018779 -1.109142,-2.253539 -0.08521,-3.161179 -0.102907,-0.490866 0.323766,-1.541217 -0.447008,-1.651327 0.492925,-0.312837 0.04127,-1.087408 0.709101,-1.188257 -0.139953,-0.140982 -0.351046,-0.07183 -0.492029,-0.07389 -0.772831,0.135837 -0.953494,0.976721 -1.236488,1.572552 l -0.106128,-0.139891 c 0.530999,-0.66375 -0.550686,-1.723887 0.434133,-1.998649 -0.04394,-0.01801 -0.09735,-0.03025 -0.15436,-0.03375 z m 0.844167,1.968096 c 0.03396,0.174941 0.173717,0.317467 0.136671,0.527398 -0.281966,0.104965 -0.423843,0.417483 -0.459861,0.699448 -0.208901,-0.456907 0.07512,-0.879021 0.32319,-1.226846 z"
         id="path149"
         inkscape:connector-curvature="0" />
      <path
         style="fill:#ffffff;fill-opacity:1;fill-rule:nonzero;stroke:none;stroke-opacity:1"
         d="m 37.653366,55.820849 c -0.211988,0.314895 -0.881913,0.802674 -0.394134,1.26061 0.633907,-0.27682 0.782093,-1.434523 1.586826,-1.18343 -0.316954,0.278878 -0.881913,0.837663 -0.569076,1.329558 0.246977,-0.137896 0.635965,-0.767686 1.124773,-0.448675 -0.913814,0.450733 -1.096988,1.713401 -0.997168,2.591198 0.104965,-0.06998 0.213017,-0.313867 0.422947,-0.312837 0.349884,0.281965 0.735785,0.215075 0.877797,-0.169797 -0.110111,0.875738 -1.340878,1.254436 -1.067145,2.379209 -0.282995,0.455878 -0.706971,0.907639 -1.094931,1.257523 L 37.43829,62.382196 c 0.219192,-1.47054 -0.228453,-2.843319 -1.240028,-3.903261 -0.02881,-0.947773 0.151273,-1.858499 0.822226,-2.452272 0.177,-0.172884 0.387959,-0.242861 0.632878,-0.205814"
         id="path153"
         inkscape:connector-curvature="0" />
      <path
         style="fill:#ffffff;fill-opacity:1;fill-rule:nonzero;stroke:none;stroke-opacity:1"
         d="m 14.439614,58.278267 c -0.421919,-0.0031 -0.143041,0.41986 -0.03911,0.560843 1.266785,-0.378698 0.344739,1.054796 1.044506,1.479802 0.14407,-0.419861 0.494982,-0.733727 0.46411,-1.224593 -0.136866,-0.667866 -0.872651,-0.742988 -1.469511,-0.816052 z m -0.978645,-0.708 c -0.395163,1.576535 1.002314,2.638534 1.80293,3.730377 -0.02676,-1.438639 -1.883198,-2.116796 -1.696936,-3.730377 l -0.105994,0 z m 3.20761,-2.36686 c 0.03499,0.245948 0.524825,0.388988 0.770773,0.565988 l 0,-0.245947 C 17.61841,54.962605 16.952602,54.9235 16.668579,55.203407 Z m 8.120388,-1.987134 c -1.230767,0.342681 0.06277,1.22871 -0.712116,1.821454 0.03293,0.103936 -0.07306,0.279907 0.06689,0.314895 0.146128,-0.84075 1.198866,-0.974529 1.693849,-1.499354 l 0.59686,0.07409 -0.0021,0.17597 c -0.279907,-0.03705 -0.490866,0.03293 -0.631849,0.27682 0.485721,0.775919 -0.709029,1.048622 -0.643168,1.610494 0.458965,-0.24286 0.848982,-0.801645 1.442755,-0.551581 0.279907,0.107023 0.631849,0.03807 0.805762,0.32004 l -0.0021,0.209931 c -0.732698,-0.670954 -0.635965,0.768715 -1.37175,0.554668 -0.104965,0.139954 -0.351942,0.207872 -0.248006,0.418832 0.24389,0.317982 0.457936,-0.242861 0.80782,-0.02984 l 0.246977,-0.384872 c 0.06895,0.386931 -0.216105,0.911756 -0.568047,1.259582 -1.582709,0.411627 -1.558011,2.20118 -2.231023,3.320807 0.313866,0.108053 0.24389,0.281965 0.136866,0.527913 l -1.489063,2.448157 c -0.350913,0.03293 -0.628762,-0.425006 -1.014663,-0.533059 0.201698,1.439669 1.888343,1.275018 2.795982,1.983018 L 24.57492,65.428242 24.156089,64.90033 c 0.143041,-0.21096 0.214047,-0.42089 0.356058,-0.63082 3.184971,1.28325 8.056586,2.575761 11.367103,0.455878 2.292767,-1.812192 5.079487,-4.182139 4.046302,-7.416505 0.494982,-0.488808 0.291226,-1.718546 1.272959,-1.53743 -0.77489,0.451762 -0.182146,1.122715 -0.467198,1.857471 l 0.139954,0.107023 c 0.177,-0.245947 0.109081,-0.877796 0.498069,-1.191662 0.632878,-0.09982 1.200924,-1.290454 1.793669,-0.478518 -0.315925,0.0319 -0.598919,0.275791 -0.775919,0.555698 0.03396,0.210959 0.242861,0.422947 0.06586,0.631849 -0.280936,0.277848 -0.737843,0.171854 -0.880884,0.625674 -0.001,0.140982 -0.108052,0.350913 0.101878,0.421918 0.32107,-0.66375 1.093901,-0.72961 1.657831,-1.112424 0.348855,0.0031 0.771802,-0.03087 0.945715,0.322099 -0.246977,0.138924 -0.80782,-0.04013 -1.020837,0.379727 0.240802,0.738872 -1.162849,0.799587 -0.746076,1.574476 0.175971,-0.102907 0.456907,-0.207872 0.666838,-0.06586 l 0.138924,0.245947 c 0.279907,0.03705 0.492924,-0.312837 0.633907,-0.487779 l 0.140982,0.0021 c -0.714174,2.205297 -3.412394,1.208128 -4.581418,3.200407 -0.49704,0.698738 -0.958063,1.574476 -0.646255,2.453302 0.450732,0.669924 1.157703,0.07718 1.648569,-0.05969 3.271413,-1.174169 4.395157,-7.13454 8.558772,-4.757389 1.081552,0.953948 1.598145,2.396703 1.170052,3.868273 -0.430151,1.366604 -1.772058,2.831999 -3.316691,2.891685 -1.018779,0.134808 -1.82454,-0.220221 -2.52225,-0.891174 -0.03293,-0.562901 0.357088,-1.121686 0.91896,-1.223564 0.810906,-0.485721 0.556726,0.915872 1.296627,0.534087 0.456907,-0.348854 0.250064,-0.805761 -0.02881,-1.157703 0.425006,-0.559814 0.593773,0.598919 1.122715,0.0062 0.248006,-0.208901 0.461023,-0.627732 0.182146,-0.946744 -0.102907,-0.351941 -0.772832,-0.0051 -0.628762,-0.564959 0.280936,-0.103936 0.317983,-0.454849 0.215076,-0.699767 -0.24389,-0.317983 -0.560843,-0.179058 -0.876768,-0.11114 -0.527912,0.242861 0.205814,0.913814 -0.393104,1.015692 -0.207872,-0.317982 -0.69668,-0.636994 -1.08464,-0.323128 -0.352971,0.208901 -0.426035,0.735785 -0.182145,1.051709 0.207872,0.38693 0.877796,0.04116 0.87368,0.567018 -0.842808,-0.0051 -1.720604,0.16568 -2.076662,1.00643 -0.249035,0.558785 -0.113198,1.261639 0.09467,1.788523 0.138924,0.210959 0.66375,0.356058 0.380756,0.669924 -0.418832,-0.177 -0.839721,-0.180087 -1.262669,-0.0072 -0.633906,0.347825 -0.638023,1.084639 -0.711087,1.540517 -0.45279,-0.529971 -1.153587,-0.67507 -1.751476,-0.60818 -0.316954,0.207872 -0.703884,0.381784 -0.846924,0.766656 l -0.0021,0.456907 c -0.385901,-0.07203 -0.487779,-0.704912 -0.942627,-0.91793 -0.666837,-0.11011 -1.299715,0.133779 -1.583738,0.762541 -0.140983,0.138924 0.06689,0.527913 -0.317983,0.383843 -0.207872,-0.492925 -0.695651,-1.091843 -1.257523,-1.201954 -0.665808,0.03293 -1.298686,0.167739 -1.893488,-0.150244 -0.488808,-0.355029 -0.556727,-0.881912 -0.658605,-1.408796 -0.249034,0.559814 -0.951889,0.767686 -1.54772,0.587599 -0.559814,-0.352971 -0.73064,-0.95189 -1.184459,-1.409826 -0.284024,0.523797 -1.091843,0.554669 -1.687675,0.444558 -1.084639,-0.671982 -2.130174,-1.661947 -3.536912,-1.354255 -0.216104,0.874709 -1.234883,1.080523 -1.903779,1.498325 -0.489837,-0.32004 -1.471569,-0.43118 -2.03447,-0.189349 0.03807,-0.595831 -0.379727,-1.089784 -0.868535,-1.338819 -0.455878,-0.213018 -0.876767,-0.215076 -1.333674,-0.0062 0.109081,-0.771802 -0.06174,-1.545662 -0.620529,-2.109592 -0.418831,-0.249035 -0.836634,-0.744018 -1.328529,-0.747105 0.240802,0.98482 0.584512,2.004628 1.528168,2.642651 -0.59686,-0.109081 -1.155645,-0.46411 -1.538459,-0.956006 -0.0051,0.700797 0.517622,1.335733 1.147413,1.796756 -0.385901,0.136866 -0.805761,-0.217134 -1.154616,-0.463081 -0.41986,-0.388989 -0.556727,-0.881913 -0.869564,-1.340878 -0.146128,0.80679 -0.04528,1.650627 0.371494,2.285563 l -0.06998,0.06792 c -1.538459,-0.886029 -0.438383,-3.055308 -1.554924,-4.116278 0.170826,0.844866 -0.117314,2.072546 0.228454,2.915354 -0.838692,-0.602006 -0.128634,-1.931564 -0.791355,-2.671465 -0.246976,0.313866 -0.04013,0.946744 -0.184203,1.331616 0.03499,0.175971 0.173913,0.351942 0.102907,0.561872 -0.523797,-0.458965 -0.377669,-1.405709 -0.479547,-2.002569 -0.597889,0.240802 -0.219191,1.297657 -0.325186,1.577563 -0.764598,-1.233854 0.435297,-2.384354 -0.04837,-3.615121 0.674041,-1.189605 -1.675325,-1.659889 -0.930279,-2.778488 -0.346796,-0.774889 -1.678412,-1.272959 -1.250319,-2.287622 0.35297,-0.349883 0.600976,-0.768715 0.570104,-1.261639 0.559814,-0.06586 0.450733,0.705942 0.834576,1.023924 0.449703,1.300744 1.054796,-0.380756 1.825569,0.01029 l -0.324157,1.331616 c 0.626704,0.880884 1.677384,1.308977 2.586052,1.839976 0.180087,-0.663749 0.395163,-1.331616 0.958064,-1.819395 -0.27682,-0.632877 -1.011576,-0.882941 -1.571389,-1.166965 0.0051,-0.877796 1.967581,-0.444558 0.884999,-1.433494 l 0.177,-0.20993 c 0.627733,0.810907 1.573448,1.133006 2.343192,1.664006 -0.284023,0.348854 -0.742988,0.732697 -0.711087,1.259581 0.06792,0.526884 0.274761,1.054796 0.800616,1.267814 0.06998,0.001 0.174942,0.001 0.20993,0.07203 -0.352971,0.312837 -0.952918,0.836633 -0.711087,1.433494 0.207872,0.457936 0.626703,0.951889 1.010546,1.234883 -0.561872,0.136866 -1.368662,-0.07821 -2.035499,-0.08233 0.942627,0.777976 1.809104,2.818621 3.531767,2.233081 1.515819,-1.219448 1.598145,-3.253919 2.626185,-4.793407 -0.170825,-0.772831 -1.010546,-1.303831 -0.864418,-2.215586 0.217133,-0.981733 0.12143,-2.736297 1.525081,-2.588111 z"
         id="path155"
         inkscape:connector-curvature="0" />
      <path
         style="fill:#ffffff;fill-opacity:1;fill-rule:nonzero;stroke:none;stroke-opacity:1"
         d="m 43.871004,60.737743 c -0.319011,0.66375 -0.990994,1.362488 -1.59197,1.988163 l -0.485721,-0.631849 c 0.703884,-0.452791 1.234883,-1.257523 2.077691,-1.356314"
         id="path157"
         inkscape:connector-curvature="0" />
      <path
         style="fill:#ffffff;fill-opacity:1;fill-rule:nonzero;stroke:none;stroke-opacity:1"
         d="m 20.423654,61.226551 c -0.07101,0.245948 -0.248006,0.455878 -0.355029,0.700797 -0.314896,-0.143041 -0.559814,-0.390018 -0.838692,-0.602006 0.280936,-0.207872 0.80782,-0.06483 1.193721,-0.09879"
         id="path159"
         inkscape:connector-curvature="0" />
      <path
         style="fill:#ffffff;fill-opacity:1;fill-rule:nonzero;stroke:none;stroke-opacity:1"
         d="m 21.897281,61.30579 c 0.06792,0.281965 -0.321069,0.805761 -0.708,0.942627 l -0.630819,-0.07204 c 0.0041,-0.702854 0.639052,-1.189604 1.338819,-0.870592"
         id="path161"
         inkscape:connector-curvature="0" />
      <path
         style="fill:#ffffff;fill-opacity:1;fill-rule:nonzero;stroke:none;stroke-opacity:1"
         d="M 41.715104,63.320708 40.692208,63.9824 c -0.313866,-0.319012 -0.379726,-0.880884 -0.412656,-1.37175 l 0.879854,-0.310779 c 0.348855,0.213017 0.452791,0.633907 0.555698,1.020837"
         id="path163"
         inkscape:connector-curvature="0" />
      <path
         style="fill:#ffffff;fill-opacity:1;fill-rule:nonzero;stroke:none;stroke-opacity:1"
         d="m 40.129307,64.294208 c -0.211988,0.174942 -0.526883,0.171854 -0.772831,0.06586 -0.171854,-0.528942 0.07718,-1.01775 0.394134,-1.367633 l 0.378697,1.301773 z"
         id="path165"
         inkscape:connector-curvature="0" />
      <path
         style="fill:#ffffff;fill-opacity:1;fill-rule:nonzero;stroke:none;stroke-opacity:1"
         d="m 6.4766733,37.581619 c 1.8060172,-2.622069 5.2719237,-1.126831 7.4576677,-2.764081 2.217645,-0.968354 3.91561,-3.274499 4.770766,-5.37483 1.595058,-2.483145 4.711081,-1.340878 6.651906,-3.013116 3.059424,-1.245174 2.384355,-5.602255 6.035493,-5.755586 1.686646,-0.164652 3.191145,0.686389 3.988674,2.094156 0.795471,2.041674 2.818622,3.913552 4.886023,4.592738 2.139435,0.223308 4.55672,0.974529 5.349104,3.226133 1.52611,3.132488 4.709022,5.18754 8.076138,5.383063 4.703877,-0.182145 4.038069,5.570354 7.959853,6.997673 C 59.318368,57.483825 46.015586,73.619636 31.638454,77.359275 17.376579,73.588764 4.4977725,57.363424 2.0928368,42.923519 4.1015807,41.744206 5.6225456,39.68195 6.4766733,37.581619 Z M 1.1604998,1.3635145 62.669019,1.209154 l -0.0093,39.039813 c 0.01132,0.117314 0.01132,0.227425 -0.09262,0.285053 -1.313093,-3.30743 -4.737836,-5.855406 -8.282981,-5.981982 -4.42397,0.255209 -4.040128,-5.077429 -7.435028,-6.606627 -1.53743,-1.202982 -3.501924,-1.461279 -5.358366,-1.928476 -1.574476,-0.886029 -1.598145,-2.675581 -2.924615,-3.807558 -0.217134,-0.246976 -0.446617,-0.483662 -0.687419,-0.704912 -0.23257,-0.213018 -0.47543,-0.413686 -0.72961,-0.598919 -0.245948,-0.180087 -0.503215,-0.346796 -0.768715,-0.499099 -0.261384,-0.149215 -0.531,-0.284023 -0.806791,-0.403395 -0.27579,-0.120401 -0.557755,-0.225366 -0.844866,-0.315924 -0.289168,-0.09159 -0.582453,-0.167739 -0.878825,-0.23257 -0.301518,-0.0638 -0.606122,-0.115256 -0.912785,-0.15436 -0.19964,-0.0247 -0.400308,-0.05248 -0.600977,-0.06072 -0.19861,-0.0062 -0.39825,0.01132 -0.59686,0.01441 -0.09262,0.001 -0.184204,0.001 -0.275791,0.0051 -0.300488,0.01544 -0.600976,0.04322 -0.898377,0.08747 -0.294314,0.04322 -0.585541,0.100849 -0.873681,0.171854 -0.28711,0.07101 -0.568046,0.15539 -0.846924,0.254181 -0.274761,0.09879 -0.546436,0.208901 -0.811936,0.333418 -0.264471,0.124518 -0.523796,0.261384 -0.774889,0.410599 -0.253151,0.149215 -0.49807,0.310779 -0.733727,0.483663 -0.238744,0.174941 -0.468226,0.360174 -0.688447,0.555697 -0.222279,0.198611 -0.434268,0.406483 -0.636994,0.624645 -0.205814,0.22125 -0.399279,0.450733 -0.582454,0.690506 -0.170825,0.223308 -0.332389,0.452791 -0.483663,0.690506 -0.428092,1.225622 -1.384098,2.624127 -2.859784,2.754819 -3.264209,0.156419 -6.508865,2.663232 -7.72008,5.710307 -1.566244,3.675837 -6.0818014,1.612552 -8.5515685,3.879593 -1.7617671,1.00643 -3.0131158,2.788778 -3.7962377,4.504237 L 1.1604998,1.3635145 Z m 2.5510635,53.0279565 0.0072,0.0041 c 0,0 0.1697965,0.816052 1.4159998,3.052221 l 1.1844591,2.006685 c 0.8510405,1.374837 1.9706683,3.075889 3.4628192,5.178279 1.3480811,1.627988 2.7754011,3.146894 4.2829881,4.548487 3.632615,3.134546 8.190365,5.942877 11.736538,7.91972 1.95832,0.907639 3.970151,1.669151 6.024174,2.269098 8.508347,-2.5099 16.470259,-7.516324 22.379176,-15.166427 0,0 4.547459,-6.267034 6.395668,-10.647784 1.61461,-4.115249 2.896831,-8.546423 3.333156,-13.125782 L 63.934774,0.00308447 0.01514532,-2.7408e-6 0.00794183,36.22016 c -0.10187789,5.193714 0.7820929,10.007702 2.29894147,14.543841 0.383843,1.234883 0.9827615,2.428604 1.40468,3.62747 z"
         id="path167"
         inkscape:connector-curvature="0" />
      <path
         style="fill:#ffffff;fill-opacity:1;fill-rule:nonzero;stroke:none;stroke-opacity:1"
         d="m 41.105894,71.249689 c -0.09262,0 -0.405453,0.371494 -0.488808,0.440442 -0.166709,0.138924 -0.337534,0.270645 -0.514534,0.395163 -0.349884,0.248005 -0.718291,0.469255 -1.099047,0.66375 -0.766657,0.387959 -1.584767,0.667866 -2.42243,0.856185 -1.190633,0.2655 -2.419342,0.348855 -3.637761,0.307692 -0.615383,-0.02058 -1.22768,-0.07409 -1.837918,-0.155389 -0.301517,-0.04013 -0.603035,-0.08747 -0.903523,-0.139954 -0.263442,-0.04734 -0.634936,-0.05454 -0.858244,-0.207872 -0.2655,-0.184203 -0.402366,-0.371494 -0.723436,-0.482633 -0.315924,-0.108053 -0.647285,-0.157448 -0.974529,-0.222279 -0.741959,-0.151274 -1.173139,-0.445588 -1.507587,-1.122715 -0.01749,-0.03499 -0.03602,-0.07306 -0.06277,-0.09982 -0.109082,-0.118343 -0.325186,-0.137895 -0.472343,-0.187291 -0.214047,-0.07203 -0.423977,-0.153331 -0.624645,-0.258296 -0.236686,-0.123489 -0.703884,-0.383843 -0.790326,-0.659634 -0.04837,-0.153331 0.04219,-0.301517 -0.02778,-0.451761 -0.05351,-0.113198 -0.183174,-0.191407 -0.291226,-0.242861 -0.201698,-0.09776 -0.464111,-0.185232 -0.511448,-0.435296 -0.236686,-1.264727 1.377924,-1.395419 2.083866,-1.988163 0.153331,-0.100849 0.340622,-0.193465 0.518651,-0.29843 -0.279907,0.281965 -0.559814,0.564959 -0.839721,0.846924 -0.167738,0.168768 -0.33136,0.340622 -0.502186,0.505274 -0.244918,0.237715 -1.034215,0.620528 -0.69668,1.012604 0.213018,0.250064 0.439413,0.487779 0.674041,0.717262 0.05969,0.0566 0.135837,0.105994 0.223308,0.148186 0.02058,0.06174 0.05351,0.114226 0.112168,0.15436 0.480576,0.190378 0.965268,0.315924 1.454076,0.400308 0.178029,0.119372 0.29843,0.278878 0.310779,0.506302 0.0041,0.07718 -0.0051,0.151274 -0.0082,0.226396 -0.0031,-0.001 -0.0062,0 -0.0093,0 0,0.01235 0.0072,0.01852 0.0082,0.02984 0,0.01235 -0.0021,0.02367 -0.001,0.03499 0.0021,0.0247 0.01852,0.04837 0.02573,0.07203 0.01029,0.03293 0.01749,0.07203 0.03499,0.100849 0.263442,0.451761 1.365576,0.753279 1.726779,0.880883 0.469256,0.16671 0.944686,0.317983 1.426291,0.445587 3.400045,0.616413 7.33212,0.499099 10.010789,-1.519935 -0.525855,-0.0391 -1.299715,0.343709 -1.788523,-0.150245 l -0.381785,-0.77386 -1.051709,-0.112168 -0.966297,-0.05866 c -0.193465,-0.0494 -0.369436,-0.143041 -0.506302,-0.336506 l -0.100849,-0.632878 c -0.395162,-0.06174 -0.789296,-0.118343 -1.184459,-0.170826 0.0093,-0.0041 0.01852,-0.0082 0.02676,-0.01132 -0.384872,-0.213018 -0.875738,-0.287111 -1.118599,-0.777977 -0.02058,0.0082 -0.04322,0.01646 -0.0638,0.02676 -0.09673,-0.01544 -0.195523,-0.01955 -0.291227,-0.03808 -0.376639,-0.07409 -0.763569,-0.155389 -1.125802,-0.284023 -0.504244,-0.180087 -0.904552,-0.513506 -1.195779,-0.960122 0.0082,-0.05454 0.0041,-0.06895 -0.01749,-0.0247 -0.02881,0.02779 -0.06072,0.04734 -0.09056,0.07306 -0.192436,0.177 -0.739901,0.120402 -1.080523,0.06792 0.0041,-0.0041 0.0082,-0.0051 0.01235,-0.0082 -0.02984,0.001 -0.0566,-0.0031 -0.08644,-0.0041 -0.04116,-0.0062 -0.08027,-0.01235 -0.11114,-0.01852 -0.434267,-0.07615 -0.817081,-0.259326 -1.196808,-0.461023 -0.140982,-0.07924 -0.281965,-0.160535 -0.426034,-0.229483 -0.23257,-0.124517 -0.438384,-0.282994 -0.57525,-0.399279 0.0051,-0.02058 0.01338,-0.03807 0.01544,-0.05969 -0.384872,-0.143041 -0.698739,-0.496011 -1.190634,-0.393104 -0.923075,1.679441 -3.868272,1.381011 -3.777714,3.836371 1.356313,2.07975 3.522505,3.531767 5.658853,4.387953 3.778744,1.741186 8.908656,1.105221 12.290179,-1.048622 0.599947,-0.488808 1.478773,-0.869564 1.764854,-1.711343 l -0.244919,0"
         id="path169"
         inkscape:connector-curvature="0" />
      <path
         style="fill:#ffffff;fill-opacity:1;fill-rule:nonzero;stroke:none;stroke-opacity:1"
         d="m 39.75061,62.992435 c 0,0 0.161564,-0.252122 0.528942,-0.381785 0.367377,-0.129663 1.513761,-0.517622 1.513761,-0.517622 l 0.744017,0 -0.257267,0.633907 -0.565988,0.593773 c 0,0 -1.336762,0.853099 -1.584768,0.9735 -0.248005,0.120401 -0.378697,-1.301773 -0.378697,-1.301773"
         id="path171"
         inkscape:connector-curvature="0" />
      <path
         style="fill:#ffffff;fill-opacity:1;fill-rule:nonzero;stroke:none;stroke-opacity:1"
         d="m 19.229933,61.325342 0.838692,0.603035 0.489837,0.246976 0.630819,0.07409 0.708,-0.942627 -1.473627,-0.07924"
         id="path173"
         inkscape:connector-curvature="0" />
      <path
         style="fill:#ffffff;fill-opacity:1;fill-rule:nonzero;stroke:none;stroke-opacity:1"
         d="m 35.642564,63.31865 c -0.07101,0.210959 -0.284023,0.560843 -0.56393,0.312837 -0.732698,-0.635965 -0.831488,-1.54875 -1.636221,-2.149726 0.861331,-1.964494 -0.40957,-3.712884 -0.228453,-5.666058 l -0.0041,-0.0041 0.105995,-1.004372 -0.165681,-0.522767 0.0021,-0.0072 c -0.156419,-0.469255 -0.262413,-0.987907 -0.289169,-1.433494 0.667866,-0.0319 1.298686,0.113198 1.965523,0.04734 l -0.148186,1.156675 c 0,0 0.179058,1.548749 0.270645,1.930534 0.0051,0.02264 0,0.0494 0,0.07512 0.720349,1.933622 -1.356314,3.84975 0.280936,5.579616 0.312837,0.491895 0.660663,1.056854 0.410599,1.685616 z m -2.693075,-1.455105 c -0.172884,-0.0247 -0.368407,-0.05866 -0.561872,-0.06689 l -0.001,0 -1.014663,-0.08233 -0.560843,-0.179058 c -0.798558,-1.653715 0.335477,-3.332127 0.520709,-4.980697 -0.482633,-1.406738 0.296372,-2.559296 0.584512,-3.786976 0.452791,0.56393 0.376639,1.546692 0.82943,2.216616 -0.572163,1.716488 0.36532,3.336244 0.461023,5.055819 -0.180087,0.560843 -0.46411,1.26061 -0.257267,1.823511 z m 2.600459,-0.68536 c -0.939541,-1.33882 0.157447,-2.807302 0.06174,-4.281959 -0.09776,-1.333674 -0.685361,-2.741441 -0.08027,-4.03704 l 0.491896,-0.311808 c -0.195524,-2.248517 -0.253151,-4.564953 -0.977616,-6.534592 l -0.426035,0.769744 c 0.149215,0.86339 0.304604,1.755593 0.394133,2.647796 l 0.0093,0.01955 c 0,0 0.363262,1.938767 0.37664,1.93568 -0.001,0.04837 0.0062,0.09879 0.01441,0.150244 l 0.02984,0.158477 c 0.0391,0.19861 0.0638,0.396191 -0.120402,0.533058 -1.230767,0.377668 -2.597371,0.01955 -3.896057,0.01132 0,0 -0.625674,1.901721 -0.625674,1.90275 -0.07101,0.211988 -0.216105,2.094157 -0.224338,2.100331 0.06071,1.16182 -0.491895,2.216616 -0.597889,3.392843 -0.0041,0.702854 0.483663,1.336761 0.127605,2.037557 -0.948803,0.30975 -1.416,1.956262 -2.534599,1.248262 -0.03293,-0.210959 0.03705,-0.350913 0.07306,-0.526884 1.763825,-1.39336 1.638279,-3.885767 1.333674,-5.853348 -0.774889,0.627733 -0.324157,1.64857 -0.365319,2.525337 0.138924,0.963209 -0.372524,1.666064 -0.892204,2.359657 l -0.700796,-0.158477 -0.771802,-0.07512 -1.349111,2.590168 c 0.01441,-0.02779 1.138151,0.526884 1.241058,0.582453 0.384872,0.207873 0.816053,0.325186 1.244145,0.434268 0.989965,0.250064 2.016977,0.339593 3.036785,0.370465 0.993052,0.0319 1.959348,0.22125 2.945197,0.01647 1.488035,-0.30975 2.802157,-1.12786 3.788005,-2.277331 -1.01775,-0.112169 -1.117569,-1.024953 -1.605348,-1.729866"
         id="path175"
         inkscape:connector-curvature="0" />
      <path
         style="fill:#ffffff;fill-opacity:1;fill-rule:nonzero;stroke:none;stroke-opacity:1"
         d="m 39.97186,38.075572 c -1.088756,-0.04116 0.07615,-1.086697 -1.009518,-1.268842 l -0.388988,0.311808 c -0.488808,-0.38693 -0.274761,-0.877797 -0.02779,-1.297657 1.12889,-0.72961 1.400564,0.640081 1.677384,1.307947 l -0.251093,0.946744 z m -8.586557,-2.121941 c -0.836634,-0.811936 -1.251349,-2.008744 -0.858244,-3.164389 0.673011,-0.872651 2.496523,-0.792384 2.983273,0.193465 0.168767,0.948802 -0.01235,1.895546 -0.543349,2.594284 -0.352971,0.523797 -1.055825,0.625675 -1.58168,0.37664 z m -0.251093,1.015692 0.07409,-0.701826 c 0.420889,0.213018 1.052738,0.147157 1.509645,0.0093 l 0.170826,0.632878 c -0.38796,0.313866 -1.229738,0.238744 -1.754564,0.05969 z m -1.508616,-0.07924 c -1.19475,0.133779 -1.185488,-1.234883 -1.778232,-1.83586 l 0.462052,-1.014663 c 0.238744,0.843838 1.220477,1.375867 1.565215,2.220733 0.138924,0.105994 0.314895,0.142011 0.490866,0.14304 0.313866,0.352971 -0.492924,0.312838 -0.739901,0.48675 z m -0.967325,3.293023 c -0.07615,0.465139 -0.189349,0.922046 -0.291227,1.38307 -0.09262,0.410598 -0.09879,0.938511 -0.310779,1.308976 -0.242861,0.428093 -0.879855,0.360174 -1.302802,0.315924 -1.19475,-0.125546 -2.37818,-0.228453 -3.551319,-0.478517 0.213017,-0.314895 0.634935,-0.592744 0.568046,-1.049651 0.268587,0.01544 0.401337,0.136866 0.463081,0.306663 l 0.552611,0.12143 c 0.551581,-0.04013 1.075377,-0.105994 1.631075,-0.109081 0.03705,0 0.07615,-0.001 0.108052,-0.02161 0.03087,-0.02058 0.04528,-0.06895 0.01955,-0.0957 0.02161,0.02367 0.04219,0.04837 0.0638,0.07203 0.249035,0.281965 0.683302,-1.399535 0.697709,-1.467454 0,0 0.161564,-0.819139 0.161564,-0.820168 0.04013,-0.197581 -0.104965,-0.50939 -0.08747,-0.731669 0.0319,-0.39722 0.225366,-0.786209 0.524826,-1.05068 0.08232,-0.071 0.834575,-0.538203 0.83972,-0.349883 0,0 0.02778,1.122715 0.02778,1.123744 0.01338,0.515564 -0.0319,1.033186 -0.114226,1.542575 z m -6.403901,2.594284 c -0.245947,0.06895 -0.420889,-0.07306 -0.559813,-0.249034 0.03807,-0.666837 0.07821,-1.403651 0.747104,-1.715459 0.351942,0.07306 0.629791,0.355029 0.768715,0.635965 0.06483,0.667866 -0.533058,0.944686 -0.956006,1.328528 z m -0.813994,1.082582 c -0.244918,0.103936 -0.349883,-0.178029 -0.383843,-0.317983 0.03705,-0.314895 0.457936,-0.347825 0.631849,-0.135837 -0.001,0.20993 -0.0031,0.489837 -0.248006,0.45382 z m 0.445588,-3.997936 c -0.03396,-0.139953 0.07306,-0.385901 0.214046,-0.559814 0.837663,0.635965 1.678413,1.202983 2.623098,1.594029 0.102907,0.21096 -0.178029,0.385901 -0.250063,0.559814 -0.838692,-0.600977 -1.676355,-1.166965 -2.587081,-1.594029 z m 2.770255,0.33239 2.552092,-4.126569 c 0.349884,0.178029 0.48675,0.669924 0.766657,0.987906 -1.584767,0.868535 -0.893232,2.662204 -1.533313,4.061738 -0.282994,0.208901 -0.772832,0.135837 -1.159762,0.239773 0.105994,-0.245947 0.317983,-0.420889 0.320041,-0.700796 l -0.945715,-0.462052 z m 4.798551,-9.937725 c -1.425261,3.359912 -3.128371,6.612801 -5.428342,9.617684 -0.20993,-0.001 -0.348854,-0.211988 -0.559814,-0.317982 1.46025,-3.326982 3.653198,-6.331866 5.988156,-9.299702 z m 0.632878,-0.136867 c 0.809878,-0.591715 2.039616,-0.689476 2.985331,-0.334447 0.664779,0.215075 1.363517,0.852069 1.710314,1.519936 0.520709,0.986877 0.476459,2.460505 -0.231541,3.333156 l -0.105994,0.139953 c 0.359145,-1.261639 -0.01955,-2.633389 -0.890145,-3.621295 -0.944686,-0.496012 -1.857471,-0.396192 -2.875221,-0.33239 -0.285052,0.559814 -1.232825,0.624645 -0.957034,1.398506 -0.98482,0.415744 -0.112169,1.22768 -0.397221,1.892459 0.314895,0.177 -0.108053,0.455877 0.101878,0.702854 -1.74839,-1.20504 0.368407,-3.156156 0.659633,-4.698732 z m 24.700758,14.835068 c -0.01029,-0.03293 -0.02779,-0.06174 -0.04939,-0.08747 -0.0638,-0.07821 -0.161564,-0.131721 -0.253152,-0.178029 -4.930272,-2.52225 -9.537417,-5.672232 -13.678393,-9.348068 0.09982,-0.171855 0.19964,-0.34371 0.300489,-0.515564 0.794441,0.129662 0.965267,1.340877 1.729866,1.59197 0.407511,0.133779 0.897348,-0.09776 1.052738,-0.498069 0.15436,-0.39825 -0.05248,-0.901465 -0.443529,-1.074349 -0.580395,-0.260355 -1.473628,0.08541 -1.762796,-0.479546 -0.201698,-0.396192 0.146127,-0.850012 0.502186,-1.113454 0.357087,-0.264471 0.791354,-0.54129 0.835604,-0.982761 0.04219,-0.430151 -0.377669,-0.821198 -0.808849,-0.813994 -0.432209,0.0062 -0.815023,0.350912 -0.941598,0.764598 -0.146128,0.47646 -0.08644,1.14021 -0.55364,1.308977 -0.354,0.127605 -0.71829,-0.178029 -0.909697,-0.500128 -0.192436,-0.323128 -0.326215,-0.708 -0.643169,-0.908668 -0.339593,-0.214047 -0.838692,-0.12246 -1.078465,0.19861 -0.239773,0.323128 -0.18729,0.826343 0.114227,1.089785 0.352971,0.30975 0.881913,0.257267 1.334703,0.374581 0.45382,0.118343 0.883971,0.682273 0.555698,1.016721 -0.284023,0.292256 -0.760483,0.04734 -1.131977,-0.12143 -1.002314,-0.454849 -2.290709,-0.157448 -2.992534,0.690505 -0.372523,0.451762 -0.596861,1.038332 -1.071262,1.379983 -0.476459,0.341651 -1.354255,0.183174 -1.373808,-0.402366 1.71443,-0.891175 2.530483,-3.193203 1.760739,-4.96629 -0.769744,-1.772058 -3.007971,-2.746587 -4.830453,-2.10239 0.192436,-0.30872 0.214046,-0.716232 0.05763,-1.044505 0.03499,0.07409 -0.476459,0.676099 -0.540262,0.763569 -0.204785,0.282995 -0.415744,0.563931 -0.628761,0.841779 -0.428093,0.554669 -0.87368,1.098018 -1.332645,1.62593 -0.897349,1.034215 -1.841006,2.061227 -2.900948,2.930791 -0.350912,0.28711 -0.712116,0.579366 -1.095959,0.822226 -0.312837,0.196552 -0.673011,0.267558 -0.998197,0.457936 -2.659116,1.565215 -4.978639,3.619238 -7.459726,5.438633 -1.221505,0.895291 -2.487261,1.741186 -3.842546,2.425517 -0.664779,0.335477 -1.350139,0.631849 -2.0560807,0.87368 -0.3323895,0.116285 -0.8181104,0.122459 -0.5289418,0.552611 0.1975813,0.296372 0.5598138,0.459994 0.8757385,0.593773 1.175197,0.499098 2.356569,0.999226 3.600714,1.285308 2.69925,0.616412 5.515813,0.179058 8.242848,-0.303576 1.532284,-0.272703 3.321836,-0.769744 3.839458,-2.238226 -0.04734,0.134808 -0.403395,0.314895 -0.521738,0.391046 -1.066116,0.690506 -2.318494,1.023924 -3.562639,1.213273 -0.627732,0.09468 -1.26061,0.154361 -1.895546,0.203756 -0.624645,0.04734 -1.240029,0.171855 -1.864674,0.205814 -1.445843,0.08027 -2.852581,-0.116285 -4.278872,-0.33239 -0.625674,-0.09467 -1.280162,-0.155389 -1.853354,-0.446616 -0.341651,-0.173913 -0.727552,-0.376639 -1.018779,-0.622587 0.794442,-0.4425 1.694878,-0.730639 2.503727,-1.173139 0.803703,-0.440442 1.58065,-0.927192 2.337017,-1.440698 1.560069,-1.056854 3.03061,-2.237197 4.482627,-3.435034 0.413686,-0.341651 0.825314,-0.684331 1.237971,-1.027011 1.071261,-0.889117 2.201179,-1.798814 3.56058,-2.100332 -0.659633,1.154617 -1.318238,2.309233 -1.975813,3.464878 l -0.94057,-0.641111 c -0.249035,0.478518 -0.49807,0.956006 -0.746075,1.433494 0.272703,0.159506 0.543348,0.316954 0.816052,0.475431 -0.371494,0.860302 -0.744018,1.720604 -1.11757,2.579877 -0.07718,0.180087 -0.155389,0.366349 -0.157447,0.560843 -0.0051,0.470285 0.534087,0.858244 0.978645,0.702855 0.444558,-0.15539 0.624645,-0.794442 0.327244,-1.158733 1.247232,0.03911 2.490348,0.187291 3.711854,0.444558 0.63082,0.13275 1.287366,0.294314 1.908924,0.126576 0.622587,-0.167739 1.174168,-0.803704 0.992023,-1.422174 0.974529,2.009773 -0.09879,4.343702 -0.50836,6.539737 -0.33239,1.787494 -0.203756,3.6604 0.370465,5.385121 0.149215,-0.698738 0.49704,-1.354255 0.994081,-1.867761 -0.302546,-0.01544 -0.624645,-0.03602 -0.866477,-0.220221 -0.137895,-0.103936 -0.216104,-0.279907 -0.230511,-0.448674 0,0 0.0051,-0.03396 0.01132,-0.09159 0.0041,-0.02573 0.0031,-0.05145 0.01132,-0.07512 0.142012,-1.031127 0.923076,-6.50372 1.501413,-6.353475 0.0638,0.001 0.120401,0.02881 0.173913,0.06483 0.583482,0.243889 1.152558,0.893232 1.152558,0.893232 0.277848,0.87471 0.379726,1.80293 0.29843,2.716744 0.62979,-1.546692 1.477744,-3.005912 2.506813,-4.322092 -0.781063,0.361203 -1.496267,0.86236 -2.104447,1.47054 -1.104192,-0.554668 -1.942883,-1.600203 -2.263953,-2.792895 l -0.03808,-0.0051 c 0,0 -0.0082,-0.07924 -0.02264,-0.218163 -0.0957,-0.922046 -0.445587,-4.527906 -0.175971,-5.39747 l 5.135057,-0.07924 c 0.0957,2.176482 -0.0072,4.362226 -0.308721,6.519156 0.625675,-0.802675 0.990994,-1.804988 1.032157,-2.823767 0.138925,0.363261 0.828401,0.03499 0.635965,-0.300489 -0.117314,-0.203755 -0.354,-0.263441 -0.513506,-0.420889 -0.17597,-0.173913 -0.251093,-0.655517 -0.233598,-0.893232 0.02161,-0.280936 0.07409,-0.563931 0.22125,-0.80782 0.164651,-0.275791 0.438383,-0.499099 0.723436,-0.585541 0.139953,0.153332 0.282994,0.295343 0.427063,0.441471 0.190378,0.195523 0.143041,0.439413 0.143041,0.690506 0.120401,0.01852 0.240802,0.0391 0.358116,0.0638 0.261384,-0.902494 -0.301517,-1.961406 -1.195779,-2.249546 0.239774,-0.491895 0.490867,-0.998197 0.902494,-1.359401 0.412657,-0.361203 1.031128,-0.543349 1.518907,-0.293285 -0.636994,0.529971 -0.515564,1.708256 0.216105,2.098273 -5.206063,8.896307 -10.361702,17.821428 -15.464858,26.776391 0.07615,0.264471 0.441471,0.343709 0.686389,0.22125 0.246977,-0.122459 0.397221,-0.373552 0.535116,-0.611267 4.928215,-8.528929 9.8554,-17.057858 14.783614,-25.586787 0.452791,-0.07101 0.831489,0.427064 0.817082,0.883971 -0.0093,0.299459 -0.146128,0.544378 -0.257268,0.810907 -0.09879,0.240802 -0.175971,0.488808 -0.230511,0.741959 -0.04837,0.219192 -0.135838,0.427064 -0.244919,0.623616 -0.08335,0.150244 -0.166709,0.34268 -0.316953,0.445587 -0.202727,0.140983 -0.480576,0.03293 -0.693593,-0.02881 -0.06895,-0.02058 -0.29843,-0.136866 -0.360175,-0.114226 l -0.214046,0.07924 c 0.260354,0.629791 1.219447,0.661692 1.739128,0.22125 0.51968,-0.439413 0.707999,-1.147413 0.869563,-1.809104 0.314896,-1.285308 0.632878,-2.591198 0.589657,-3.914581 3.769482,3.402104 7.926923,6.373028 12.364271,8.839708 -3.429889,1.439668 -7.322859,1.753534 -10.940038,0.879854 -1.899663,-0.458965 -3.58425,-1.310005 -4.640075,-2.997679 0.109081,1.000255 0.982761,1.926418 1.772058,2.467708 0.86236,0.589657 1.873935,0.925134 2.888598,1.169024 4.039098,0.970412 8.396179,0.559813 12.184184,-1.147413 0.244919,-0.110111 0.533058,-0.326215 0.441471,-0.579366 z"
         id="path177"
         inkscape:connector-curvature="0" />
    </g>
    <g
       id="g4514">
      <path
         style="fill:#ffffff;fill-opacity:1;fill-rule:nonzero;stroke:none;stroke-opacity:1"
         d="m 81.661527,32.502132 c 2.465651,0 4.002052,-1.536401 4.002052,-3.973238 0,-2.436837 -1.652686,-4.031895 -4.031895,-4.031895 l -5.192685,0 0,8.005133 5.222528,0 z m -0.261383,-9.746319 c 2.060197,0 3.452528,-1.449959 3.452528,-3.567784 0,-2.089011 -1.305889,-3.481342 -3.481342,-3.481342 l -4.932331,0 0,7.049126 4.961145,0 z m -6.961656,-8.121417 c 0,-0.46411 0.23257,-0.725494 0.695651,-0.725494 l 6.266005,0 c 3.220988,0 5.54051,1.942883 5.54051,5.134028 0,2.117825 -1.044505,3.655255 -2.611778,4.438377 l 0,0.05763 c 2.09004,0.580396 3.424743,2.581936 3.424743,5.046558 0,3.62747 -2.697191,5.715452 -6.121935,5.715452 l -6.497545,0 c -0.463081,0 -0.695651,-0.261384 -0.695651,-0.725494 l 0,-18.941055 z"
         id="path179"
         inkscape:connector-curvature="0" />
      <path
         style="fill:#ffffff;fill-opacity:1;fill-rule:nonzero;stroke:none;stroke-opacity:1"
         d="m 95.934723,32.996085 c 2.812447,0 4.467187,-2.901976 4.467187,-5.454069 l 0,-0.695651 -0.812961,0 c -2.291738,0 -6.902999,0.08644 -6.902999,3.365058 0,1.363517 1.072291,2.784662 3.248773,2.784662 z m 3.624383,-7.628493 0.842804,0 0,-0.465139 c 0,-2.813477 -1.537426,-3.771541 -3.597623,-3.771541 -1.624901,0 -2.871105,0.60921 -3.538971,1.016721 -0.406482,0.202727 -0.725494,0.14407 -0.986878,-0.23257 l -0.173912,-0.290197 c -0.231541,-0.37664 -0.174942,-0.754308 0.202726,-0.985849 0.754308,-0.46411 2.379209,-1.276046 4.641104,-1.276046 3.481344,0 5.425254,1.942883 5.425254,5.597109 l 0,8.615371 c 0,0.46411 -0.23257,0.725494 -0.69668,0.725494 l -0.46411,0 c -0.46308,0 -0.72446,-0.23154 -0.72446,-0.725494 l 0,-1.159761 c 0,-0.666837 0.0875,-1.102134 0.0875,-1.102134 l -0.0587,0 c 0.0278,0 -1.30589,3.336244 -4.931302,3.336244 -2.46668,0 -4.931301,-1.450988 -4.931301,-4.264465 0,-4.758417 6.091063,-5.017743 8.904539,-5.017743 z"
         id="path181"
         inkscape:connector-curvature="0" />
      <path
         style="fill:#ffffff;fill-opacity:1;fill-rule:nonzero;stroke:none;stroke-opacity:1"
         d="m 106.08649,31.980393 0.23257,-0.290197 c 0.26139,-0.347826 0.5804,-0.37664 0.98688,-0.115256 0.63802,0.491895 1.97273,1.334703 3.85798,1.334703 1.62388,0 2.95961,-0.812965 2.95961,-2.351424 0,-3.276558 -7.80447,-2.290709 -7.80447,-7.106755 0,-2.697191 2.29174,-4.088493 4.96115,-4.088493 2.08798,0 3.39284,0.753279 4.00308,1.188575 0.37664,0.231541 0.43427,0.579366 0.20273,0.957035 l -0.20273,0.319012 c -0.23257,0.406482 -0.58142,0.435296 -0.98585,0.202726 -0.55261,-0.376639 -1.59609,-0.928221 -3.13352,-0.928221 -1.53743,0 -2.87213,0.666838 -2.87213,2.262925 0,3.365057 7.77256,2.291738 7.77256,7.165411 0,2.406994 -2.02829,4.119366 -4.93027,4.119366 -2.55209,0 -4.20581,-1.074349 -4.9313,-1.683558 -0.34886,-0.260355 -0.37664,-0.60818 -0.11629,-0.985849 z"
         id="path183"
         inkscape:connector-curvature="0" />
      <path
         style="fill:#ffffff;fill-opacity:1;fill-rule:nonzero;stroke:none;stroke-opacity:1"
         d="m 119.83692,20.43629 c 0,-0.465139 0.26139,-0.726523 0.7255,-0.726523 l 0.55158,0 c 0.46411,0 0.69565,0.261384 0.69565,0.726523 l 0,13.139161 c 0,0.46411 -0.23154,0.725494 -0.69565,0.725494 l -0.55158,0 c -0.46411,0 -0.7255,-0.261384 -0.7255,-0.725494 l 0,-13.139161 z m -0.0566,-4.757388 0,-1.044506 c 0,-0.46411 0.23052,-0.725494 0.69463,-0.725494 l 0.72652,0 c 0.46411,0 0.69565,0.261384 0.69565,0.725494 l 0,1.044506 c 0,0.463081 -0.23154,0.694622 -0.69565,0.694622 l -0.72652,0 c -0.46411,0 -0.69463,-0.231541 -0.69463,-0.694622 z"
         id="path185"
         inkscape:connector-curvature="0" />
      <path
         style="fill:#ffffff;fill-opacity:1;fill-rule:nonzero;stroke:none;stroke-opacity:1"
         d="m 126.65451,20.43629 c 0,-0.465139 0.26138,-0.726523 0.72549,-0.726523 l 0.52174,0 c 0.4353,0 0.69668,0.261384 0.69668,0.726523 l 0,1.6815 c 0,0.580395 -0.11525,1.044506 -0.11525,1.044506 l 0.0566,0 c 0.55261,-1.334703 2.46668,-3.799325 5.88937,-3.799325 3.62541,0 4.90249,2.059168 4.90249,5.655766 l 0,8.556714 c 0,0.46411 -0.26139,0.725494 -0.7255,0.725494 l -0.55158,0 c -0.46411,0 -0.69565,-0.261384 -0.69565,-0.725494 l 0,-8.034975 c 0,-2.291738 -0.37664,-4.322093 -3.19114,-4.322093 -3.10368,0 -5.54052,2.553122 -5.54052,5.946994 l 0,6.410074 c 0,0.46411 -0.23154,0.725494 -0.69565,0.725494 l -0.55158,0 c -0.46411,0 -0.72549,-0.261384 -0.72549,-0.725494 l 0,-13.139161 z"
         id="path187"
         inkscape:connector-curvature="0" />
      <path
         style="fill:#ffffff;fill-opacity:1;fill-rule:nonzero;stroke:none;stroke-opacity:1"
         d="m 154.18315,26.787708 c 0,-4.322092 -2.08798,-5.656796 -4.52379,-5.656796 -2.9596,0 -4.58348,2.090041 -4.58348,5.454069 0,3.655256 1.88526,5.859523 4.75739,5.859523 2.32055,0 4.34988,-1.421146 4.34988,-5.656796 z m -8.44043,11.081021 c 0.63802,0.290198 1.77,0.754308 3.3949,0.754308 2.69719,0 5.01672,-1.333674 5.01672,-4.583476 l 0,-1.508616 c 0,-0.550552 0.0885,-1.043476 0.0885,-1.043476 l -0.0597,0 c -0.86854,1.653715 -2.34834,2.726005 -4.64008,2.726005 -3.91663,0 -6.49857,-3.073831 -6.49857,-7.569836 0,-4.293278 2.38024,-7.280667 6.44095,-7.280667 3.77051,0 4.75739,2.667348 4.75739,2.667348 l 0.0576,0 c 0,0 -0.0576,-0.202726 -0.0576,-0.491895 l 0,-1.189604 c 0,-0.377669 0.23257,-0.639053 0.69565,-0.639053 l 0.46411,0 c 0.46411,0 0.72549,0.261384 0.72549,0.726523 l 0,13.51683 c 0,4.641104 -3.45253,6.439917 -6.93284,6.439917 -1.50862,0 -2.98842,-0.319011 -4.20581,-0.870593 -0.43529,-0.202726 -0.55158,-0.492924 -0.34885,-0.92822 l 0.17494,-0.405454 c 0.20273,-0.377668 0.46308,-0.493953 0.92719,-0.320041 z"
         id="path189"
         inkscape:connector-curvature="0" />
      <path
         style="fill:#ffffff;fill-opacity:1;fill-rule:nonzero;stroke:none;stroke-opacity:1"
         d="m 160.0437,31.980393 0.23154,-0.290197 c 0.26139,-0.347826 0.58143,-0.37664 0.98688,-0.115256 0.63802,0.491895 1.97273,1.334703 3.85798,1.334703 1.6249,0 2.95961,-0.812965 2.95961,-2.351424 0,-3.276558 -7.80447,-2.290709 -7.80447,-7.106755 0,-2.697191 2.29277,-4.088493 4.96217,-4.088493 2.08799,0 3.39285,0.753279 4.00206,1.188575 0.37664,0.231541 0.43529,0.579366 0.20272,0.957035 l -0.20272,0.319012 c -0.23154,0.406482 -0.5804,0.435296 -0.98585,0.202726 -0.55158,-0.376639 -1.59609,-0.928221 -3.13352,-0.928221 -1.5364,0 -2.8711,0.666838 -2.8711,2.262925 0,3.365057 7.77359,2.291738 7.77359,7.165411 0,2.406994 -2.03036,4.119366 -4.9313,4.119366 -2.55312,0 -4.20581,-1.074349 -4.93028,-1.683558 -0.34988,-0.260355 -0.37766,-0.60818 -0.11731,-0.985849 z"
         id="path191"
         inkscape:connector-curvature="0" />
      <path
         style="fill:#ffffff;fill-opacity:1;fill-rule:nonzero;stroke:none;stroke-opacity:1"
         d="m 174.37452,21.479767 -1.21739,0 c -0.46411,0 -0.69668,-0.231541 -0.69668,-0.69668 l 0,-0.231541 c 0,-0.46411 0.23257,-0.725494 0.69668,-0.725494 l 1.24724,0 0,-3.422685 c 0,-0.46514 0.26138,-0.724465 0.72549,-0.724465 l 0.52174,0 c 0.46411,0 0.69565,0.259325 0.69565,0.724465 l 0,3.422685 2.95858,0 c 0.46513,0 0.72652,0.261384 0.72652,0.725494 l 0,0.231541 c 0,0.465139 -0.26139,0.69668 -0.72652,0.69668 l -2.95858,0 0,7.31051 c 0,3.364029 2.05917,3.770511 3.19115,3.828139 0.57936,0.05866 0.78312,0.23257 0.78312,0.725494 l 0,0.377669 c 0,0.46411 -0.23257,0.695651 -0.81091,0.695651 -3.19217,0 -5.13609,-1.942883 -5.13609,-5.366598 l 0,-7.570865 z"
         id="path193"
         inkscape:connector-curvature="0" />
      <path
         style="fill:#ffffff;fill-opacity:1;fill-rule:nonzero;stroke:none;stroke-opacity:1"
         d="m 189.98139,32.8798 c 3.10471,0 5.6568,-2.553122 5.6568,-5.946993 0,-3.306401 -2.55209,-5.801895 -5.6568,-5.801895 -3.13146,0 -5.68458,2.495494 -5.68458,5.801895 0,3.393871 2.55312,5.946993 5.68458,5.946993 z m -0.0288,-13.516829 c 4.26549,0 7.71596,3.247744 7.71596,7.569836 0,4.409563 -3.45047,7.716993 -7.68715,7.716993 -4.26343,0 -7.71596,-3.30743 -7.71596,-7.716993 0,-4.322092 3.45253,-7.569836 7.68715,-7.569836 z"
         id="path195"
         inkscape:connector-curvature="0" />
      <path
         style="fill:#ffffff;fill-opacity:1;fill-rule:nonzero;stroke:none;stroke-opacity:1"
         d="m 201.49874,14.634396 c 0,-0.46411 0.23154,-0.725494 0.69668,-0.725494 l 0.55158,0 c 0.46411,0 0.7255,0.261384 0.7255,0.725494 l 0,10.645725 2.34833,0 4.03293,-5.135057 c 0.23257,-0.290198 0.49292,-0.435297 0.87059,-0.435297 l 0.72446,0 c 0.5804,0 0.78416,0.406483 0.40649,0.870593 l -4.40957,5.482883 0,0.05763 5.04759,7.309481 c 0.31901,0.493954 0.11526,0.870593 -0.49292,0.870593 l -0.75431,0 c -0.40648,0 -0.63905,-0.14407 -0.84178,-0.492924 l -4.55466,-6.787743 -2.37715,0 0,6.555173 c 0,0.46411 -0.26139,0.725494 -0.7255,0.725494 l -0.55158,0 c -0.46514,0 -0.69668,-0.261384 -0.69668,-0.725494 l 0,-18.941055 z"
         id="path197"
         inkscape:connector-curvature="0" />
      <path
         style="fill:#ffffff;fill-opacity:1;fill-rule:nonzero;stroke:none;stroke-opacity:1"
         d="m 226.01118,25.570319 c -0.11629,-3.07486 -1.97273,-4.583476 -4.14715,-4.583476 -2.43787,0 -4.55569,1.623872 -5.01877,4.583476 l 9.16592,0 z m -4.08952,-6.207348 c 3.88679,0 6.09106,2.812447 6.09106,6.960627 0,0.406482 -0.31901,0.725494 -0.75431,0.725494 l -10.50063,0 c 0.0875,3.712883 2.63957,5.830708 5.65577,5.830708 1.82763,0 3.16233,-0.812965 3.8302,-1.334703 0.40545,-0.260355 0.72446,-0.202727 0.956,0.173913 l 0.23257,0.347825 c 0.20273,0.348855 0.1451,0.69668 -0.20272,0.958064 -0.78313,0.579366 -2.52328,1.624901 -4.87368,1.624901 -4.3509,0 -7.62952,-3.133517 -7.62952,-7.629522 0,-4.786203 3.2498,-7.657307 7.19526,-7.657307 z"
         id="path199"
         inkscape:connector-curvature="0" />
      <path
         style="fill:#ffffff;fill-opacity:1;fill-rule:nonzero;stroke:none;stroke-opacity:1"
         d="m 79.969737,61.595987 c 2.814505,0 4.467191,-2.900947 4.467191,-5.45304 l 0,-0.69668 -0.812965,0 c -2.291738,0 -6.902999,0.08747 -6.902999,3.365058 0,1.363517 1.07332,2.784662 3.248773,2.784662 z m 3.626441,-7.628493 0.84075,0 0,-0.465139 c 0,-2.813476 -1.53743,-3.77154 -3.596598,-3.77154 -1.624901,0 -2.872133,0.610238 -3.54,1.016721 -0.405453,0.202726 -0.725494,0.144069 -0.985848,-0.23257 L 76.13954,50.224768 c -0.231541,-0.376639 -0.172884,-0.754308 0.203756,-0.985849 0.754308,-0.46411 2.37818,-1.276046 4.641104,-1.276046 3.481342,0 5.425255,1.942884 5.425255,5.598139 l 0,8.61537 c 0,0.463082 -0.23257,0.724465 -0.696681,0.724465 l -0.46411,0 c -0.46411,0 -0.725494,-0.23154 -0.725494,-0.724465 l 0,-1.16079 c 0,-0.666837 0.08747,-1.102134 0.08747,-1.102134 l -0.05866,0 c 0.02984,0 -1.303831,3.336244 -4.931302,3.336244 -2.464621,0 -4.930272,-1.450988 -4.930272,-4.264464 0,-4.757389 6.091063,-5.017744 8.905568,-5.017744 z"
         id="path201"
         inkscape:connector-curvature="0" />
      <path
         style="fill:#ffffff;fill-opacity:1;fill-rule:nonzero;stroke:none;stroke-opacity:1"
         d="m 90.152381,49.036193 c 0,-0.46514 0.260354,-0.726523 0.724465,-0.726523 l 0.522767,0 c 0.434267,0 0.695651,0.261383 0.695651,0.726523 l 0,1.681499 c 0,0.580396 -0.115256,1.044506 -0.115256,1.044506 l 0.05763,0 c 0.551581,-1.334703 2.464622,-3.799325 5.888336,-3.799325 3.625408,0 4.902488,2.059168 4.902488,5.656796 l 0,8.556713 c 0,0.463082 -0.26138,0.724465 -0.72549,0.724465 l -0.55159,0 c -0.46308,0 -0.69565,-0.261383 -0.69565,-0.724465 l 0,-8.036004 c 0,-2.290709 -0.37664,-4.322092 -3.191141,-4.322092 -3.103674,0 -5.539482,2.553121 -5.539482,5.946993 l 0,6.411103 c 0,0.463082 -0.23257,0.724465 -0.69668,0.724465 l -0.551581,0 c -0.464111,0 -0.724465,-0.261383 -0.724465,-0.724465 l 0,-13.140189 z"
         id="path203"
         inkscape:connector-curvature="0" />
      <path
         style="fill:#ffffff;fill-opacity:1;fill-rule:nonzero;stroke:none;stroke-opacity:1"
         d="m 112.28561,61.479702 c 2.43684,0 4.72755,-1.740156 4.72755,-5.888336 0,-2.958575 -1.50862,-5.830708 -4.64111,-5.830708 -2.58091,0 -4.69873,2.146639 -4.69873,5.830708 0,3.597627 1.88526,5.888336 4.61229,5.888336 z m -0.0875,-13.516829 c 3.53897,0 4.78723,2.928732 4.78723,2.928732 l 0.0576,0 c 0,0 -0.0864,-0.492924 -0.0864,-1.102133 l 0,-6.555174 c 0,-0.46411 0.25932,-0.725494 0.72446,-0.725494 l 0.55055,0 c 0.46411,0 0.69668,0.261384 0.69668,0.725494 l 0,18.942084 c 0,0.463082 -0.23257,0.724465 -0.69668,0.724465 l -0.49395,0 c -0.46308,0 -0.72446,-0.23154 -0.72446,-0.69668 l 0,-1.101104 c 0,-0.522767 0.11731,-0.899407 0.11731,-0.899407 l -0.0597,0 c 0,0 -1.2462,3.046046 -5.07537,3.046046 -3.91561,0 -6.35347,-3.133517 -6.35347,-7.658336 0,-4.61229 2.72806,-7.628493 6.5562,-7.628493 z"
         id="path205"
         inkscape:connector-curvature="0" />
      <path
         style="fill:#ffffff;fill-opacity:1;fill-rule:nonzero;stroke:none;stroke-opacity:1"
         d="m 135.89967,61.103063 c 5.01877,0 8.35399,-2.93079 8.35399,-8.412644 0,-5.424226 -3.36506,-8.382801 -8.35399,-8.382801 l -4.38075,0 0,16.795445 4.38075,0 z m -6.38126,-17.868765 c 0,-0.46411 0.23154,-0.725494 0.69462,-0.725494 l 5.88937,0 c 6.1209,0 10.23924,3.741697 10.23924,10.181615 0,6.498574 -4.11834,10.210428 -10.23924,10.210428 l -5.88937,0 c -0.46308,0 -0.69462,-0.261383 -0.69462,-0.724465 l 0,-18.942084 z"
         id="path207"
         inkscape:connector-curvature="0" />
      <path
         style="fill:#ffffff;fill-opacity:1;fill-rule:nonzero;stroke:none;stroke-opacity:1"
         d="m 160.44092,54.170221 c -0.11628,-3.07486 -1.97272,-4.583476 -4.14818,-4.583476 -2.43683,0 -4.55466,1.624901 -5.01877,4.583476 l 9.16695,0 z m -4.08952,-6.207348 c 3.88679,0 6.09106,2.813476 6.09106,6.960627 0,0.406482 -0.31901,0.725494 -0.75431,0.725494 l -10.50062,0 c 0.0864,3.713912 2.63956,5.830708 5.65576,5.830708 1.82866,0 3.16336,-0.811936 3.8302,-1.334703 0.40545,-0.260355 0.7255,-0.202727 0.95704,0.173913 l 0.23154,0.348854 c 0.20375,0.347826 0.1451,0.695652 -0.20273,0.957035 -0.78312,0.579366 -2.52328,1.624901 -4.87264,1.624901 -4.35194,0 -7.62953,-3.133517 -7.62953,-7.629522 0,-4.785174 3.24878,-7.657307 7.19423,-7.657307 z"
         id="path209"
         inkscape:connector-curvature="0" />
      <path
         style="fill:#ffffff;fill-opacity:1;fill-rule:nonzero;stroke:none;stroke-opacity:1"
         d="m 169.92689,61.595987 c 2.8145,0 4.46719,-2.900947 4.46719,-5.45304 l 0,-0.69668 -0.81194,0 c -2.29174,0 -6.90403,0.08747 -6.90403,3.365058 0,1.363517 1.07332,2.784662 3.24878,2.784662 z m 3.62644,-7.628493 0.84075,0 0,-0.465139 c 0,-2.813476 -1.53743,-3.77154 -3.5966,-3.77154 -1.6249,0 -2.87111,0.610238 -3.53897,1.016721 -0.40546,0.202726 -0.7255,0.144069 -0.98688,-0.23257 l -0.17391,-0.290198 c -0.23154,-0.376639 -0.17289,-0.754308 0.20375,-0.985849 0.75431,-0.46411 2.37818,-1.276046 4.64111,-1.276046 3.48031,0 5.42422,1.942884 5.42422,5.598139 l 0,8.61537 c 0,0.463082 -0.23257,0.724465 -0.69668,0.724465 l -0.46308,0 c -0.46411,0 -0.72549,-0.23154 -0.72549,-0.724465 l 0,-1.16079 c 0,-0.666837 0.0875,-1.102134 0.0875,-1.102134 l -0.0587,0 c 0.0298,0 -1.30486,3.336244 -4.9313,3.336244 -2.46565,0 -4.9313,-1.450988 -4.9313,-4.264464 0,-4.757389 6.09209,-5.017744 8.90557,-5.017744 z"
         id="path211"
         inkscape:connector-curvature="0" />
      <path
         style="fill:#ffffff;fill-opacity:1;fill-rule:nonzero;stroke:none;stroke-opacity:1"
         d="m 180.6323,49.036193 c 0,-0.46514 0.26035,-0.726523 0.72549,-0.726523 l 0.52174,0 c 0.43427,0 0.69565,0.261383 0.69565,0.726523 l 0,1.681499 c 0,0.580396 -0.11526,1.044506 -0.11526,1.044506 l 0.0587,0 c 0.55055,-1.334703 2.46462,-3.799325 5.88834,-3.799325 3.62541,0 4.90146,2.059168 4.90146,5.656796 l 0,8.556713 c 0,0.463082 -0.26036,0.724465 -0.72447,0.724465 l -0.55158,0 c -0.46514,0 -0.69668,-0.261383 -0.69668,-0.724465 l 0,-8.036004 c 0,-2.290709 -0.37664,-4.322092 -3.19012,-4.322092 -3.1047,0 -5.54051,2.553121 -5.54051,5.946993 l 0,6.411103 c 0,0.463082 -0.23257,0.724465 -0.69668,0.724465 l -0.55055,0 c -0.46514,0 -0.72549,-0.261383 -0.72549,-0.724465 l 0,-13.140189 z"
         id="path213"
         inkscape:connector-curvature="0" />
      <path
         style="fill:#ffffff;fill-opacity:1;fill-rule:nonzero;stroke:none;stroke-opacity:1"
         d="m 207.90058,54.170221 c -0.11731,-3.07486 -1.97272,-4.583476 -4.14921,-4.583476 -2.4358,0 -4.55363,1.624901 -5.01774,4.583476 l 9.16695,0 z m -4.09055,-6.207348 c 3.8868,0 6.09209,2.813476 6.09209,6.960627 0,0.406482 -0.32004,0.725494 -0.75533,0.725494 l -10.50063,0 c 0.0875,3.713912 2.64059,5.830708 5.65577,5.830708 1.82865,0 3.16336,-0.811936 3.83019,-1.334703 0.40649,-0.260355 0.72447,-0.202727 0.95704,0.173913 l 0.23154,0.348854 c 0.20375,0.347826 0.14613,0.695652 -0.20273,0.957035 -0.78312,0.579366 -2.52328,1.624901 -4.87264,1.624901 -4.35194,0 -7.62952,-3.133517 -7.62952,-7.629522 0,-4.785174 3.24877,-7.657307 7.19422,-7.657307 z"
         id="path215"
         inkscape:connector-curvature="0" />
    </g>
  </g>
</svg>
