<?xml version="1.0" encoding="utf-8"?>
<!-- Generator: Adobe Illustrator 22.1.0, SVG Export Plug-In . SVG Version: 6.00 Build 0)  -->
<svg version="1.1" id="Layer_1" xmlns="http://www.w3.org/2000/svg" xmlns:xlink="http://www.w3.org/1999/xlink" x="0px" y="0px"
	 viewBox="0 0 203.6 78.5" style="enable-background:new 0 0 203.6 78.5;" xml:space="preserve">
<style type="text/css">
	.st0{fill:#95BFE7;}
	.st1{fill:#3B4394;}
	.st2{fill:#4FAE47;}
</style>
<g>
	<path class="st0" d="M98.4,78.4c2.6,0,4.1-0.9,5.6-2.4l-1.5-1.6c-1.2,1.1-2.2,1.8-3.9,1.8c-2.6,0-4.5-2.2-4.5-4.9l0,0
		c0-2.7,1.9-4.8,4.5-4.8c1.6,0,2.7,0.7,3.8,1.7l1.5-1.8c-1.3-1.3-2.8-2.1-5.4-2.1c-4.1,0-7.1,3.2-7.1,7.1l0,0
		C91.4,75.3,94.4,78.4,98.4,78.4 M114.6,78.4c4.2,0,7.2-3.2,7.2-7.1l0,0c0-3.9-2.9-7-7.1-7c-4.2,0-7.2,3.2-7.2,7.1l0,0
		C107.4,75.2,110.4,78.4,114.6,78.4 M114.6,76.2c-2.7,0-4.7-2.2-4.7-4.9l0,0c0-2.7,1.9-4.8,4.6-4.8c2.7,0,4.7,2.2,4.7,4.9l0,0
		C119.2,74,117.4,76.2,114.6,76.2 M132.2,78.4c3.6,0,5.9-2.1,5.9-6.1v-7.8h-2.4v7.9c0,2.5-1.3,3.8-3.4,3.8c-2.2,0-3.5-1.4-3.5-3.9
		v-7.8h-2.4v7.9C126.4,76.4,128.8,78.4,132.2,78.4 M143.4,78.2h2.4v-9.7l7.6,9.7h2V64.5h-2.4V74l-7.3-9.5h-2.2v13.7H143.4z
		 M167.1,78.4c2.6,0,4.1-0.9,5.6-2.4l-1.5-1.6c-1.2,1.1-2.2,1.8-3.9,1.8c-2.6,0-4.5-2.2-4.5-4.9l0,0c0-2.7,1.9-4.8,4.5-4.8
		c1.6,0,2.7,0.7,3.8,1.7l1.5-1.8c-1.3-1.3-2.8-2.1-5.4-2.1c-4.1,0-7.1,3.2-7.1,7.1l0,0C160.2,75.3,163.1,78.4,167.1,78.4
		 M177.4,78.2h2.4V64.5h-2.4V78.2z M185.4,78.2h9.6V76h-7.2V64.5h-2.4V78.2z"/>
	<path class="st0" d="M92.1,56.7h5.1c4.3,0,7.3-3,7.3-6.8l0,0c0-3.9-3-6.8-7.3-6.8h-5.1V56.7z M94.4,54.5v-9.3h2.7
		c2.9,0,4.8,2,4.8,4.7l0,0c0,2.7-1.9,4.6-4.8,4.6H94.4z M109.4,56.7h2.4V43h-2.4C109.4,43,109.4,56.7,109.4,56.7z M122.2,56.9
		c2.9,0,4.9-1.5,4.9-4.1l0,0c0-2.3-1.5-3.3-4.4-4c-2.6-0.6-3.2-1.1-3.2-2.2l0,0c0-0.9,0.8-1.6,2.2-1.6c1.3,0,2.5,0.5,3.7,1.4
		l1.3-1.8c-1.4-1.1-3-1.7-5-1.7c-2.7,0-4.7,1.6-4.7,4l0,0c0,2.5,1.6,3.4,4.6,4.1c2.5,0.6,3.1,1.1,3.1,2.1l0,0c0,1-0.9,1.7-2.4,1.7
		c-1.7,0-3-0.6-4.3-1.8l-1.4,1.7C118.2,56.2,120.1,56.9,122.2,56.9 M135.1,56.7h2.4V45.3h4.3v-2.2h-11.1v2.2h4.3v11.4H135.1z
		 M146.2,56.7h2.4v-4.8h3l0,0l3.4,4.8h2.8l-3.7-5.2c1.9-0.5,3.3-1.9,3.3-4.1l0,0c0-1.2-0.4-2.2-1.1-3c-0.9-0.9-2.2-1.4-4-1.4h-6.1
		L146.2,56.7L146.2,56.7z M148.8,49.8v-4.6h3.5c1.8,0,2.8,0.8,2.8,2.3l0,0c0,1.4-1.1,2.3-2.8,2.3C152.2,49.8,148.8,49.8,148.8,49.8z
		 M162.6,56.7h2.4V43h-2.4V56.7z M176.9,57c2.6,0,4.1-0.9,5.6-2.4l-1.5-1.6c-1.2,1.1-2.2,1.8-3.9,1.8c-2.6,0-4.5-2.2-4.5-4.9l0,0
		c0-2.7,1.9-4.8,4.5-4.8c1.6,0,2.7,0.7,3.8,1.7l1.5-1.8c-1.3-1.3-2.8-2.1-5.4-2.1c-4.1,0-7.1,3.2-7.1,7.1l0,0
		C169.9,53.8,172.9,57,176.9,57 M190.4,56.7h2.4V45.3h4.3v-2.2h-11.1v2.2h4.3v11.4H190.4z"/>
	<path class="st1" d="M92.1,35.5h2.4v-9.7l7.5,9.7h2V21.8h-2.4v9.5l-7.3-9.5h-2.2V35.5z M116.1,35.8c4.2,0,7.2-3.2,7.2-7.1l0,0
		c0-3.9-2.9-7-7.1-7s-7.2,3.2-7.2,7.1l0,0C108.8,32.6,111.9,35.8,116.1,35.8 M116.1,33.6c-2.7,0-4.7-2.2-4.7-4.9l0,0
		c0-2.7,1.9-4.8,4.6-4.8c2.7,0,4.7,2.2,4.7,4.9l0,0C120.6,31.4,118.8,33.6,116.1,33.6 M128.1,35.5h2.4v-4.8h3l0,0l3.4,4.8h2.8
		l-3.7-5.2c1.9-0.5,3.3-1.9,3.3-4.1l0,0c0-1.2-0.4-2.2-1.1-3c-0.9-0.9-2.2-1.4-4-1.4H128L128.1,35.5L128.1,35.5z M130.4,28.6V24h3.5
		c1.8,0,2.8,0.8,2.8,2.3l0,0c0,1.4-1.1,2.3-2.8,2.3H130.4z M144.1,35.5h2.4v-5.6h6.9v-2.2h-6.9V24h7.8v-2.2h-10.2V35.5z M165.4,35.8
		c4.2,0,7.2-3.2,7.2-7.1l0,0c0-3.9-2.9-7-7.1-7c-4.2,0-7.2,3.2-7.2,7.1l0,0C158.2,32.6,161.1,35.8,165.4,35.8 M165.4,33.6
		c-2.7,0-4.7-2.2-4.7-4.9l0,0c0-2.7,1.9-4.8,4.6-4.8c2.7,0,4.7,2.2,4.7,4.9l0,0C170.1,31.4,168.1,33.6,165.4,33.6 M177.4,35.5h9.6
		v-2.2h-7.2V21.8h-2.4L177.4,35.5L177.4,35.5z M191.4,35.5h2.4v-4l2.1-2.2l4.7,6.2h2.9l-5.9-7.8l5.7-5.9h-3l-6.5,6.9v-6.9h-2.4V35.5
		z"/>
	<path class="st1" d="M92.1,14.4h2.4V4.7l7.5,9.7h2V0.7h-2.4v9.5l-7.3-9.5h-2.2V14.4z M116.1,14.6c4.2,0,7.2-3.2,7.2-7.1l0,0
		c0-3.9-2.9-7-7.1-7s-7.2,3.2-7.2,7.1l0,0C108.8,11.4,111.9,14.6,116.1,14.6 M116.1,12.4c-2.7,0-4.7-2.2-4.7-4.9l0,0
		c0-2.7,1.9-4.8,4.6-4.8c2.7,0,4.7,2.2,4.7,4.9l0,0C120.6,10.2,118.8,12.4,116.1,12.4 M128.1,14.4h2.4V9.6h3l0,0l3.4,4.8h2.8
		l-3.7-5.2c1.9-0.5,3.3-1.9,3.3-4.1l0,0c0-1.2-0.4-2.2-1.1-3c-0.9-0.9-2.2-1.4-4-1.4H128L128.1,14.4L128.1,14.4z M130.4,7.5V2.9h3.5
		c1.8,0,2.8,0.8,2.8,2.3l0,0c0,1.4-1.1,2.3-2.8,2.3C133.9,7.5,130.4,7.5,130.4,7.5z M147.4,14.4h2.4V2.9h4.3V0.7H143v2.2h4.3v11.5
		H147.4z M158.8,14.4h2.4V8.6h6.5v5.8h2.4V0.7h-2.4v5.7h-6.5V0.7h-2.4V14.4z"/>
	<path class="st1" d="M-0.1,78.4h50.3c20.4-28.8-50.3-28-50.3-28S-0.1,78.4-0.1,78.4z"/>
	<path class="st0" d="M-0.1,0.4v42.4h34.4c0,0,1.4-5.3,8.1-6.4c0.8-2,3.6-3.9,7.4-4.6c1.5-0.3,2.9-0.4,4.2-0.3c0.5-2.8,4.7-6,9.7-6
		c2.2,0,4.3,0.4,5.9,1.2c1.6-0.7,3.6-1.2,5.8-1.2c0.8,0,1.6,0.1,2.4,0.2V0.4H-0.1z"/>
	<path class="st2" d="M77.6,39.5c-0.5-0.2-1-0.3-1.6-0.3c-1.6,0-2.9,0.9-3.6,2.2c-0.7-0.6-1.6-1-2.6-1c-1.7,0-3.1,1-3.7,2.5
		c0,0,0,0,0,0.1C66,43.1,66,43.2,66,43.4v-6.5h-1.3V38h-1.8v-1.1h-1.3v8.5h-1.3v-4.1v-0.1c-0.3-0.1-0.5-0.2-0.7-0.2
		c-0.7,0-1.4,0.5-1.6,1.1c-0.3-0.7-0.9-1.1-1.7-1.3c-0.1-0.1-0.3-0.1-0.5-0.1c-1.2,0-2.2,0.9-2.3,2c-0.3-0.3-0.7-0.5-1.2-0.5
		c-0.9,0-1.6,0.7-1.8,1.5c-0.1-0.1-0.3-0.2-0.5-0.3c-0.3-0.1-0.6-0.2-0.9-0.2c-1.1,0-2,0.9-2,2c-0.6,0-1,0-1.8,0c0,0-45.1,0-45.5,0
		l0,0v2.5c0,0,67.5-2.6,78,29.5V46.9v-0.2v-7l0,0C77.8,39.6,77.7,39.6,77.6,39.5 M64.4,43.5h-1.3v-3.2l0.6-0.8l0.7,0.8V43.5z"/>
</g>
</svg>
