<svg height="60" preserveAspectRatio="xMinYMid" viewBox="0 0 185 60" width="185" xmlns="http://www.w3.org/2000/svg"><path d="m74.25 20.1c0 3.5-3 5.2-6.7 5.2v-.1c-2.5 0-4.7-.3-6.7-2.3l2.6-2.6a5.48 5.48 0 0 0 4.2 1.5c1.4 0 2.8-.5 2.8-1.6 0-.8-.4-1.3-1.7-1.5l-2.5-.2c-2.9-.3-4.6-1.5-4.6-4.4 0-3.3 2.9-5 6.1-5 2.5 0 4.5.4 6 1.9l-2.4 2.5a5.57 5.57 0 0 0 -3.7-1.1c-1.6 0-2.3.7-2.3 1.5 0 .6.2 1.2 1.6 1.4l2.5.2c3.3.2 4.8 2 4.8 4.6zm13.75-9.1c1.4 1.5 1.8 3.3 1.8 6.1s-.4 4.7-1.8 6.2a7.27 7.27 0 0 1 -9.8 0c-1.4-1.5-1.8-3.3-1.8-6.2s.4-4.6 1.8-6.1a6.47 6.47 0 0 1 4.9-1.9 5.82 5.82 0 0 1 4.9 1.9zm-2.2 6.1c0-1.6-.1-3-.9-3.8a2.64 2.64 0 0 0 -1.9-.7 2.41 2.41 0 0 0 -1.8.7c-.8.8-.9 2.2-.9 3.8s.1 3 .9 3.9a2.41 2.41 0 0 0 1.8.7 2.64 2.64 0 0 0 1.9-.7c.75-.9.85-2.3.85-3.9zm16.2 1.6v.5a2.65 2.65 0 0 1 -5.3-.1v-10h-4v10.1a5.72 5.72 0 0 0 1.6 4.5 5 5 0 0 0 3.7 1.4 5.76 5.76 0 0 0 4-1.6v1.5h3.9v-15.9h-4zm8.1 1.8v.5a4.28 4.28 0 0 0 4.6 4h2.2v-3.3h-1.7a1.22 1.22 0 0 1 -1-1.4v-7.7h2.8v-3h-2.8v-4.7h-4v4.7h-1.7v3h1.7zm18.8-5.2v9.7h4v-10.3c0-3.3-1.8-5.8-5.3-5.8a5.46 5.46 0 0 0 -3.8 1.6v-7.2h-4v21.7h4v-10.2a2.51 2.51 0 0 1 2.8-2.3 2.45 2.45 0 0 1 2.3 2.8zm6.9 1.7c0-5.2 2.8-8.1 6.9-8.1 4.4 0 6.9 3.2 6.9 7.6v1.8h-9.9a3.26 3.26 0 0 0 3 3.5h.5a4.42 4.42 0 0 0 3.6-1.5l2.4 2.3a7.52 7.52 0 0 1 -6 2.5c-3.85.1-7.45-1.6-7.45-8.1zm3.8-1.4h6a3.29 3.29 0 0 0 -.4-1.7 3.1 3.1 0 0 0 -4.1-1.3 2.78 2.78 0 0 0 -1.2 1.2 5.66 5.66 0 0 0 -.35 1.8zm22.2-.2v9.6h4v-10.1a6.1 6.1 0 0 0 -1.6-4.5 4.81 4.81 0 0 0 -3.7-1.4 5.76 5.76 0 0 0 -4 1.6v-1.5h-3.9v15.8h3.9v-10a2.63 2.63 0 0 1 2.6-2.5h.5a2.66 2.66 0 0 1 2.2 3zm20.3 9.6h-3.9v-1.5a4.89 4.89 0 0 1 -3.9 1.7 6.21 6.21 0 0 1 -3.9-1.4c-1.6-1.6-1.6-4.3-1.6-6.7s0-5.1 1.6-6.7a5.25 5.25 0 0 1 3.9-1.4 5 5 0 0 1 3.8 1.5v-7.2h4zm-4-8c0-2.6-.3-4.5-2.7-4.5s-2.7 2-2.7 4.5.3 4.6 2.7 4.6 2.7-2 2.7-4.6zm-65 38a1.58 1.58 0 0 1 -1.5 1.7h-2.7v-5.8h2.4a1.5 1.5 0 0 1 1.7 1.3v.2a1.3 1.3 0 0 1 -.8 1.2 1.37 1.37 0 0 1 .9 1.4zm-3.3-1.8h1.3c.6 0 1-.3 1-.8s-.4-.8-1-.8h-1.3zm2.4 1.7a.9.9 0 0 0 -.9-.9h-1.5v1.8h1.5a.9.9 0 0 0 .9-.9zm5.6-3.6c.6.6.6 1.2.6 2.3s0 1.8-.6 2.3a2.3 2.3 0 0 1 -3.1 0c-.6-.6-.6-1.2-.6-2.3s0-1.8.6-2.3a2.3 2.3 0 0 1 3.1 0zm-.3 2.4c0-1.2-.1-1.5-.3-1.8a1.27 1.27 0 0 0 -.9-.4 1.22 1.22 0 0 0 -.9.4c-.3.3-.3.6-.3 1.8s.1 1.5.3 1.8a1.27 1.27 0 0 0 .9.4 1.22 1.22 0 0 0 .9-.4c.2-.3.3-.6.3-1.8zm5.1.3 1.3 2.6h-1l-1.2-2.5h-1.1v2.5h-.9v-5.8h2.3a1.67 1.67 0 0 1 1.8 1.5v.2a1.51 1.51 0 0 1 -1.2 1.5zm.3-1.5a.9.9 0 0 0 -.9-.9v-.1h-1.3v1.9h1.3c.5.1.9-.3.9-.9zm5.6-1.2c.6.6.6 1.2.6 2.3s0 1.8-.6 2.3a2.2 2.2 0 0 1 -1.5.6 2 2 0 0 1 -1.5-.6c-.6-.6-.6-1.2-.6-2.3s0-1.8.6-2.3a2.17 2.17 0 0 1 3 0zm-.3 2.4c0-1.2-.1-1.5-.3-1.8a1.27 1.27 0 0 0 -.9-.4 1.22 1.22 0 0 0 -.9.4c-.3.3-.3.6-.3 1.8s0 1.5.3 1.8a1.15 1.15 0 0 0 1.7 0c.3-.3.4-.6.4-1.8zm5.4.9a1.2 1.2 0 0 1 -2.4 0v-3.8h-.9v4a2.08 2.08 0 0 0 2.1 1.9h.1a2 2 0 0 0 2-2v-3.9h-.9zm4.2-.4h1.2v.3a1.4 1.4 0 0 1 -.3.9 1.09 1.09 0 0 1 -.9.4 1.61 1.61 0 0 1 -.9-.3c-.3-.3-.4-.7-.4-1.8s.1-1.5.4-1.8a1.27 1.27 0 0 1 1.8 0 .86.86 0 0 1 .3.6h.9a2.06 2.06 0 0 0 -2.1-1.8 2 2 0 0 0 -1.5.6c-.6.6-.6 1.2-.6 2.3s0 1.8.6 2.3a2.12 2.12 0 0 0 3.1 0 1.94 1.94 0 0 0 .5-1.6v-.8h-2.1zm6.7-.9h-2.4v-2.5h-.9v5.8h.9v-2.6h2.4v2.6h.9v-5.8h-.9zm6.3-1.8a1.19 1.19 0 0 1 1.2 1h.9a2 2 0 0 0 -2.1-1.8 2 2 0 0 0 -1.5.6c-.6.6-.6 1.2-.6 2.3s0 1.8.6 2.3a2.2 2.2 0 0 0 1.5.6 2 2 0 0 0 2.1-1.8h-.9a1.17 1.17 0 0 1 -2 .6c-.3-.3-.3-.7-.3-1.8s.1-1.5.3-1.8c.2 0 .5-.2.8-.2zm6.7-.2c.6.6.6 1.2.6 2.3s0 1.8-.6 2.3a2.3 2.3 0 0 1 -3.1 0c-.6-.6-.6-1.2-.6-2.3s0-1.8.6-2.3a2.3 2.3 0 0 1 3.1 0zm-.3 2.4c0-1.2-.1-1.5-.3-1.8a1.27 1.27 0 0 0 -.9-.4 1.22 1.22 0 0 0 -.9.4c-.3.3-.3.6-.3 1.8s.1 1.5.3 1.8a1.27 1.27 0 0 0 .9.4 1.22 1.22 0 0 0 .9-.4c.2-.3.3-.6.3-1.8zm5.4.9v.2a1.2 1.2 0 0 1 -1.2 1.1h-.2a1.15 1.15 0 0 1 -1-1.3v-3.8h-.9v4a2 2 0 0 0 2.1 1.9h.1a2 2 0 0 0 2-2v-3.9h-.9zm5.8.3-2.7-4.1h-.8v5.8h.9v-4.1l2.7 4.1h.8v-5.8h-.9zm4.4 1a1.61 1.61 0 0 1 -.9-.3c-.3-.3-.4-.7-.4-1.8s.1-1.5.4-1.8l.6-.3a1.18 1.18 0 0 1 1.4.9h.9a1.93 1.93 0 0 0 -2.1-1.8 2 2 0 0 0 -1.5.6c-.6.6-.6 1.2-.6 2.3s0 1.8.6 2.3a2.2 2.2 0 0 0 1.5.6 1.93 1.93 0 0 0 2.1-1.8h-.9a1 1 0 0 1 -1.1 1.1zm3.2.7h.9v-5.8h-.9zm3.3-.8v-5h-.9v5.8h3.7v-.8zm-149.75-52.5a26.7 26.7 0 1 0 23.45 39.5 43.41 43.41 0 0 1 -3.6-8.6c-3.3-4.9-9.6-11.3-15 .4-7.5 16.5-21.7 13.6-30.7-.5 0 0 16.6 23.1 27.4-6.2 6.3-16.9 12-11.6 15.8-3.6l.1.2.6 1.2c1.2 2.5 4.1 8 8 10.7a26.69 26.69 0 0 0 -19.55-32.3 28.9 28.9 0 0 0 -6.5-.8z" fill="#044f94"/><path d="m46.85 24.3a69.63 69.63 0 0 0 2.5 10c-3.3-4.9-9.6-11.3-15 .4-7.5 16.4-21.7 13.5-30.7-.6 0 0 16.6 23.1 27.4-6.2 6.2-16.9 12-11.6 15.8-3.6z" fill="#ffd207"/><path d="m110.55 31.3c-1.5 1.5-1.8 3.8-1.8 5.9s.3 4.3 1.8 5.9a6 6 0 0 0 8.1 0c1.5-1.5 1.8-3.8 1.8-5.9s-.3-4.3-1.8-5.9a5.8 5.8 0 0 0 -8.1 0zm7.2 10.8a4.29 4.29 0 0 1 -6.1 0c-1.2-1.2-1.3-3.2-1.3-4.9s.1-3.7 1.3-4.9a4.29 4.29 0 0 1 6.1 0c1.2 1.2 1.3 3.2 1.3 4.9s-.05 3.6-1.3 4.9zm15.8-11a5.65 5.65 0 0 1 1.5 4.1v9.3h-1.6v-9.1c0-2.8-1.4-4.4-4-4.4s-4.1 1.6-4.1 4.4v9.1h-1.5v-14.7h1.5v1.7a5.25 5.25 0 0 1 4.3-1.9 5.44 5.44 0 0 1 3.9 1.5zm17.8 8.4c0 3.5-3 5.2-6.7 5.2-2.5 0-4.7-.3-6.7-2.3l2.6-2.6a6 6 0 0 0 4.2 1.5c1.4 0 2.8-.5 2.8-1.6 0-.8-.4-1.3-1.7-1.5l-2.5-.2c-2.9-.3-4.6-1.5-4.6-4.4 0-3.3 2.9-5 6.1-5 2.5 0 4.5.4 6.1 1.9l-2.4 2.5a5.57 5.57 0 0 0 -3.7-1.1c-1.6 0-2.2.7-2.2 1.5 0 .6.2 1.2 1.6 1.4l2.5.2c3 .2 4.6 1.9 4.6 4.5zm8.9-11c-4.1 0-6.9 2.9-6.9 8.1 0 6.4 3.6 8.1 7.3 8.1a7.52 7.52 0 0 0 6-2.5l-2.4-2.4a4.35 4.35 0 0 1 -3.5 1.5h-.5a3.26 3.26 0 0 1 -3-3.5h9.9v-1.8c0-4.3-2.5-7.5-6.9-7.5zm-3 6.6a3.29 3.29 0 0 1 .4-1.7 3 3 0 0 1 4.1-1.2 3.45 3.45 0 0 1 1.2 1.2 4.71 4.71 0 0 1 .4 1.7zm18.1-6.6c-2.6 0-4.1.5-5.7 2.2l2.5 2.5a3.4 3.4 0 0 1 3-1.3c2.1 0 3 .8 3 2.5v.8h-3.8c-3.7 0-5.4 2.1-5.4 4.6a5.33 5.33 0 0 0 1.3 3.6 5.33 5.33 0 0 0 4 1.4 4.72 4.72 0 0 0 3.9-1.5v1.3h3.9v-10.5c.1-3.7-2.2-5.6-6.7-5.6zm2.3 12.2a3.29 3.29 0 0 1 -2.5.8c-1.5 0-2.3-.7-2.3-1.8s.8-1.8 2.2-1.8h3.1v.9a2.32 2.32 0 0 1 -.5 1.9zm-75.5 8s-16.7-27.9-32.4-6.5c-7.6 10.3-13.1 7-16.8.7a43.41 43.41 0 0 1 -3.6-8.6 86 86 0 0 1 -2.5-10l.1.2.6 1.2c1.2 2.5 4.1 8 8 10.7 3.2 2.3 7.1 2.8 11.2-1.7 10.4-11.4 26.5-2.5 35.4 14z" fill="#28a3dd"/></svg>