<svg xmlns="http://www.w3.org/2000/svg" x="0px" y="0px" viewBox="0 0 390 85" preserveAspectRatio="xMinYMid" aria-hidden="true" focusable="false">
<path fill="#231F20" d="M41.3,43.7c-1.5-2.1-5.3-1.9-6.9-0.4c-1.6,1.5-2.9,5-3.2,5.7c0.6-0.4,1.3-0.7,2-0.9c1.4-0.2,2.9,0.7,4.8,0.6
	c0.5,0,1-0.1,1.5-0.1C42.6,47.9,41.3,43.7,41.3,43.7z M37.5,45.8c-0.7,0-1.2-0.4-1.2-0.8c0-0.4,0.5-0.8,1.2-0.8s1.2,0.4,1.2,0.8
	C38.7,45.5,38.1,45.8,37.5,45.8z M31.2,49C31.1,49.3,31.2,49.2,31.2,49C31.2,49.1,31.1,49.1,31.2,49z M39,25.7
	c-5.5,12.1-14.9,27.5-14.9,27.5c-5.2,9-3.4,13.9-3.4,13.9c2.3,4.2,15.4-9.8,15.4-9.8c27.2-30.5,43.2-25,43.2-25
	c13.9,3.4,15.6,52.5,15.6,52.5l8.4,0.3c-1-23.2-20.6-61.9-20.6-61.9c1.4-19.4-18.2-12.1-18.2-12.1C53.1,2.5,36.8,7.3,36.8,7.3
	C36,6,35,4.9,33.8,4C31.5,2.3,30.4-2,23,1s-1.9,6-1.9,6c6.9,6.2-0.4,14.6-0.4,14.6C10.6,33,10.8,43.9,8.8,50C7.3,54.1,5.3,58,3,61.6
	c-4,4.8-2.9,9.1-2.9,9.1c-0.8,7.3,10.4,8,10.4,8C19,82.5,27.8,79,27.8,79c3.3-1.3,15.9-5.6,15.9-5.6c2.5,2.1-1.2,11.6-1.2,11.6
	c5.2-3.1,44.5,0,44.5,0c0.8-45-36.5-20.7-36.5-20.7C36,76.8,43.3,67.8,41,67.6c-0.8-0.1-2.8,3.2-4.7,4.5c-1.2,1-2.6,2-4,2.8
	c-10.9,4.9-14.6,2.3-14.6,2.3C17.4,64.9,6.6,64.9,6.6,64.9c-2.9,0.1-3.3,2.5-4,2.5c-1.6,0.1,1.5-4.9,1.5-4.9
	c4.7-6.2,9-12.7,12.8-19.5c5.5-15.3,16.3-28.5,16.3-28.5c9.9-13.5,28.1-3,28.1-3C45.3,12.2,39,25.7,39,25.7z M43.3,46.6
	c-0.2,3.5-5,3.5-8.4,3c-1.1-0.2-2.3-0.4-3.4-0.7c0,0,1-8.1,5.3-8.2C40.4,40.7,43.6,41,43.3,46.6L43.3,46.6z M15.3,43.8L14,45.9h-1.1
	c-0.4-2-0.6-4.1-0.7-6.1c0-0.5,0.4-3.9,3.7-2C16,37.8,17.9,38,15.3,43.8z M14.1,38.4c-2.3,0.4-1,7-1,7v0.8l0.6-0.2l0.2-1.1
	C17.4,37.5,14.1,38.4,14.1,38.4z M14,41.7c-0.4,0-0.7-0.2-0.7-0.6s0.2-0.7,0.6-0.7c0.4,0,0.7,0.2,0.7,0.6c0,0.2,0,0.4-0.1,0.5
	C14.3,41.6,14.2,41.7,14,41.7z M127.5,32.4c3.2,0,4.9-0.6,4.9-2.9c0-2.6-1.5-3.1-4.7-3.1H125v6H127.5z M126.4,21.6
	c3.1,0,4.8-0.5,4.8-2.7s-1.7-2.7-4.7-2.7h-1.6v5.5L126.4,21.6L126.4,21.6z M118,10.7h8.3c3.4,0,6,0,8.1,1c2.4,0.9,4,3.3,3.9,5.9
	c0,3.1-1.5,4.8-5,5.8c3.9,0.3,6.2,2.9,6.2,6.9c0.1,2.7-1.2,5.2-3.6,6.4c-2.5,1.3-5.7,1.4-10.2,1.4H118V10.7z M164.5,24.4
	c0-4.4-3-8-7.1-8c-4.2,0-7.1,3.6-7.1,8s2.8,8,7.1,8S164.5,28.9,164.5,24.4 M167.7,34.5c-2.8,2.7-6.5,4.2-10.4,4.2
	c-3.4,0-6.6-1.2-9.3-3.3c-3.4-2.7-5.4-6.7-5.3-11.1c0-3.8,1.5-7.5,4.3-10.1c5.7-5.6,14.9-5.6,20.7,0c2.7,2.7,4.3,6.3,4.2,10.1
	C172,28.2,170.5,31.9,167.7,34.5 M185,23.6c3.1,0,4.6-1,4.6-3.4c0-2.9-1.4-3.8-4.5-3.8h-1.5v7.2C183.6,23.6,185,23.6,185,23.6z
	 M176.6,10.6h8.3c3.8,0,6.7,0,9,1.8c2,1.6,3.2,4.1,3.1,6.7c0,4.3-2.1,7-6.1,7.8l7.4,11h-8.4l-6.3-10.7V38h-7V10.6z M221.7,24.4
	c0-4.4-3-8-7.1-8c-4.2,0-7.1,3.6-7.1,8s2.7,8,7.1,8S221.7,28.9,221.7,24.4 M224.9,34.5c-2.8,2.7-6.5,4.2-10.4,4.2
	c-3.4,0-6.6-1.2-9.3-3.3c-3.4-2.7-5.4-6.7-5.3-11.1c0-3.8,1.5-7.5,4.3-10.1c5.7-5.6,14.9-5.6,20.7,0c2.7,2.7,4.3,6.3,4.2,10.1
	C229.2,28.2,227.7,31.9,224.9,34.5 M241.1,10.6v14.8c0,4.9,0.9,7,4.8,7c4.5,0,4.7-2.8,4.7-8.7V10.6h7.4v16.3
	c0,8.3-3.5,11.8-12.1,11.8c-4.6,0-7.8-1.1-9.8-3.3c-2.2-2.5-2.4-5.7-2.4-10V10.6H241.1z M276.7,22.2h14.6c0,0.6,0,1.1,0,1.7
	c0,9.5-5.4,14.8-14.2,14.8c-3.9,0.2-7.7-1.3-10.5-4.1c-2.6-2.8-4.1-6.4-4.1-10.3c0-8.3,6.2-14.3,14.6-14.3c4.9-0.2,9.5,2.2,12.3,6.3
	l-6.5,3.1c-1.3-2-3.5-3.2-5.9-3.1c-4.4,0-7.2,3.1-7.2,8.3s2.8,8.4,7.2,8.4c3.9,0,6.6-2.1,7-5.1h-7.3V22.2z M295.9,10.6h7.4v10.7h9.9
	V10.6h7.4V38h-7.4V26.9h-9.9V38h-7.4V10.6z M359.1,24.4c0-4.4-3-8-7.1-8s-7.1,3.6-7.1,8s2.8,8,7.1,8S359.1,28.9,359.1,24.4
	 M362.3,34.5c-2.8,2.7-6.5,4.2-10.4,4.2c-3.4,0-6.6-1.2-9.3-3.3c-3.4-2.7-5.4-6.7-5.3-11.1c0-3.8,1.5-7.5,4.3-10.1
	c5.8-5.6,14.9-5.6,20.7,0c2.7,2.7,4.3,6.3,4.2,10.1C366.6,28.2,365,31.9,362.3,34.5 M371.2,10.6H388v6h-9.5v4.7h8.9v5.9h-8.9V38
	h-7.3V10.6z M127.5,78.4c3.2,0,4.9-0.6,4.9-2.9c0-2.6-1.5-3.1-4.7-3.1H125v6H127.5z M126.4,67.5c3.1,0,4.8-0.4,4.8-2.7
	c0-2.3-1.7-2.7-4.7-2.7h-1.6v5.5h1.5V67.5z M118,56.6h8.3c3.4,0,6,0,8.1,1c2.4,0.9,4,3.3,3.9,5.9c0,3.1-1.5,4.8-5,5.8
	c3.9,0.3,6.2,2.9,6.2,6.9c0.1,2.6-1.2,5.1-3.6,6.4c-2.5,1.4-5.7,1.4-10.2,1.4H118V56.6z M152.3,69.5c3.1,0,4.6-1,4.6-3.4
	c0-2.9-1.4-3.8-4.5-3.8h-1.5v7.2H152.3z M143.9,56.6h8.3c3.8,0,6.7,0,9,1.8c2,1.6,3.2,4.1,3.1,6.7c0,4.2-2.2,7-6.1,7.8l7.4,11h-8.4
	l-6.3-10.7v10.7h-7V56.6z M189,70.3c0-4.4-3-8-7.1-8s-7.1,3.6-7.1,8c0,4.5,2.7,8,7.1,8S189,74.8,189,70.3 M192.2,80.5
	c-5.4,5.2-13.8,5.6-19.6,0.9c-3.2-2.5-5.1-6.3-5.3-10.4s1.4-8,4.3-10.8c5.8-5.6,14.9-5.6,20.7,0c2.7,2.7,4.2,6.3,4.2,10.1
	C196.5,74.1,195,77.8,192.2,80.5 M210.4,65.2c0.2-0.8,0.5-1.6,1-2.2l3.3-6.4h8.8l-9.1,13.2L224.5,84H216l-4.6-8
	c-0.4-0.7-0.7-1.5-1-2.3c-0.2,0.8-0.5,1.5-0.9,2.3l-4.7,8.1h-8.4l10.1-14.3l-9.2-13h8.9l3.3,6.4C209.8,63.7,210.1,64.5,210.4,65.2
	 M236.2,78.4c3.2,0,4.9-0.6,4.9-2.9c0-2.6-1.5-3.1-4.7-3.1h-2.7v6H236.2z M235.1,67.5c3.1,0,4.8-0.4,4.8-2.7c0-2.3-1.7-2.7-4.7-2.7
	h-1.6v5.5h1.5V67.5z M226.7,56.6h8.3c3.4,0,6,0,8.1,1c2.4,0.9,4,3.3,3.9,5.9c0,3.1-1.5,4.8-5,5.8c3.9,0.3,6.2,2.9,6.2,6.9
	c0.1,2.6-1.2,5.1-3.6,6.4c-2.5,1.4-5.7,1.4-10.2,1.4h-7.7V56.6z M273.2,70.3c0-4.4-3-8-7.1-8s-7.1,3.6-7.1,8c0,4.5,2.7,8,7.1,8
	S273.2,74.8,273.2,70.3 M276.5,80.5c-5.4,5.2-13.8,5.6-19.7,0.9c-3.2-2.5-5.1-6.3-5.3-10.4s1.4-8,4.3-10.8c5.8-5.6,14.9-5.6,20.7,0
	c2.7,2.7,4.2,6.3,4.2,10.1C280.7,74.1,279.2,77.8,276.5,80.5 M292.6,56.6v14.8c0,4.9,0.9,7,4.7,7c4.5,0,4.7-2.8,4.7-8.7V56.6h7.4
	v16.3c0,8.3-3.5,11.8-12.1,11.8c-4.6,0-7.8-1.1-9.8-3.3c-2.2-2.5-2.4-5.7-2.4-10V56.6H292.6z M323.5,69.5c3.1,0,4.6-1,4.6-3.4
	c0-2.9-1.4-3.8-4.5-3.8h-1.5v7.2H323.5z M315.2,56.6h8.3c3.8,0,6.7,0,9,1.8c2,1.6,3.2,4.1,3.1,6.7c0,4.2-2.1,7-6.1,7.8l7.4,11h-8.4
	l-6.3-10.7v10.7h-7V56.6z M339.7,56.6h7.2l10.3,14.1c1,1.5,1.8,3.2,2.6,4.8c-0.3-1.8-0.4-3.6-0.4-5.5V56.5h7.1v27.4h-7.1L349,69.8
	c-1-1.6-1.8-3.2-2.5-4.8c0.2,1.8,0.4,3.6,0.4,5.5V84h-7.2L339.7,56.6L339.7,56.6z M372.2,56.6H389v6h-9.5v4.7h8.9v5.9h-8.9v4.6h9.5
	V84h-16.8V56.6z"/>
</svg>

