<svg xmlns="http://www.w3.org/2000/svg" xmlns:xlink="http://www.w3.org/1999/xlink" version="1.1" height="120" width="205" id="Layer_1" x="0px" y="0px" viewBox="331.5 244.69229125976562 178.89999389648438 106.0076904296875" style="enable-background:new 0 0 841.9 595.3;" xml:space="preserve" preserveAspectRatio="xMidYMid meet">
<style type="text/css">
	.st0{fill:#1C6B24;}
	.st1{fill:#FFFFFF;}
	.st2{fill:#0F4C81;}
</style>
<g>
	<path class="st0" d="M343.6,323.9c-0.7,0-1.3,0.6-1.3,1.3c0,0,0,0,0,0v24.2c0,0.7,0.6,1.3,1.3,1.3c0,0,0,0,0,0h90.7v-26.8H343.6z"/>
	<path class="st1" d="M427.8,333.3c-0.3,0-0.6,0.2-0.7,0.5l-0.1,0.5c-0.3-0.3-0.7-0.6-1.1-0.8c-0.5-0.2-1-0.3-1.5-0.3   c-1.2,0-2.3,0.5-3.1,1.4c-0.4,0.5-0.7,1-0.9,1.6c-0.2,0.6-0.3,1.3-0.3,2c0,0.7,0.1,1.4,0.3,2c0.2,0.6,0.4,1.1,0.8,1.6   c0.3,0.4,0.8,0.8,1.2,1c0.5,0.2,1.1,0.4,1.6,0.3c0.3,0,0.5,0,0.8-0.1c0.2,0,0.5-0.1,0.7-0.2c0.2-0.1,0.4-0.2,0.6-0.4   c0.2-0.1,0.4-0.3,0.5-0.5v0.6c0,0.3,0,0.6-0.1,0.8c-0.1,0.3-0.3,0.5-0.5,0.7c-0.2,0.2-0.5,0.4-0.8,0.5c-0.3,0.1-0.7,0.2-1.1,0.2   c-0.3,0-0.6,0-0.9-0.1c-0.2-0.1-0.4-0.2-0.6-0.3l-0.5-0.3c-0.1-0.1-0.3-0.1-0.4-0.1c-0.1,0-0.3,0-0.4,0.1c-0.1,0.1-0.2,0.2-0.3,0.3   l-0.6,1c0.2,0.2,0.4,0.3,0.6,0.5c0.3,0.2,0.5,0.3,0.8,0.4c0.3,0.1,0.7,0.2,1,0.3c0.4,0.1,0.8,0.1,1.2,0.1c0.7,0,1.4-0.1,2.1-0.3   c0.6-0.2,1.1-0.5,1.6-0.9c0.4-0.4,0.8-0.8,1-1.3c0.2-0.5,0.4-1.1,0.4-1.7v-9.1L427.8,333.3z M426.7,339.9c-0.2,0.3-0.5,0.6-0.9,0.8   c-0.6,0.3-1.3,0.4-1.9,0.1c-0.2-0.1-0.5-0.3-0.6-0.5c-0.2-0.3-0.3-0.6-0.4-0.9c-0.1-0.4-0.1-0.9-0.1-1.3c0-0.5,0-0.9,0.2-1.3   c0.1-0.3,0.2-0.7,0.4-0.9c0.2-0.2,0.4-0.4,0.7-0.5c0.3-0.1,0.6-0.2,0.9-0.2c0.3,0,0.6,0.1,0.9,0.2c0.3,0.1,0.6,0.3,0.8,0.6   L426.7,339.9L426.7,339.9z M412.6,333.8c-0.1-0.3-0.4-0.5-0.7-0.5h-1.6v9.9h2.6v-7.1c0.3-0.3,0.6-0.5,0.9-0.7   c0.3-0.2,0.7-0.2,1-0.2c0.4,0,0.8,0.1,1.1,0.5c0.3,0.4,0.4,0.8,0.4,1.3v6.3h2.6v-6.2c0-0.5-0.1-1-0.2-1.5c-0.1-0.4-0.3-0.8-0.6-1.2   c-0.3-0.3-0.6-0.6-1-0.8c-0.4-0.2-0.9-0.3-1.4-0.3c-0.3,0-0.6,0-0.9,0.1c-0.3,0.1-0.5,0.1-0.8,0.3c-0.2,0.1-0.5,0.3-0.7,0.4   c-0.2,0.2-0.4,0.3-0.6,0.5L412.6,333.8L412.6,333.8z M408.7,329.9c-0.2-0.4-0.5-0.7-0.9-0.9c-0.2-0.1-0.4-0.1-0.6-0.1   c-0.4,0-0.8,0.2-1.1,0.5c-0.1,0.1-0.3,0.3-0.4,0.5c-0.2,0.4-0.2,0.9,0,1.2c0.2,0.4,0.5,0.7,0.9,0.9c0.2,0.1,0.4,0.1,0.6,0.1   c0.2,0,0.4,0,0.6-0.1c0.2-0.1,0.4-0.2,0.5-0.4c0.2-0.1,0.3-0.3,0.4-0.5C408.9,330.8,408.9,330.3,408.7,329.9 M405.9,343.2h2.6v-9.9   h-2.6V343.2z M401.4,333.9c0-0.2-0.1-0.4-0.2-0.5c-0.2-0.1-0.4-0.2-0.6-0.1h-1.6v9.9h2.7v-6c0.1-0.2,0.2-0.4,0.3-0.6   c0.1-0.2,0.2-0.3,0.4-0.5c0.2-0.1,0.3-0.2,0.5-0.3c0.2-0.1,0.4-0.1,0.6-0.1c0.2,0,0.4,0,0.5,0h0.4c0.1,0,0.2,0,0.3-0.1   c0.1-0.1,0.1-0.2,0.1-0.3l0.2-1.9c-0.3-0.2-0.7-0.3-1.1-0.3c-0.5,0-1,0.2-1.4,0.5c-0.4,0.4-0.8,0.8-1.1,1.3L401.4,333.9   L401.4,333.9z M397.3,338.6c0.1,0,0.2,0,0.3,0c0.1,0,0.1-0.1,0.2-0.2c0.1-0.1,0.1-0.2,0.1-0.3c0-0.2,0-0.3,0-0.5   c0-0.7-0.1-1.3-0.3-1.9c-0.2-0.5-0.5-1-0.9-1.4c-0.4-0.4-0.9-0.7-1.4-0.9c-0.6-0.2-1.2-0.3-1.8-0.3c-0.7,0-1.4,0.1-2,0.4   c-1.1,0.5-2,1.4-2.5,2.6c-0.2,0.6-0.3,1.2-0.3,1.9c0,0.8,0.1,1.6,0.4,2.3c0.2,0.6,0.6,1.2,1,1.6c0.4,0.4,1,0.8,1.6,1   c0.6,0.2,1.3,0.3,1.9,0.3c0.4,0,0.7,0,1.1-0.1c0.4,0,0.7-0.1,1.1-0.3c0.4-0.1,0.7-0.3,1-0.5c0.3-0.2,0.7-0.5,0.9-0.8l-0.8-1   c-0.1-0.1-0.3-0.2-0.5-0.2c-0.2,0-0.3,0.1-0.5,0.1l-0.5,0.3c-0.2,0.1-0.5,0.2-0.7,0.3c-0.3,0.1-0.6,0.1-0.9,0.1   c-0.6,0-1.3-0.2-1.7-0.6c-0.5-0.6-0.8-1.3-0.8-2L397.3,338.6z M391.4,337.1c0.1-0.6,0.3-1.1,0.7-1.5c0.4-0.4,0.9-0.6,1.5-0.5   c0.3,0,0.6,0.1,0.9,0.2c0.2,0.1,0.4,0.3,0.6,0.5c0.2,0.2,0.3,0.4,0.4,0.7c0.1,0.3,0.1,0.5,0.1,0.8L391.4,337.1z M386.9,333.3   c-0.2,0-0.3,0-0.5,0.1c-0.1,0.1-0.2,0.2-0.3,0.4l-1.7,4.9c-0.1,0.3-0.2,0.7-0.3,1s-0.2,0.6-0.2,1c-0.1-0.3-0.1-0.6-0.2-1   s-0.2-0.6-0.3-1l-1.7-4.8c-0.1-0.1-0.1-0.3-0.3-0.4c-0.1-0.1-0.3-0.1-0.5-0.1h-2.2l3.9,9.9h2.4l3.9-9.9L386.9,333.3z M378.3,329.9   c-0.2-0.4-0.5-0.7-0.9-0.9c-0.2-0.1-0.4-0.1-0.7-0.1c-0.2,0-0.4,0-0.6,0.1c-0.4,0.2-0.7,0.5-0.9,0.9c-0.2,0.4-0.2,0.9,0,1.2   c0.1,0.2,0.2,0.4,0.4,0.5c0.1,0.2,0.3,0.3,0.5,0.4c0.2,0.1,0.4,0.1,0.6,0.1c0.2,0,0.4,0,0.6-0.1c0.2-0.1,0.4-0.2,0.5-0.4   c0.2-0.1,0.3-0.3,0.4-0.5C378.4,330.8,378.4,330.3,378.3,329.9 M375.4,343.2h2.6v-9.9h-2.6V343.2z M371,343.2h2.6v-14.3H371   L371,343.2L371,343.2z M369.2,338.7c0.1,0,0.2,0,0.3,0c0.1,0,0.1-0.1,0.2-0.2c0.1-0.1,0.1-0.2,0.1-0.3c0-0.2,0-0.3,0-0.5   c0-0.7-0.1-1.3-0.3-1.9c-0.2-0.5-0.5-1-0.9-1.4c-0.4-0.4-0.9-0.7-1.4-0.9c-0.6-0.2-1.1-0.3-1.7-0.3c-0.7,0-1.4,0.1-2,0.4   c-0.6,0.2-1.1,0.6-1.5,1c-0.4,0.4-0.8,1-1,1.5c-0.2,0.6-0.3,1.2-0.3,1.9c0,0.8,0.1,1.6,0.4,2.3c0.2,0.6,0.6,1.2,1,1.6   c0.4,0.4,1,0.8,1.6,1c0.6,0.2,1.3,0.3,1.9,0.3c0.4,0,0.7,0,1.1-0.1c0.4,0,0.7-0.1,1.1-0.3c0.4-0.1,0.7-0.3,1-0.5   c0.3-0.2,0.7-0.5,0.9-0.8l-0.8-1c-0.1-0.1-0.3-0.2-0.5-0.2c-0.2,0-0.3,0-0.5,0.1l-0.5,0.3c-0.2,0.1-0.5,0.2-0.7,0.3   c-0.3,0.1-0.6,0.1-0.9,0.1c-0.6,0-1.3-0.2-1.7-0.6c-0.5-0.6-0.8-1.3-0.8-2L369.2,338.7z M363.4,337.1c0.1-0.6,0.3-1.1,0.7-1.5   c0.4-0.4,0.9-0.6,1.5-0.5c0.3,0,0.6,0.1,0.9,0.2c0.2,0.1,0.4,0.3,0.6,0.5c0.2,0.2,0.3,0.4,0.4,0.7c0.1,0.3,0.1,0.5,0.1,0.8   L363.4,337.1z M356.8,338.2c-0.2,0.5-0.5,1-0.8,1.5c-0.4,0.4-0.8,0.7-1.3,0.9c-0.6,0.2-1.2,0.3-1.8,0.3h-2.4v-9.4h2.4   c0.6,0,1.2,0.1,1.8,0.3c0.5,0.2,0.9,0.5,1.3,0.9c0.4,0.4,0.6,0.9,0.8,1.5C357.2,335.6,357.2,336.9,356.8,338.2 M359.5,333.5   c-0.3-0.8-0.8-1.6-1.4-2.2c-0.6-0.6-1.4-1.1-2.2-1.4c-0.9-0.4-1.9-0.5-2.9-0.5h-5.3v13.9h5.3c1,0,2-0.2,2.9-0.5   c0.8-0.3,1.6-0.8,2.2-1.4c0.6-0.6,1.1-1.4,1.4-2.2C360.3,337.3,360.3,335.3,359.5,333.5"/>
	<path class="st2" d="M434.3,323.9v26.8h63.9c0.7,0,1.3-0.6,1.3-1.3c0,0,0,0,0,0v-24.2c0-0.7-0.6-1.3-1.3-1.3c0,0,0,0,0,0   L434.3,323.9z"/>
	<path class="st1" d="M491.9,333.3v7.1c-0.3,0.3-0.6,0.5-0.9,0.7c-0.3,0.2-0.7,0.2-1,0.2c-0.4,0-0.8-0.1-1.1-0.5   c-0.3-0.4-0.4-0.8-0.4-1.3v-6.3h-2.6v6.3c0,0.5,0.1,1,0.2,1.5c0.1,0.4,0.4,0.8,0.6,1.2c0.3,0.3,0.6,0.6,1,0.8   c0.5,0.2,0.9,0.3,1.4,0.3c0.3,0,0.6,0,0.9-0.1c0.3-0.1,0.5-0.2,0.8-0.3c0.2-0.1,0.5-0.2,0.7-0.4c0.2-0.2,0.4-0.3,0.6-0.5l0.2,0.7   c0.1,0.3,0.3,0.5,0.6,0.5h1.6v-9.9H491.9z M478.1,340.6c-0.7-1.5-0.7-3.2,0-4.6c0.8-0.9,2.2-1,3.1-0.3c0.1,0.1,0.2,0.2,0.3,0.3   c0.7,1.5,0.7,3.2,0,4.6c-0.8,0.9-2.2,1-3.1,0.3C478.2,340.7,478.2,340.7,478.1,340.6 M477.8,333.6c-0.6,0.2-1.1,0.6-1.6,1   c-0.4,0.5-0.8,1-1,1.6c-0.5,1.4-0.5,2.9,0,4.2c0.2,0.6,0.6,1.2,1,1.6c0.4,0.4,1,0.8,1.6,1c0.6,0.2,1.3,0.4,2,0.4   c0.7,0,1.4-0.1,2-0.4c0.6-0.2,1.1-0.6,1.6-1c0.4-0.5,0.8-1,1-1.6c0.5-1.4,0.5-2.9,0-4.2c-0.2-0.6-0.6-1.1-1-1.6   c-0.4-0.4-1-0.8-1.6-1c-0.6-0.2-1.3-0.4-2-0.4C479.1,333.2,478.4,333.3,477.8,333.6 M473,333.4c-0.2,0-0.3,0-0.4,0.1   c-0.1,0.1-0.2,0.2-0.3,0.4l-1.7,4.7c-0.1,0.4-0.3,0.8-0.4,1.1c0-0.2-0.1-0.4-0.2-0.6s-0.1-0.4-0.2-0.6l-1.9-4.7   c-0.1-0.1-0.1-0.3-0.2-0.3c-0.1-0.1-0.3-0.2-0.5-0.1h-2.3l4,9.1l-1.9,4h2c0.2,0,0.4,0,0.6-0.1c0.1-0.1,0.2-0.2,0.3-0.4l5.3-12.5   L473,333.4z M458.4,334c0-0.2-0.1-0.4-0.2-0.5c-0.2-0.1-0.4-0.2-0.6-0.1H456v9.9h2.6v-6c0.1-0.2,0.2-0.4,0.3-0.6   c0.1-0.2,0.2-0.3,0.4-0.5c0.1-0.1,0.3-0.2,0.5-0.3c0.2-0.1,0.4-0.1,0.6-0.1c0.2,0,0.4,0,0.5,0h0.4c0.1,0,0.2,0,0.3-0.1   c0.1-0.1,0.1-0.2,0.1-0.3l0.2-1.9c-0.3-0.2-0.7-0.3-1.1-0.3c-0.5,0-1,0.2-1.4,0.5c-0.4,0.4-0.8,0.8-1.1,1.3L458.4,334L458.4,334z    M448.2,340.6c-0.7-1.5-0.7-3.2,0-4.6c0.4-0.5,1-0.8,1.7-0.8c0.7,0,1.3,0.2,1.7,0.8c0.7,1.5,0.7,3.2,0,4.6c-0.4,0.5-1,0.8-1.7,0.8   C449.2,341.4,448.6,341.1,448.2,340.6 M447.9,333.6c-0.6,0.2-1.1,0.6-1.6,1c-0.4,0.5-0.8,1-1,1.6c-0.5,1.4-0.5,2.9,0,4.2   c0.2,0.6,0.6,1.1,1,1.6c0.4,0.4,1,0.8,1.6,1c1.3,0.5,2.7,0.5,4,0c0.6-0.2,1.1-0.6,1.6-1c0.4-0.5,0.8-1,1-1.6c0.5-1.4,0.5-2.9,0-4.2   c-0.4-1.2-1.4-2.2-2.6-2.6C450.6,333.1,449.2,333.1,447.9,333.6 M442.6,343.3v-8h2.4v-1.8h-2.5v-0.6c0-0.3,0-0.6,0.1-0.9   c0.1-0.2,0.2-0.4,0.3-0.6c0.2-0.1,0.3-0.2,0.5-0.3c0.2-0.1,0.5-0.1,0.7-0.1c0.2,0,0.4,0,0.5-0.1c0.2-0.1,0.3-0.2,0.2-0.4l0.1-1.3   c-0.2,0-0.4-0.1-0.6-0.1c-0.2,0-0.4,0-0.6,0c-0.5,0-1.1,0.1-1.6,0.3c-0.4,0.2-0.9,0.4-1.2,0.7c-0.3,0.3-0.6,0.7-0.8,1.2   c-0.2,0.5-0.3,1-0.3,1.5v0.7h-1.4v1c0,0.2,0.1,0.3,0.2,0.4c0.1,0.1,0.3,0.2,0.5,0.2l0.8,0.1v8L442.6,343.3z"/>
	<path class="st2" d="M339.8,282.2c-0.5-0.4-1-0.8-1.6-1c-0.7-0.2-1.4-0.4-2.1-0.4c-0.6,0-1.2,0.1-1.8,0.3c-0.5,0.2-0.9,0.5-1.3,0.8   c-0.3,0.3-0.6,0.7-0.8,1.2c-0.2,0.4-0.3,0.9-0.3,1.4c0,0.5,0.1,1,0.2,1.5c0.1,0.4,0.4,0.7,0.7,1c0.3,0.3,0.6,0.5,0.9,0.6   c0.3,0.2,0.7,0.3,1.1,0.4c0.4,0.1,0.7,0.2,1.1,0.3c0.3,0.1,0.6,0.2,0.9,0.4c0.3,0.1,0.5,0.3,0.7,0.5c0.2,0.2,0.3,0.5,0.2,0.8   c0,0.5-0.2,1-0.5,1.4c-0.4,0.3-1,0.5-1.5,0.5c-0.4,0-0.8-0.1-1.1-0.2c-0.3-0.1-0.6-0.2-0.8-0.4c-0.2-0.1-0.4-0.3-0.6-0.4   c-0.1-0.1-0.3-0.2-0.5-0.2c-0.1,0-0.2,0-0.3,0.1c-0.1,0-0.2,0.1-0.2,0.2l-0.7,1.1c0.3,0.3,0.5,0.5,0.8,0.7c0.3,0.2,0.7,0.4,1,0.5   c0.7,0.3,1.5,0.5,2.3,0.5c0.6,0,1.3-0.1,1.9-0.3c0.5-0.2,1-0.5,1.4-0.9c0.4-0.4,0.7-0.8,0.9-1.3c0.2-0.5,0.3-1.1,0.3-1.6   c0-0.5-0.1-0.9-0.2-1.3c-0.2-0.4-0.4-0.7-0.7-0.9c-0.3-0.3-0.6-0.5-0.9-0.6c-0.4-0.2-0.7-0.3-1.1-0.4l-1.1-0.4   c-0.3-0.1-0.6-0.2-0.9-0.4c-0.3-0.1-0.5-0.3-0.7-0.5c-0.2-0.2-0.3-0.5-0.2-0.8c0-0.2,0-0.4,0.1-0.6c0.1-0.2,0.2-0.4,0.4-0.5   c0.2-0.1,0.4-0.3,0.6-0.3c0.3-0.1,0.6-0.1,0.9-0.1c0.3,0,0.6,0,0.9,0.1c0.2,0.1,0.5,0.2,0.7,0.3l0.5,0.3c0.1,0.1,0.3,0.1,0.4,0.1   c0.1,0,0.2,0,0.3-0.1c0.1-0.1,0.2-0.2,0.2-0.3L339.8,282.2L339.8,282.2z M344.2,284.9c-1.1,0.4-1.9,1.3-2.3,2.4   c-0.4,1.3-0.4,2.6,0,3.9c0.2,0.5,0.5,1.1,0.9,1.5c0.4,0.4,0.9,0.7,1.4,0.9c1.2,0.4,2.5,0.4,3.7,0c0.5-0.2,1-0.5,1.4-0.9   c0.4-0.4,0.7-0.9,0.9-1.5c0.4-1.3,0.4-2.6,0-3.9c-0.4-1.1-1.2-2-2.3-2.4C346.7,284.5,345.4,284.5,344.2,284.9 M344.4,291.5   c-0.7-1.4-0.7-3,0-4.4c0.4-0.5,1-0.8,1.7-0.8c0.6,0,1.3,0.2,1.7,0.8c0.4,0.7,0.6,1.4,0.5,2.2c0.1,0.8-0.1,1.5-0.5,2.2   c-0.4,0.5-1,0.8-1.7,0.8C345.4,292.3,344.8,292,344.4,291.5 M358.1,284.8v6.5c-0.3,0.3-0.6,0.5-0.9,0.7c-0.3,0.2-0.7,0.2-1,0.2   c-0.4,0-0.9-0.1-1.1-0.5c-0.3-0.4-0.4-0.8-0.4-1.3v-5.7h-2.2v5.7c0,0.5,0.1,0.9,0.2,1.4c0.1,0.4,0.3,0.8,0.6,1.1   c0.3,0.3,0.6,0.5,0.9,0.7c0.4,0.2,0.9,0.3,1.3,0.2c0.5,0,1.1-0.1,1.6-0.4c0.5-0.2,0.9-0.5,1.2-0.9l0.1,0.7c0.1,0.3,0.3,0.4,0.5,0.4   h1.3v-9L358.1,284.8z M367.1,293.7c0.4-0.1,0.8-0.3,1.1-0.6l-0.6-1.1c0-0.1-0.1-0.1-0.1-0.1c-0.1,0-0.1,0-0.2,0c-0.1,0-0.1,0-0.2,0   l-0.2,0.1c-0.1,0-0.2,0.1-0.2,0.1c-0.1,0-0.2,0-0.3,0c-0.2,0-0.4,0-0.6-0.2c-0.1-0.2-0.2-0.4-0.2-0.7v-4.9h2.4v-1.5h-2.4v-2.9h-1.1   c-0.1,0-0.2,0-0.3,0.1c-0.1,0.1-0.1,0.2-0.2,0.3l-0.5,2.5L362,285v0.9c0,0.1,0,0.2,0.1,0.3c0.1,0.1,0.2,0.1,0.3,0.1h0.9v5   c0,0.7,0.2,1.3,0.6,1.8c0.5,0.5,1.1,0.7,1.8,0.7C366.2,293.9,366.7,293.8,367.1,293.7 M371.9,280.7h-2.1v13.1h2.2v-6.5   c0.3-0.3,0.6-0.5,0.9-0.7c0.3-0.2,0.7-0.3,1.1-0.3c0.4,0,0.9,0.1,1.1,0.5c0.3,0.4,0.4,0.8,0.4,1.3v5.7h2.2V288   c0-0.5-0.1-0.9-0.2-1.4c-0.1-0.4-0.3-0.8-0.6-1.1c-0.3-0.3-0.6-0.5-0.9-0.7c-0.4-0.2-0.9-0.3-1.3-0.2c-0.5,0-1,0.1-1.5,0.3   c-0.4,0.2-0.8,0.5-1.2,0.8L371.9,280.7L371.9,280.7z M391,287.4v1.3c0,0.1,0,0.2,0.1,0.3c0.1,0.1,0.2,0.1,0.4,0.1h1.6v2.3   c-0.3,0.2-0.7,0.3-1.1,0.4c-0.4,0.1-0.8,0.2-1.3,0.1c-0.6,0-1.2-0.1-1.8-0.3c-0.5-0.2-1-0.5-1.4-0.9c-0.4-0.4-0.7-0.9-0.9-1.4   c-0.2-0.6-0.3-1.3-0.3-2c0-0.6,0.1-1.2,0.3-1.8c0.2-0.5,0.5-1,0.8-1.4c0.4-0.4,0.8-0.7,1.3-0.9c0.5-0.2,1.1-0.3,1.7-0.3   c0.3,0,0.7,0,1,0.1c0.3,0,0.5,0.1,0.8,0.2c0.2,0.1,0.4,0.2,0.6,0.3l0.6,0.3c0.2,0.1,0.4,0.2,0.6,0.1c0.2,0,0.3-0.2,0.4-0.3l0.7-1.1   c-0.3-0.3-0.6-0.5-0.9-0.7c-0.3-0.2-0.6-0.4-1-0.5c-0.4-0.2-0.8-0.3-1.2-0.3c-0.5-0.1-1-0.1-1.5-0.1c-0.9,0-1.9,0.1-2.7,0.5   c-0.8,0.3-1.5,0.7-2.1,1.3c-0.6,0.6-1,1.3-1.3,2c-0.3,0.8-0.5,1.7-0.5,2.6c0,0.9,0.2,1.8,0.5,2.6c0.3,0.8,0.8,1.5,1.4,2.1   c0.6,0.6,1.3,1,2.1,1.3c0.9,0.3,1.9,0.5,2.8,0.5c0.8,0,1.6-0.1,2.3-0.3c0.7-0.2,1.4-0.6,2.1-1v-5.1L391,287.4z M397.5,293.7h2.2   v-13.1h-2.2V293.7L397.5,293.7z M404.3,284.9c-0.5,0.2-1,0.5-1.4,0.9c-0.4,0.4-0.7,0.9-0.9,1.5c-0.4,1.3-0.4,2.6,0,3.9   c0.2,0.5,0.5,1,0.9,1.5c0.4,0.4,0.9,0.7,1.4,0.9c1.2,0.4,2.5,0.4,3.7,0c0.5-0.2,1-0.5,1.4-0.9c0.4-0.4,0.7-0.9,0.9-1.5   c0.4-1.3,0.4-2.6,0-3.9c-0.2-0.5-0.5-1-0.9-1.5c-0.4-0.4-0.9-0.7-1.4-0.9C406.8,284.5,405.5,284.5,404.3,284.9 M404.5,291.5   c-0.7-1.4-0.7-3,0-4.4c0.4-0.5,1-0.8,1.7-0.8c0.6,0,1.3,0.2,1.7,0.8c0.4,0.7,0.6,1.4,0.5,2.2c0.1,0.8-0.1,1.5-0.5,2.2   c-0.4,0.5-1,0.8-1.7,0.8C405.5,292.3,404.9,292,404.5,291.5 M418.2,284.8v6.5c-0.3,0.3-0.6,0.5-0.9,0.7c-0.3,0.2-0.7,0.3-1,0.2   c-0.4,0-0.9-0.1-1.1-0.5c-0.3-0.4-0.4-0.8-0.4-1.3v-5.7h-2.2v5.7c0,0.5,0.1,0.9,0.2,1.4c0.1,0.4,0.3,0.8,0.6,1.1   c0.3,0.3,0.6,0.6,1,0.7c0.9,0.4,2,0.3,2.9-0.1c0.5-0.2,0.9-0.5,1.2-0.9l0.1,0.7c0.1,0.3,0.3,0.4,0.5,0.4h1.3v-9L418.2,284.8z    M429.9,285.9c-0.4-0.4-0.9-0.7-1.4-0.9c-1.2-0.4-2.5-0.4-3.6,0c-0.5,0.2-1,0.6-1.4,1c-0.4,0.4-0.7,0.9-0.8,1.5   c-0.4,1.2-0.4,2.6,0,3.8c0.2,0.5,0.5,1,0.9,1.5c0.4,0.4,0.8,0.7,1.3,0.9c0.5,0.2,1,0.3,1.6,0.3c0.3,0,0.6,0,1-0.1   c0.3,0,0.6-0.1,0.9-0.2c0.3-0.1,0.6-0.3,0.9-0.5c0.3-0.2,0.6-0.4,0.8-0.7l-0.6-0.8c-0.1-0.1-0.2-0.2-0.4-0.2c-0.1,0-0.3,0-0.4,0.1   l-0.4,0.3c-0.2,0.1-0.4,0.2-0.5,0.3c-0.3,0.1-0.6,0.1-0.8,0.1c-0.3,0-0.6-0.1-0.9-0.2c-0.3-0.1-0.5-0.3-0.7-0.6   c-0.2-0.3-0.4-0.6-0.4-1c-0.1-0.4-0.2-0.8-0.2-1.3c0-0.4,0-0.8,0.1-1.2c0.1-0.3,0.2-0.7,0.4-0.9c0.2-0.3,0.4-0.5,0.7-0.6   c0.3-0.1,0.7-0.2,1-0.2c0.3,0,0.5,0,0.8,0.1c0.2,0.1,0.4,0.1,0.5,0.2c0.1,0.1,0.3,0.1,0.4,0.2c0.1,0.1,0.2,0.1,0.3,0.1   c0.1,0,0.2,0,0.3-0.1c0.1-0.1,0.1-0.1,0.2-0.2L429.9,285.9L429.9,285.9z M433.3,288.2c0.1-0.6,0.3-1.1,0.7-1.5   c0.6-0.5,1.5-0.7,2.3-0.4c0.2,0.1,0.4,0.2,0.6,0.4c0.2,0.2,0.3,0.4,0.4,0.6c0.1,0.3,0.1,0.5,0.1,0.8H433.3z M438.8,289.5   c0.2,0,0.3,0,0.4-0.2c0.1-0.2,0.1-0.4,0.1-0.7c0-0.6-0.1-1.2-0.3-1.7c-0.2-0.5-0.5-0.9-0.8-1.3c-0.4-0.3-0.8-0.6-1.2-0.8   c-1.1-0.4-2.3-0.4-3.4,0.1c-0.5,0.2-1,0.5-1.4,0.9c-0.4,0.4-0.7,0.9-0.9,1.4c-0.2,0.6-0.3,1.1-0.3,1.7c0,0.7,0.1,1.4,0.3,2.1   c0.2,0.6,0.5,1.1,0.9,1.5c0.4,0.4,0.9,0.7,1.4,0.9c0.6,0.2,1.2,0.3,1.8,0.3c0.3,0,0.7,0,1-0.1c0.3-0.1,0.7-0.1,1-0.2   c0.3-0.1,0.6-0.3,0.9-0.5c0.3-0.2,0.6-0.4,0.8-0.7l-0.6-0.8c-0.1-0.1-0.2-0.2-0.4-0.2c-0.1,0-0.3,0-0.4,0.1l-0.5,0.3   c-0.2,0.1-0.4,0.2-0.7,0.3c-0.3,0.1-0.6,0.1-0.9,0.1c-0.3,0-0.7,0-1-0.2c-0.3-0.1-0.5-0.3-0.8-0.5c-0.2-0.2-0.4-0.5-0.5-0.8   c-0.1-0.4-0.2-0.8-0.2-1.2L438.8,289.5z M447.3,285.7c-0.4-0.3-0.8-0.6-1.3-0.8c-0.5-0.2-1.1-0.3-1.7-0.3c-0.5,0-1,0.1-1.5,0.2   c-0.4,0.1-0.7,0.3-1.1,0.6c-0.3,0.2-0.5,0.5-0.6,0.9c-0.1,0.3-0.2,0.7-0.2,1.1c0,0.3,0.1,0.7,0.2,1c0.1,0.3,0.3,0.5,0.5,0.7   c0.2,0.2,0.5,0.4,0.7,0.5c0.3,0.1,0.5,0.2,0.8,0.3l0.8,0.3c0.2,0.1,0.5,0.2,0.7,0.3c0.2,0.1,0.4,0.2,0.5,0.4   c0.1,0.1,0.2,0.3,0.2,0.5c0,0.1,0,0.3-0.1,0.4c-0.1,0.1-0.2,0.3-0.3,0.4c-0.1,0.1-0.3,0.2-0.5,0.2c-0.2,0.1-0.4,0.1-0.7,0.1   c-0.3,0-0.5,0-0.8-0.1c-0.2-0.1-0.4-0.1-0.6-0.2l-0.4-0.2c-0.1-0.1-0.2-0.1-0.4-0.1c-0.1,0-0.2,0-0.3,0.1c-0.1,0.1-0.2,0.1-0.2,0.2   l-0.5,0.8c0.2,0.2,0.4,0.3,0.6,0.4c0.2,0.1,0.5,0.3,0.7,0.4c0.3,0.1,0.6,0.2,0.9,0.2c0.3,0.1,0.6,0.1,0.9,0.1c0.5,0,1-0.1,1.5-0.2   c0.4-0.1,0.8-0.3,1.1-0.6c0.3-0.3,0.5-0.6,0.7-1c0.2-0.4,0.2-0.8,0.2-1.2c0-0.3-0.1-0.6-0.2-0.9c-0.1-0.3-0.3-0.5-0.5-0.7   c-0.2-0.2-0.5-0.3-0.7-0.5c-0.3-0.1-0.5-0.2-0.8-0.3c-0.3-0.1-0.5-0.2-0.8-0.3c-0.2-0.1-0.5-0.2-0.7-0.3c-0.2-0.1-0.4-0.2-0.5-0.4   c-0.1-0.1-0.2-0.3-0.2-0.5c0-0.3,0.1-0.5,0.4-0.7c0.3-0.2,0.6-0.3,1-0.3c0.2,0,0.5,0,0.7,0.1c0.2,0,0.4,0.1,0.5,0.2l0.4,0.2   c0.1,0.1,0.2,0.1,0.3,0.1c0.1,0,0.2,0,0.2-0.1c0.1,0,0.1-0.1,0.2-0.2L447.3,285.7L447.3,285.7z M453.7,293.7   c0.4-0.1,0.8-0.3,1.1-0.6l-0.6-1.1c0-0.1-0.1-0.1-0.1-0.1c0,0-0.1,0-0.1,0c-0.1,0-0.1,0-0.2,0l-0.2,0.1l-0.2,0.1   c-0.1,0-0.2,0-0.3,0c-0.2,0-0.4-0.1-0.6-0.2c-0.1-0.2-0.2-0.4-0.2-0.7v-4.9h2.4v-1.5h-2.4v-2.9H451c-0.1,0-0.2,0-0.3,0.1   c-0.1,0.1-0.1,0.2-0.2,0.3l-0.5,2.5l-1.4,0.2v0.9c0,0.1,0,0.3,0.1,0.3c0.1,0.1,0.2,0.1,0.3,0.1h0.9v5c0,0.7,0.2,1.3,0.6,1.8   c0.5,0.5,1.1,0.7,1.8,0.7C452.8,293.9,453.3,293.8,453.7,293.7 M457.9,288.2c0.1-0.6,0.3-1.1,0.7-1.5c0.4-0.4,0.9-0.6,1.5-0.5   c0.3,0,0.6,0.1,0.9,0.2c0.2,0.1,0.4,0.2,0.6,0.4c0.2,0.2,0.3,0.4,0.4,0.6c0.1,0.3,0.1,0.5,0.1,0.8H457.9z M463.5,289.5   c0.2,0,0.3,0,0.4-0.2c0.1-0.2,0.1-0.4,0.1-0.7c0-0.6-0.1-1.2-0.3-1.7c-0.2-0.5-0.4-0.9-0.8-1.3c-0.4-0.3-0.8-0.6-1.2-0.8   c-1.1-0.4-2.3-0.4-3.4,0.1c-0.5,0.2-1,0.5-1.4,0.9c-0.4,0.4-0.7,0.9-0.9,1.4c-0.2,0.6-0.3,1.1-0.3,1.7c0,0.7,0.1,1.4,0.4,2.1   c0.2,0.6,0.5,1.1,0.9,1.5c0.4,0.4,0.9,0.7,1.4,0.9c0.6,0.2,1.2,0.3,1.8,0.3c0.3,0,0.7,0,1-0.1c0.3-0.1,0.7-0.1,1-0.2   c0.3-0.1,0.6-0.3,0.9-0.5c0.3-0.2,0.6-0.4,0.8-0.7l-0.6-0.8c-0.1-0.1-0.2-0.2-0.4-0.2c-0.1,0-0.3,0-0.4,0.1l-0.5,0.3   c-0.2,0.1-0.4,0.2-0.7,0.3c-0.3,0.1-0.6,0.1-0.9,0.1c-0.3,0-0.7,0-1-0.2c-0.3-0.1-0.5-0.3-0.8-0.5c-0.2-0.2-0.4-0.5-0.5-0.8   c-0.1-0.4-0.2-0.8-0.2-1.2L463.5,289.5z M467.9,285.3c0-0.2-0.1-0.3-0.2-0.4c-0.1-0.1-0.3-0.1-0.5-0.1H466v9h2.2v-5.6   c0.1-0.2,0.2-0.4,0.3-0.6c0.1-0.2,0.2-0.3,0.4-0.5c0.2-0.1,0.3-0.2,0.5-0.3c0.2-0.1,0.4-0.1,0.6-0.1c0.2,0,0.3,0,0.5,0h0.4   c0.1,0,0.2,0,0.2-0.1c0.1-0.1,0.1-0.1,0.1-0.2l0.1-1.6c-0.3-0.2-0.6-0.3-1-0.3c-0.5,0-1,0.1-1.4,0.5c-0.4,0.4-0.8,0.8-1,1.3   L467.9,285.3L467.9,285.3z M478.9,285.7c-0.4-0.3-0.8-0.6-1.3-0.8c-0.5-0.2-1.1-0.3-1.7-0.3c-0.5,0-1,0.1-1.5,0.2   c-0.4,0.1-0.7,0.3-1.1,0.6c-0.3,0.2-0.5,0.5-0.6,0.9c-0.1,0.3-0.2,0.7-0.2,1.1c0,0.3,0.1,0.7,0.2,1c0.1,0.3,0.3,0.5,0.5,0.7   c0.2,0.2,0.5,0.4,0.7,0.5c0.3,0.1,0.5,0.2,0.8,0.3l0.8,0.3c0.2,0.1,0.5,0.2,0.7,0.3c0.2,0.1,0.4,0.2,0.5,0.4   c0.1,0.1,0.2,0.3,0.2,0.5c0,0.1,0,0.3-0.1,0.4c-0.1,0.1-0.2,0.3-0.3,0.4c-0.1,0.1-0.3,0.2-0.5,0.2c-0.2,0.1-0.4,0.1-0.7,0.1   c-0.3,0-0.5,0-0.8-0.1c-0.2-0.1-0.4-0.1-0.6-0.2l-0.4-0.2c-0.2-0.1-0.5-0.1-0.7,0c-0.1,0.1-0.2,0.1-0.2,0.2l-0.5,0.8   c0.2,0.2,0.4,0.3,0.6,0.4c0.2,0.1,0.5,0.3,0.8,0.4c0.3,0.1,0.6,0.2,0.9,0.2c0.3,0.1,0.6,0.1,0.9,0.1c0.5,0,1-0.1,1.5-0.2   c0.4-0.1,0.8-0.3,1.1-0.6c0.3-0.3,0.5-0.6,0.7-1c0.2-0.4,0.2-0.8,0.2-1.2c0-0.3-0.1-0.7-0.2-1c-0.1-0.3-0.3-0.5-0.5-0.7   c-0.2-0.2-0.5-0.3-0.7-0.5c-0.3-0.1-0.5-0.2-0.8-0.3c-0.3-0.1-0.5-0.2-0.8-0.3c-0.2-0.1-0.5-0.2-0.7-0.3c-0.2-0.1-0.4-0.2-0.5-0.4   c-0.1-0.1-0.2-0.3-0.2-0.5c0-0.3,0.1-0.5,0.4-0.7c0.3-0.2,0.6-0.3,1-0.3c0.2,0,0.5,0,0.7,0.1c0.2,0,0.4,0.1,0.5,0.2l0.4,0.2   c0.1,0.1,0.2,0.1,0.3,0.1c0.1,0,0.2,0,0.2-0.1c0.1,0,0.1-0.1,0.2-0.2L478.9,285.7L478.9,285.7z M483.1,280.7H481v13.1h2.2v-6.5   c0.3-0.3,0.6-0.5,0.9-0.7c0.3-0.2,0.7-0.3,1-0.3c0.4,0,0.9,0.1,1.2,0.5c0.3,0.4,0.4,0.8,0.4,1.3v5.7h2.1V288c0-0.5-0.1-0.9-0.2-1.4   c-0.1-0.4-0.3-0.8-0.6-1.1c-0.3-0.3-0.6-0.5-1-0.7c-0.4-0.2-0.9-0.3-1.3-0.2c-0.5,0-1,0.1-1.5,0.3c-0.4,0.2-0.8,0.5-1.2,0.8v-5   L483.1,280.7z M491.3,293.8h2.2v-9h-2.2L491.3,293.8L491.3,293.8z M493.7,281.6c-0.1-0.2-0.2-0.3-0.3-0.4c-0.1-0.1-0.3-0.2-0.5-0.3   c-0.3-0.1-0.7-0.1-1.1,0c-0.2,0.1-0.3,0.2-0.4,0.3c-0.1,0.1-0.2,0.3-0.3,0.4c-0.1,0.2-0.1,0.4-0.1,0.5c0,0.2,0,0.4,0.1,0.5   c0.1,0.2,0.2,0.3,0.3,0.4c0.1,0.1,0.3,0.2,0.4,0.3c0.3,0.1,0.7,0.1,1.1,0c0.2-0.1,0.3-0.2,0.5-0.3c0.1-0.1,0.2-0.3,0.3-0.4   c0.1-0.2,0.1-0.3,0.1-0.5C493.8,281.9,493.7,281.7,493.7,281.6 M498,285.3c0-0.2-0.1-0.3-0.2-0.4c-0.1-0.1-0.3-0.1-0.5-0.1H496v9   h2.2v-5.6c0.1-0.2,0.2-0.4,0.3-0.6c0.1-0.2,0.2-0.3,0.4-0.5c0.1-0.1,0.3-0.2,0.5-0.3c0.2-0.1,0.4-0.1,0.6-0.1c0.2,0,0.3,0,0.5,0   h0.4c0.1,0,0.2,0,0.2-0.1c0.1-0.1,0.1-0.1,0.1-0.2l0.1-1.6c-0.3-0.2-0.6-0.3-1-0.3c-0.5,0-1,0.2-1.4,0.5c-0.4,0.3-0.8,0.8-1,1.3   L498,285.3L498,285.3z M504.4,288.2c0.1-0.6,0.3-1.1,0.7-1.5c0.4-0.4,0.9-0.6,1.5-0.5c0.3,0,0.6,0.1,0.8,0.2   c0.2,0.1,0.4,0.2,0.6,0.4c0.2,0.2,0.3,0.4,0.4,0.6c0.1,0.3,0.1,0.5,0.1,0.8H504.4z M509.9,289.5c0.2,0,0.3,0,0.4-0.2   c0.1-0.2,0.1-0.4,0.1-0.7c0-0.6-0.1-1.2-0.3-1.7c-0.2-0.5-0.5-0.9-0.8-1.3c-0.4-0.3-0.8-0.6-1.2-0.8c-0.5-0.2-1-0.3-1.6-0.3   c-0.6,0-1.2,0.1-1.8,0.4c-0.5,0.2-1,0.5-1.4,0.9c-0.4,0.4-0.7,0.9-0.9,1.4c-0.2,0.6-0.3,1.1-0.3,1.7c0,0.7,0.1,1.4,0.3,2.1   c0.2,0.6,0.5,1.1,0.9,1.5c0.4,0.4,0.9,0.7,1.4,0.9c0.6,0.2,1.2,0.3,1.8,0.3c0.3,0,0.7,0,1-0.1c0.3,0,0.7-0.1,1-0.2   c0.3-0.1,0.6-0.3,0.9-0.5c0.3-0.2,0.6-0.4,0.8-0.7l-0.6-0.8c-0.1-0.1-0.2-0.2-0.4-0.2c-0.1,0-0.3,0-0.4,0.1l-0.5,0.3   c-0.2,0.1-0.4,0.2-0.7,0.3c-0.3,0.1-0.6,0.1-0.9,0.1c-0.3,0-0.7,0-1-0.2c-0.3-0.1-0.5-0.3-0.8-0.5c-0.2-0.2-0.4-0.5-0.5-0.8   c-0.1-0.4-0.2-0.8-0.2-1.2L509.9,289.5z"/>
	<path class="st0" d="M397.1,310.7c-0.1,0.1-0.3,0.2-0.5,0.4c-0.2,0.1-0.3,0.2-0.5,0.2c-0.2,0.1-0.4,0.1-0.6,0.1c-0.2,0-0.5,0-0.7,0   c-0.4,0-0.8-0.1-1.2-0.2c-0.4-0.1-0.7-0.4-1-0.7c-0.3-0.3-0.5-0.7-0.6-1.1c-0.2-0.5-0.2-1-0.2-1.5c0-0.5,0.1-1,0.2-1.4   c0.1-0.4,0.3-0.8,0.6-1.1c0.3-0.3,0.6-0.5,1-0.7c0.4-0.2,0.8-0.2,1.2-0.2c0.3,0,0.6,0,0.9,0.1c0.4,0.1,0.7,0.3,1,0.5   c0.1,0.1,0.2,0.1,0.3,0.1c0,0,0.1,0,0.1,0c0,0,0.1-0.1,0.1-0.1l0.4-0.5c-0.4-0.3-0.8-0.6-1.2-0.8c-0.5-0.2-1.1-0.3-1.6-0.3   c-0.6,0-1.2,0.1-1.7,0.3c-0.5,0.2-1,0.5-1.3,0.9c-0.4,0.4-0.7,0.9-0.9,1.4c-0.2,0.6-0.3,1.2-0.3,1.8c0,0.6,0.1,1.2,0.3,1.8   c0.2,0.5,0.5,1,0.8,1.4c0.4,0.4,0.8,0.7,1.3,0.9c0.5,0.2,1.1,0.3,1.7,0.3c0.6,0,1.3-0.1,1.8-0.3c0.5-0.2,0.9-0.6,1.3-1l-0.5-0.5   c0,0-0.1-0.1-0.2-0.1C397.2,310.6,397.1,310.6,397.1,310.7 M403.9,306.3c-0.4,0.1-0.7,0.4-0.9,0.6c-0.3,0.3-0.5,0.6-0.6,1   c-0.1,0.4-0.2,0.9-0.2,1.3c0,0.4,0.1,0.9,0.2,1.3c0.1,0.4,0.3,0.7,0.6,1c0.3,0.3,0.6,0.5,0.9,0.6c0.4,0.2,0.8,0.2,1.2,0.2   c0.4,0,0.8-0.1,1.2-0.2c0.3-0.1,0.7-0.4,0.9-0.6c0.3-0.3,0.5-0.6,0.6-1c0.1-0.4,0.2-0.9,0.2-1.3c0-0.4-0.1-0.9-0.2-1.3   c-0.1-0.4-0.3-0.7-0.6-1c-0.3-0.3-0.6-0.5-0.9-0.6c-0.4-0.2-0.8-0.2-1.2-0.2C404.7,306.1,404.3,306.2,403.9,306.3 M403.7,311   c-0.3-0.5-0.5-1.1-0.5-1.7c0-0.3,0-0.7,0.1-1c0.1-0.3,0.2-0.5,0.3-0.7c0.1-0.2,0.3-0.4,0.6-0.5c0.3-0.1,0.5-0.2,0.8-0.1   c0.5,0,1,0.2,1.3,0.6c0.6,1.1,0.6,2.3,0,3.4c-0.3,0.4-0.8,0.6-1.3,0.6C404.6,311.6,404,311.4,403.7,311 M417,306.2v4.5   c-0.2,0.3-0.5,0.5-0.8,0.6c-0.3,0.1-0.6,0.2-0.9,0.2c-0.4,0-0.7-0.1-1-0.4c-0.2-0.3-0.3-0.7-0.3-1.1v-3.9h-1.1v3.9   c0,0.3,0,0.6,0.1,0.9c0.1,0.3,0.2,0.5,0.4,0.7c0.2,0.2,0.4,0.4,0.6,0.5c0.3,0.1,0.6,0.2,0.9,0.2c0.4,0,0.8-0.1,1.1-0.3   c0.3-0.2,0.6-0.4,0.9-0.7l0.1,0.7c0,0.1,0.1,0.2,0.3,0.2h0.6v-6.1L417,306.2z M424.3,306.4c0-0.1-0.1-0.2-0.3-0.2h-0.6v6.1h1.1   v-4.5c0.2-0.2,0.5-0.5,0.8-0.6c0.3-0.2,0.6-0.2,0.9-0.2c0.4,0,0.7,0.1,1,0.4c0.2,0.3,0.3,0.7,0.3,1.1v3.9h1.1v-3.9   c0-0.3,0-0.7-0.1-1c-0.1-0.3-0.2-0.5-0.4-0.7c-0.2-0.2-0.4-0.4-0.6-0.5c-0.3-0.1-0.6-0.2-0.9-0.2c-0.2,0-0.4,0-0.6,0.1   c-0.2,0-0.4,0.1-0.5,0.2c-0.2,0.1-0.3,0.2-0.5,0.3c-0.1,0.1-0.3,0.3-0.4,0.4L424.3,306.4L424.3,306.4z M438.3,306.9   c-0.3-0.3-0.6-0.5-0.9-0.6c-0.4-0.1-0.7-0.2-1.1-0.2c-0.4,0-0.8,0.1-1.2,0.2c-0.3,0.1-0.7,0.4-0.9,0.7c-0.3,0.3-0.4,0.6-0.6,1   c-0.1,0.4-0.2,0.8-0.2,1.3c0,0.5,0.1,0.9,0.2,1.3c0.1,0.4,0.3,0.7,0.6,1c0.2,0.3,0.5,0.5,0.9,0.6c0.3,0.1,0.7,0.2,1.1,0.2   c0.2,0,0.4,0,0.6,0c0.2,0,0.4-0.1,0.6-0.2c0.2-0.1,0.4-0.2,0.5-0.3c0.2-0.1,0.3-0.3,0.5-0.4l-0.3-0.4c-0.1-0.1-0.1-0.1-0.2-0.1   c-0.1,0-0.2,0-0.2,0.1c-0.1,0.1-0.2,0.1-0.3,0.2c-0.1,0.1-0.3,0.2-0.4,0.2c-0.2,0.1-0.4,0.1-0.6,0.1c-0.3,0-0.5-0.1-0.8-0.2   c-0.2-0.1-0.4-0.3-0.6-0.5c-0.2-0.2-0.3-0.5-0.4-0.7c-0.1-0.3-0.1-0.7-0.1-1c0-0.3,0-0.7,0.1-1c0.1-0.3,0.2-0.5,0.4-0.7   c0.2-0.2,0.4-0.4,0.6-0.5c0.3-0.1,0.5-0.2,0.8-0.2c0.2,0,0.4,0,0.6,0.1c0.1,0,0.3,0.1,0.4,0.2l0.3,0.2c0.1,0,0.1,0.1,0.2,0.1   c0,0,0.1,0,0.1,0c0,0,0.1-0.1,0.1-0.1L438.3,306.9L438.3,306.9z M443.2,312.3h1.1v-6.1h-1.1V312.3z M444.5,304   c0-0.1-0.1-0.2-0.2-0.2c-0.1-0.1-0.2-0.1-0.2-0.2c-0.1,0-0.2-0.1-0.3-0.1c-0.1,0-0.2,0-0.3,0.1c-0.1,0-0.2,0.1-0.2,0.2   c-0.1,0.1-0.1,0.2-0.2,0.2c0,0.1-0.1,0.2-0.1,0.3c0,0.1,0,0.2,0.1,0.3c0,0.1,0.1,0.2,0.2,0.2c0.1,0.1,0.2,0.1,0.2,0.2   c0.1,0,0.2,0.1,0.3,0.1c0.1,0,0.2,0,0.3-0.1c0.1,0,0.2-0.1,0.2-0.2c0.1-0.1,0.1-0.2,0.2-0.2c0-0.1,0.1-0.2,0.1-0.3   C444.5,304.2,444.5,304,444.5,304 M449.7,312.3h1.1v-8.9h-1.1V312.3z"/>
	<path class="st0" d="M380.6,308.5h-48.6c-0.3,0-0.5-0.2-0.5-0.5l0,0c0-0.3,0.2-0.5,0.5-0.5c0,0,0,0,0,0h48.6V308.5L380.6,308.5z"/>
	<path class="st0" d="M461.3,308.5h48.6c0.3,0,0.5-0.2,0.5-0.5c0,0,0,0,0,0c0-0.3-0.2-0.5-0.5-0.5c0,0,0,0,0,0h-48.6V308.5   L461.3,308.5z"/>
	<path class="st0" d="M474.2,250.9c1.3-1.4,1.8-1.5,3.3-1c0.2,0.1,0.8,0.2,0.9-0.8c0-0.3-0.6-1.9-0.1-2.9c0.5-1-0.7-0.2-0.7-0.2   s-0.8,0.3-1.1,2.1c-1.4-0.1-2.6,0.8-2.9,2.1C473.5,250.8,473.9,251.4,474.2,250.9"/>
	<path class="st0" d="M393.6,266.9c0.2,0.2,0.5,0.1,0.7-0.1s0.1-0.5-0.1-0.7l0,0l-10.4-8.5c-0.2-0.2-0.5-0.1-0.7,0.1c0,0,0,0,0,0   c-0.2,0.2-0.1,0.5,0.1,0.7L393.6,266.9z"/>
	<path class="st0" d="M360.6,267.1c0.2,0.1,0.4,0.1,0.5-0.1s0.1-0.4-0.1-0.5l0,0l-7.3-5.9c-0.1-0.2-0.4-0.2-0.5-0.1   c-0.2,0.1-0.2,0.4-0.1,0.5c0,0,0.1,0.1,0.1,0.1L360.6,267.1z"/>
	<path class="st0" d="M387.3,268c-3.6,0-5.7,0-5.9,0v-7.7l9.3,7.7L387.3,268 M352.2,268v-5.5l6.6,5.5H352.2z M509.9,268   c0,0-3.9,0.1-15.4-1.3l0.1-3.1c0.4-0.3,0.9-0.4,1.4-0.2c1.4,0.4,5.6-1.7,2.3-5.1l-0.1-0.2c2-0.5,4.5-4.8-1-6.3   c1.4-4-2.9-3.6-2.9-3.6c-0.3,0.1-0.7,0.4-0.1,0.5c0.4,0,3.5,1.1,1,3.6c-0.6,0.7-0.4,0.9,0.1,0.8c3.8-0.7,4.6,4.2,0.8,4.5   c-0.4,0-1,0.1-0.4,0.5c3.7,2.5,0.6,4.5-0.5,4c-0.8-0.4-1.4,0.2-1.6,0.4s-0.3,0.5-0.5,0.1c-0.2-0.7-1.1-0.6-1.9-0.5   c-1.6,0.2-1.8-0.4-1.9-0.8s-1.4-0.8-1.1,0.6c0.1,1.2,1.2,2,2.4,1.9c0.3,0,0.6-0.1,0.8-0.3c0.8-0.5,1.1,0.1,1.1,0.1l-0.1,3.1   c-1.5-0.2-3-0.4-4.2-0.6l-5.8-0.9v-2.9c0,0,0-1.4,2.6-1.3c4.9,0.3,3.8-4.2,1.7-5.3c-0.3-0.1,0-0.2,0-0.2c4.4-2.8,3-6.7-0.4-7.5   c0,0,1.1-2.8-2.6-3.3c-1-0.1-0.9,0.8-0.5,0.9c0.6,0.2,2.9,1.1,0.7,3.2c-1,0.9-0.4,1,0.2,0.9c2.3-0.3,5.6,2.3,0.7,5.1   c0,0-2.5,0.9-0.2,1c0.8,0,3.9,3.5-0.7,3.4c-2.9-0.1-2.3,2-2.9,0.9c-0.8-1.7-1.9-1.8-3.3-1.7c-3.1,0-2.6-2.8-2.1-3.2   s0.1-1.1-0.8-0.3c-1.7,1.6-1.4,7.1,3.6,5.4c0.6-0.2,1.2,0.1,1.4,0.7c0,0.1,0.1,0.2,0.1,0.3c0,0.8,0,2.8,0,3.5   c-20.7-3.1-20.6-1.7-35.5,0.5c-3,0.6-6,0.8-9.1,0.6c-23.6-1.9-30.3,1.6-34,1.8l-9.1,0.5l-12.7-10.6v-0.8h-2V268h-12.3l11.6-9.6   c0.2-0.1,0.3-0.5,0.2-0.7c-0.1-0.2-0.5-0.3-0.7-0.2c0,0-0.1,0.1-0.1,0.1L363.7,268H360l-9.3-7.6v-0.5h-1.4v8.1h-9l8.4-6.9   c0.2-0.1,0.2-0.4,0.1-0.5c-0.1-0.2-0.4-0.2-0.5-0.1l-9.1,7.5h-7.2c-0.3,0.1-0.5,0.3-0.4,0.6c0,0.2,0.2,0.4,0.4,0.4h17.4v3.7h2.8   V269h25.4v3.7h3.8V269c0,0,27.9-0.4,55.1,1.6c17,1.3,27.1-0.4,37.7-1.4c6.6-0.6,29.6,0.6,35.4-0.1c0.2,0,0.3-0.1,0.5-0.1   c0.1,0,0.2-0.1,0.2-0.1c0.1-0.1,0.1-0.2,0.1-0.3l0,0C510.4,268.3,510.2,268.1,509.9,268C509.9,268,509.9,268,509.9,268"/>
</g>
</svg>